<?xml version="1.0" encoding="utf-8"?>
<!-- Generator: Adobe Illustrator 27.6.1, SVG Export Plug-In . SVG Version: 6.00 Build 0)  -->
<svg version="1.1"
	 id="圖層_1" xmlns:x="&ns_extend;" xmlns:i="&ns_ai;" xmlns:graph="&ns_graphs;" image-rendering="optimizeQuality" text-rendering="geometricPrecision" shape-rendering="geometricPrecision" xmlns:xodm="http://www.corel.com/coreldraw/odm/2003"
	 xmlns="http://www.w3.org/2000/svg" xmlns:xlink="http://www.w3.org/1999/xlink" x="0px" y="0px" viewBox="0 0 768 768"
	 style="enable-background:new 0 0 768 768;" xml:space="preserve">
<style type="text/css">
	.sdb0{fill:none;}
	.st1{fill:#FFFFFF;}
	.st2{clip-path:url(#SVGID_00000168084981457132618130000001902592016824717207_);}
	.st3{fill:#E4F7FE;}
	.st4{fill:#ACC6FE;}
	.st5{fill:#BDE6FE;}
	.st6{fill:#FFFFFF;filter:url(#Adobe_OpacityMaskFilter);}
	.st7{mask:url(#mask0_472_9766_00000049185080571714088670000014592322763091505855_);}
	.st8{fill:none;stroke:#FFFFFF;stroke-width:4.1642;stroke-miterlimit:10;}
	.st9{fill:#FFFFFF;filter:url(#Adobe_OpacityMaskFilter_00000049909527489237120240000011911277600735043219_);}
	.st10{mask:url(#mask1_472_9766_00000064317530321039181150000005349591894498705034_);}
	.st11{fill:#FFFFFF;filter:url(#Adobe_OpacityMaskFilter_00000042723196064314548330000016391379435867719863_);}
	.st12{mask:url(#mask2_472_9766_00000144306580670062826790000001725836510118278076_);}
	.st13{fill:none;stroke:#2977EC;stroke-width:20.820;stroke-miterlimit:10;}
</style>
<switch>
	<g i:extraneous="self">
		<rect x="-15.7" class="sdb0" width="768" height="768"/>
		<g>
			<path class="st1" d="M384,770.2c212.1,0,384-171.9,384-384S596.1,2.2,384,2.2S0,174.2,0,386.2S171.9,770.2,384,770.2z"/>
			<g>
				<g>
					<defs>
						<rect id="SVGID_1_" x="97.5" y="69.5" width="651.7" height="672.5"/>
					</defs>
					<clipPath id="SVGID_00000131345114793051045680000012825427685796184990_">
						<use xlink:href="#SVGID_1_"  style="overflow:visible;"/>
					</clipPath>
					<g style="clip-path:url(#SVGID_00000131345114793051045680000012825427685796184990_);">
						<path class="st3" d="M664.4,237.7c-3.3-1.9-6.8-3.6-10.6-5L258.4,88.8c-80.3-29.2-162.2,39.5-147.4,123.6l1.1,0.2
							c0.3-41.8,42.4-73,83.8-57.9l368.2,134c12.1,4.4,14.8,20.2,5,28.4L333.6,515l11.7,66.3c2.2,12.6,17.3,18.1,27.1,9.9
							l300.2-251.9C706.3,311,700.4,258.9,664.4,237.7L664.4,237.7z"/>
						<path class="st4" d="M665.1,236.8l-0.7,0.9c36,21.2,42,73.2,8.2,101.6L372.4,591.2c-9.8,8.2-24.9,2.8-27.1-9.9L333.6,515
							l-41.8-236.8l-63.3-23c-12.1-4.4-24.3,5.9-22.1,18.6l68,385.9c7.6,43.4,55.8,64.3,92.1,43.7c3.3-1.9,6.5-4.1,9.6-6.7
							l322.3-270.4C763.9,371.3,745.4,266.1,665.1,236.8L665.1,236.8z"/>
						<path class="st5" d="M196,154.7c-41.4-15.1-83.6,16.1-83.8,57.9c0,3.8,0.3,7.7,1,11.6l73.1,414.4c3.6,20.4,12.2,37.9,24,52.1
							c37.3,44.4,107,55.4,156.7,13.7l-0.4-1.1c-36.3,20.6-84.5-0.3-92.1-43.7l-68-385.9c-2.2-12.6,10.1-22.9,22.1-18.6l63.3,23
							l225.9,82.2l51.6-43.3c9.8-8.2,7-24-5-28.4L196,154.7L196,154.7z"/>
						<defs>
							<filter id="Adobe_OpacityMaskFilter" filterUnits="userSpaceOnUse" x="151.7" y="236.8" width="642" height="474.6">
								<feColorMatrix  type="matrix" values="1 0 0 0 0  0 1 0 0 0  0 0 1 0 0  0 0 0 1 0"/>
							</filter>
						</defs>

							<mask maskUnits="userSpaceOnUse" x="151.7" y="236.8" width="642" height="474.6" id="mask0_472_9766_00000049185080571714088670000014592322763091505855_">
							<path class="st6" d="M665.1,236.8l-0.7,0.9c36,21.2,42,73.2,8.2,101.6L372.4,591.1c-9.8,8.2-24.9,2.8-27.1-9.9L333.6,515
								l-41.8-236.8l-63.3-23c-12.1-4.4-24.3,5.9-22.1,18.6l68,385.9c7.6,43.4,55.8,64.3,92.1,43.7c3.3-1.9,6.5-4.1,9.6-6.7
								l322.3-270.4C763.9,371.3,745.4,266.1,665.1,236.8L665.1,236.8z"/>
						</mask>
						<g class="st7">
							<path class="st4" d="M665.1,236.8l-0.7,0.9c36,21.2,42,73.2,8.2,101.6L372.4,591.1c-9.8,8.2-24.9,2.8-27.1-9.9l-11.7-66.3
								l-41.8-236.8l-63.3-23c-12.1-4.4-24.3,5.9-22.1,18.6l68,385.9c7.6,43.4,55.8,64.3,92.1,43.7c3.3-1.9,6.5-4.1,9.6-6.7
								l322.3-270.4C763.9,371.3,745.4,266,665.1,236.8L665.1,236.8z"/>
							<path class="st8" d="M151.7,271.1c24.7,0,24.7,16.7,49.4,16.7c24.7,0,24.7-16.7,49.4-16.7c24.7,0,24.7,16.7,49.4,16.7
								c24.7,0,24.7-16.7,49.4-16.7c24.7,0,24.7,16.7,49.4,16.7c24.7,0,24.7-16.7,49.4-16.7c24.7,0,24.7,16.7,49.4,16.7
								c24.7,0,24.7-16.7,49.4-16.7c24.7,0,24.7,16.7,49.4,16.7c24.7,0,24.7-16.7,49.4-16.7c24.7,0,24.7,16.7,49.4,16.7
								c24.7,0,24.7-16.7,49.4-16.7c24.7,0,24.7,16.7,49.4,16.7"/>
							<path class="st8" d="M151.7,298.4c24.7,0,24.7,16.7,49.4,16.7c24.7,0,24.7-16.7,49.4-16.7c24.7,0,24.7,16.7,49.4,16.7
								c24.7,0,24.7-16.7,49.4-16.7c24.7,0,24.7,16.7,49.4,16.7c24.7,0,24.7-16.7,49.4-16.7c24.7,0,24.7,16.7,49.4,16.7
								c24.7,0,24.7-16.7,49.4-16.7c24.7,0,24.7,16.7,49.4,16.7c24.7,0,24.7-16.7,49.4-16.7c24.7,0,24.7,16.7,49.4,16.7
								c24.7,0,24.7-16.7,49.4-16.7c24.7,0,24.7,16.7,49.4,16.7"/>
							<path class="st8" d="M151.7,325.9c24.7,0,24.7,16.7,49.4,16.7c24.7,0,24.7-16.7,49.4-16.7c24.7,0,24.7,16.7,49.4,16.7
								c24.7,0,24.7-16.7,49.4-16.7c24.7,0,24.7,16.7,49.4,16.7c24.7,0,24.7-16.7,49.4-16.7c24.7,0,24.7,16.7,49.4,16.7
								c24.7,0,24.7-16.7,49.4-16.7c24.7,0,24.7,16.7,49.4,16.7c24.7,0,24.7-16.7,49.4-16.7c24.7,0,24.7,16.7,49.4,16.7
								c24.7,0,24.7-16.7,49.4-16.7c24.7,0,24.7,16.7,49.4,16.7"/>
							<path class="st8" d="M151.7,353.2c24.7,0,24.7,16.7,49.4,16.7c24.7,0,24.7-16.7,49.4-16.7c24.7,0,24.7,16.7,49.4,16.7
								c24.7,0,24.7-16.7,49.4-16.7c24.7,0,24.7,16.7,49.4,16.7c24.7,0,24.7-16.7,49.4-16.7c24.7,0,24.7,16.7,49.4,16.7
								c24.7,0,24.7-16.7,49.4-16.7c24.7,0,24.7,16.7,49.4,16.7c24.7,0,24.7-16.7,49.4-16.7c24.7,0,24.7,16.7,49.4,16.7
								c24.7,0,24.7-16.7,49.4-16.7c24.7,0,24.7,16.7,49.4,16.7"/>
							<path class="st8" d="M151.7,380.6c24.7,0,24.7,16.7,49.4,16.7c24.7,0,24.7-16.7,49.4-16.7c24.7,0,24.7,16.7,49.4,16.7
								c24.7,0,24.7-16.7,49.4-16.7c24.7,0,24.7,16.7,49.4,16.7c24.7,0,24.7-16.7,49.4-16.7c24.7,0,24.7,16.7,49.4,16.7
								c24.7,0,24.7-16.7,49.4-16.7c24.7,0,24.7,16.7,49.4,16.7c24.7,0,24.7-16.7,49.4-16.7c24.7,0,24.7,16.7,49.4,16.7
								c24.7,0,24.7-16.7,49.4-16.7c24.7,0,24.7,16.7,49.4,16.7"/>
							<path class="st8" d="M151.7,408c24.7,0,24.7,16.7,49.4,16.7c24.7,0,24.7-16.7,49.4-16.7c24.7,0,24.7,16.7,49.4,16.7
								c24.7,0,24.7-16.7,49.4-16.7c24.7,0,24.7,16.7,49.4,16.7c24.7,0,24.7-16.7,49.4-16.7c24.7,0,24.7,16.7,49.4,16.7
								c24.7,0,24.7-16.7,49.4-16.7c24.7,0,24.7,16.7,49.4,16.7c24.7,0,24.7-16.7,49.4-16.7c24.7,0,24.7,16.7,49.4,16.7
								c24.7,0,24.7-16.7,49.4-16.7c24.7,0,24.7,16.7,49.4,16.7"/>
							<path class="st8" d="M151.7,435.4c24.7,0,24.7,16.7,49.4,16.7c24.7,0,24.7-16.7,49.4-16.7c24.7,0,24.7,16.7,49.4,16.7
								c24.7,0,24.7-16.7,49.4-16.7c24.7,0,24.7,16.7,49.4,16.7c24.7,0,24.7-16.7,49.4-16.7c24.7,0,24.7,16.7,49.4,16.7
								c24.7,0,24.7-16.7,49.4-16.7c24.7,0,24.7,16.7,49.4,16.7c24.7,0,24.7-16.7,49.4-16.7c24.7,0,24.7,16.7,49.4,16.7
								c24.7,0,24.7-16.7,49.4-16.7c24.7,0,24.7,16.7,49.4,16.7"/>
							<path class="st8" d="M151.7,462.8c24.7,0,24.7,16.7,49.4,16.7c24.7,0,24.7-16.7,49.4-16.7c24.7,0,24.7,16.7,49.4,16.7
								c24.7,0,24.7-16.7,49.4-16.7c24.7,0,24.7,16.7,49.4,16.7c24.7,0,24.7-16.7,49.4-16.7c24.7,0,24.7,16.7,49.4,16.7
								c24.7,0,24.7-16.7,49.4-16.7c24.7,0,24.7,16.7,49.4,16.7c24.7,0,24.7-16.7,49.4-16.7c24.7,0,24.7,16.7,49.4,16.7
								c24.7,0,24.7-16.7,49.4-16.7c24.7,0,24.7,16.7,49.4,16.7"/>
							<path class="st8" d="M151.7,490.2c24.7,0,24.7,16.7,49.4,16.7c24.7,0,24.7-16.7,49.4-16.7c24.7,0,24.7,16.7,49.4,16.7
								c24.7,0,24.7-16.7,49.4-16.7c24.7,0,24.7,16.7,49.4,16.7c24.7,0,24.7-16.7,49.4-16.7c24.7,0,24.7,16.7,49.4,16.7
								c24.7,0,24.7-16.7,49.4-16.7c24.7,0,24.7,16.7,49.4,16.7c24.7,0,24.7-16.7,49.4-16.7c24.7,0,24.7,16.7,49.4,16.7
								c24.7,0,24.7-16.7,49.4-16.7c24.7,0,24.7,16.7,49.4,16.7"/>
							<path class="st8" d="M151.7,517.6c24.7,0,24.7,16.7,49.4,16.7c24.7,0,24.7-16.7,49.4-16.7c24.7,0,24.7,16.7,49.4,16.7
								c24.7,0,24.7-16.7,49.4-16.7c24.7,0,24.7,16.7,49.4,16.7c24.7,0,24.7-16.7,49.4-16.7c24.7,0,24.7,16.7,49.4,16.7
								c24.7,0,24.7-16.7,49.4-16.7c24.7,0,24.7,16.7,49.4,16.7c24.7,0,24.7-16.7,49.4-16.7c24.7,0,24.7,16.7,49.4,16.7
								c24.7,0,24.7-16.7,49.4-16.7c24.7,0,24.7,16.7,49.4,16.7"/>
							<path class="st8" d="M151.7,545c24.7,0,24.7,16.7,49.4,16.7c24.7,0,24.7-16.7,49.4-16.7c24.7,0,24.7,16.7,49.4,16.7
								c24.7,0,24.7-16.7,49.4-16.7c24.7,0,24.7,16.7,49.4,16.7c24.7,0,24.7-16.7,49.4-16.7c24.7,0,24.7,16.7,49.4,16.7
								c24.7,0,24.7-16.7,49.4-16.7c24.7,0,24.7,16.7,49.4,16.7c24.7,0,24.7-16.7,49.4-16.7c24.7,0,24.7,16.7,49.4,16.7
								c24.7,0,24.7-16.7,49.4-16.7c24.7,0,24.7,16.7,49.4,16.7"/>
							<path class="st8" d="M151.7,572.4c24.7,0,24.7,16.7,49.4,16.7c24.7,0,24.7-16.7,49.4-16.7c24.7,0,24.7,16.7,49.4,16.7
								c24.7,0,24.7-16.7,49.4-16.7c24.7,0,24.7,16.7,49.4,16.7c24.7,0,24.7-16.7,49.4-16.7c24.7,0,24.7,16.7,49.4,16.7
								c24.7,0,24.7-16.7,49.4-16.7c24.7,0,24.7,16.7,49.4,16.7c24.7,0,24.7-16.7,49.4-16.7c24.7,0,24.7,16.7,49.4,16.7
								c24.7,0,24.7-16.7,49.4-16.7c24.7,0,24.7,16.7,49.4,16.7"/>
							<path class="st8" d="M151.7,599.8c24.7,0,24.7,16.7,49.4,16.7c24.7,0,24.7-16.7,49.4-16.7c24.7,0,24.7,16.7,49.4,16.7
								c24.7,0,24.7-16.7,49.4-16.7c24.7,0,24.7,16.7,49.4,16.7c24.7,0,24.7-16.7,49.4-16.7c24.7,0,24.7,16.7,49.4,16.7
								c24.7,0,24.7-16.7,49.4-16.7c24.7,0,24.7,16.7,49.4,16.7c24.7,0,24.7-16.7,49.4-16.7c24.7,0,24.7,16.7,49.4,16.7
								c24.7,0,24.7-16.7,49.4-16.7c24.7,0,24.7,16.7,49.4,16.7"/>
							<path class="st8" d="M151.7,627.2c24.7,0,24.7,16.7,49.4,16.7c24.7,0,24.7-16.7,49.4-16.7c24.7,0,24.7,16.7,49.4,16.7
								c24.7,0,24.7-16.7,49.4-16.7c24.7,0,24.7,16.7,49.4,16.7c24.7,0,24.7-16.7,49.4-16.7c24.7,0,24.7,16.7,49.4,16.7
								c24.7,0,24.7-16.7,49.4-16.7c24.7,0,24.7,16.7,49.4,16.7c24.7,0,24.7-16.7,49.4-16.7c24.7,0,24.7,16.7,49.4,16.7
								c24.7,0,24.7-16.7,49.4-16.7c24.7,0,24.7,16.7,49.4,16.7"/>
							<path class="st8" d="M151.7,654.6c24.7,0,24.7,16.7,49.4,16.7c24.7,0,24.7-16.7,49.4-16.7c24.7,0,24.7,16.7,49.4,16.7
								c24.7,0,24.7-16.7,49.4-16.7c24.7,0,24.7,16.7,49.4,16.7c24.7,0,24.7-16.7,49.4-16.7c24.7,0,24.7,16.7,49.4,16.7
								c24.7,0,24.7-16.7,49.4-16.7c24.7,0,24.7,16.7,49.4,16.7c24.7,0,24.7-16.7,49.4-16.7c24.7,0,24.7,16.7,49.4,16.7
								c24.7,0,24.7-16.7,49.4-16.7c24.7,0,24.7,16.7,49.4,16.7"/>
							<path class="st8" d="M151.7,682c24.7,0,24.7,16.7,49.4,16.7c24.7,0,24.7-16.7,49.4-16.7c24.7,0,24.7,16.7,49.4,16.7
								c24.7,0,24.7-16.7,49.4-16.7c24.7,0,24.7,16.7,49.4,16.7c24.7,0,24.7-16.7,49.4-16.7c24.7,0,24.7,16.7,49.4,16.7
								c24.7,0,24.7-16.7,49.4-16.7c24.7,0,24.7,16.7,49.4,16.7c24.7,0,24.7-16.7,49.4-16.7c24.7,0,24.7,16.7,49.4,16.7
								c24.7,0,24.7-16.7,49.4-16.7c24.7,0,24.7,16.7,49.4,16.7"/>
						</g>
						<defs>

								<filter id="Adobe_OpacityMaskFilter_00000056396243607741465980000018332335260374088859_" filterUnits="userSpaceOnUse" x="-99.1" y="36.1" width="694.9" height="755.2">
								<feColorMatrix  type="matrix" values="1 0 0 0 0  0 1 0 0 0  0 0 1 0 0  0 0 0 1 0"/>
							</filter>
						</defs>

							<mask maskUnits="userSpaceOnUse" x="-99.1" y="36.1" width="694.9" height="755.2" id="mask1_472_9766_00000064317530321039181150000005349591894498705034_">
							<path style="fill:#FFFFFF;filter:url(#Adobe_OpacityMaskFilter_00000056396243607741465980000018332335260374088859_);" d="
								M367,704.3l-0.4-1.1c-36.4,20.6-84.4-0.3-92.1-43.7l-68-385.9c-2.2-12.6,10.1-22.9,22.1-18.6l63.3,23l225.9,82.2l51.6-43.3
								c9.8-8.2,7-24-5-28.4l-368.3-134c-41.4-15.1-83.6,16.2-83.9,57.9c0,3.8,0.3,7.7,1,11.6l73.1,414.3
								C201.1,722.7,301.5,759.3,367,704.3L367,704.3z"/>
						</mask>
						<g class="st10">
							<path class="st5" d="M367,704.4l-0.4-1.1c-36.4,20.6-84.4-0.3-92.1-43.7l-68-385.9c-2.2-12.6,10.1-22.9,22.1-18.6l63.3,23
								l225.9,82.2l51.6-43.3c9.8-8.2,7-24-5-28.4l-368.3-134c-41.4-15.1-83.6,16.2-83.9,57.9c0,3.8,0.3,7.7,1,11.6l73.1,414.3
								C201.1,722.8,301.5,759.3,367,704.4L367,704.4z"/>
							<path class="st8" d="M594,242.6c-12.3,21.4-26.8,13.1-39.1,34.4c-12.3,21.4,2.1,29.7-10.3,51.1
								c-12.3,21.4-26.8,13.1-39.1,34.4c-12.3,21.4,2.1,29.7-10.3,51.1c-12.3,21.4-26.8,13.1-39.1,34.4
								c-12.3,21.4,2.1,29.7-10.3,51.1c-12.3,21.4-26.8,13.1-39.1,34.4c-12.3,21.4,2.1,29.7-10.3,51.1s-26.8,13.1-39.1,34.4
								c-12.3,21.4,2.1,29.7-10.3,51.1c-12.3,21.4-26.8,13.1-39.1,34.4c-12.3,21.4,2.1,29.7-10.3,51.1
								c-12.3,21.4-26.8,13.1-39.1,34.4"/>
							<path class="st8" d="M570.3,228.9c-12.3,21.4-26.8,13.1-39.1,34.4c-12.3,21.4,2.1,29.7-10.3,51.1
								c-12.3,21.4-26.8,13.1-39.1,34.4c-12.3,21.4,2.1,29.7-10.3,51.1s-26.8,13.1-39.1,34.4c-12.3,21.4,2.1,29.7-10.3,51.1
								c-12.3,21.4-26.8,13.1-39.1,34.4c-12.3,21.4,2.1,29.7-10.3,51.1c-12.3,21.4-26.8,13.1-39.1,34.4
								c-12.3,21.4,2.1,29.7-10.3,51.1c-12.3,21.4-26.8,13.1-39.1,34.4c-12.3,21.4,2.1,29.7-10.3,51.1
								c-12.3,21.4-26.8,13.1-39.1,34.4"/>
							<path class="st8" d="M546.5,215.2c-12.3,21.4-26.8,13.1-39.1,34.4c-12.3,21.4,2.1,29.7-10.3,51.1
								c-12.3,21.4-26.8,13.1-39.1,34.4c-12.3,21.4,2.1,29.7-10.3,51.1c-12.3,21.4-26.8,13.1-39.1,34.4
								c-12.3,21.4,2.1,29.7-10.3,51.1c-12.3,21.4-26.8,13.1-39.1,34.4c-12.3,21.4,2.1,29.7-10.3,51.1
								c-12.3,21.4-26.8,13.1-39.1,34.4c-12.3,21.4,2.1,29.7-10.3,51.1c-12.3,21.4-26.8,13.1-39.1,34.4
								c-12.3,21.4,2.1,29.7-10.3,51.1c-12.3,21.4-26.8,13.1-39.1,34.4"/>
							<path class="st8" d="M522.8,201.5c-12.3,21.4-26.8,13.1-39.1,34.4c-12.3,21.4,2.1,29.7-10.3,51.1
								c-12.3,21.4-26.8,13.1-39.1,34.4c-12.3,21.4,2.1,29.7-10.3,51.1c-12.3,21.4-26.8,13.1-39.1,34.4
								c-12.3,21.4,2.1,29.7-10.3,51.1c-12.3,21.4-26.8,13.1-39.1,34.4c-12.3,21.4,2.1,29.7-10.3,51.1
								c-12.3,21.4-26.8,13.1-39.1,34.4s2.1,29.7-10.3,51.1c-12.3,21.4-26.8,13.1-39.1,34.4c-12.3,21.4,2.1,29.7-10.3,51.1
								c-12.3,21.4-26.8,13.1-39.1,34.4"/>
							<path class="st8" d="M499.1,187.8c-12.3,21.4-26.8,13.1-39.1,34.4c-12.3,21.4,2.1,29.7-10.3,51.1
								c-12.3,21.4-26.8,13.1-39.1,34.4c-12.3,21.4,2.1,29.7-10.3,51.1c-12.3,21.4-26.8,13.1-39.1,34.4
								c-12.3,21.4,2.1,29.7-10.3,51.1c-12.3,21.4-26.8,13.1-39.1,34.4c-12.3,21.4,2.1,29.7-10.3,51.1
								c-12.3,21.4-26.8,13.1-39.1,34.4c-12.3,21.4,2.1,29.7-10.3,51.1c-12.3,21.4-26.8,13.1-39.1,34.4
								c-12.3,21.4,2.1,29.7-10.3,51.1c-12.3,21.4-26.8,13.1-39.1,34.4"/>
							<path class="st8" d="M475.4,174.1c-12.3,21.4-26.8,13.1-39.1,34.4c-12.3,21.4,2.1,29.7-10.3,51.1
								c-12.3,21.4-26.8,13.1-39.1,34.4c-12.3,21.4,2.1,29.7-10.3,51.1c-12.3,21.4-26.8,13.1-39.1,34.4
								c-12.3,21.4,2.1,29.7-10.3,51.1c-12.3,21.4-26.8,13.1-39.1,34.4s2.1,29.7-10.3,51.1c-12.3,21.4-26.8,13.1-39.1,34.4
								c-12.3,21.4,2.1,29.7-10.3,51.1c-12.3,21.4-26.8,13.1-39.1,34.4c-12.3,21.4,2.1,29.7-10.3,51.1
								c-12.3,21.4-26.8,13.1-39.1,34.4"/>
							<path class="st8" d="M451.6,160.4c-12.3,21.4-26.8,13.1-39.1,34.4s2.1,29.7-10.3,51.1c-12.3,21.4-26.8,13.1-39.1,34.4
								c-12.3,21.4,2.1,29.7-10.3,51.1c-12.3,21.4-26.8,13.1-39.1,34.4c-12.3,21.4,2.1,29.7-10.3,51.1
								c-12.3,21.4-26.8,13.1-39.1,34.4c-12.3,21.4,2.1,29.7-10.3,51.1c-12.3,21.4-26.8,13.1-39.1,34.4
								c-12.3,21.4,2.1,29.7-10.3,51.1c-12.3,21.4-26.8,13.1-39.1,34.4c-12.3,21.4,2.1,29.7-10.3,51.1
								c-12.3,21.4-26.8,13.1-39.1,34.4"/>
							<path class="st8" d="M427.9,146.7c-12.3,21.4-26.8,13.1-39.1,34.4c-12.3,21.4,2.1,29.7-10.3,51.1
								c-12.3,21.4-26.8,13.1-39.1,34.4c-12.3,21.4,2.1,29.7-10.3,51.1c-12.3,21.4-26.8,13.1-39.1,34.4
								c-12.3,21.4,2.1,29.7-10.3,51.1c-12.3,21.4-26.8,13.1-39.1,34.4c-12.3,21.4,2.1,29.7-10.3,51.1
								c-12.3,21.4-26.8,13.1-39.1,34.4c-12.3,21.4,2.1,29.7-10.3,51.1c-12.3,21.4-26.8,13.1-39.1,34.4
								c-12.3,21.4,2.1,29.7-10.3,51.1c-12.3,21.4-26.8,13.1-39.1,34.4"/>
							<path class="st8" d="M404.2,133c-12.3,21.4-26.8,13.1-39.1,34.4c-12.3,21.4,2.1,29.7-10.3,51.1
								c-12.3,21.4-26.8,13.1-39.1,34.4c-12.3,21.4,2.1,29.7-10.3,51.1c-12.3,21.4-26.8,13.1-39.1,34.4
								c-12.3,21.4,2.1,29.7-10.3,51.1c-12.3,21.4-26.8,13.1-39.1,34.4c-12.3,21.4,2.1,29.7-10.3,51.1
								c-12.3,21.4-26.8,13.1-39.1,34.4c-12.3,21.4,2.1,29.7-10.3,51.1c-12.3,21.4-26.8,13.1-39.1,34.4
								c-12.3,21.4,2.1,29.7-10.3,51.1c-12.3,21.4-26.8,13.1-39.1,34.4"/>
							<path class="st8" d="M380.5,119.3c-12.3,21.4-26.8,13.1-39.1,34.4c-12.3,21.4,2.1,29.7-10.3,51.1
								c-12.3,21.4-26.8,13.1-39.1,34.4c-12.3,21.4,2.1,29.7-10.3,51.1c-12.3,21.4-26.8,13.1-39.1,34.4
								c-12.3,21.4,2.1,29.7-10.3,51.1c-12.3,21.4-26.8,13.1-39.1,34.4c-12.3,21.4,2.1,29.7-10.3,51.1
								c-12.3,21.4-26.8,13.1-39.1,34.4c-12.3,21.4,2.1,29.7-10.3,51.1s-26.8,13.1-39.1,34.4c-12.3,21.4,2.1,29.7-10.3,51.1
								c-12.3,21.4-26.8,13.1-39.1,34.4"/>
							<path class="st8" d="M356.7,105.6C344.4,127,330,118.6,317.6,140s2.1,29.7-10.3,51.1c-12.3,21.4-26.8,13.1-39.1,34.4
								c-12.3,21.4,2.1,29.7-10.3,51.1c-12.3,21.4-26.8,13.1-39.1,34.4c-12.3,21.4,2.1,29.7-10.3,51.1
								c-12.3,21.4-26.8,13.1-39.1,34.4s2.1,29.7-10.3,51.1c-12.3,21.4-26.8,13.1-39.1,34.4c-12.3,21.4,2.1,29.7-10.3,51.1
								c-12.3,21.4-26.8,13.1-39.1,34.4c-12.3,21.4,2.1,29.7-10.3,51.1c-12.3,21.4-26.8,13.1-39.1,34.4"/>
							<path class="st8" d="M333,91.9c-12.3,21.4-26.8,13.1-39.1,34.4c-12.3,21.4,2.1,29.7-10.3,51.1
								c-12.3,21.4-26.8,13.1-39.1,34.4c-12.3,21.4,2.1,29.7-10.3,51.1c-12.3,21.4-26.8,13.1-39.1,34.4
								c-12.3,21.4,2.1,29.7-10.3,51.1c-12.3,21.4-26.8,13.1-39.1,34.4c-12.3,21.4,2.1,29.7-10.3,51.1
								c-12.3,21.4-26.8,13.1-39.1,34.4c-12.3,21.4,2.1,29.7-10.3,51.1C73.7,541,59.3,532.6,47,554c-12.3,21.4,2.1,29.7-10.3,51.1
								c-12.3,21.4-26.8,13.1-39.1,34.4"/>
							<path class="st8" d="M309.3,78.2c-12.3,21.4-26.8,13.1-39.1,34.4c-12.3,21.4,2.1,29.7-10.3,51.1
								c-12.3,21.4-26.8,13.1-39.1,34.4c-12.3,21.4,2.1,29.7-10.3,51.1c-12.3,21.4-26.8,13.1-39.1,34.4
								c-12.3,21.4,2.1,29.7-10.3,51.1c-12.3,21.4-26.8,13.1-39.1,34.4c-12.3,21.4,2.1,29.7-10.3,51.1
								c-12.3,21.4-26.8,13.1-39.1,34.4c-12.3,21.4,2.1,29.7-10.3,51.1C50,527.3,35.6,519,23.2,540.3c-12.3,21.4,2.1,29.7-10.3,51.1
								c-12.3,21.4-26.8,13.1-39.1,34.4"/>
							<path class="st8" d="M285.6,64.5c-12.3,21.4-26.8,13.1-39.1,34.4c-12.3,21.4,2.1,29.7-10.3,51.1s-26.8,13.1-39.1,34.4
								c-12.3,21.4,2.1,29.7-10.3,51.1C174.4,257,160,248.7,147.7,270c-12.3,21.4,2.1,29.7-10.3,51.1
								c-12.3,21.4-26.8,13.1-39.1,34.4C86,377,100.4,385.3,88,406.7c-12.3,21.4-26.8,13.1-39.1,34.4c-12.3,21.4,2.1,29.7-10.3,51.1
								c-12.3,21.4-26.8,13.1-39.1,34.4c-12.3,21.4,2.1,29.7-10.3,51.1c-12.3,21.4-26.8,13.1-39.1,34.4"/>
							<path class="st8" d="M261.8,50.8c-12.3,21.4-26.8,13.1-39.1,34.4c-12.3,21.4,2.1,29.7-10.3,51.1
								c-12.3,21.4-26.8,13.1-39.1,34.4c-12.3,21.4,2.1,29.7-10.3,51.1c-12.3,21.4-26.8,13.1-39.1,34.4
								c-12.3,21.4,2.1,29.7-10.3,51.1c-12.3,21.4-26.8,13.1-39.1,34.4c-12.3,21.4,2.1,29.7-10.3,51.1C52,414.3,37.5,406,25.2,427.4
								s2.1,29.7-10.3,51.1c-12.3,21.4-26.8,13.1-39.1,34.4c-12.3,21.4,2.1,29.7-10.3,51.1c-12.3,21.4-26.8,13.1-39.1,34.4"/>
							<path class="st8" d="M238.1,37.1c-12.3,21.4-26.8,13.1-39.1,34.4c-12.3,21.4,2.1,29.7-10.3,51.1s-26.8,13.1-39.1,34.4
								c-12.3,21.4,2.1,29.7-10.3,51.1c-12.3,21.4-26.8,13.1-39.1,34.4c-12.3,21.4,2.1,29.7-10.3,51.1
								c-12.3,21.4-26.8,13.1-39.1,34.4c-12.3,21.4,2.1,29.7-10.3,51.1c-12.3,21.4-26.8,13.1-39.1,34.4
								c-12.3,21.4,2.1,29.7-10.3,51.1c-12.3,21.4-26.8,13.1-39.1,34.4c-12.3,21.4,2.1,29.7-10.3,51.1
								c-12.3,21.4-26.8,13.1-39.1,34.4"/>
						</g>
						<defs>

								<filter id="Adobe_OpacityMaskFilter_00000119801969229392955380000010182881954631538082_" filterUnits="userSpaceOnUse" x="89.1" y="-130.9" width="666.1" height="771.8">
								<feColorMatrix  type="matrix" values="1 0 0 0 0  0 1 0 0 0  0 0 1 0 0  0 0 0 1 0"/>
							</filter>
						</defs>

							<mask maskUnits="userSpaceOnUse" x="89.1" y="-130.9" width="666.1" height="771.8" id="mask2_472_9766_00000144306580670062826790000001725836510118278076_">
							<path style="fill:#FFFFFF;filter:url(#Adobe_OpacityMaskFilter_00000119801969229392955380000010182881954631538082_);" d="
								M111.1,212.4l1.1,0.2c0.3-41.8,42.5-73,83.8-57.9l368.3,134c12.1,4.4,14.8,20.2,5,28.4l-51.6,43.3L333.6,515l11.7,66.3
								c2.2,12.6,17.3,18.1,27.1,9.9l300.2-251.9c33.8-28.3,27.8-80.4-8.2-101.6c-3.3-1.9-6.8-3.6-10.6-5L258.4,88.8
								C178.1,59.6,96.2,128.3,111.1,212.4L111.1,212.4z"/>
						</mask>
						<g class="st12">
							<path class="st3" d="M111.1,212.4l1.1,0.2c0.3-41.8,42.5-73,83.8-57.9l368.3,134c12.1,4.4,14.8,20.2,5,28.4l-51.6,43.3
								L333.6,515l11.7,66.3c2.2,12.6,17.3,18.1,27.1,9.9l300.2-251.9c33.8-28.3,27.8-80.4-8.2-101.6c-3.3-1.9-6.8-3.6-10.6-5
								L258.4,88.8C178.1,59.6,96.2,128.3,111.1,212.4L111.1,212.4z"/>
							<path class="st8" d="M397.5,639.9c-12.3-21.4,2.1-29.7-10.3-51.1c-12.3-21.4-26.8-13.1-39.1-34.4
								c-12.3-21.4,2.1-29.7-10.3-51.1c-12.3-21.4-26.8-13.1-39.1-34.4c-12.3-21.4,2.1-29.7-10.3-51.1
								c-12.3-21.4-26.8-13.1-39.1-34.4c-12.3-21.4,2.1-29.7-10.3-51.1c-12.3-21.4-26.8-13.1-39.1-34.4
								c-12.3-21.4,2.1-29.7-10.3-51.1c-12.3-21.4-26.8-13.1-39.1-34.4c-12.3-21.4,2.1-29.7-10.3-51.1
								c-12.3-21.4-26.8-13.1-39.1-34.4c-12.3-21.4,2.1-29.7-10.3-51.1"/>
							<path class="st8" d="M421.2,626.2c-12.3-21.4,2.1-29.7-10.3-51.1c-12.3-21.4-26.8-13.1-39.1-34.4
								c-12.3-21.4,2.1-29.7-10.3-51.1c-12.3-21.4-26.8-13.1-39.1-34.4c-12.3-21.4,2.1-29.7-10.3-51.1
								c-12.3-21.4-26.8-13.1-39.1-34.4c-12.3-21.4,2.1-29.7-10.3-51.1c-12.3-21.4-26.8-13.1-39.1-34.4
								c-12.3-21.4,2.1-29.7-10.3-51.1c-12.3-21.4-26.8-13.1-39.1-34.4c-12.3-21.4,2.1-29.7-10.3-51.1
								c-12.3-21.4-26.8-13.1-39.1-34.4c-12.3-21.4,2.1-29.7-10.3-51.1"/>
							<path class="st8" d="M445,612.5c-12.3-21.4,2.1-29.7-10.3-51.1c-12.3-21.4-26.8-13.1-39.1-34.4
								c-12.3-21.4,2.1-29.7-10.3-51.1c-12.3-21.4-26.8-13.1-39.1-34.4c-12.3-21.4,2.1-29.7-10.3-51.1
								c-12.3-21.4-26.8-13.1-39.1-34.4c-12.3-21.4,2.1-29.7-10.3-51.1c-12.3-21.4-26.8-13.1-39.1-34.4
								c-12.3-21.4,2.1-29.7-10.3-51.1c-12.3-21.4-26.8-13.1-39.1-34.4c-12.3-21.4,2.1-29.7-10.3-51.1
								c-12.3-21.4-26.8-13.1-39.1-34.4c-12.3-21.4,2.1-29.7-10.3-51.1"/>
							<path class="st8" d="M468.7,598.8c-12.3-21.4,2.1-29.7-10.3-51.1c-12.3-21.4-26.8-13.1-39.1-34.4
								c-12.3-21.4,2.1-29.7-10.3-51.1c-12.3-21.4-26.8-13.1-39.1-34.4c-12.3-21.4,2.1-29.7-10.3-51.1
								c-12.3-21.4-26.8-13.1-39.1-34.4c-12.3-21.4,2.1-29.7-10.3-51.1c-12.3-21.4-26.8-13.1-39.1-34.4
								c-12.3-21.4,2.1-29.7-10.3-51.1c-12.3-21.4-26.8-13.1-39.1-34.4c-12.3-21.4,2.1-29.7-10.3-51.1s-26.8-13.1-39.1-34.4
								c-12.3-21.4,2.1-29.7-10.3-51.1"/>
							<path class="st8" d="M492.4,585.1c-12.3-21.4,2.1-29.7-10.3-51.1c-12.3-21.4-26.8-13.1-39.1-34.4
								c-12.3-21.4,2.1-29.7-10.3-51.1c-12.3-21.4-26.8-13.1-39.1-34.4s2.1-29.7-10.3-51.1c-12.3-21.4-26.8-13.1-39.1-34.4
								c-12.3-21.4,2.1-29.7-10.3-51.1c-12.3-21.4-26.8-13.1-39.1-34.4c-12.3-21.4,2.1-29.7-10.3-51.1
								c-12.3-21.4-26.8-13.1-39.1-34.4c-12.3-21.4,2.1-29.7-10.3-51.1c-12.3-21.4-26.8-13.1-39.1-34.4
								c-12.3-21.4,2.1-29.7-10.3-51.1"/>
							<path class="st8" d="M516.1,571.4c-12.3-21.4,2.1-29.7-10.3-51.1c-12.3-21.4-26.8-13.1-39.1-34.4
								c-12.3-21.4,2.1-29.7-10.3-51.1c-12.3-21.4-26.8-13.1-39.1-34.4c-12.3-21.4,2.1-29.7-10.3-51.1
								c-12.3-21.4-26.8-13.1-39.1-34.4c-12.3-21.4,2.1-29.7-10.3-51.1c-12.3-21.4-26.8-13.1-39.1-34.4
								c-12.3-21.4,2.1-29.7-10.3-51.1c-12.3-21.4-26.8-13.1-39.1-34.4c-12.3-21.4,2.1-29.7-10.3-51.1
								c-12.3-21.4-26.8-13.1-39.1-34.4c-12.3-21.4,2.1-29.7-10.3-51.1"/>
							<path class="st8" d="M539.8,557.7c-12.3-21.4,2.1-29.7-10.3-51.1c-12.3-21.4-26.8-13.1-39.1-34.4
								c-12.3-21.4,2.1-29.7-10.3-51.1c-12.3-21.4-26.8-13.1-39.1-34.4c-12.3-21.4,2.1-29.7-10.3-51.1
								c-12.3-21.4-26.8-13.1-39.1-34.4c-12.3-21.4,2.1-29.7-10.3-51.1c-12.3-21.4-26.8-13.1-39.1-34.4
								c-12.3-21.4,2.1-29.7-10.3-51.1c-12.3-21.4-26.8-13.1-39.1-34.4c-12.3-21.4,2.1-29.7-10.3-51.1
								c-12.3-21.4-26.8-13.1-39.1-34.4s2.1-29.7-10.3-51.1"/>
							<path class="st8" d="M563.6,544c-12.3-21.4,2.1-29.7-10.3-51.1c-12.3-21.4-26.8-13.1-39.1-34.4
								c-12.3-21.4,2.1-29.7-10.3-51.1c-12.3-21.4-26.8-13.1-39.1-34.4c-12.3-21.4,2.1-29.7-10.3-51.1
								c-12.3-21.4-26.8-13.1-39.1-34.4c-12.3-21.4,2.1-29.7-10.3-51.1c-12.3-21.4-26.8-13.1-39.1-34.4s2.1-29.7-10.3-51.1
								c-12.3-21.4-26.8-13.1-39.1-34.4c-12.3-21.4,2.1-29.7-10.3-51.1s-26.8-13.1-39.1-34.4C254.9,9.4,269.3,1.1,257-20.3"/>
							<path class="st8" d="M587.3,530.3c-12.3-21.4,2.1-29.7-10.3-51.1c-12.3-21.4-26.8-13.1-39.1-34.4
								c-12.3-21.4,2.1-29.7-10.3-51.1c-12.3-21.4-26.8-13.1-39.1-34.4c-12.3-21.4,2.1-29.7-10.3-51.1
								c-12.3-21.4-26.8-13.1-39.1-34.4c-12.3-21.4,2.1-29.7-10.3-51.1c-12.3-21.4-26.8-13.1-39.1-34.4
								c-12.3-21.4,2.1-29.7-10.3-51.1c-12.3-21.4-26.8-13.1-39.1-34.4c-12.3-21.4,2.1-29.7-10.3-51.1
								c-12.3-21.4-26.8-13.1-39.1-34.4C278.6-4.3,293-12.6,280.7-34"/>
							<path class="st8" d="M611,516.6c-12.3-21.4,2.1-29.7-10.3-51.1c-12.3-21.4-26.8-13.1-39.1-34.4
								c-12.3-21.4,2.1-29.7-10.3-51.1c-12.3-21.4-26.8-13.1-39.1-34.4c-12.3-21.4,2.1-29.7-10.3-51.1
								c-12.3-21.4-26.8-13.1-39.1-34.4c-12.3-21.4,2.1-29.7-10.3-51.1c-12.3-21.4-26.8-13.1-39.1-34.4
								c-12.3-21.4,2.1-29.7-10.3-51.1s-26.8-13.1-39.1-34.4c-12.3-21.4,2.1-29.7-10.3-51.1C341.5,16.5,327,24.8,314.7,3.4
								c-12.3-21.4,2.1-29.7-10.3-51.1"/>
							<path class="st8" d="M634.7,502.9c-12.3-21.4,2.1-29.7-10.3-51.1c-12.3-21.4-26.8-13.1-39.1-34.4
								c-12.3-21.4,2.1-29.7-10.3-51.1c-12.3-21.4-26.8-13.1-39.1-34.4c-12.3-21.4,2.1-29.7-10.3-51.1
								c-12.3-21.4-26.8-13.1-39.1-34.4c-12.3-21.4,2.1-29.7-10.3-51.1c-12.3-21.4-26.8-13.1-39.1-34.4s2.1-29.7-10.3-51.1
								c-12.3-21.4-26.8-13.1-39.1-34.4c-12.3-21.4,2.1-29.7-10.3-51.1c-12.3-21.4-26.8-13.1-39.1-34.4
								c-12.3-21.4,2.1-29.7-10.3-51.1"/>
							<path class="st8" d="M658.5,489.2c-12.3-21.4,2.1-29.7-10.3-51.1c-12.3-21.4-26.8-13.1-39.1-34.4
								c-12.3-21.4,2.1-29.7-10.3-51.1c-12.3-21.4-26.8-13.1-39.1-34.4c-12.3-21.4,2.1-29.7-10.3-51.1
								c-12.3-21.4-26.8-13.1-39.1-34.4c-12.3-21.4,2.1-29.7-10.3-51.1s-26.8-13.1-39.1-34.4c-12.3-21.4,2.1-29.7-10.3-51.1
								c-12.3-21.4-26.8-13.1-39.1-34.4c-12.3-21.4,2.1-29.7-10.3-51.1C388.9-10.9,374.5-2.6,362.1-24
								c-12.3-21.4,2.1-29.7-10.3-51.1"/>
							<path class="st8" d="M682.2,475.6c-12.3-21.4,2.1-29.7-10.3-51.1c-12.3-21.4-26.8-13.1-39.1-34.4
								c-12.3-21.4,2.1-29.7-10.3-51.1c-12.3-21.4-26.8-13.1-39.1-34.4c-12.3-21.4,2.1-29.7-10.3-51.1
								C560.8,232,546.4,240.3,534,219c-12.3-21.4,2.1-29.7-10.3-51.1c-12.3-21.4-26.8-13.1-39.1-34.4
								c-12.3-21.4,2.1-29.7-10.3-51.1C462,61,447.6,69.3,435.2,47.9c-12.3-21.4,2.1-29.7-10.3-51.1c-12.3-21.4-26.8-13.1-39.1-34.4
								c-12.3-21.4,2.1-29.7-10.3-51.1"/>
							<path class="st8" d="M705.9,461.9c-12.3-21.4,2.1-29.7-10.3-51.1c-12.3-21.4-26.8-13.1-39.1-34.4
								c-12.3-21.4,2.1-29.7-10.3-51.1c-12.3-21.4-26.8-13.1-39.1-34.4c-12.3-21.4,2.1-29.7-10.3-51.1
								c-12.3-21.4-26.8-13.1-39.1-34.4c-12.3-21.4,2.1-29.7-10.3-51.1c-12.3-21.4-26.8-13.1-39.1-34.4
								C496,98.3,510.4,90,498.1,68.6c-12.3-21.4-26.8-13.1-39.1-34.4c-12.3-21.4,2.1-29.7-10.3-51.1
								c-12.3-21.4-26.8-13.1-39.1-34.4c-12.3-21.4,2.1-29.7-10.3-51.1"/>
							<path class="st8" d="M729.6,448.1c-12.3-21.4,2.1-29.7-10.3-51.1c-12.3-21.4-26.8-13.1-39.1-34.4
								c-12.3-21.4,2.1-29.7-10.3-51.1c-12.3-21.4-26.8-13.1-39.1-34.4c-12.3-21.4,2.1-29.7-10.3-51.1
								c-12.3-21.4-26.8-13.1-39.1-34.4c-12.3-21.4,2.1-29.7-10.3-51.1c-12.3-21.4-26.8-13.1-39.1-34.4
								c-12.3-21.4,2.1-29.7-10.3-51.1c-12.3-21.4-26.8-13.1-39.1-34.4c-12.3-21.4,2.1-29.7-10.3-51.1
								c-12.3-21.4-26.8-13.1-39.1-34.4c-12.3-21.4,2.1-29.7-10.3-51.1"/>
							<path class="st8" d="M753.4,434.4c-12.3-21.4,2.1-29.7-10.3-51.1c-12.3-21.4-26.8-13.1-39.1-34.4
								c-12.3-21.4,2.1-29.7-10.3-51.1c-12.3-21.4-26.8-13.1-39.1-34.4c-12.3-21.4,2.1-29.7-10.3-51.1
								c-12.3-21.4-26.8-13.1-39.1-34.4c-12.3-21.4,2.1-29.7-10.3-51.1s-26.8-13.1-39.1-34.4c-12.3-21.4,2.1-29.7-10.3-51.1
								c-12.3-21.4-26.8-13.1-39.1-34.4c-12.3-21.4,2.1-29.7-10.3-51.1c-12.3-21.4-26.8-13.1-39.1-34.4
								c-12.3-21.4,2.1-29.7-10.3-51.1"/>
						</g>
						<path class="st13" d="M664.4,237.7c-3.3-1.9-6.8-3.6-10.6-5L258.4,88.8c-80.3-29.2-162.2,39.5-147.4,123.6l1.1,0.2
							c0.3-41.8,42.4-73,83.8-57.9l368.2,134c12.1,4.4,14.8,20.2,5,28.4L333.6,515l11.7,66.3c2.2,12.6,17.3,18.1,27.1,9.9
							l300.2-251.9C706.3,311,700.4,258.9,664.4,237.7L664.4,237.7z"/>
						<path class="st13" d="M665.1,236.8l-0.7,0.9c36,21.2,42,73.2,8.2,101.6L372.4,591.2c-9.8,8.2-24.9,2.8-27.1-9.9L333.6,515
							l-41.8-236.8l-63.3-23c-12.1-4.4-24.3,5.9-22.1,18.6l68,385.9c7.6,43.4,55.8,64.3,92.1,43.7c3.3-1.9,6.5-4.1,9.6-6.7
							l322.3-270.4C763.9,371.3,745.4,266.1,665.1,236.8L665.1,236.8z"/>
						<path class="st13" d="M196,154.7c-41.4-15.1-83.6,16.1-83.8,57.9c0,3.8,0.3,7.7,1,11.6l73.1,414.4c3.6,20.4,12.2,37.9,24,52.1
							c37.3,44.4,107,55.4,156.7,13.7l-0.4-1.1c-36.3,20.6-84.5-0.3-92.1-43.7l-68-385.9c-2.2-12.6,10.1-22.9,22.1-18.6l63.3,23
							l225.9,82.2l51.6-43.3c9.8-8.2,7-24-5-28.4L196,154.7L196,154.7z"/>
					</g>
				</g>
			</g>
		</g>
	</g>
</switch>
</svg>
