<svg enable-background="new 0 0 768 768" image-rendering="optimizeQuality" shape-rendering="geometricPrecision" text-rendering="geometricPrecision" viewBox="0 0 768 768" xmlns="http://www.w3.org/2000/svg" xmlns:xlink="http://www.w3.org/1999/xlink"><clipPath id="a"><path d="m97.5 69.5h651.7v672.5h-651.7z" image-rendering="optimizeQuality" shape-rendering="geometricPrecision" text-rendering="geometricPrecision"/></clipPath><mask id="b" height="474.6" maskUnits="userSpaceOnUse" width="642" x="151.7" y="236.8"><path d="m665.1 236.8-.7.9c36 21.2 42 73.2 8.2 101.6l-300.2 251.8c-9.8 8.2-24.9 2.8-27.1-9.9l-11.7-66.2-41.8-236.8-63.3-23c-12.1-4.4-24.3 5.9-22.1 18.6l68 385.9c7.6 43.4 55.8 64.3 92.1 43.7 3.3-1.9 6.5-4.1 9.6-6.7l322.3-270.4c65.5-55 47-160.2-33.3-189.5z" fill="#fff" image-rendering="optimizeQuality" shape-rendering="geometricPrecision" text-rendering="geometricPrecision"/></mask><mask id="c" height="755.2" maskUnits="userSpaceOnUse" width="694.9" x="-99.1" y="36.1"><path d="m367 704.3-.4-1.1c-36.4 20.6-84.4-.3-92.1-43.7l-68-385.9c-2.2-12.6 10.1-22.9 22.1-18.6l63.3 23 225.9 82.2 51.6-43.3c9.8-8.2 7-24-5-28.4l-368.3-134c-41.4-15.1-83.6 16.2-83.9 57.9 0 3.8.3 7.7 1 11.6l73.1 414.3c14.8 84.4 115.2 121 180.7 66z" fill="#fff" image-rendering="optimizeQuality" shape-rendering="geometricPrecision" text-rendering="geometricPrecision"/></mask><mask id="d" height="771.8" maskUnits="userSpaceOnUse" width="666.1" x="89.1" y="-130.9"><path d="m111.1 212.4 1.1.2c.3-41.8 42.5-73 83.8-57.9l368.3 134c12.1 4.4 14.8 20.2 5 28.4l-51.6 43.3-184.1 154.6 11.7 66.3c2.2 12.6 17.3 18.1 27.1 9.9l300.2-251.9c33.8-28.3 27.8-80.4-8.2-101.6-3.3-1.9-6.8-3.6-10.6-5l-395.4-143.9c-80.3-29.2-162.2 39.5-147.3 123.6z" fill="#fff" image-rendering="optimizeQuality" shape-rendering="geometricPrecision" text-rendering="geometricPrecision"/></mask><switch><g><path d="m-15.7 0h768v768h-768z" fill="none"/><path d="m384 770.2c212.1 0 384-171.9 384-384s-171.9-384-384-384-384 172-384 384 171.9 384 384 384z" fill="#fff"/><g clip-path="url(#a)"><path d="m664.4 237.7c-3.3-1.9-6.8-3.6-10.6-5l-395.4-143.9c-80.3-29.2-162.2 39.5-147.4 123.6l1.1.2c.3-41.8 42.4-73 83.8-57.9l368.2 134c12.1 4.4 14.8 20.2 5 28.4l-235.5 197.9 11.7 66.3c2.2 12.6 17.3 18.1 27.1 9.9l300.2-251.9c33.7-28.3 27.8-80.4-8.2-101.6z" fill="#e4f7fe"/><path d="m665.1 236.8-.7.9c36 21.2 42 73.2 8.2 101.6l-300.2 251.9c-9.8 8.2-24.9 2.8-27.1-9.9l-11.7-66.3-41.8-236.8-63.3-23c-12.1-4.4-24.3 5.9-22.1 18.6l68 385.9c7.6 43.4 55.8 64.3 92.1 43.7 3.3-1.9 6.5-4.1 9.6-6.7l322.3-270.4c65.5-55 47-160.2-33.3-189.5z" fill="#acc6fe"/><path d="m196 154.7c-41.4-15.1-83.6 16.1-83.8 57.9 0 3.8.3 7.7 1 11.6l73.1 414.4c3.6 20.4 12.2 37.9 24 52.1 37.3 44.4 107 55.4 156.7 13.7l-.4-1.1c-36.3 20.6-84.5-.3-92.1-43.7l-68-385.9c-2.2-12.6 10.1-22.9 22.1-18.6l63.3 23 225.9 82.2 51.6-43.3c9.8-8.2 7-24-5-28.4z" fill="#bde6fe"/><g mask="url(#b)"><path d="m665.1 236.8-.7.9c36 21.2 42 73.2 8.2 101.6l-300.2 251.8c-9.8 8.2-24.9 2.8-27.1-9.9l-11.7-66.3-41.8-236.8-63.3-23c-12.1-4.4-24.3 5.9-22.1 18.6l68 385.9c7.6 43.4 55.8 64.3 92.1 43.7 3.3-1.9 6.5-4.1 9.6-6.7l322.3-270.4c65.5-54.9 47-160.2-33.3-189.4z" fill="#acc6fe"/><g fill="none" stroke="#fff" stroke-miterlimit="10" stroke-width="4.1642"><path d="m151.7 271.1c24.7 0 24.7 16.7 49.4 16.7s24.7-16.7 49.4-16.7 24.7 16.7 49.4 16.7 24.7-16.7 49.4-16.7 24.7 16.7 49.4 16.7 24.7-16.7 49.4-16.7 24.7 16.7 49.4 16.7 24.7-16.7 49.4-16.7 24.7 16.7 49.4 16.7 24.7-16.7 49.4-16.7 24.7 16.7 49.4 16.7 24.7-16.7 49.4-16.7 24.7 16.7 49.4 16.7"/><path d="m151.7 298.4c24.7 0 24.7 16.7 49.4 16.7s24.7-16.7 49.4-16.7 24.7 16.7 49.4 16.7 24.7-16.7 49.4-16.7 24.7 16.7 49.4 16.7 24.7-16.7 49.4-16.7 24.7 16.7 49.4 16.7 24.7-16.7 49.4-16.7 24.7 16.7 49.4 16.7 24.7-16.7 49.4-16.7 24.7 16.7 49.4 16.7 24.7-16.7 49.4-16.7 24.7 16.7 49.4 16.7"/><path d="m151.7 325.9c24.7 0 24.7 16.7 49.4 16.7s24.7-16.7 49.4-16.7 24.7 16.7 49.4 16.7 24.7-16.7 49.4-16.7 24.7 16.7 49.4 16.7 24.7-16.7 49.4-16.7 24.7 16.7 49.4 16.7 24.7-16.7 49.4-16.7 24.7 16.7 49.4 16.7 24.7-16.7 49.4-16.7 24.7 16.7 49.4 16.7 24.7-16.7 49.4-16.7 24.7 16.7 49.4 16.7"/><path d="m151.7 353.2c24.7 0 24.7 16.7 49.4 16.7s24.7-16.7 49.4-16.7 24.7 16.7 49.4 16.7 24.7-16.7 49.4-16.7 24.7 16.7 49.4 16.7 24.7-16.7 49.4-16.7 24.7 16.7 49.4 16.7 24.7-16.7 49.4-16.7 24.7 16.7 49.4 16.7 24.7-16.7 49.4-16.7 24.7 16.7 49.4 16.7 24.7-16.7 49.4-16.7 24.7 16.7 49.4 16.7"/><path d="m151.7 380.6c24.7 0 24.7 16.7 49.4 16.7s24.7-16.7 49.4-16.7 24.7 16.7 49.4 16.7 24.7-16.7 49.4-16.7 24.7 16.7 49.4 16.7 24.7-16.7 49.4-16.7 24.7 16.7 49.4 16.7 24.7-16.7 49.4-16.7 24.7 16.7 49.4 16.7 24.7-16.7 49.4-16.7 24.7 16.7 49.4 16.7 24.7-16.7 49.4-16.7 24.7 16.7 49.4 16.7"/><path d="m151.7 408c24.7 0 24.7 16.7 49.4 16.7s24.7-16.7 49.4-16.7 24.7 16.7 49.4 16.7 24.7-16.7 49.4-16.7 24.7 16.7 49.4 16.7 24.7-16.7 49.4-16.7 24.7 16.7 49.4 16.7 24.7-16.7 49.4-16.7 24.7 16.7 49.4 16.7 24.7-16.7 49.4-16.7 24.7 16.7 49.4 16.7 24.7-16.7 49.4-16.7 24.7 16.7 49.4 16.7"/><path d="m151.7 435.4c24.7 0 24.7 16.7 49.4 16.7s24.7-16.7 49.4-16.7 24.7 16.7 49.4 16.7 24.7-16.7 49.4-16.7 24.7 16.7 49.4 16.7 24.7-16.7 49.4-16.7 24.7 16.7 49.4 16.7 24.7-16.7 49.4-16.7 24.7 16.7 49.4 16.7 24.7-16.7 49.4-16.7 24.7 16.7 49.4 16.7 24.7-16.7 49.4-16.7 24.7 16.7 49.4 16.7"/><path d="m151.7 462.8c24.7 0 24.7 16.7 49.4 16.7s24.7-16.7 49.4-16.7 24.7 16.7 49.4 16.7 24.7-16.7 49.4-16.7 24.7 16.7 49.4 16.7 24.7-16.7 49.4-16.7 24.7 16.7 49.4 16.7 24.7-16.7 49.4-16.7 24.7 16.7 49.4 16.7 24.7-16.7 49.4-16.7 24.7 16.7 49.4 16.7 24.7-16.7 49.4-16.7 24.7 16.7 49.4 16.7"/><path d="m151.7 490.2c24.7 0 24.7 16.7 49.4 16.7s24.7-16.7 49.4-16.7 24.7 16.7 49.4 16.7 24.7-16.7 49.4-16.7 24.7 16.7 49.4 16.7 24.7-16.7 49.4-16.7 24.7 16.7 49.4 16.7 24.7-16.7 49.4-16.7 24.7 16.7 49.4 16.7 24.7-16.7 49.4-16.7 24.7 16.7 49.4 16.7 24.7-16.7 49.4-16.7 24.7 16.7 49.4 16.7"/><path d="m151.7 517.6c24.7 0 24.7 16.7 49.4 16.7s24.7-16.7 49.4-16.7 24.7 16.7 49.4 16.7 24.7-16.7 49.4-16.7 24.7 16.7 49.4 16.7 24.7-16.7 49.4-16.7 24.7 16.7 49.4 16.7 24.7-16.7 49.4-16.7 24.7 16.7 49.4 16.7 24.7-16.7 49.4-16.7 24.7 16.7 49.4 16.7 24.7-16.7 49.4-16.7 24.7 16.7 49.4 16.7"/><path d="m151.7 545c24.7 0 24.7 16.7 49.4 16.7s24.7-16.7 49.4-16.7 24.7 16.7 49.4 16.7 24.7-16.7 49.4-16.7 24.7 16.7 49.4 16.7 24.7-16.7 49.4-16.7 24.7 16.7 49.4 16.7 24.7-16.7 49.4-16.7 24.7 16.7 49.4 16.7 24.7-16.7 49.4-16.7 24.7 16.7 49.4 16.7 24.7-16.7 49.4-16.7 24.7 16.7 49.4 16.7"/><path d="m151.7 572.4c24.7 0 24.7 16.7 49.4 16.7s24.7-16.7 49.4-16.7 24.7 16.7 49.4 16.7 24.7-16.7 49.4-16.7 24.7 16.7 49.4 16.7 24.7-16.7 49.4-16.7 24.7 16.7 49.4 16.7 24.7-16.7 49.4-16.7 24.7 16.7 49.4 16.7 24.7-16.7 49.4-16.7 24.7 16.7 49.4 16.7 24.7-16.7 49.4-16.7 24.7 16.7 49.4 16.7"/><path d="m151.7 599.8c24.7 0 24.7 16.7 49.4 16.7s24.7-16.7 49.4-16.7 24.7 16.7 49.4 16.7 24.7-16.7 49.4-16.7 24.7 16.7 49.4 16.7 24.7-16.7 49.4-16.7 24.7 16.7 49.4 16.7 24.7-16.7 49.4-16.7 24.7 16.7 49.4 16.7 24.7-16.7 49.4-16.7 24.7 16.7 49.4 16.7 24.7-16.7 49.4-16.7 24.7 16.7 49.4 16.7"/><path d="m151.7 627.2c24.7 0 24.7 16.7 49.4 16.7s24.7-16.7 49.4-16.7 24.7 16.7 49.4 16.7 24.7-16.7 49.4-16.7 24.7 16.7 49.4 16.7 24.7-16.7 49.4-16.7 24.7 16.7 49.4 16.7 24.7-16.7 49.4-16.7 24.7 16.7 49.4 16.7 24.7-16.7 49.4-16.7 24.7 16.7 49.4 16.7 24.7-16.7 49.4-16.7 24.7 16.7 49.4 16.7"/><path d="m151.7 654.6c24.7 0 24.7 16.7 49.4 16.7s24.7-16.7 49.4-16.7 24.7 16.7 49.4 16.7 24.7-16.7 49.4-16.7 24.7 16.7 49.4 16.7 24.7-16.7 49.4-16.7 24.7 16.7 49.4 16.7 24.7-16.7 49.4-16.7 24.7 16.7 49.4 16.7 24.7-16.7 49.4-16.7 24.7 16.7 49.4 16.7 24.7-16.7 49.4-16.7 24.7 16.7 49.4 16.7"/><path d="m151.7 682c24.7 0 24.7 16.7 49.4 16.7s24.7-16.7 49.4-16.7 24.7 16.7 49.4 16.7 24.7-16.7 49.4-16.7 24.7 16.7 49.4 16.7 24.7-16.7 49.4-16.7 24.7 16.7 49.4 16.7 24.7-16.7 49.4-16.7 24.7 16.7 49.4 16.7 24.7-16.7 49.4-16.7 24.7 16.7 49.4 16.7 24.7-16.7 49.4-16.7 24.7 16.7 49.4 16.7"/></g></g><g mask="url(#c)"><path d="m367 704.4-.4-1.1c-36.4 20.6-84.4-.3-92.1-43.7l-68-385.9c-2.2-12.6 10.1-22.9 22.1-18.6l63.3 23 225.9 82.2 51.6-43.3c9.8-8.2 7-24-5-28.4l-368.3-134c-41.4-15.1-83.6 16.2-83.9 57.9 0 3.8.3 7.7 1 11.6l73.1 414.3c14.8 84.4 115.2 120.9 180.7 66z" fill="#bde6fe"/><g fill="none" stroke="#fff" stroke-miterlimit="10" stroke-width="4.1642"><path d="m594 242.6c-12.3 21.4-26.8 13.1-39.1 34.4-12.3 21.4 2.1 29.7-10.3 51.1-12.3 21.4-26.8 13.1-39.1 34.4-12.3 21.4 2.1 29.7-10.3 51.1-12.3 21.4-26.8 13.1-39.1 34.4-12.3 21.4 2.1 29.7-10.3 51.1-12.3 21.4-26.8 13.1-39.1 34.4-12.3 21.4 2.1 29.7-10.3 51.1s-26.8 13.1-39.1 34.4c-12.3 21.4 2.1 29.7-10.3 51.1-12.3 21.4-26.8 13.1-39.1 34.4-12.3 21.4 2.1 29.7-10.3 51.1-12.3 21.4-26.8 13.1-39.1 34.4"/><path d="m570.3 228.9c-12.3 21.4-26.8 13.1-39.1 34.4-12.3 21.4 2.1 29.7-10.3 51.1-12.3 21.4-26.8 13.1-39.1 34.4-12.3 21.4 2.1 29.7-10.3 51.1s-26.8 13.1-39.1 34.4c-12.3 21.4 2.1 29.7-10.3 51.1-12.3 21.4-26.8 13.1-39.1 34.4-12.3 21.4 2.1 29.7-10.3 51.1-12.3 21.4-26.8 13.1-39.1 34.4-12.3 21.4 2.1 29.7-10.3 51.1-12.3 21.4-26.8 13.1-39.1 34.4-12.3 21.4 2.1 29.7-10.3 51.1-12.3 21.4-26.8 13.1-39.1 34.4"/><path d="m546.5 215.2c-12.3 21.4-26.8 13.1-39.1 34.4-12.3 21.4 2.1 29.7-10.3 51.1-12.3 21.4-26.8 13.1-39.1 34.4-12.3 21.4 2.1 29.7-10.3 51.1-12.3 21.4-26.8 13.1-39.1 34.4-12.3 21.4 2.1 29.7-10.3 51.1-12.3 21.4-26.8 13.1-39.1 34.4-12.3 21.4 2.1 29.7-10.3 51.1-12.3 21.4-26.8 13.1-39.1 34.4-12.3 21.4 2.1 29.7-10.3 51.1-12.3 21.4-26.8 13.1-39.1 34.4-12.3 21.4 2.1 29.7-10.3 51.1-12.3 21.4-26.8 13.1-39.1 34.4"/><path d="m522.8 201.5c-12.3 21.4-26.8 13.1-39.1 34.4-12.3 21.4 2.1 29.7-10.3 51.1-12.3 21.4-26.8 13.1-39.1 34.4-12.3 21.4 2.1 29.7-10.3 51.1-12.3 21.4-26.8 13.1-39.1 34.4-12.3 21.4 2.1 29.7-10.3 51.1-12.3 21.4-26.8 13.1-39.1 34.4-12.3 21.4 2.1 29.7-10.3 51.1-12.3 21.4-26.8 13.1-39.1 34.4s2.1 29.7-10.3 51.1c-12.3 21.4-26.8 13.1-39.1 34.4-12.3 21.4 2.1 29.7-10.3 51.1-12.3 21.4-26.8 13.1-39.1 34.4"/><path d="m499.1 187.8c-12.3 21.4-26.8 13.1-39.1 34.4-12.3 21.4 2.1 29.7-10.3 51.1-12.3 21.4-26.8 13.1-39.1 34.4-12.3 21.4 2.1 29.7-10.3 51.1-12.3 21.4-26.8 13.1-39.1 34.4-12.3 21.4 2.1 29.7-10.3 51.1-12.3 21.4-26.8 13.1-39.1 34.4-12.3 21.4 2.1 29.7-10.3 51.1-12.3 21.4-26.8 13.1-39.1 34.4-12.3 21.4 2.1 29.7-10.3 51.1-12.3 21.4-26.8 13.1-39.1 34.4-12.3 21.4 2.1 29.7-10.3 51.1-12.3 21.4-26.8 13.1-39.1 34.4"/><path d="m475.4 174.1c-12.3 21.4-26.8 13.1-39.1 34.4-12.3 21.4 2.1 29.7-10.3 51.1-12.3 21.4-26.8 13.1-39.1 34.4-12.3 21.4 2.1 29.7-10.3 51.1-12.3 21.4-26.8 13.1-39.1 34.4-12.3 21.4 2.1 29.7-10.3 51.1-12.3 21.4-26.8 13.1-39.1 34.4s2.1 29.7-10.3 51.1c-12.3 21.4-26.8 13.1-39.1 34.4-12.3 21.4 2.1 29.7-10.3 51.1-12.3 21.4-26.8 13.1-39.1 34.4-12.3 21.4 2.1 29.7-10.3 51.1-12.3 21.4-26.8 13.1-39.1 34.4"/><path d="m451.6 160.4c-12.3 21.4-26.8 13.1-39.1 34.4s2.1 29.7-10.3 51.1c-12.3 21.4-26.8 13.1-39.1 34.4-12.3 21.4 2.1 29.7-10.3 51.1-12.3 21.4-26.8 13.1-39.1 34.4-12.3 21.4 2.1 29.7-10.3 51.1-12.3 21.4-26.8 13.1-39.1 34.4-12.3 21.4 2.1 29.7-10.3 51.1-12.3 21.4-26.8 13.1-39.1 34.4-12.3 21.4 2.1 29.7-10.3 51.1-12.3 21.4-26.8 13.1-39.1 34.4-12.3 21.4 2.1 29.7-10.3 51.1-12.3 21.4-26.8 13.1-39.1 34.4"/><path d="m427.9 146.7c-12.3 21.4-26.8 13.1-39.1 34.4-12.3 21.4 2.1 29.7-10.3 51.1-12.3 21.4-26.8 13.1-39.1 34.4-12.3 21.4 2.1 29.7-10.3 51.1-12.3 21.4-26.8 13.1-39.1 34.4-12.3 21.4 2.1 29.7-10.3 51.1-12.3 21.4-26.8 13.1-39.1 34.4-12.3 21.4 2.1 29.7-10.3 51.1-12.3 21.4-26.8 13.1-39.1 34.4-12.3 21.4 2.1 29.7-10.3 51.1-12.3 21.4-26.8 13.1-39.1 34.4-12.3 21.4 2.1 29.7-10.3 51.1-12.3 21.4-26.8 13.1-39.1 34.4"/><path d="m404.2 133c-12.3 21.4-26.8 13.1-39.1 34.4-12.3 21.4 2.1 29.7-10.3 51.1-12.3 21.4-26.8 13.1-39.1 34.4-12.3 21.4 2.1 29.7-10.3 51.1-12.3 21.4-26.8 13.1-39.1 34.4-12.3 21.4 2.1 29.7-10.3 51.1-12.3 21.4-26.8 13.1-39.1 34.4-12.3 21.4 2.1 29.7-10.3 51.1-12.3 21.4-26.8 13.1-39.1 34.4-12.3 21.4 2.1 29.7-10.3 51.1-12.3 21.4-26.8 13.1-39.1 34.4-12.3 21.4 2.1 29.7-10.3 51.1-12.3 21.4-26.8 13.1-39.1 34.4"/><path d="m380.5 119.3c-12.3 21.4-26.8 13.1-39.1 34.4-12.3 21.4 2.1 29.7-10.3 51.1-12.3 21.4-26.8 13.1-39.1 34.4-12.3 21.4 2.1 29.7-10.3 51.1-12.3 21.4-26.8 13.1-39.1 34.4-12.3 21.4 2.1 29.7-10.3 51.1-12.3 21.4-26.8 13.1-39.1 34.4-12.3 21.4 2.1 29.7-10.3 51.1-12.3 21.4-26.8 13.1-39.1 34.4-12.3 21.4 2.1 29.7-10.3 51.1s-26.8 13.1-39.1 34.4c-12.3 21.4 2.1 29.7-10.3 51.1-12.3 21.4-26.8 13.1-39.1 34.4"/><path d="m356.7 105.6c-12.3 21.4-26.7 13-39.1 34.4s2.1 29.7-10.3 51.1c-12.3 21.4-26.8 13.1-39.1 34.4-12.3 21.4 2.1 29.7-10.3 51.1-12.3 21.4-26.8 13.1-39.1 34.4-12.3 21.4 2.1 29.7-10.3 51.1-12.3 21.4-26.8 13.1-39.1 34.4s2.1 29.7-10.3 51.1c-12.3 21.4-26.8 13.1-39.1 34.4-12.3 21.4 2.1 29.7-10.3 51.1-12.3 21.4-26.8 13.1-39.1 34.4-12.3 21.4 2.1 29.7-10.3 51.1-12.3 21.4-26.8 13.1-39.1 34.4"/><path d="m333 91.9c-12.3 21.4-26.8 13.1-39.1 34.4-12.3 21.4 2.1 29.7-10.3 51.1-12.3 21.4-26.8 13.1-39.1 34.4-12.3 21.4 2.1 29.7-10.3 51.1-12.3 21.4-26.8 13.1-39.1 34.4-12.3 21.4 2.1 29.7-10.3 51.1-12.3 21.4-26.8 13.1-39.1 34.4-12.3 21.4 2.1 29.7-10.3 51.1-12.3 21.4-26.8 13.1-39.1 34.4-12.3 21.4 2.1 29.7-10.3 51.1-12.3 21.6-26.7 13.2-39 34.6s2.1 29.7-10.3 51.1c-12.3 21.4-26.8 13.1-39.1 34.4"/><path d="m309.3 78.2c-12.3 21.4-26.8 13.1-39.1 34.4-12.3 21.4 2.1 29.7-10.3 51.1-12.3 21.4-26.8 13.1-39.1 34.4-12.3 21.4 2.1 29.7-10.3 51.1-12.3 21.4-26.8 13.1-39.1 34.4-12.3 21.4 2.1 29.7-10.3 51.1-12.3 21.4-26.8 13.1-39.1 34.4-12.3 21.4 2.1 29.7-10.3 51.1-12.3 21.4-26.8 13.1-39.1 34.4-12.3 21.4 2.1 29.7-10.3 51.1-12.3 21.6-26.7 13.3-39.1 34.6-12.3 21.4 2.1 29.7-10.3 51.1-12.3 21.4-26.8 13.1-39.1 34.4"/><path d="m285.6 64.5c-12.3 21.4-26.8 13.1-39.1 34.4-12.3 21.4 2.1 29.7-10.3 51.1s-26.8 13.1-39.1 34.4c-12.3 21.4 2.1 29.7-10.3 51.1-12.4 21.5-26.8 13.2-39.1 34.5-12.3 21.4 2.1 29.7-10.3 51.1-12.3 21.4-26.8 13.1-39.1 34.4-12.3 21.5 2.1 29.8-10.3 51.2-12.3 21.4-26.8 13.1-39.1 34.4-12.3 21.4 2.1 29.7-10.3 51.1-12.3 21.4-26.8 13.1-39.1 34.4-12.3 21.4 2.1 29.7-10.3 51.1-12.3 21.4-26.8 13.1-39.1 34.4"/><path d="m261.8 50.8c-12.3 21.4-26.8 13.1-39.1 34.4-12.3 21.4 2.1 29.7-10.3 51.1-12.3 21.4-26.8 13.1-39.1 34.4-12.3 21.4 2.1 29.7-10.3 51.1-12.3 21.4-26.8 13.1-39.1 34.4-12.3 21.4 2.1 29.7-10.3 51.1-12.3 21.4-26.8 13.1-39.1 34.4-12.3 21.4 2.1 29.7-10.3 51.1-12.2 21.5-26.7 13.2-39 34.6s2.1 29.7-10.3 51.1c-12.3 21.4-26.8 13.1-39.1 34.4-12.3 21.4 2.1 29.7-10.3 51.1-12.3 21.4-26.8 13.1-39.1 34.4"/><path d="m238.1 37.1c-12.3 21.4-26.8 13.1-39.1 34.4-12.3 21.4 2.1 29.7-10.3 51.1s-26.8 13.1-39.1 34.4c-12.3 21.4 2.1 29.7-10.3 51.1-12.3 21.4-26.8 13.1-39.1 34.4-12.3 21.4 2.1 29.7-10.3 51.1-12.3 21.4-26.8 13.1-39.1 34.4-12.3 21.4 2.1 29.7-10.3 51.1-12.3 21.4-26.8 13.1-39.1 34.4-12.3 21.4 2.1 29.7-10.3 51.1-12.3 21.4-26.8 13.1-39.1 34.4-12.3 21.4 2.1 29.7-10.3 51.1-12.3 21.4-26.8 13.1-39.1 34.4"/></g></g><g mask="url(#d)"><path d="m111.1 212.4 1.1.2c.3-41.8 42.5-73 83.8-57.9l368.3 134c12.1 4.4 14.8 20.2 5 28.4l-51.6 43.3-184.1 154.6 11.7 66.3c2.2 12.6 17.3 18.1 27.1 9.9l300.2-251.9c33.8-28.3 27.8-80.4-8.2-101.6-3.3-1.9-6.8-3.6-10.6-5l-395.4-143.9c-80.3-29.2-162.2 39.5-147.3 123.6z" fill="#e4f7fe"/><g fill="none" stroke="#fff" stroke-miterlimit="10" stroke-width="4.1642"><path d="m397.5 639.9c-12.3-21.4 2.1-29.7-10.3-51.1-12.3-21.4-26.8-13.1-39.1-34.4-12.3-21.4 2.1-29.7-10.3-51.1-12.3-21.4-26.8-13.1-39.1-34.4-12.3-21.4 2.1-29.7-10.3-51.1-12.3-21.4-26.8-13.1-39.1-34.4-12.3-21.4 2.1-29.7-10.3-51.1-12.3-21.4-26.8-13.1-39.1-34.4-12.3-21.4 2.1-29.7-10.3-51.1-12.3-21.4-26.8-13.1-39.1-34.4-12.3-21.4 2.1-29.7-10.3-51.1-12.3-21.4-26.8-13.1-39.1-34.4-12.3-21.4 2.1-29.7-10.3-51.1"/><path d="m421.2 626.2c-12.3-21.4 2.1-29.7-10.3-51.1-12.3-21.4-26.8-13.1-39.1-34.4-12.3-21.4 2.1-29.7-10.3-51.1-12.3-21.4-26.8-13.1-39.1-34.4-12.3-21.4 2.1-29.7-10.3-51.1-12.3-21.4-26.8-13.1-39.1-34.4-12.3-21.4 2.1-29.7-10.3-51.1-12.3-21.4-26.8-13.1-39.1-34.4-12.3-21.4 2.1-29.7-10.3-51.1-12.3-21.4-26.8-13.1-39.1-34.4-12.3-21.4 2.1-29.7-10.3-51.1-12.3-21.4-26.8-13.1-39.1-34.4-12.3-21.4 2.1-29.7-10.3-51.1"/><path d="m445 612.5c-12.3-21.4 2.1-29.7-10.3-51.1-12.3-21.4-26.8-13.1-39.1-34.4-12.3-21.4 2.1-29.7-10.3-51.1-12.3-21.4-26.8-13.1-39.1-34.4-12.3-21.4 2.1-29.7-10.3-51.1-12.3-21.4-26.8-13.1-39.1-34.4-12.3-21.4 2.1-29.7-10.3-51.1-12.3-21.4-26.8-13.1-39.1-34.4-12.3-21.4 2.1-29.7-10.3-51.1-12.3-21.4-26.8-13.1-39.1-34.4-12.3-21.4 2.1-29.7-10.3-51.1-12.3-21.4-26.8-13.1-39.1-34.4-12.3-21.4 2.1-29.7-10.3-51.1"/><path d="m468.7 598.8c-12.3-21.4 2.1-29.7-10.3-51.1-12.3-21.4-26.8-13.1-39.1-34.4-12.3-21.4 2.1-29.7-10.3-51.1-12.3-21.4-26.8-13.1-39.1-34.4-12.3-21.4 2.1-29.7-10.3-51.1-12.3-21.4-26.8-13.1-39.1-34.4-12.3-21.4 2.1-29.7-10.3-51.1-12.3-21.4-26.8-13.1-39.1-34.4-12.3-21.4 2.1-29.7-10.3-51.1-12.3-21.4-26.8-13.1-39.1-34.4-12.3-21.4 2.1-29.7-10.3-51.1s-26.8-13.1-39.1-34.4c-12.3-21.4 2.1-29.7-10.3-51.1"/><path d="m492.4 585.1c-12.3-21.4 2.1-29.7-10.3-51.1-12.3-21.4-26.8-13.1-39.1-34.4-12.3-21.4 2.1-29.7-10.3-51.1-12.3-21.4-26.8-13.1-39.1-34.4s2.1-29.7-10.3-51.1c-12.3-21.4-26.8-13.1-39.1-34.4-12.3-21.4 2.1-29.7-10.3-51.1-12.3-21.4-26.8-13.1-39.1-34.4-12.3-21.4 2.1-29.7-10.3-51.1-12.3-21.4-26.8-13.1-39.1-34.4-12.3-21.4 2.1-29.7-10.3-51.1-12.3-21.4-26.8-13.1-39.1-34.4-12.3-21.4 2.1-29.7-10.3-51.1"/><path d="m516.1 571.4c-12.3-21.4 2.1-29.7-10.3-51.1-12.3-21.4-26.8-13.1-39.1-34.4-12.3-21.4 2.1-29.7-10.3-51.1-12.3-21.4-26.8-13.1-39.1-34.4-12.3-21.4 2.1-29.7-10.3-51.1-12.3-21.4-26.8-13.1-39.1-34.4-12.3-21.4 2.1-29.7-10.3-51.1-12.3-21.4-26.8-13.1-39.1-34.4-12.3-21.4 2.1-29.7-10.3-51.1-12.3-21.4-26.8-13.1-39.1-34.4-12.3-21.4 2.1-29.7-10.3-51.1-12.3-21.4-26.8-13.1-39.1-34.4-12.3-21.4 2.1-29.7-10.3-51.1"/><path d="m539.8 557.7c-12.3-21.4 2.1-29.7-10.3-51.1-12.3-21.4-26.8-13.1-39.1-34.4-12.3-21.4 2.1-29.7-10.3-51.1-12.3-21.4-26.8-13.1-39.1-34.4-12.3-21.4 2.1-29.7-10.3-51.1-12.3-21.4-26.8-13.1-39.1-34.4-12.3-21.4 2.1-29.7-10.3-51.1-12.3-21.4-26.8-13.1-39.1-34.4-12.3-21.4 2.1-29.7-10.3-51.1-12.3-21.4-26.8-13.1-39.1-34.4-12.3-21.4 2.1-29.7-10.3-51.1-12.3-21.4-26.8-13.1-39.1-34.4s2.1-29.7-10.3-51.1"/><path d="m563.6 544c-12.3-21.4 2.1-29.7-10.3-51.1-12.3-21.4-26.8-13.1-39.1-34.4-12.3-21.4 2.1-29.7-10.3-51.1-12.3-21.4-26.8-13.1-39.1-34.4-12.3-21.4 2.1-29.7-10.3-51.1-12.3-21.4-26.8-13.1-39.1-34.4-12.3-21.4 2.1-29.7-10.3-51.1-12.3-21.4-26.8-13.1-39.1-34.4s2.1-29.7-10.3-51.1c-12.3-21.4-26.8-13.1-39.1-34.4-12.3-21.4 2.1-29.7-10.3-51.1s-26.8-13.1-39.1-34.4c-12.3-21.6 2.1-29.9-10.2-51.3"/><path d="m587.3 530.3c-12.3-21.4 2.1-29.7-10.3-51.1-12.3-21.4-26.8-13.1-39.1-34.4-12.3-21.4 2.1-29.7-10.3-51.1-12.3-21.4-26.8-13.1-39.1-34.4-12.3-21.4 2.1-29.7-10.3-51.1-12.3-21.4-26.8-13.1-39.1-34.4-12.3-21.4 2.1-29.7-10.3-51.1-12.3-21.4-26.8-13.1-39.1-34.4-12.3-21.4 2.1-29.7-10.3-51.1-12.3-21.4-26.8-13.1-39.1-34.4-12.3-21.4 2.1-29.7-10.3-51.1-12.3-21.4-26.8-13.1-39.1-34.4-12.3-21.6 2.1-29.9-10.2-51.3"/><path d="m611 516.6c-12.3-21.4 2.1-29.7-10.3-51.1-12.3-21.4-26.8-13.1-39.1-34.4-12.3-21.4 2.1-29.7-10.3-51.1-12.3-21.4-26.8-13.1-39.1-34.4-12.3-21.4 2.1-29.7-10.3-51.1-12.3-21.4-26.8-13.1-39.1-34.4-12.3-21.4 2.1-29.7-10.3-51.1-12.3-21.4-26.8-13.1-39.1-34.4-12.3-21.4 2.1-29.7-10.3-51.1s-26.8-13.1-39.1-34.4c-12.3-21.4 2.1-29.7-10.3-51.1-12.2-21.5-26.7-13.2-39-34.6s2.1-29.7-10.3-51.1"/><path d="m634.7 502.9c-12.3-21.4 2.1-29.7-10.3-51.1-12.3-21.4-26.8-13.1-39.1-34.4-12.3-21.4 2.1-29.7-10.3-51.1-12.3-21.4-26.8-13.1-39.1-34.4-12.3-21.4 2.1-29.7-10.3-51.1-12.3-21.4-26.8-13.1-39.1-34.4-12.3-21.4 2.1-29.7-10.3-51.1-12.3-21.4-26.8-13.1-39.1-34.4s2.1-29.7-10.3-51.1c-12.3-21.4-26.8-13.1-39.1-34.4-12.3-21.4 2.1-29.7-10.3-51.1-12.3-21.4-26.8-13.1-39.1-34.4-12.3-21.4 2.1-29.7-10.3-51.1"/><path d="m658.5 489.2c-12.3-21.4 2.1-29.7-10.3-51.1-12.3-21.4-26.8-13.1-39.1-34.4-12.3-21.4 2.1-29.7-10.3-51.1-12.3-21.4-26.8-13.1-39.1-34.4-12.3-21.4 2.1-29.7-10.3-51.1-12.3-21.4-26.8-13.1-39.1-34.4-12.3-21.4 2.1-29.7-10.3-51.1s-26.8-13.1-39.1-34.4c-12.3-21.4 2.1-29.7-10.3-51.1-12.3-21.4-26.8-13.1-39.1-34.4-12.3-21.4 2.1-29.7-10.3-51.1-12.3-21.5-26.7-13.2-39.1-34.6-12.3-21.4 2.1-29.7-10.3-51.1"/><path d="m682.2 475.6c-12.3-21.4 2.1-29.7-10.3-51.1-12.3-21.4-26.8-13.1-39.1-34.4-12.3-21.4 2.1-29.7-10.3-51.1-12.3-21.4-26.8-13.1-39.1-34.4-12.3-21.4 2.1-29.7-10.3-51.1-12.3-21.5-26.7-13.2-39.1-34.5-12.3-21.4 2.1-29.7-10.3-51.1-12.3-21.4-26.8-13.1-39.1-34.4-12.3-21.4 2.1-29.7-10.3-51.1-12.3-21.4-26.7-13.1-39.1-34.5-12.3-21.4 2.1-29.7-10.3-51.1-12.3-21.4-26.8-13.1-39.1-34.4-12.3-21.4 2.1-29.7-10.3-51.1"/><path d="m705.9 461.9c-12.3-21.4 2.1-29.7-10.3-51.1-12.3-21.4-26.8-13.1-39.1-34.4-12.3-21.4 2.1-29.7-10.3-51.1-12.3-21.4-26.8-13.1-39.1-34.4-12.3-21.4 2.1-29.7-10.3-51.1-12.3-21.4-26.8-13.1-39.1-34.4-12.3-21.4 2.1-29.7-10.3-51.1-12.3-21.4-26.8-13.1-39.1-34.4-12.3-21.6 2.1-29.9-10.2-51.3s-26.8-13.1-39.1-34.4c-12.3-21.4 2.1-29.7-10.3-51.1-12.3-21.4-26.8-13.1-39.1-34.4-12.3-21.4 2.1-29.7-10.3-51.1"/><path d="m729.6 448.1c-12.3-21.4 2.1-29.7-10.3-51.1-12.3-21.4-26.8-13.1-39.1-34.4-12.3-21.4 2.1-29.7-10.3-51.1-12.3-21.4-26.8-13.1-39.1-34.4-12.3-21.4 2.1-29.7-10.3-51.1-12.3-21.4-26.8-13.1-39.1-34.4-12.3-21.4 2.1-29.7-10.3-51.1-12.3-21.4-26.8-13.1-39.1-34.4-12.3-21.4 2.1-29.7-10.3-51.1-12.3-21.4-26.8-13.1-39.1-34.4-12.3-21.4 2.1-29.7-10.3-51.1-12.3-21.4-26.8-13.1-39.1-34.4-12.3-21.4 2.1-29.7-10.3-51.1"/><path d="m753.4 434.4c-12.3-21.4 2.1-29.7-10.3-51.1-12.3-21.4-26.8-13.1-39.1-34.4-12.3-21.4 2.1-29.7-10.3-51.1-12.3-21.4-26.8-13.1-39.1-34.4-12.3-21.4 2.1-29.7-10.3-51.1-12.3-21.4-26.8-13.1-39.1-34.4-12.3-21.4 2.1-29.7-10.3-51.1s-26.8-13.1-39.1-34.4c-12.3-21.4 2.1-29.7-10.3-51.1-12.3-21.4-26.8-13.1-39.1-34.4-12.3-21.4 2.1-29.7-10.3-51.1-12.3-21.4-26.8-13.1-39.1-34.4-12.3-21.4 2.1-29.7-10.3-51.1"/></g></g><g fill="none" stroke="#2977ec" stroke-miterlimit="10" stroke-width="20.82"><path d="m664.4 237.7c-3.3-1.9-6.8-3.6-10.6-5l-395.4-143.9c-80.3-29.2-162.2 39.5-147.4 123.6l1.1.2c.3-41.8 42.4-73 83.8-57.9l368.2 134c12.1 4.4 14.8 20.2 5 28.4l-235.5 197.9 11.7 66.3c2.2 12.6 17.3 18.1 27.1 9.9l300.2-251.9c33.7-28.3 27.8-80.4-8.2-101.6z"/><path d="m665.1 236.8-.7.9c36 21.2 42 73.2 8.2 101.6l-300.2 251.9c-9.8 8.2-24.9 2.8-27.1-9.9l-11.7-66.3-41.8-236.8-63.3-23c-12.1-4.4-24.3 5.9-22.1 18.6l68 385.9c7.6 43.4 55.8 64.3 92.1 43.7 3.3-1.9 6.5-4.1 9.6-6.7l322.3-270.4c65.5-55 47-160.2-33.3-189.5z"/><path d="m196 154.7c-41.4-15.1-83.6 16.1-83.8 57.9 0 3.8.3 7.7 1 11.6l73.1 414.4c3.6 20.4 12.2 37.9 24 52.1 37.3 44.4 107 55.4 156.7 13.7l-.4-1.1c-36.3 20.6-84.5-.3-92.1-43.7l-68-385.9c-2.2-12.6 10.1-22.9 22.1-18.6l63.3 23 225.9 82.2 51.6-43.3c9.8-8.2 7-24-5-28.4z"/></g></g></g></switch></svg>