<svg width="50" height="50" viewBox="0 0 50 50" fill="none" xmlns="http://www.w3.org/2000/svg">
<g clip-path="url(#clip0_472_9766)">
<path d="M25 50C38.8071 50 50 38.8071 50 25C50 11.1929 38.8071 0 25 0C11.1929 0 0 11.1929 0 25C0 38.8071 11.1929 50 25 50Z" fill="white"/>
<g clip-path="url(#clip1_472_9766)">
<path d="M37.3751 17.1889C37.2232 17.099 37.0597 17.0216 36.8846 16.9577L18.5126 10.2714C14.7799 8.91302 10.9767 12.1048 11.6655 16.0163L11.7178 16.026C11.7313 14.0852 13.6895 12.635 15.6139 13.3354L32.7252 19.5641C33.2854 19.7683 33.4141 20.5016 32.9584 20.8848L22.0043 30.0759L22.5471 33.1564C22.6506 33.7437 23.3501 33.9982 23.8068 33.615L37.7573 21.9093C39.3256 20.5936 39.0489 18.1729 37.3751 17.1899V17.1889Z" fill="#E4F7FE"/>
<path d="M37.409 17.1494L37.3752 17.1891C39.0489 18.173 39.3256 20.5927 37.7573 21.9085L23.8068 33.6142C23.3502 33.9973 22.6507 33.7429 22.5471 33.1556L22.0044 30.0751L20.0635 19.0738L17.1243 18.0037C16.5641 17.7996 15.9942 18.2785 16.0968 18.8657L19.2586 36.7992C19.6137 38.8164 21.8496 39.7868 23.5379 38.829C23.6917 38.7419 23.8407 38.6384 23.9829 38.5194L38.959 25.9526C42.0018 23.3994 41.1407 18.5097 37.4071 17.1513L37.409 17.1494Z" fill="#ACC6FE"/>
<path d="M15.614 13.334C13.6896 12.6345 11.7304 14.0838 11.7178 16.0246C11.7159 16.2016 11.7304 16.3816 11.7633 16.5644L15.1583 35.8185C15.3257 36.7647 15.7243 37.5803 16.2757 38.2392C18.0086 40.3038 21.2487 40.8117 23.5562 38.8758L23.5388 38.8264C21.8505 39.7842 19.6146 38.8138 19.2595 36.7966L16.0977 18.8632C15.9942 18.2759 16.565 17.798 17.1252 18.0012L20.0645 19.0712L30.5629 22.8918L32.9585 20.8814C33.4151 20.4983 33.2855 19.7649 32.7253 19.5608L15.614 13.332V13.334Z" fill="#BDE6FE"/>
<mask id="mask0_472_9766" style="mask-type:luminance" maskUnits="userSpaceOnUse" x="16" y="17" width="25" height="23">
<path d="M37.409 17.147L37.3752 17.1866C39.0489 18.1706 39.3256 20.5903 37.7573 21.9061L23.8068 33.6118C23.3502 33.9949 22.6507 33.7404 22.5471 33.1532L22.0044 30.0727L20.0635 19.0713L17.1243 18.0013C16.5641 17.7971 15.9942 18.276 16.0968 18.8633L19.2586 36.7967C19.6137 38.814 21.8496 39.7844 23.5379 38.8265C23.6917 38.7395 23.8407 38.6359 23.9829 38.5169L38.959 25.9502C42.0018 23.397 41.1407 18.5073 37.4071 17.1489L37.409 17.147Z" fill="white"/>
</mask>
<g mask="url(#mask0_472_9766)">
<path d="M37.4097 17.1455L37.3759 17.1852C39.0497 18.1691 39.3264 20.5888 37.7581 21.9046L23.8076 33.6103C23.3509 33.9934 22.6514 33.739 22.5479 33.1517L22.0051 30.0712L20.0643 19.0698L17.125 17.9998C16.5648 17.7957 15.9949 18.2746 16.0975 18.8618L19.2593 36.7953C19.6144 38.8125 21.8503 39.7829 23.5386 38.8251C23.6924 38.738 23.8414 38.6345 23.9837 38.5155L38.9597 25.9487C42.0025 23.3955 41.1414 18.5058 37.4078 17.1474L37.4097 17.1455Z" fill="#ACC6FE"/>
<path d="M13.5518 18.7402C14.6992 18.7402 14.6992 19.5142 15.8467 19.5142C16.9941 19.5142 16.9941 18.7402 18.1416 18.7402C19.2891 18.7402 19.2891 19.5142 20.4365 19.5142C21.584 19.5142 21.584 18.7402 22.7315 18.7402C23.8789 18.7402 23.8789 19.5142 25.0254 19.5142C26.1719 19.5142 26.1729 18.7402 27.3204 18.7402C28.4678 18.7402 28.4678 19.5142 29.6153 19.5142C30.7627 19.5142 30.7627 18.7402 31.9102 18.7402C33.0577 18.7402 33.0577 19.5142 34.2051 19.5142C35.3526 19.5142 35.3526 18.7402 36.5001 18.7402C37.6475 18.7402 37.6475 19.5142 38.795 19.5142C39.9425 19.5142 39.9425 18.7402 41.0899 18.7402C42.2374 18.7402 42.2374 19.5142 43.3848 19.5142" stroke="white" stroke-width="0.1935" stroke-miterlimit="10"/>
<path d="M13.5518 20.0117C14.6992 20.0117 14.6992 20.7857 15.8467 20.7857C16.9941 20.7857 16.9941 20.0117 18.1416 20.0117C19.2891 20.0117 19.2891 20.7857 20.4365 20.7857C21.584 20.7857 21.584 20.0117 22.7315 20.0117C23.8789 20.0117 23.8789 20.7857 25.0254 20.7857C26.1719 20.7857 26.1729 20.0117 27.3204 20.0117C28.4678 20.0117 28.4678 20.7857 29.6153 20.7857C30.7627 20.7857 30.7627 20.0117 31.9102 20.0117C33.0577 20.0117 33.0577 20.7857 34.2051 20.7857C35.3526 20.7857 35.3526 20.0117 36.5001 20.0117C37.6475 20.0117 37.6475 20.7857 38.795 20.7857C39.9425 20.7857 39.9425 20.0117 41.0899 20.0117C42.2374 20.0117 42.2374 20.7857 43.3848 20.7857" stroke="white" stroke-width="0.1935" stroke-miterlimit="10"/>
<path d="M13.5518 21.2861C14.6992 21.2861 14.6992 22.0601 15.8467 22.0601C16.9941 22.0601 16.9941 21.2861 18.1416 21.2861C19.2891 21.2861 19.2891 22.0601 20.4365 22.0601C21.584 22.0601 21.584 21.2861 22.7315 21.2861C23.8789 21.2861 23.8789 22.0601 25.0254 22.0601C26.1719 22.0601 26.1729 21.2861 27.3204 21.2861C28.4678 21.2861 28.4678 22.0601 29.6153 22.0601C30.7627 22.0601 30.7627 21.2861 31.9102 21.2861C33.0577 21.2861 33.0577 22.0601 34.2051 22.0601C35.3526 22.0601 35.3526 21.2861 36.5001 21.2861C37.6475 21.2861 37.6475 22.0601 38.795 22.0601C39.9425 22.0601 39.9425 21.2861 41.0899 21.2861C42.2374 21.2861 42.2374 22.0601 43.3848 22.0601" stroke="white" stroke-width="0.1935" stroke-miterlimit="10"/>
<path d="M13.5518 22.5586C14.6992 22.5586 14.6992 23.3326 15.8467 23.3326C16.9941 23.3326 16.9941 22.5586 18.1416 22.5586C19.2891 22.5586 19.2891 23.3326 20.4365 23.3326C21.584 23.3326 21.584 22.5586 22.7315 22.5586C23.8789 22.5586 23.8789 23.3326 25.0254 23.3326C26.1719 23.3326 26.1729 22.5586 27.3204 22.5586C28.4678 22.5586 28.4678 23.3326 29.6153 23.3326C30.7627 23.3326 30.7627 22.5586 31.9102 22.5586C33.0577 22.5586 33.0577 23.3326 34.2051 23.3326C35.3526 23.3326 35.3526 22.5586 36.5001 22.5586C37.6475 22.5586 37.6475 23.3326 38.795 23.3326C39.9425 23.3326 39.9425 22.5586 41.0899 22.5586C42.2374 22.5586 42.2374 23.3326 43.3848 23.3326" stroke="white" stroke-width="0.1935" stroke-miterlimit="10"/>
<path d="M13.5518 23.8306C14.6992 23.8306 14.6992 24.6046 15.8467 24.6046C16.9941 24.6046 16.9941 23.8306 18.1416 23.8306C19.2891 23.8306 19.2891 24.6046 20.4365 24.6046C21.584 24.6046 21.584 23.8306 22.7315 23.8306C23.8789 23.8306 23.8789 24.6046 25.0254 24.6046C26.1719 24.6046 26.1729 23.8306 27.3204 23.8306C28.4678 23.8306 28.4678 24.6046 29.6153 24.6046C30.7627 24.6046 30.7627 23.8306 31.9102 23.8306C33.0577 23.8306 33.0577 24.6046 34.2051 24.6046C35.3526 24.6046 35.3526 23.8306 36.5001 23.8306C37.6475 23.8306 37.6475 24.6046 38.795 24.6046C39.9425 24.6046 39.9425 23.8306 41.0899 23.8306C42.2374 23.8306 42.2374 24.6046 43.3848 24.6046" stroke="white" stroke-width="0.1935" stroke-miterlimit="10"/>
<path d="M13.5518 25.1045C14.6992 25.1045 14.6992 25.8785 15.8467 25.8785C16.9941 25.8785 16.9941 25.1045 18.1416 25.1045C19.2891 25.1045 19.2891 25.8785 20.4365 25.8785C21.584 25.8785 21.584 25.1045 22.7315 25.1045C23.8789 25.1045 23.8789 25.8785 25.0254 25.8785C26.1719 25.8785 26.1729 25.1045 27.3204 25.1045C28.4678 25.1045 28.4678 25.8785 29.6153 25.8785C30.7627 25.8785 30.7627 25.1045 31.9102 25.1045C33.0577 25.1045 33.0577 25.8785 34.2051 25.8785C35.3526 25.8785 35.3526 25.1045 36.5001 25.1045C37.6475 25.1045 37.6475 25.8785 38.795 25.8785C39.9425 25.8785 39.9425 25.1045 41.0899 25.1045C42.2374 25.1045 42.2374 25.8785 43.3848 25.8785" stroke="white" stroke-width="0.1935" stroke-miterlimit="10"/>
<path d="M13.5518 26.377C14.6992 26.377 14.6992 27.1509 15.8467 27.1509C16.9941 27.1509 16.9941 26.377 18.1416 26.377C19.2891 26.377 19.2891 27.1509 20.4365 27.1509C21.584 27.1509 21.584 26.377 22.7315 26.377C23.8789 26.377 23.8789 27.1509 25.0254 27.1509C26.1719 27.1509 26.1729 26.377 27.3204 26.377C28.4678 26.377 28.4678 27.1509 29.6153 27.1509C30.7627 27.1509 30.7627 26.377 31.9102 26.377C33.0577 26.377 33.0577 27.1509 34.2051 27.1509C35.3526 27.1509 35.3526 26.377 36.5001 26.377C37.6475 26.377 37.6475 27.1509 38.795 27.1509C39.9425 27.1509 39.9425 26.377 41.0899 26.377C42.2374 26.377 42.2374 27.1509 43.3848 27.1509" stroke="white" stroke-width="0.1935" stroke-miterlimit="10"/>
<path d="M13.5518 27.6489C14.6992 27.6489 14.6992 28.4229 15.8467 28.4229C16.9941 28.4229 16.9941 27.6489 18.1416 27.6489C19.2891 27.6489 19.2891 28.4229 20.4365 28.4229C21.584 28.4229 21.584 27.6489 22.7315 27.6489C23.8789 27.6489 23.8789 28.4229 25.0254 28.4229C26.1719 28.4229 26.1729 27.6489 27.3204 27.6489C28.4678 27.6489 28.4678 28.4229 29.6153 28.4229C30.7627 28.4229 30.7627 27.6489 31.9102 27.6489C33.0577 27.6489 33.0577 28.4229 34.2051 28.4229C35.3526 28.4229 35.3526 27.6489 36.5001 27.6489C37.6475 27.6489 37.6475 28.4229 38.795 28.4229C39.9425 28.4229 39.9425 27.6489 41.0899 27.6489C42.2374 27.6489 42.2374 28.4229 43.3848 28.4229" stroke="white" stroke-width="0.1935" stroke-miterlimit="10"/>
<path d="M13.5518 28.9229C14.6992 28.9229 14.6992 29.6968 15.8467 29.6968C16.9941 29.6968 16.9941 28.9229 18.1416 28.9229C19.2891 28.9229 19.2891 29.6968 20.4365 29.6968C21.584 29.6968 21.584 28.9229 22.7315 28.9229C23.8789 28.9229 23.8789 29.6968 25.0254 29.6968C26.1719 29.6968 26.1729 28.9229 27.3204 28.9229C28.4678 28.9229 28.4678 29.6968 29.6153 29.6968C30.7627 29.6968 30.7627 28.9229 31.9102 28.9229C33.0577 28.9229 33.0577 29.6968 34.2051 29.6968C35.3526 29.6968 35.3526 28.9229 36.5001 28.9229C37.6475 28.9229 37.6475 29.6968 38.795 29.6968C39.9425 29.6968 39.9425 28.9229 41.0899 28.9229C42.2374 28.9229 42.2374 29.6968 43.3848 29.6968" stroke="white" stroke-width="0.1935" stroke-miterlimit="10"/>
<path d="M13.5518 30.1958C14.6992 30.1958 14.6992 30.9698 15.8467 30.9698C16.9941 30.9698 16.9941 30.1958 18.1416 30.1958C19.2891 30.1958 19.2891 30.9698 20.4365 30.9698C21.584 30.9698 21.584 30.1958 22.7315 30.1958C23.8789 30.1958 23.8789 30.9698 25.0254 30.9698C26.1719 30.9698 26.1729 30.1958 27.3204 30.1958C28.4678 30.1958 28.4678 30.9698 29.6153 30.9698C30.7627 30.9698 30.7627 30.1958 31.9102 30.1958C33.0577 30.1958 33.0577 30.9698 34.2051 30.9698C35.3526 30.9698 35.3526 30.1958 36.5001 30.1958C37.6475 30.1958 37.6475 30.9698 38.795 30.9698C39.9425 30.9698 39.9425 30.1958 41.0899 30.1958C42.2374 30.1958 42.2374 30.9698 43.3848 30.9698" stroke="white" stroke-width="0.1935" stroke-miterlimit="10"/>
<path d="M13.5518 31.4697C14.6992 31.4697 14.6992 32.2437 15.8467 32.2437C16.9941 32.2437 16.9941 31.4697 18.1416 31.4697C19.2891 31.4697 19.2891 32.2437 20.4365 32.2437C21.584 32.2437 21.584 31.4697 22.7315 31.4697C23.8789 31.4697 23.8789 32.2437 25.0254 32.2437C26.1719 32.2437 26.1729 31.4697 27.3204 31.4697C28.4678 31.4697 28.4678 32.2437 29.6153 32.2437C30.7627 32.2437 30.7627 31.4697 31.9102 31.4697C33.0577 31.4697 33.0577 32.2437 34.2051 32.2437C35.3526 32.2437 35.3526 31.4697 36.5001 31.4697C37.6475 31.4697 37.6475 32.2437 38.795 32.2437C39.9425 32.2437 39.9425 31.4697 41.0899 31.4697C42.2374 31.4697 42.2374 32.2437 43.3848 32.2437" stroke="white" stroke-width="0.1935" stroke-miterlimit="10"/>
<path d="M13.5518 32.7417C14.6992 32.7417 14.6992 33.5157 15.8467 33.5157C16.9941 33.5157 16.9941 32.7417 18.1416 32.7417C19.2891 32.7417 19.2891 33.5157 20.4365 33.5157C21.584 33.5157 21.584 32.7417 22.7315 32.7417C23.8789 32.7417 23.8789 33.5157 25.0254 33.5157C26.1719 33.5157 26.1729 32.7417 27.3204 32.7417C28.4678 32.7417 28.4678 33.5157 29.6153 33.5157C30.7627 33.5157 30.7627 32.7417 31.9102 32.7417C33.0577 32.7417 33.0577 33.5157 34.2051 33.5157C35.3526 33.5157 35.3526 32.7417 36.5001 32.7417C37.6475 32.7417 37.6475 33.5157 38.795 33.5157C39.9425 33.5157 39.9425 32.7417 41.0899 32.7417C42.2374 32.7417 42.2374 33.5157 43.3848 33.5157" stroke="white" stroke-width="0.1935" stroke-miterlimit="10"/>
<path d="M13.5518 34.0156C14.6992 34.0156 14.6992 34.7896 15.8467 34.7896C16.9941 34.7896 16.9941 34.0156 18.1416 34.0156C19.2891 34.0156 19.2891 34.7896 20.4365 34.7896C21.584 34.7896 21.584 34.0156 22.7315 34.0156C23.8789 34.0156 23.8789 34.7896 25.0254 34.7896C26.1719 34.7896 26.1729 34.0156 27.3204 34.0156C28.4678 34.0156 28.4678 34.7896 29.6153 34.7896C30.7627 34.7896 30.7627 34.0156 31.9102 34.0156C33.0577 34.0156 33.0577 34.7896 34.2051 34.7896C35.3526 34.7896 35.3526 34.0156 36.5001 34.0156C37.6475 34.0156 37.6475 34.7896 38.795 34.7896C39.9425 34.7896 39.9425 34.0156 41.0899 34.0156C42.2374 34.0156 42.2374 34.7896 43.3848 34.7896" stroke="white" stroke-width="0.1935" stroke-miterlimit="10"/>
<path d="M13.5518 35.2881C14.6992 35.2881 14.6992 36.0621 15.8467 36.0621C16.9941 36.0621 16.9941 35.2881 18.1416 35.2881C19.2891 35.2881 19.2891 36.0621 20.4365 36.0621C21.584 36.0621 21.584 35.2881 22.7315 35.2881C23.8789 35.2881 23.8789 36.0621 25.0254 36.0621C26.1719 36.0621 26.1729 35.2881 27.3204 35.2881C28.4678 35.2881 28.4678 36.0621 29.6153 36.0621C30.7627 36.0621 30.7627 35.2881 31.9102 35.2881C33.0577 35.2881 33.0577 36.0621 34.2051 36.0621C35.3526 36.0621 35.3526 35.2881 36.5001 35.2881C37.6475 35.2881 37.6475 36.0621 38.795 36.0621C39.9425 36.0621 39.9425 35.2881 41.0899 35.2881C42.2374 35.2881 42.2374 36.0621 43.3848 36.0621" stroke="white" stroke-width="0.1935" stroke-miterlimit="10"/>
<path d="M13.5518 36.5601C14.6992 36.5601 14.6992 37.3341 15.8467 37.3341C16.9941 37.3341 16.9941 36.5601 18.1416 36.5601C19.2891 36.5601 19.2891 37.3341 20.4365 37.3341C21.584 37.3341 21.584 36.5601 22.7315 36.5601C23.8789 36.5601 23.8789 37.3341 25.0254 37.3341C26.1719 37.3341 26.1729 36.5601 27.3204 36.5601C28.4678 36.5601 28.4678 37.3341 29.6153 37.3341C30.7627 37.3341 30.7627 36.5601 31.9102 36.5601C33.0577 36.5601 33.0577 37.3341 34.2051 37.3341C35.3526 37.3341 35.3526 36.5601 36.5001 36.5601C37.6475 36.5601 37.6475 37.3341 38.795 37.3341C39.9425 37.3341 39.9425 36.5601 41.0899 36.5601C42.2374 36.5601 42.2374 37.3341 43.3848 37.3341" stroke="white" stroke-width="0.1935" stroke-miterlimit="10"/>
<path d="M13.5518 37.834C14.6992 37.834 14.6992 38.608 15.8467 38.608C16.9941 38.608 16.9941 37.834 18.1416 37.834C19.2891 37.834 19.2891 38.608 20.4365 38.608C21.584 38.608 21.584 37.834 22.7315 37.834C23.8789 37.834 23.8789 38.608 25.0254 38.608C26.1719 38.608 26.1729 37.834 27.3204 37.834C28.4678 37.834 28.4678 38.608 29.6153 38.608C30.7627 38.608 30.7627 37.834 31.9102 37.834C33.0577 37.834 33.0577 38.608 34.2051 38.608C35.3526 38.608 35.3526 37.834 36.5001 37.834C37.6475 37.834 37.6475 38.608 38.795 38.608C39.9425 38.608 39.9425 37.834 41.0899 37.834C42.2374 37.834 42.2374 38.608 43.3848 38.608" stroke="white" stroke-width="0.1935" stroke-miterlimit="10"/>
</g>
<mask id="mask1_472_9766" style="mask-type:luminance" maskUnits="userSpaceOnUse" x="11" y="13" width="23" height="28">
<path d="M23.5561 38.8734L23.5387 38.8241C21.8494 39.7819 19.6155 38.8115 19.2604 36.7953L16.0986 18.8618C15.995 18.2746 16.5659 17.7966 17.1261 17.9998L20.0653 19.0698L30.5638 22.8905L32.9603 20.88C33.4169 20.4969 33.2873 19.7635 32.7271 19.5594L15.6148 13.3307C13.6904 12.6292 11.7322 14.0815 11.7177 16.0222C11.7167 16.1993 11.7312 16.3792 11.7641 16.5621L15.1591 35.8152C15.849 39.7277 20.5143 41.4257 23.558 38.8725L23.5561 38.8734Z" fill="white"/>
</mask>
<g mask="url(#mask1_472_9766)">
<path d="M23.5572 38.8744L23.5398 38.8251C21.8505 39.7829 19.6166 38.8125 19.2615 36.7962L16.0997 18.8628C15.9961 18.2755 16.567 17.7976 17.1272 18.0008L20.0664 19.0708L30.5649 22.8914L32.9614 20.881C33.418 20.4979 33.2884 19.7645 32.7282 19.5604L15.6159 13.3317C13.6915 12.6302 11.7333 14.0824 11.7188 16.0232C11.7178 16.2003 11.7323 16.3802 11.7652 16.5631L15.1602 35.8162C15.8501 39.7287 20.5154 41.4267 23.5591 38.8734L23.5572 38.8744Z" fill="#BDE6FE"/>
<path d="M34.1042 17.417C33.5305 18.4106 32.86 18.0236 32.2863 19.0172C31.7126 20.0108 32.383 20.3978 31.8093 21.3915C31.2356 22.3851 30.5651 21.9981 29.9914 22.9917C29.4176 23.9853 30.0881 24.3723 29.5144 25.3659C28.9407 26.3595 28.2702 25.9725 27.6974 26.9661C27.1237 27.9598 27.7942 28.3468 27.2204 29.3404C26.6467 30.334 25.9762 29.947 25.4025 30.9406C24.8287 31.9342 25.4992 32.3212 24.9255 33.3148C24.3518 34.3084 23.6813 33.9214 23.1076 34.9151C22.5338 35.9087 23.2043 36.2957 22.6306 37.2893C22.0568 38.2829 21.3864 37.8959 20.8126 38.8895C20.2389 39.8831 20.9094 40.2701 20.3356 41.2637C19.7619 42.2574 19.0914 41.8704 18.5177 42.864" stroke="white" stroke-width="0.1935" stroke-miterlimit="10"/>
<path d="M33.0026 16.7803C32.4288 17.7739 31.7583 17.3869 31.1846 18.3805C30.6109 19.3741 31.2814 19.7611 30.7076 20.7547C30.1339 21.7483 29.4634 21.3613 28.8897 22.355C28.316 23.3486 28.9864 23.7356 28.4127 24.7292C27.839 25.7228 27.1685 25.3358 26.5957 26.3294C26.022 27.323 26.6925 27.71 26.1187 28.7036C25.545 29.6973 24.8745 29.3103 24.3008 30.3039C23.7271 31.2975 24.3975 31.6845 23.8238 32.6781C23.2501 33.6717 22.5796 33.2847 22.0059 34.2783C21.4321 35.272 22.1026 35.6589 21.5289 36.6526C20.9552 37.6462 20.2847 37.2592 19.7109 38.2528C19.1372 39.2464 19.8077 39.6334 19.234 40.627C18.6602 41.6206 17.9897 41.2336 17.416 42.2273" stroke="white" stroke-width="0.1935" stroke-miterlimit="10"/>
<path d="M31.8989 16.1431C31.3252 17.1367 30.6547 16.7497 30.081 17.7433C29.5072 18.7369 30.1777 19.1239 29.604 20.1175C29.0303 21.1111 28.3598 20.7241 27.786 21.7178C27.2123 22.7114 27.8828 23.0984 27.3091 24.092C26.7353 25.0856 26.0648 24.6986 25.4921 25.6922C24.9193 26.6858 25.5888 27.0728 25.0151 28.0664C24.4414 29.0601 23.7709 28.6731 23.1972 29.6667C22.6234 30.6603 23.2939 31.0473 22.7202 32.0409C22.1464 33.0345 21.476 32.6475 20.9022 33.6411C20.3285 34.6347 20.999 35.0217 20.4252 36.0154C19.8515 37.009 19.181 36.622 18.6073 37.6156C18.0336 38.6092 18.7041 38.9962 18.1303 39.9898C17.5566 40.9834 16.8861 40.5964 16.3124 41.59" stroke="white" stroke-width="0.1935" stroke-miterlimit="10"/>
<path d="M30.7976 15.5059C30.2239 16.4995 29.5534 16.1125 28.9797 17.1061C28.4059 18.0997 29.0764 18.4867 28.5027 19.4803C27.9289 20.4739 27.2585 20.0869 26.6847 21.0806C26.111 22.0742 26.7815 22.4612 26.2077 23.4548C25.634 24.4484 24.9635 24.0614 24.3908 25.055C23.818 26.0486 24.4875 26.4356 23.9138 27.4292C23.3401 28.4229 22.6696 28.0359 22.0958 29.0295C21.5221 30.0231 22.1926 30.4101 21.6189 31.4037C21.0451 32.3973 20.3746 32.0103 19.8009 33.0039C19.2272 33.9975 19.8977 34.3845 19.3239 35.3781C18.7502 36.3718 18.0797 35.9848 17.506 36.9784C16.9323 37.972 17.6027 38.359 17.029 39.3526C16.4553 40.3462 15.7848 39.9592 15.2111 40.9528" stroke="white" stroke-width="0.1935" stroke-miterlimit="10"/>
<path d="M29.6944 14.8691C29.1207 15.8628 28.4502 15.4758 27.8765 16.4694C27.3028 17.463 27.9733 17.85 27.3995 18.8436C26.8258 19.8372 26.1553 19.4502 25.5816 20.4438C25.0078 21.4374 25.6783 21.8244 25.1046 22.8181C24.5309 23.8117 23.8604 23.4247 23.2876 24.4183C22.7139 25.4119 23.3844 25.7989 22.8106 26.7925C22.2369 27.7861 21.5664 27.3991 20.9927 28.3927C20.419 29.3864 21.0894 29.7734 20.5157 30.767C19.942 31.7606 19.2715 31.3736 18.6978 32.3672C18.124 33.3608 18.7945 33.7478 18.2208 34.7414C17.6471 35.735 16.9766 35.348 16.4028 36.3417C15.8291 37.3353 16.4996 37.7223 15.9259 38.7159C15.3521 39.7095 14.6816 39.3225 14.1079 40.3161" stroke="white" stroke-width="0.1935" stroke-miterlimit="10"/>
<path d="M28.5928 14.2334C28.019 15.227 27.3486 14.84 26.7748 15.8336C26.2011 16.8272 26.8716 17.2142 26.2978 18.2079C25.7241 19.2015 25.0536 18.8145 24.4799 19.8081C23.9062 20.8017 24.5766 21.1887 24.0029 22.1823C23.4292 23.1759 22.7587 22.7889 22.1859 23.7825C21.6122 24.7762 22.2827 25.1632 21.709 26.1568C21.1352 27.1504 20.4647 26.7634 19.891 27.757C19.3173 28.7506 19.9878 29.1376 19.414 30.1312C18.8403 31.1248 18.1698 30.7378 17.5961 31.7315C17.0223 32.7251 17.6928 33.1121 17.1191 34.1057C16.5454 35.0993 15.8749 34.7123 15.3012 35.7059C14.7274 36.6995 15.3979 37.0865 14.8242 38.0801C14.2504 39.0738 13.58 38.6868 13.0062 39.6804" stroke="white" stroke-width="0.1935" stroke-miterlimit="10"/>
<path d="M27.4903 13.5986C26.9166 14.5922 26.2461 14.2053 25.6724 15.1989C25.0987 16.1925 25.7692 16.5795 25.1954 17.5731C24.6217 18.5667 23.9512 18.1797 23.3775 19.1733C22.8037 20.1669 23.4742 20.5539 22.9005 21.5475C22.3268 22.5412 21.6563 22.1542 21.0835 23.1478C20.5098 24.1414 21.1803 24.5284 20.6065 25.522C20.0328 26.5156 19.3623 26.1286 18.7886 27.1222C18.2149 28.1159 18.8853 28.5028 18.3116 29.4965C17.7379 30.4901 17.0674 30.1031 16.4937 31.0967C15.9199 32.0903 16.5904 32.4773 16.0167 33.4709C15.443 34.4645 14.7725 34.0775 14.1987 35.0712C13.625 36.0648 14.2955 36.4518 13.7218 37.4454C13.148 38.439 12.4775 38.052 11.9038 39.0456" stroke="white" stroke-width="0.1935" stroke-miterlimit="10"/>
<path d="M26.3878 12.9614C25.8141 13.955 25.1436 13.568 24.5699 14.5617C23.9961 15.5553 24.6666 15.9423 24.0929 16.9359C23.5192 17.9295 22.8487 17.5425 22.2749 18.5361C21.7012 19.5297 22.3717 19.9167 21.798 20.9103C21.2242 21.904 20.5537 21.517 19.981 22.5106C19.4082 23.5042 20.0777 23.8912 19.504 24.8848C18.9303 25.8784 18.2598 25.4914 17.6861 26.485C17.1123 27.4786 17.7828 27.8656 17.2091 28.8593C16.6353 29.8529 15.9649 29.4659 15.3911 30.4595C14.8174 31.4531 15.4879 31.8401 14.9141 32.8337C14.3404 33.8273 13.6699 33.4403 13.0962 34.4339C12.5225 35.4276 13.1929 35.8146 12.6192 36.8082C12.0455 37.8018 11.375 37.4148 10.8013 38.4084" stroke="white" stroke-width="0.1935" stroke-miterlimit="10"/>
<path d="M25.2854 12.3247C24.7117 13.3183 24.0412 12.9313 23.4674 13.9249C22.8937 14.9186 23.5642 15.3055 22.9905 16.2992C22.4167 17.2928 21.7463 16.9058 21.1725 17.8994C20.5988 18.893 21.2693 19.28 20.6955 20.2736C20.1218 21.2672 19.4513 20.8802 18.8786 21.8739C18.3058 22.8675 18.9753 23.2545 18.4016 24.2481C17.8278 25.2417 17.1574 24.8547 16.5836 25.8483C16.0099 26.8419 16.6804 27.2289 16.1067 28.2225C15.5329 29.2162 14.8624 28.8292 14.2887 29.8228C13.715 30.8164 14.3855 31.2034 13.8117 32.197C13.238 33.1906 12.5675 32.8036 11.9938 33.7972C11.42 34.7908 12.0905 35.1778 11.5168 36.1715C10.9431 37.1651 10.2726 36.7781 9.69885 37.7717" stroke="white" stroke-width="0.1935" stroke-miterlimit="10"/>
<path d="M24.183 11.6875C23.6092 12.6811 22.9388 12.2941 22.365 13.2877C21.7913 14.2813 22.4618 14.6683 21.888 15.662C21.3143 16.6556 20.6438 16.2686 20.0701 17.2622C19.4964 18.2558 20.1669 18.6428 19.5931 19.6364C19.0194 20.63 18.3489 20.243 17.7761 21.2366C17.2024 22.2303 17.8729 22.6173 17.2992 23.6109C16.7254 24.6045 16.0549 24.2175 15.4812 25.2111C14.9075 26.2047 15.578 26.5917 15.0042 27.5853C14.4305 28.5789 13.76 28.192 13.1863 29.1856C12.6126 30.1792 13.283 30.5662 12.7093 31.5598C12.1356 32.5534 11.4651 32.1664 10.8914 33.16C10.3176 34.1536 10.9881 34.5406 10.4144 35.5342C9.84065 36.5279 9.17017 36.1409 8.59644 37.1345" stroke="white" stroke-width="0.1935" stroke-miterlimit="10"/>
<path d="M23.0806 11.0503C22.5068 12.0439 21.8363 11.6569 21.2626 12.6505C20.6889 13.6441 21.3594 14.0311 20.7856 15.0248C20.2119 16.0184 19.5414 15.6314 18.9677 16.625C18.394 17.6186 19.0644 18.0056 18.4907 18.9992C17.917 19.9928 17.2465 19.6058 16.6737 20.5994C16.1 21.5931 16.7705 21.9801 16.1967 22.9737C15.623 23.9673 14.9525 23.5803 14.3788 24.5739C13.8051 25.5675 14.4755 25.9545 13.9018 26.9481C13.3281 27.9417 12.6576 27.5547 12.0839 28.5484C11.5101 29.542 12.1806 29.929 11.6069 30.9226C11.0332 31.9162 10.3627 31.5292 9.78895 32.5228C9.21521 33.5164 9.8857 33.9034 9.31196 34.897C8.73823 35.8907 8.06775 35.5037 7.49402 36.4973" stroke="white" stroke-width="0.1935" stroke-miterlimit="10"/>
<path d="M21.9777 10.4155C21.4039 11.4091 20.7334 11.0221 20.1597 12.0158C19.586 13.0094 20.2565 13.3964 19.6827 14.39C19.109 15.3836 18.4385 14.9966 17.8648 15.9902C17.291 16.9838 17.9615 17.3708 17.3878 18.3644C16.8141 19.3581 16.1436 18.9711 15.5708 19.9647C14.9971 20.9583 15.6676 21.3453 15.0938 22.3389C14.5201 23.3325 13.8496 22.9455 13.2759 23.9391C12.7022 24.9327 13.3726 25.3197 12.7989 26.3134C12.2252 27.307 11.5547 26.92 10.981 27.9136C10.4072 28.9072 11.0777 29.2942 10.504 30.2878C9.93025 31.2814 9.25977 30.8944 8.68604 31.888C8.11231 32.8817 8.78279 33.2687 8.20906 34.2623C7.63533 35.2559 6.96484 34.8689 6.39111 35.8625" stroke="white" stroke-width="0.1935" stroke-miterlimit="10"/>
<path d="M20.8756 9.78027C20.3019 10.7739 19.6314 10.3869 19.0577 11.3805C18.4839 12.3741 19.1544 12.7611 18.5807 13.7547C18.0069 14.7483 17.3365 14.3614 16.7627 15.355C16.189 16.3486 16.8595 16.7356 16.2857 17.7292C15.712 18.7228 15.0415 18.3358 14.4688 19.3294C13.895 20.323 14.5655 20.71 13.9918 21.7036C13.4181 22.6973 12.7476 22.3103 12.1738 23.3039C11.6001 24.2975 12.2706 24.6845 11.6969 25.6781C11.1231 26.6717 10.4526 26.2847 9.87892 27.2783C9.30518 28.272 9.97567 28.659 9.40194 29.6526C8.8282 30.6462 8.15772 30.2592 7.58399 31.2528C7.01026 32.2464 7.68074 32.6334 7.10701 33.627C6.53328 34.6206 5.86279 34.2336 5.28906 35.2273" stroke="white" stroke-width="0.1935" stroke-miterlimit="10"/>
<path d="M19.7739 9.14307C19.2002 10.1367 18.5297 9.74968 17.956 10.7433C17.3822 11.7369 18.0527 12.1239 17.479 13.1175C16.9053 14.1111 16.2348 13.7241 15.661 14.7178C15.0873 15.7114 15.7578 16.0984 15.1841 17.092C14.6103 18.0856 13.9398 17.6986 13.3671 18.6922C12.7943 19.6858 13.4638 20.0728 12.8901 21.0664C12.3164 22.0601 11.6459 21.6731 11.0722 22.6667C10.4984 23.6603 11.1689 24.0473 10.5952 25.0409C10.0214 26.0345 9.35096 25.6475 8.77723 26.6411C8.2035 27.6347 8.87398 28.0217 8.30025 29.0154C7.72652 30.009 7.05604 29.622 6.4823 30.6156C5.90857 31.6092 6.57906 31.9962 6.00532 32.9898C5.43159 33.9834 4.76111 33.5964 4.18738 34.59" stroke="white" stroke-width="0.1935" stroke-miterlimit="10"/>
<path d="M18.6708 8.50586C18.097 9.49947 17.4266 9.11248 16.8528 10.1061C16.2791 11.0997 16.9496 11.4867 16.3758 12.4803C15.8021 13.4739 15.1316 13.0869 14.5579 14.0805C13.9842 15.0742 14.6546 15.4612 14.0809 16.4548C13.5072 17.4484 12.8367 17.0614 12.2639 18.055C11.6912 19.0486 12.3607 19.4356 11.787 20.4292C11.2132 21.4228 10.5427 21.0359 9.96901 22.0295C9.39528 23.0231 10.0658 23.4101 9.49203 24.4037C8.9183 25.3973 8.24781 25.0103 7.67408 26.0039C7.10035 26.9975 7.77083 27.3845 7.1971 28.3781C6.62337 29.3718 5.95289 28.9848 5.37916 29.9784C4.80542 30.972 5.47591 31.359 4.90217 32.3526C4.32844 33.3462 3.65796 32.9592 3.08423 33.9528" stroke="white" stroke-width="0.1935" stroke-miterlimit="10"/>
<path d="M17.5687 7.86914C16.995 8.86276 16.3245 8.47576 15.7508 9.46937C15.177 10.463 15.8475 10.85 15.2738 11.8436C14.7001 12.8372 14.0296 12.4502 13.4558 13.4438C12.8821 14.4374 13.5526 14.8244 12.9789 15.8181C12.4051 16.8117 11.7346 16.4247 11.1619 17.4183C10.5882 18.4119 11.2586 18.7989 10.6849 19.7925C10.1112 20.7861 9.44069 20.3991 8.86696 21.3927C8.29323 22.3864 8.96371 22.7734 8.38998 23.767C7.81625 24.7606 7.14576 24.3736 6.57203 25.3672C5.9983 26.3608 6.66878 26.7478 6.09505 27.7414C5.52132 28.735 4.85084 28.348 4.2771 29.3417C3.70337 30.3353 4.37386 30.7223 3.80012 31.7159C3.22639 32.7095 2.55591 32.3225 1.98218 33.3161" stroke="white" stroke-width="0.1935" stroke-miterlimit="10"/>
</g>
<mask id="mask2_472_9766" style="mask-type:luminance" maskUnits="userSpaceOnUse" x="11" y="9" width="28" height="25">
<path d="M11.6661 16.0155L11.7174 16.0251C11.7319 14.0834 13.6901 12.6341 15.6135 13.3345L32.7258 19.5632C33.286 19.7674 33.4147 20.5007 32.959 20.8839L30.5625 22.8943L22.0049 30.075L22.5476 33.1555C22.6512 33.7428 23.3507 33.9973 23.8073 33.6141L37.7569 21.9094C39.3261 20.5936 39.0485 18.172 37.3747 17.189C37.2218 17.099 37.0583 17.0226 36.8842 16.9588L18.5131 10.2724C14.7805 8.91406 10.9763 12.1048 11.6661 16.0174V16.0155Z" fill="white"/>
</mask>
<g mask="url(#mask2_472_9766)">
<path d="M11.6646 16.0155L11.7159 16.0251C11.7304 14.0834 13.6886 12.6341 15.612 13.3345L32.7243 19.5632C33.2845 19.7674 33.4132 20.5007 32.9575 20.8839L30.561 22.8943L22.0034 30.075L22.5462 33.1555C22.6497 33.7428 23.3492 33.9973 23.8059 33.6141L37.7554 21.9094C39.3247 20.5936 39.047 18.172 37.3732 17.189C37.2204 17.099 37.0568 17.0226 36.8827 16.9588L18.5117 10.2724C14.779 8.91406 10.9748 12.1048 11.6646 16.0174V16.0155Z" fill="#E4F7FE"/>
<path d="M24.9751 35.8777C24.4013 34.8841 25.0718 34.4971 24.4981 33.5035C23.9243 32.5099 23.2539 32.8969 22.6801 31.9033C22.1064 30.9096 22.7769 30.5226 22.2032 29.529C21.6294 28.5354 20.9589 28.9224 20.3852 27.9288C19.8115 26.9352 20.482 26.5482 19.9082 25.5546C19.3345 24.561 18.664 24.948 18.0903 23.9543C17.5165 22.9607 18.187 22.5737 17.6133 21.5801C17.0396 20.5865 16.3691 20.9735 15.7954 19.9799C15.2216 18.9863 15.8921 18.5993 15.3184 17.6057C14.7446 16.612 14.0742 16.999 13.5004 16.0054C12.9267 15.0118 13.5972 14.6248 13.0234 13.6312C12.4497 12.6376 11.7792 13.0246 11.2055 12.031C10.6318 11.0373 11.3022 10.6504 10.7285 9.65674" stroke="white" stroke-width="0.1935" stroke-miterlimit="10"/>
<path d="M26.0775 35.2425C25.5037 34.2488 26.1742 33.8618 25.6005 32.8682C25.0268 31.8746 24.3563 32.2616 23.7825 31.268C23.2088 30.2744 23.8793 29.8874 23.3056 28.8938C22.7318 27.9002 22.0614 28.2872 21.4876 27.2935C20.9139 26.2999 21.5844 25.9129 21.0106 24.9193C20.4369 23.9257 19.7664 24.3127 19.1927 23.3191C18.619 22.3255 19.2894 21.9385 18.7157 20.9449C18.142 19.9512 17.4715 20.3382 16.8978 19.3446C16.324 18.351 16.9945 17.964 16.4208 16.9704C15.8471 15.9768 15.1766 16.3638 14.6028 15.3702C14.0291 14.3766 14.6996 13.9896 14.1259 12.9959C13.5521 12.0023 12.8816 12.3893 12.3079 11.3957C11.7342 10.4021 12.4047 10.0151 11.8309 9.02148" stroke="white" stroke-width="0.1935" stroke-miterlimit="10"/>
<path d="M27.1803 34.6053C26.6065 33.6116 27.277 33.2246 26.7033 32.231C26.1295 31.2374 25.4591 31.6244 24.8853 30.6308C24.3116 29.6372 24.9821 29.2502 24.4084 28.2566C23.8346 27.263 23.1641 27.65 22.5904 26.6563C22.0167 25.6627 22.6872 25.2757 22.1134 24.2821C21.5397 23.2885 20.8692 23.6755 20.2955 22.6819C19.7217 21.6883 20.3922 21.3013 19.8185 20.3077C19.2448 19.314 18.5743 19.701 18.0006 18.7074C17.4268 17.7138 18.0973 17.3268 17.5236 16.3332C16.9498 15.3396 16.2794 15.7266 15.7056 14.733C15.1319 13.7393 15.8024 13.3524 15.2286 12.3587C14.6549 11.3651 13.9844 11.7521 13.4107 10.7585C12.837 9.76489 13.5074 9.37789 12.9337 8.38428" stroke="white" stroke-width="0.1935" stroke-miterlimit="10"/>
<path d="M28.2823 33.9705C27.7086 32.9769 28.3791 32.5899 27.8053 31.5963C27.2316 30.6026 26.5611 30.9896 25.9874 29.996C25.4137 29.0024 26.0841 28.6154 25.5104 27.6218C24.9367 26.6282 24.2662 27.0152 23.6925 26.0216C23.1187 25.028 23.7892 24.641 23.2155 23.6473C22.6417 22.6537 21.9713 23.0407 21.3975 22.0471C20.8238 21.0535 21.4943 20.6665 20.9205 19.6729C20.3468 18.6793 19.6763 19.0663 19.1026 18.0727C18.5289 17.079 19.1994 16.692 18.6256 15.6984C18.0519 14.7048 17.3814 15.0918 16.8077 14.0982C16.2339 13.1046 16.9044 12.7176 16.3307 11.724C15.757 10.7304 15.0865 11.1174 14.5127 10.1237C13.939 9.13012 14.6095 8.74313 14.0358 7.74951" stroke="white" stroke-width="0.1935" stroke-miterlimit="10"/>
<path d="M29.3844 33.3328C28.8106 32.3392 29.4811 31.9522 28.9074 30.9586C28.3336 29.965 27.6632 30.3519 27.0894 29.3583C26.5157 28.3647 27.1862 27.9777 26.6125 26.9841C26.0387 25.9905 25.3682 26.3775 24.7945 25.3839C24.2208 24.3903 24.8913 24.0033 24.3175 23.0097C23.7438 22.016 23.0733 22.403 22.4996 21.4094C21.9258 20.4158 22.5963 20.0288 22.0226 19.0352C21.4489 18.0416 20.7784 18.4286 20.2047 17.435C19.6309 16.4413 20.3014 16.0543 19.7277 15.0607C19.1539 14.0671 18.4835 14.4541 17.9097 13.4605C17.336 12.4669 18.0065 12.0799 17.4327 11.0863C16.859 10.0927 16.1885 10.4797 15.6148 9.48604C15.0411 8.49243 15.7115 8.10543 15.1378 7.11182" stroke="white" stroke-width="0.1935" stroke-miterlimit="10"/>
<path d="M30.4873 32.6966C29.9135 31.7029 30.584 31.3159 30.0103 30.3223C29.4366 29.3287 28.7661 29.7157 28.1923 28.7221C27.6186 27.7285 28.2891 27.3415 27.7154 26.3479C27.1416 25.3543 26.4711 25.7413 25.8974 24.7476C25.3237 23.754 25.9942 23.367 25.4204 22.3734C24.8467 21.3798 24.1762 21.7668 23.6025 20.7732C23.0288 19.7796 23.6992 19.3926 23.1255 18.399C22.5518 17.4053 21.8813 17.7923 21.3076 16.7987C20.7338 15.8051 21.4043 15.4181 20.8306 14.4245C20.2568 13.4309 19.5864 13.8179 19.0126 12.8243C18.4389 11.8307 19.1094 11.4437 18.5356 10.45C17.9619 9.45643 17.2914 9.84343 16.7177 8.84981C16.144 7.8562 16.8145 7.4692 16.2407 6.47559" stroke="white" stroke-width="0.1935" stroke-miterlimit="10"/>
<path d="M31.589 32.0608C31.0152 31.0672 31.6857 30.6802 31.112 29.6866C30.5382 28.693 29.8678 29.08 29.294 28.0864C28.7203 27.0927 29.3908 26.7057 28.817 25.7121C28.2433 24.7185 27.5728 25.1055 26.9991 24.1119C26.4254 23.1183 27.0958 22.7313 26.5221 21.7377C25.9484 20.7441 25.2779 21.1311 24.7042 20.1374C24.1304 19.1438 24.8009 18.7568 24.2272 17.7632C23.6535 16.7696 22.983 17.1566 22.4092 16.163C21.8355 15.1694 22.506 14.7824 21.9323 13.7888C21.3585 12.7951 20.688 13.1821 20.1143 12.1885C19.5406 11.1949 20.2111 10.8079 19.6373 9.8143C19.0636 8.82069 18.3931 9.20768 17.8194 8.21407C17.2457 7.22046 17.9161 6.83346 17.3424 5.83984" stroke="white" stroke-width="0.1935" stroke-miterlimit="10"/>
<path d="M32.6921 31.4236C32.1184 30.43 32.7889 30.043 32.2151 29.0494C31.6414 28.0558 30.9709 28.4428 30.3972 27.4492C29.8234 26.4555 30.4939 26.0685 29.9202 25.0749C29.3465 24.0813 28.676 24.4683 28.1022 23.4747C27.5285 22.4811 28.199 22.0941 27.6253 21.1005C27.0515 20.1069 26.381 20.4939 25.8073 19.5002C25.2336 18.5066 25.9041 18.1196 25.3303 17.126C24.7566 16.1324 24.0861 16.5194 23.5124 15.5258C22.9387 14.5322 23.6091 14.1452 23.0354 13.1516C22.4617 12.1579 21.7912 12.5449 21.2175 11.5513C20.6437 10.5577 21.3142 10.1707 20.7405 9.17709C20.1668 8.18348 19.4963 8.57048 18.9225 7.57686C18.3488 6.58325 19.0193 6.19625 18.4456 5.20264" stroke="white" stroke-width="0.1935" stroke-miterlimit="10"/>
<path d="M33.7941 30.7869C33.2204 29.7933 33.8909 29.4063 33.3172 28.4127C32.7434 27.4191 32.073 27.806 31.4992 26.8124C30.9255 25.8188 31.596 25.4318 31.0222 24.4382C30.4485 23.4446 29.778 23.8316 29.2043 22.838C28.6306 21.8444 29.301 21.4574 28.7273 20.4638C28.1536 19.4701 27.4831 19.8571 26.9094 18.8635C26.3356 17.8699 27.0061 17.4829 26.4324 16.4893C25.8587 15.4957 25.1882 15.8827 24.6144 14.8891C24.0407 13.8954 24.7112 13.5084 24.1375 12.5148C23.5637 11.5212 22.8932 11.9082 22.3195 10.9146C21.7458 9.92099 22.4163 9.53399 21.8425 8.54038C21.2688 7.54676 20.5983 7.93376 20.0246 6.94014C19.4509 5.94653 20.1213 5.55953 19.5476 4.56592" stroke="white" stroke-width="0.1935" stroke-miterlimit="10"/>
<path d="M34.8962 30.1497C34.3225 29.1561 34.993 28.7691 34.4192 27.7755C33.8455 26.7818 33.175 27.1688 32.6013 26.1752C32.0275 25.1816 32.698 24.7946 32.1243 23.801C31.5506 22.8074 30.8801 23.1944 30.3063 22.2008C29.7326 21.2072 30.4031 20.8202 29.8294 19.8265C29.2556 18.8329 28.5852 19.2199 28.0114 18.2263C27.4377 17.2327 28.1082 16.8457 27.5344 15.8521C26.9607 14.8585 26.2902 15.2455 25.7165 14.2519C25.1428 13.2582 25.8132 12.8712 25.2395 11.8776C24.6658 10.884 23.9953 11.271 23.4216 10.2774C22.8478 9.28378 23.5183 8.89678 22.9446 7.90317C22.3709 6.90955 21.7004 7.29655 21.1266 6.30294C20.5529 5.30932 21.2234 4.92233 20.6497 3.92871" stroke="white" stroke-width="0.1935" stroke-miterlimit="10"/>
<path d="M35.9991 29.5149C35.4254 28.5213 36.0959 28.1343 35.5221 27.1407C34.9484 26.1471 34.2779 26.5341 33.7042 25.5405C33.1304 24.5468 33.8009 24.1599 33.2272 23.1662C32.6535 22.1726 31.983 22.5596 31.4093 21.566C30.8355 20.5724 31.506 20.1854 30.9323 19.1918C30.3585 18.1982 29.6881 18.5852 29.1143 17.5915C28.5406 16.5979 29.2111 16.2109 28.6373 15.2173C28.0636 14.2237 27.3931 14.6107 26.8194 13.6171C26.2457 12.6235 26.9161 12.2365 26.3424 11.2429C25.7687 10.2492 25.0982 10.6362 24.5245 9.64263C23.9507 8.64901 24.6212 8.26202 24.0475 7.2684C23.4738 6.27479 22.8033 6.66179 22.2295 5.66817C21.6558 4.67456 22.3263 4.28756 21.7526 3.29395" stroke="white" stroke-width="0.1935" stroke-miterlimit="10"/>
<path d="M37.1012 28.8777C36.5274 27.8841 37.1979 27.4971 36.6242 26.5035C36.0504 25.5099 35.38 25.8969 34.8062 24.9033C34.2325 23.9096 34.903 23.5226 34.3292 22.529C33.7555 21.5354 33.085 21.9224 32.5113 20.9288C31.9376 19.9352 32.6081 19.5482 32.0343 18.5546C31.4606 17.561 30.7901 17.948 30.2164 16.9543C29.6426 15.9607 30.3131 15.5737 29.7394 14.5801C29.1657 13.5865 28.4952 13.9735 27.9215 12.9799C27.3477 11.9863 28.0182 11.5993 27.4445 10.6057C26.8707 9.61204 26.2003 9.99904 25.6265 9.00542C25.0528 8.01181 25.7233 7.62481 25.1495 6.6312C24.5758 5.63758 23.9053 6.02458 23.3316 5.03096C22.7579 4.03735 23.4283 3.65035 22.8546 2.65674" stroke="white" stroke-width="0.1935" stroke-miterlimit="10"/>
<path d="M38.2036 28.2425C37.6298 27.2488 38.3003 26.8618 37.7266 25.8682C37.1529 24.8746 36.4824 25.2616 35.9086 24.268C35.3349 23.2744 36.0054 22.8874 35.4317 21.8938C34.8579 20.9002 34.1875 21.2872 33.6137 20.2935C33.04 19.2999 33.7105 18.9129 33.1367 17.9193C32.563 16.9257 31.8925 17.3127 31.3188 16.3191C30.7451 15.3255 31.4155 14.9385 30.8418 13.9449C30.2681 12.9512 29.5976 13.3382 29.0239 12.3446C28.4501 11.351 29.1206 10.964 28.5469 9.9704C27.9732 8.97679 27.3027 9.36378 26.7289 8.37017C26.1552 7.37655 26.8257 6.98956 26.252 5.99594C25.6782 5.00233 25.0077 5.38933 24.434 4.39571C23.8603 3.4021 24.5308 3.0151 23.957 2.02148" stroke="white" stroke-width="0.1935" stroke-miterlimit="10"/>
<path d="M39.3061 27.6053C38.7324 26.6116 39.4029 26.2246 38.8291 25.231C38.2554 24.2374 37.5849 24.6244 37.0112 23.6308C36.4375 22.6372 37.1079 22.2502 36.5342 21.2566C35.9605 20.263 35.29 20.65 34.7163 19.6563C34.1425 18.6627 34.813 18.2757 34.2393 17.2821C33.6655 16.2885 32.9951 16.6755 32.4213 15.6819C31.8476 14.6883 32.5181 14.3013 31.9443 13.3077C31.3706 12.314 30.7001 12.701 30.1264 11.7074C29.5527 10.7138 30.2232 10.3268 29.6494 9.33319C29.0757 8.33958 28.4052 8.72658 27.8315 7.73296C27.2577 6.73935 27.9282 6.35235 27.3545 5.35874C26.7808 4.36512 26.1103 4.75212 25.5366 3.7585C24.9628 2.76489 25.6333 2.37789 25.0596 1.38428" stroke="white" stroke-width="0.1935" stroke-miterlimit="10"/>
<path d="M40.4085 26.968C39.8348 25.9744 40.5053 25.5874 39.9315 24.5938C39.3578 23.6002 38.6873 23.9872 38.1136 22.9936C37.5399 22 38.2104 21.613 37.6366 20.6194C37.0629 19.6257 36.3924 20.0127 35.8187 19.0191C35.2449 18.0255 35.9154 17.6385 35.3417 16.6449C34.768 15.6513 34.0975 16.0383 33.5238 15.0447C32.95 14.0511 33.6205 13.6641 33.0468 12.6704C32.473 11.6768 31.8026 12.0638 31.2288 11.0702C30.6551 10.0766 31.3256 9.6896 30.7518 8.69599C30.1781 7.70237 29.5076 8.08937 28.9339 7.09575C28.3602 6.10214 29.0306 5.71514 28.4569 4.72153C27.8832 3.72791 27.2127 4.11491 26.639 3.1213C26.0652 2.12768 26.7357 1.74068 26.162 0.74707" stroke="white" stroke-width="0.1935" stroke-miterlimit="10"/>
<path d="M41.5109 26.3313C40.9372 25.3377 41.6077 24.9507 41.034 23.9571C40.4602 22.9635 39.7898 23.3505 39.216 22.3569C38.6423 21.3633 39.3128 20.9763 38.739 19.9826C38.1653 18.989 37.4948 19.376 36.9211 18.3824C36.3474 17.3888 37.0178 17.0018 36.4441 16.0082C35.8704 15.0146 35.1999 15.4016 34.6262 14.408C34.0524 13.4143 34.7229 13.0273 34.1492 12.0337C33.5755 11.0401 32.905 11.4271 32.3312 10.4335C31.7575 9.43988 32.428 9.05288 31.8543 8.05927C31.2805 7.06565 30.61 7.45265 30.0363 6.45904C29.4626 5.46542 30.1331 5.07842 29.5593 4.08481C28.9856 3.0912 28.3151 3.47819 27.7414 2.48458C27.1677 1.49096 27.8381 1.10397 27.2644 0.110352" stroke="white" stroke-width="0.1935" stroke-miterlimit="10"/>
</g>
<path d="M37.3751 17.1889C37.2232 17.099 37.0597 17.0216 36.8846 16.9577L18.5126 10.2714C14.7799 8.91302 10.9767 12.1048 11.6655 16.0163L11.7178 16.026C11.7313 14.0852 13.6895 12.635 15.6139 13.3354L32.7252 19.5641C33.2854 19.7683 33.4141 20.5016 32.9584 20.8848L22.0043 30.0759L22.5471 33.1564C22.6506 33.7437 23.3501 33.9982 23.8068 33.615L37.7573 21.9093C39.3256 20.5936 39.0489 18.1729 37.3751 17.1899V17.1889Z" stroke="#2977EC" stroke-width="0.967499" stroke-miterlimit="10"/>
<path d="M37.409 17.1494L37.3752 17.1891C39.0489 18.173 39.3256 20.5927 37.7573 21.9085L23.8068 33.6142C23.3502 33.9973 22.6507 33.7429 22.5471 33.1556L22.0044 30.0751L20.0635 19.0738L17.1243 18.0037C16.5641 17.7996 15.9942 18.2785 16.0968 18.8657L19.2586 36.7992C19.6137 38.8164 21.8496 39.7868 23.5379 38.829C23.6917 38.7419 23.8407 38.6384 23.9829 38.5194L38.959 25.9526C42.0018 23.3994 41.1407 18.5097 37.4071 17.1513L37.409 17.1494Z" stroke="#2977EC" stroke-width="0.967499" stroke-miterlimit="10"/>
<path d="M15.614 13.334C13.6896 12.6345 11.7304 14.0838 11.7178 16.0246C11.7159 16.2016 11.7304 16.3816 11.7633 16.5644L15.1583 35.8185C15.3257 36.7647 15.7243 37.5803 16.2757 38.2392C18.0086 40.3038 21.2487 40.8117 23.5562 38.8758L23.5388 38.8264C21.8505 39.7842 19.6146 38.8138 19.2595 36.7966L16.0977 18.8632C15.9942 18.2759 16.565 17.798 17.1252 18.0012L20.0645 19.0712L30.5629 22.8918L32.9585 20.8814C33.4151 20.4983 33.2855 19.7649 32.7253 19.5608L15.614 13.332V13.334Z" stroke="#2977EC" stroke-width="0.967499" stroke-miterlimit="10"/>
</g>
</g>
<defs>
<clipPath id="clip0_472_9766">
<rect width="50" height="50" fill="white"/>
</clipPath>
<clipPath id="clip1_472_9766">
<rect width="30.283" height="31.25" fill="white" transform="translate(11.0344 9.375)"/>
</clipPath>
</defs>
</svg>
