<svg fill="none" height="24" viewBox="0 0 24 24" width="24" xmlns="http://www.w3.org/2000/svg"><path clip-rule="evenodd" d="m8.90911 5.66667h2.75759 2.7576c1.0543 0 1.9091-.59696 1.9091-1.33334s-.8548-1.33333-1.9091-1.33333c-1.0544 0-2.7576 1.93029-2.7576 2.66667 0-.73638-1.70323-2.66667-2.75759-2.66667s-1.90909.59695-1.90909 1.33333.85473 1.33334 1.90909 1.33334zm-5.24242 2.16666c0-.82842.67157-1.5 1.5-1.5h5.83331v5.33337h-5.83331c-.82843 0-1.5-.6716-1.5-1.5zm14.50001-1.5c.8284 0 1.5.67158 1.5 1.5v2.33337c0 .8284-.6716 1.5-1.5 1.5h-5.8333v-5.33337zm-13.16668 5.99997h5.99998v8.6667h-4.49998c-.82843 0-1.5-.6716-1.5-1.5v-.0051c.03267.0034.0656.0051.09867.0051.20357-.0002.40184-.0664.56634-.1891.1103.0818.23638.1387.36983.1668l.03174.0068c.16327.0286.33101.0136.48698-.0435.15598-.0571.29492-.1544.4034-.2825s.18282-.2827.21584-.4488.0236-.3382-.02735-.4995c.16386-.1226.28584-.2949.34869-.4925.06284-.1975.06335-.4103.00145-.6081v-.0023c-.06342-.1972-.18591-.369-.3501-.491s-.36174-.188-.56464-.1886c-.06332-.1972-.18584-.3688-.3501-.4905s-.36187-.1872-.56465-.1872-.40039.0655-.56465.1872c-.03586.0266-.06974.0555-.10145.0866zm7.33338 0h6v1.4416c-.0321-.0315-.0663-.0608-.1026-.0877-.1643-.1217-.3619-.1872-.5647-.1872s-.4004.0655-.5646.1872c-.1643.1217-.2868.2933-.3501.4905-.2029.0006-.4005.0666-.5647.1886s-.2867.2938-.3501.491v.0191c-.0767.2471-.0546.5152.0613.7457l.0153.028c.0674.1213.1591.2266.2692.309-.0631.1981-.0633.4115-.0005.6096.0628.1982.1854.3708.3501.4932.1647.1225.3631.1883.5667.1881s.4018-.0664.5663-.1891c.1103.0818.2364.1387.3699.1668l.0317.0068c.0885.0155.1782.0182.2668.0083v2.2572c0 .8284-.6716 1.5-1.5 1.5h-4.5zm5.3316 3.4355c-.0766 0-.1515-.0233-.2152-.0668-.0637-.0436-.1133-.1055-.1426-.1779-.0293-.0725-.037-.1522-.0221-.229.015-.0769.0519-.1476.106-.203.0542-.0554.1232-.0932.1984-.1085.0751-.0153.153-.0074.2238.0226.0707.03.1312.0808.1738.146s.0653.1418.0653.2202c0 .1051-.0408.2059-.1135.2803-.0726.0743-.1711.1161-.2739.1161zm-12.21517 2.1832c.0637.0435.13859.0668.2152.0668.10273 0 .20125-.0418.27389-.1161.07264-.0744.11345-.1752.11345-.2803 0-.0784-.02272-.155-.06528-.2202s-.10305-.116-.17383-.146-.14866-.0379-.2238-.0226-.14416.0531-.19833.1085-.09106.1261-.10601.203c-.01494.0768-.00727.1565.02205.229.02931.0724.07896.1343.14266.1779z" fill="#595959" fill-rule="evenodd"/></svg>