<svg fill="none" height="60" viewBox="0 0 60 60" width="60" xmlns="http://www.w3.org/2000/svg"><rect fill="#085276" height="60" rx="30" width="60"/><path d="m40.2105 26.1053v-3.7895c0-1.3933-1.133-2.5263-2.5263-2.5263h-3.7895c0-2.0893-1.7002-3.7895-3.7894-3.7895-2.0893 0-3.7895 1.7002-3.7895 3.7895h-3.7895c-1.3932 0-2.5263 1.133-2.5263 2.5263v4.9023l.8324.3019c1.0131.3663 1.6939 1.3213 1.6939 2.3747 0 1.0535-.6808 2.0085-1.6939 2.3748l-.8324.3019v4.9023c0 1.3932 1.1331 2.5263 2.5263 2.5263h4.9023l.3019-.8324c.3663-1.0131 1.3213-1.6939 2.3748-1.6939 1.0534 0 2.0084.6808 2.3747 1.6939l.3019.8324h4.9023c1.3933 0 2.5263-1.1331 2.5263-2.5263v-3.7895c2.0893 0 3.7895-1.7002 3.7895-3.7895 0-2.0892-1.7002-3.7894-3.7895-3.7894zm0 5.0526h-2.5263l-.0038 6.3158h-3.2147c-.8981-1.5411-2.5541-2.5263-4.3604-2.5263-1.8064 0-3.4624.9852-4.3605 2.5263h-3.2185v-3.2185c1.5411-.8981 2.5263-2.5541 2.5263-4.3605 0-1.8063-.9852-3.4623-2.5263-4.3604v-3.2185h6.3158v-2.5263c0-.335.1331-.6563.37-.8932s.5582-.37.8932-.37.6563.1331.8932.37c.2368.2369.3699.5582.3699.8932v2.5263h6.3158v6.3158h2.5263c.335 0 .6563.1331.8932.3699.2369.2369.37.5582.37.8932s-.1331.6563-.37.8932-.5582.37-.8932.37z" fill="#fff"/></svg>