<svg fill="none" height="636" viewBox="0 0 636 636" width="636" xmlns="http://www.w3.org/2000/svg"><g fill="#fff"><path d="m317.941 635.108c-84.205-.054-164.95-33.508-224.5184-93.023-59.5685-59.515-93.095644-140.23-93.22509-224.435.129427-84.209 33.65469-164.927 93.22209-224.449 59.5674-59.5216 140.3124-92.985494 224.5214-93.050121 84.208.064627 164.953 33.528521 224.52 93.050121 59.567 59.522 93.093 140.24 93.222 224.449-.129 84.205-33.655 164.92-93.224 224.435s-140.313 92.969-224.518 93.023zm0-610.5153c-77.73.0538-152.264 30.9392-207.25 85.8793-54.9862 54.94-85.933 129.449-86.0517 207.178.0756 77.739 31.0102 152.268 86.0067 207.211 54.997 54.943 129.556 85.805 207.295 85.805s152.298-30.862 207.295-85.805c54.996-54.943 85.93-129.472 86.005-207.211-.118-77.729-31.065-152.238-86.051-207.178-54.986-54.9401-129.52-85.8255-207.249-85.8793z"/><path d="m358.113 584.878c-69.764-.054-136.657-27.777-186.006-77.088s-77.1241-116.183-77.232-185.946c.1079-69.763 27.883-136.635 77.232-185.946 49.349-49.3115 116.242-77.0348 186.006-77.0887 69.763.0539 136.656 27.7772 186.005 77.0887 49.349 49.311 77.124 116.183 77.232 185.946-.108 69.763-27.883 136.635-77.232 185.946s-116.242 77.034-186.005 77.088zm0-507.0854c-64.725.0539-126.786 25.7784-172.569 71.5304s-71.548 107.796-71.645 172.521c.107 64.718 25.879 126.751 71.66 172.494 45.782 45.744 107.836 71.462 172.554 71.516 64.717-.054 126.772-25.772 172.553-71.516 45.782-45.743 71.553-107.776 71.661-172.494-.108-64.718-25.879-126.751-71.661-172.495-45.781-45.743-107.836-71.4618-172.553-71.5156z"/><path d="m398.271 534.692c-55.318-.043-108.36-22.027-147.491-61.127-39.131-39.101-61.156-92.126-61.242-147.443.086-55.318 22.111-108.343 61.242-147.444 39.131-39.1 92.173-61.083 147.491-61.126 55.321.032 108.368 22.011 147.502 61.114 39.133 39.103 61.154 92.134 61.23 147.456-.087 55.317-22.111 108.342-61.242 147.443-39.131 39.1-92.172 61.084-147.49 61.127zm0-403.575c-51.724.032-101.323 20.582-137.912 57.141s-57.181 86.14-57.257 137.864c.087 51.716 20.684 101.287 57.272 137.837s86.18 57.094 137.897 57.126c51.716-.032 101.308-20.576 137.897-57.126 36.588-36.55 57.185-86.121 57.271-137.837-.075-51.724-20.668-101.305-57.258-137.864-36.589-36.559-86.187-57.109-137.91-57.141z"/><path d="m438.442 484.462c-40.872-.032-80.063-16.274-108.976-45.164s-45.186-68.069-45.251-108.941c.054-40.88 16.323-80.069 45.237-108.967 28.914-28.899 68.111-45.147 108.99-45.179 40.88.032 80.078 16.28 108.992 45.179 28.914 28.898 45.182 68.087 45.236 108.967-.065 40.872-16.337 80.051-45.25 108.941s-68.105 45.132-108.978 45.164zm0-300.104c-38.718.032-75.843 15.422-103.229 42.792-27.386 27.371-42.796 64.488-42.85 103.207.064 38.712 15.479 75.817 42.864 103.179s64.504 42.747 103.215 42.779c38.712-.032 75.831-15.417 103.216-42.779s42.8-64.467 42.864-103.179c-.054-38.719-15.462-75.836-42.848-103.207-27.386-27.37-64.513-42.76-103.232-42.792z"/></g></svg>