<svg width="32" height="32" viewBox="0 0 32 32" fill="none" xmlns="http://www.w3.org/2000/svg">
<g clip-path="url(#clip0_842_387)">
<path d="M27.4676 8.00128C27.312 7.90914 27.1446 7.82989 26.9653 7.7645L8.15262 0.917687C4.33045 -0.473272 0.435964 2.79509 1.14135 6.80054L1.19485 6.81044C1.20872 4.82307 3.21392 3.338 5.18445 4.05527L22.7062 10.4335C23.2798 10.6425 23.4116 11.3935 22.945 11.7858L11.7281 21.1976L12.2839 24.352C12.3899 24.9534 13.1062 25.2139 13.5738 24.8216L27.8589 12.835C29.4648 11.4876 29.1815 9.00883 27.4676 8.00227V8.00128Z" fill="#E4F7FE"/>
<path d="M27.5021 7.95996L27.4675 8.00058C29.1814 9.00813 29.4647 11.4859 27.8588 12.8333L13.5737 24.8199C13.1061 25.2122 12.3898 24.9517 12.2838 24.3503L11.728 21.1959L9.74064 9.93049L6.73086 8.83476C6.15724 8.62572 5.57371 9.11612 5.67872 9.71748L8.91637 28.0813C9.27996 30.147 11.5695 31.1406 13.2983 30.1598C13.4558 30.0707 13.6084 29.9647 13.754 29.8428L29.0893 16.9744C32.205 14.36 31.3233 9.3529 27.5002 7.96194L27.5021 7.95996Z" fill="#ACC6FE"/>
<path d="M5.18441 4.05506C3.21389 3.33877 1.20769 4.82286 1.19482 6.81023C1.19283 6.99153 1.20769 7.1758 1.24138 7.36305L4.71779 27.0792C4.88918 28.0481 5.29736 28.8833 5.86206 29.558C7.63643 31.6721 10.9543 32.1923 13.3172 30.2099L13.2993 30.1593C11.5705 31.1401 9.28101 30.1465 8.91742 28.0808L5.67977 9.71698C5.57376 9.11561 6.15828 8.6262 6.73191 8.83425L9.74169 9.92998L20.4919 13.8423L22.9449 11.7836C23.4125 11.3913 23.2798 10.6403 22.7062 10.4313L5.18441 4.05308V4.05506Z" fill="#BDE6FE"/>
<mask id="mask0_842_387" style="mask-type:luminance" maskUnits="userSpaceOnUse" x="5" y="7" width="26" height="24">
<path d="M27.5021 7.95996L27.4675 8.00058C29.1814 9.00813 29.4647 11.4859 27.8588 12.8333L13.5737 24.8199C13.1061 25.2122 12.3898 24.9517 12.2838 24.3503L11.728 21.1959L9.74064 9.93049L6.73086 8.83476C6.15724 8.62572 5.57371 9.11612 5.67872 9.71748L8.91637 28.0813C9.27996 30.147 11.5695 31.1406 13.2983 30.1598C13.4558 30.0707 13.6084 29.9647 13.754 29.8428L29.0893 16.9744C32.205 14.36 31.3233 9.3529 27.5002 7.96194L27.5021 7.95996Z" fill="white"/>
</mask>
<g mask="url(#mask0_842_387)">
<path d="M27.5022 7.95996L27.4675 8.00058C29.1815 9.00813 29.4648 11.4859 27.8589 12.8333L13.5738 24.8199C13.1062 25.2122 12.3899 24.9517 12.2839 24.3503L11.7281 21.1959L9.74071 9.93049L6.73092 8.83476C6.1573 8.62572 5.57377 9.11612 5.67878 9.71748L8.91643 28.0813C9.28002 30.147 11.5696 31.1406 13.2984 30.1598C13.4559 30.0707 13.6084 29.9647 13.7541 29.8428L29.0893 16.9744C32.2051 14.36 31.3234 9.3529 27.5002 7.96194L27.5022 7.95996Z" fill="#ACC6FE"/>
<path d="M3.0722 9.59265C4.24719 9.59265 4.24719 10.3852 5.42217 10.3852C6.59716 10.3852 6.59716 9.59265 7.77214 9.59265C8.94713 9.59265 8.94713 10.3852 10.1221 10.3852C11.2971 10.3852 11.2971 9.59265 12.4721 9.59265C13.6471 9.59265 13.6471 10.3852 14.8211 10.3852C15.9951 10.3852 15.996 9.59265 17.171 9.59265C18.346 9.59265 18.346 10.3852 19.521 10.3852C20.696 10.3852 20.696 9.59265 21.871 9.59265C23.046 9.59265 23.046 10.3852 24.2209 10.3852C25.3959 10.3852 25.3959 9.59265 26.5709 9.59265C27.7459 9.59265 27.7459 10.3852 28.9209 10.3852C30.0959 10.3852 30.0959 9.59265 31.2709 9.59265C32.4458 9.59265 32.4458 10.3852 33.6208 10.3852" stroke="white" stroke-width="0.198142" stroke-miterlimit="10"/>
<path d="M3.0722 10.8965C4.24719 10.8965 4.24719 11.6891 5.42217 11.6891C6.59716 11.6891 6.59716 10.8965 7.77214 10.8965C8.94713 10.8965 8.94713 11.6891 10.1221 11.6891C11.2971 11.6891 11.2971 10.8965 12.4721 10.8965C13.6471 10.8965 13.6471 11.6891 14.8211 11.6891C15.9951 11.6891 15.996 10.8965 17.171 10.8965C18.346 10.8965 18.346 11.6891 19.521 11.6891C20.696 11.6891 20.696 10.8965 21.871 10.8965C23.046 10.8965 23.046 11.6891 24.2209 11.6891C25.3959 11.6891 25.3959 10.8965 26.5709 10.8965C27.7459 10.8965 27.7459 11.6891 28.9209 11.6891C30.0959 11.6891 30.0959 10.8965 31.2709 10.8965C32.4458 10.8965 32.4458 11.6891 33.6208 11.6891" stroke="white" stroke-width="0.198142" stroke-miterlimit="10"/>
<path d="M3.0722 12.2002C4.24719 12.2002 4.24719 12.9928 5.42217 12.9928C6.59716 12.9928 6.59716 12.2002 7.77214 12.2002C8.94713 12.2002 8.94713 12.9928 10.1221 12.9928C11.2971 12.9928 11.2971 12.2002 12.4721 12.2002C13.6471 12.2002 13.6471 12.9928 14.8211 12.9928C15.9951 12.9928 15.996 12.2002 17.171 12.2002C18.346 12.2002 18.346 12.9928 19.521 12.9928C20.696 12.9928 20.696 12.2002 21.871 12.2002C23.046 12.2002 23.046 12.9928 24.2209 12.9928C25.3959 12.9928 25.3959 12.2002 26.5709 12.2002C27.7459 12.2002 27.7459 12.9928 28.9209 12.9928C30.0959 12.9928 30.0959 12.2002 31.2709 12.2002C32.4458 12.2002 32.4458 12.9928 33.6208 12.9928" stroke="white" stroke-width="0.198142" stroke-miterlimit="10"/>
<path d="M3.0722 13.5031C4.24719 13.5031 4.24719 14.2956 5.42217 14.2956C6.59716 14.2956 6.59716 13.5031 7.77214 13.5031C8.94713 13.5031 8.94713 14.2956 10.1221 14.2956C11.2971 14.2956 11.2971 13.5031 12.4721 13.5031C13.6471 13.5031 13.6471 14.2956 14.8211 14.2956C15.9951 14.2956 15.996 13.5031 17.171 13.5031C18.346 13.5031 18.346 14.2956 19.521 14.2956C20.696 14.2956 20.696 13.5031 21.871 13.5031C23.046 13.5031 23.046 14.2956 24.2209 14.2956C25.3959 14.2956 25.3959 13.5031 26.5709 13.5031C27.7459 13.5031 27.7459 14.2956 28.9209 14.2956C30.0959 14.2956 30.0959 13.5031 31.2709 13.5031C32.4458 13.5031 32.4458 14.2956 33.6208 14.2956" stroke="white" stroke-width="0.198142" stroke-miterlimit="10"/>
<path d="M3.0722 14.8069C4.24719 14.8069 4.24719 15.5995 5.42217 15.5995C6.59716 15.5995 6.59716 14.8069 7.77214 14.8069C8.94713 14.8069 8.94713 15.5995 10.1221 15.5995C11.2971 15.5995 11.2971 14.8069 12.4721 14.8069C13.6471 14.8069 13.6471 15.5995 14.8211 15.5995C15.9951 15.5995 15.996 14.8069 17.171 14.8069C18.346 14.8069 18.346 15.5995 19.521 15.5995C20.696 15.5995 20.696 14.8069 21.871 14.8069C23.046 14.8069 23.046 15.5995 24.2209 15.5995C25.3959 15.5995 25.3959 14.8069 26.5709 14.8069C27.7459 14.8069 27.7459 15.5995 28.9209 15.5995C30.0959 15.5995 30.0959 14.8069 31.2709 14.8069C32.4458 14.8069 32.4458 15.5995 33.6208 15.5995" stroke="white" stroke-width="0.198142" stroke-miterlimit="10"/>
<path d="M3.0722 16.1104C4.24719 16.1104 4.24719 16.9029 5.42217 16.9029C6.59716 16.9029 6.59716 16.1104 7.77214 16.1104C8.94713 16.1104 8.94713 16.9029 10.1221 16.9029C11.2971 16.9029 11.2971 16.1104 12.4721 16.1104C13.6471 16.1104 13.6471 16.9029 14.8211 16.9029C15.9951 16.9029 15.996 16.1104 17.171 16.1104C18.346 16.1104 18.346 16.9029 19.521 16.9029C20.696 16.9029 20.696 16.1104 21.871 16.1104C23.046 16.1104 23.046 16.9029 24.2209 16.9029C25.3959 16.9029 25.3959 16.1104 26.5709 16.1104C27.7459 16.1104 27.7459 16.9029 28.9209 16.9029C30.0959 16.9029 30.0959 16.1104 31.2709 16.1104C32.4458 16.1104 32.4458 16.9029 33.6208 16.9029" stroke="white" stroke-width="0.198142" stroke-miterlimit="10"/>
<path d="M3.0722 17.4131C4.24719 17.4131 4.24719 18.2057 5.42217 18.2057C6.59716 18.2057 6.59716 17.4131 7.77214 17.4131C8.94713 17.4131 8.94713 18.2057 10.1221 18.2057C11.2971 18.2057 11.2971 17.4131 12.4721 17.4131C13.6471 17.4131 13.6471 18.2057 14.8211 18.2057C15.9951 18.2057 15.996 17.4131 17.171 17.4131C18.346 17.4131 18.346 18.2057 19.521 18.2057C20.696 18.2057 20.696 17.4131 21.871 17.4131C23.046 17.4131 23.046 18.2057 24.2209 18.2057C25.3959 18.2057 25.3959 17.4131 26.5709 17.4131C27.7459 17.4131 27.7459 18.2057 28.9209 18.2057C30.0959 18.2057 30.0959 17.4131 31.2709 17.4131C32.4458 17.4131 32.4458 18.2057 33.6208 18.2057" stroke="white" stroke-width="0.198142" stroke-miterlimit="10"/>
<path d="M3.0722 18.7168C4.24719 18.7168 4.24719 19.5094 5.42217 19.5094C6.59716 19.5094 6.59716 18.7168 7.77214 18.7168C8.94713 18.7168 8.94713 19.5094 10.1221 19.5094C11.2971 19.5094 11.2971 18.7168 12.4721 18.7168C13.6471 18.7168 13.6471 19.5094 14.8211 19.5094C15.9951 19.5094 15.996 18.7168 17.171 18.7168C18.346 18.7168 18.346 19.5094 19.521 19.5094C20.696 19.5094 20.696 18.7168 21.871 18.7168C23.046 18.7168 23.046 19.5094 24.2209 19.5094C25.3959 19.5094 25.3959 18.7168 26.5709 18.7168C27.7459 18.7168 27.7459 19.5094 28.9209 19.5094C30.0959 19.5094 30.0959 18.7168 31.2709 18.7168C32.4458 18.7168 32.4458 19.5094 33.6208 19.5094" stroke="white" stroke-width="0.198142" stroke-miterlimit="10"/>
<path d="M3.0722 20.0205C4.24719 20.0205 4.24719 20.8131 5.42217 20.8131C6.59716 20.8131 6.59716 20.0205 7.77214 20.0205C8.94713 20.0205 8.94713 20.8131 10.1221 20.8131C11.2971 20.8131 11.2971 20.0205 12.4721 20.0205C13.6471 20.0205 13.6471 20.8131 14.8211 20.8131C15.9951 20.8131 15.996 20.0205 17.171 20.0205C18.346 20.0205 18.346 20.8131 19.521 20.8131C20.696 20.8131 20.696 20.0205 21.871 20.0205C23.046 20.0205 23.046 20.8131 24.2209 20.8131C25.3959 20.8131 25.3959 20.0205 26.5709 20.0205C27.7459 20.0205 27.7459 20.8131 28.9209 20.8131C30.0959 20.8131 30.0959 20.0205 31.2709 20.0205C32.4458 20.0205 32.4458 20.8131 33.6208 20.8131" stroke="white" stroke-width="0.198142" stroke-miterlimit="10"/>
<path d="M3.0722 21.3242C4.24719 21.3242 4.24719 22.1168 5.42217 22.1168C6.59716 22.1168 6.59716 21.3242 7.77214 21.3242C8.94713 21.3242 8.94713 22.1168 10.1221 22.1168C11.2971 22.1168 11.2971 21.3242 12.4721 21.3242C13.6471 21.3242 13.6471 22.1168 14.8211 22.1168C15.9951 22.1168 15.996 21.3242 17.171 21.3242C18.346 21.3242 18.346 22.1168 19.521 22.1168C20.696 22.1168 20.696 21.3242 21.871 21.3242C23.046 21.3242 23.046 22.1168 24.2209 22.1168C25.3959 22.1168 25.3959 21.3242 26.5709 21.3242C27.7459 21.3242 27.7459 22.1168 28.9209 22.1168C30.0959 22.1168 30.0959 21.3242 31.2709 21.3242C32.4458 21.3242 32.4458 22.1168 33.6208 22.1168" stroke="white" stroke-width="0.198142" stroke-miterlimit="10"/>
<path d="M3.0722 22.6279C4.24719 22.6279 4.24719 23.4205 5.42217 23.4205C6.59716 23.4205 6.59716 22.6279 7.77214 22.6279C8.94713 22.6279 8.94713 23.4205 10.1221 23.4205C11.2971 23.4205 11.2971 22.6279 12.4721 22.6279C13.6471 22.6279 13.6471 23.4205 14.8211 23.4205C15.9951 23.4205 15.996 22.6279 17.171 22.6279C18.346 22.6279 18.346 23.4205 19.521 23.4205C20.696 23.4205 20.696 22.6279 21.871 22.6279C23.046 22.6279 23.046 23.4205 24.2209 23.4205C25.3959 23.4205 25.3959 22.6279 26.5709 22.6279C27.7459 22.6279 27.7459 23.4205 28.9209 23.4205C30.0959 23.4205 30.0959 22.6279 31.2709 22.6279C32.4458 22.6279 32.4458 23.4205 33.6208 23.4205" stroke="white" stroke-width="0.198142" stroke-miterlimit="10"/>
<path d="M3.0722 23.9316C4.24719 23.9316 4.24719 24.7242 5.42217 24.7242C6.59716 24.7242 6.59716 23.9316 7.77214 23.9316C8.94713 23.9316 8.94713 24.7242 10.1221 24.7242C11.2971 24.7242 11.2971 23.9316 12.4721 23.9316C13.6471 23.9316 13.6471 24.7242 14.8211 24.7242C15.9951 24.7242 15.996 23.9316 17.171 23.9316C18.346 23.9316 18.346 24.7242 19.521 24.7242C20.696 24.7242 20.696 23.9316 21.871 23.9316C23.046 23.9316 23.046 24.7242 24.2209 24.7242C25.3959 24.7242 25.3959 23.9316 26.5709 23.9316C27.7459 23.9316 27.7459 24.7242 28.9209 24.7242C30.0959 24.7242 30.0959 23.9316 31.2709 23.9316C32.4458 23.9316 32.4458 24.7242 33.6208 24.7242" stroke="white" stroke-width="0.198142" stroke-miterlimit="10"/>
<path d="M3.0722 25.2354C4.24719 25.2354 4.24719 26.0279 5.42217 26.0279C6.59716 26.0279 6.59716 25.2354 7.77214 25.2354C8.94713 25.2354 8.94713 26.0279 10.1221 26.0279C11.2971 26.0279 11.2971 25.2354 12.4721 25.2354C13.6471 25.2354 13.6471 26.0279 14.8211 26.0279C15.9951 26.0279 15.996 25.2354 17.171 25.2354C18.346 25.2354 18.346 26.0279 19.521 26.0279C20.696 26.0279 20.696 25.2354 21.871 25.2354C23.046 25.2354 23.046 26.0279 24.2209 26.0279C25.3959 26.0279 25.3959 25.2354 26.5709 25.2354C27.7459 25.2354 27.7459 26.0279 28.9209 26.0279C30.0959 26.0279 30.0959 25.2354 31.2709 25.2354C32.4458 25.2354 32.4458 26.0279 33.6208 26.0279" stroke="white" stroke-width="0.198142" stroke-miterlimit="10"/>
<path d="M3.0722 26.5381C4.24719 26.5381 4.24719 27.3307 5.42217 27.3307C6.59716 27.3307 6.59716 26.5381 7.77214 26.5381C8.94713 26.5381 8.94713 27.3307 10.1221 27.3307C11.2971 27.3307 11.2971 26.5381 12.4721 26.5381C13.6471 26.5381 13.6471 27.3307 14.8211 27.3307C15.9951 27.3307 15.996 26.5381 17.171 26.5381C18.346 26.5381 18.346 27.3307 19.521 27.3307C20.696 27.3307 20.696 26.5381 21.871 26.5381C23.046 26.5381 23.046 27.3307 24.2209 27.3307C25.3959 27.3307 25.3959 26.5381 26.5709 26.5381C27.7459 26.5381 27.7459 27.3307 28.9209 27.3307C30.0959 27.3307 30.0959 26.5381 31.2709 26.5381C32.4458 26.5381 32.4458 27.3307 33.6208 27.3307" stroke="white" stroke-width="0.198142" stroke-miterlimit="10"/>
<path d="M3.0722 27.8416C4.24719 27.8416 4.24719 28.6341 5.42217 28.6341C6.59716 28.6341 6.59716 27.8416 7.77214 27.8416C8.94713 27.8416 8.94713 28.6341 10.1221 28.6341C11.2971 28.6341 11.2971 27.8416 12.4721 27.8416C13.6471 27.8416 13.6471 28.6341 14.8211 28.6341C15.9951 28.6341 15.996 27.8416 17.171 27.8416C18.346 27.8416 18.346 28.6341 19.521 28.6341C20.696 28.6341 20.696 27.8416 21.871 27.8416C23.046 27.8416 23.046 28.6341 24.2209 28.6341C25.3959 28.6341 25.3959 27.8416 26.5709 27.8416C27.7459 27.8416 27.7459 28.6341 28.9209 28.6341C30.0959 28.6341 30.0959 27.8416 31.2709 27.8416C32.4458 27.8416 32.4458 28.6341 33.6208 28.6341" stroke="white" stroke-width="0.198142" stroke-miterlimit="10"/>
<path d="M3.0722 29.1454C4.24719 29.1454 4.24719 29.938 5.42217 29.938C6.59716 29.938 6.59716 29.1454 7.77214 29.1454C8.94713 29.1454 8.94713 29.938 10.1221 29.938C11.2971 29.938 11.2971 29.1454 12.4721 29.1454C13.6471 29.1454 13.6471 29.938 14.8211 29.938C15.9951 29.938 15.996 29.1454 17.171 29.1454C18.346 29.1454 18.346 29.938 19.521 29.938C20.696 29.938 20.696 29.1454 21.871 29.1454C23.046 29.1454 23.046 29.938 24.2209 29.938C25.3959 29.938 25.3959 29.1454 26.5709 29.1454C27.7459 29.1454 27.7459 29.938 28.9209 29.938C30.0959 29.938 30.0959 29.1454 31.2709 29.1454C32.4458 29.1454 32.4458 29.938 33.6208 29.938" stroke="white" stroke-width="0.198142" stroke-miterlimit="10"/>
</g>
<mask id="mask1_842_387" style="mask-type:luminance" maskUnits="userSpaceOnUse" x="1" y="3" width="23" height="29">
<path d="M13.3172 30.2095L13.2993 30.159C11.5695 31.1398 9.28199 30.1461 8.9184 28.0815L5.68076 9.71763C5.57475 9.11627 6.15927 8.62686 6.73289 8.83491L9.74267 9.93064L20.4929 13.843L22.9469 11.7843C23.4145 11.3919 23.2817 10.641 22.7081 10.4319L5.1854 4.05373C3.21487 3.33547 1.20967 4.82252 1.19481 6.80989C1.19382 6.99119 1.20868 7.17547 1.24236 7.36271L4.71877 27.0779C5.42515 31.0843 10.2024 32.823 13.3191 30.2085L13.3172 30.2095Z" fill="white"/>
</mask>
<g mask="url(#mask1_842_387)">
<path d="M13.3172 30.2094L13.2993 30.1589C11.5695 31.1397 9.28199 30.146 8.9184 28.0813L5.68076 9.71751C5.57475 9.11615 6.15927 8.62674 6.73289 8.83478L9.74267 9.93051L20.4929 13.8428L22.9469 11.7841C23.4145 11.3918 23.2817 10.6409 22.7081 10.4318L5.1854 4.05361C3.21487 3.33534 1.20967 4.8224 1.19481 6.80977C1.19382 6.99107 1.20868 7.17534 1.24236 7.36259L4.71877 27.0778C5.42515 31.0842 10.2024 32.8229 13.3191 30.2084L13.3172 30.2094Z" fill="#BDE6FE"/>
<path d="M24.118 8.23633C23.5305 9.25379 22.8439 8.8575 22.2564 9.87497C21.6689 10.8924 22.3555 11.2887 21.768 12.3062C21.1805 13.3236 20.4939 12.9273 19.9065 13.9448C19.319 14.9623 20.0055 15.3586 19.418 16.376C18.8305 17.3935 18.144 16.9972 17.5575 18.0147C16.97 19.0321 17.6565 19.4284 17.0691 20.4459C16.4816 21.4633 15.795 21.067 15.2075 22.0845C14.62 23.102 15.3066 23.4982 14.7191 24.5157C14.1316 25.5332 13.445 25.1369 12.8575 26.1543C12.27 27.1718 12.9566 27.5681 12.3691 28.5856C11.7816 29.603 11.0951 29.2067 10.5076 30.2242C9.92007 31.2417 10.6066 31.6379 10.0191 32.6554C9.43165 33.6729 8.74509 33.2766 8.15759 34.294" stroke="white" stroke-width="0.198142" stroke-miterlimit="10"/>
<path d="M22.9895 7.58398C22.4021 8.60145 21.7155 8.20516 21.128 9.22262C20.5405 10.2401 21.2271 10.6364 20.6396 11.6538C20.0521 12.6713 19.3655 12.275 18.778 13.2925C18.1905 14.3099 18.8771 14.7062 18.2896 15.7237C17.7021 16.7411 17.0156 16.3449 16.4291 17.3623C15.8416 18.3798 16.5281 18.7761 15.9406 19.7935C15.3531 20.811 14.6666 20.4147 14.0791 21.4322C13.4916 22.4496 14.1782 22.8459 13.5907 23.8634C13.0032 24.8808 12.3166 24.4845 11.7291 25.502C11.1416 26.5195 11.8282 26.9157 11.2407 27.9332C10.6532 28.9507 9.96664 28.5544 9.37914 29.5718C8.79165 30.5893 9.47822 30.9856 8.89072 32.0031C8.30323 33.0205 7.61667 32.6242 7.02917 33.6417" stroke="white" stroke-width="0.198142" stroke-miterlimit="10"/>
<path d="M21.8601 6.93262C21.2726 7.95008 20.586 7.55379 19.9985 8.57126C19.4111 9.58872 20.0976 9.985 19.5101 11.0025C18.9226 12.0199 18.2361 11.6236 17.6486 12.6411C17.0611 13.6586 17.7476 14.0548 17.1602 15.0723C16.5727 16.0898 15.8861 15.6935 15.2996 16.7109C14.7131 17.7284 15.3987 18.1247 14.8112 19.1422C14.2237 20.1596 13.5371 19.7633 12.9496 20.7808C12.3621 21.7983 13.0487 22.1945 12.4612 23.212C11.8737 24.2295 11.1872 23.8332 10.5997 24.8506C10.0122 25.8681 10.6987 26.2644 10.1112 27.2818C9.52374 28.2993 8.83718 27.903 8.24969 28.9205C7.6622 29.9379 8.34876 30.3342 7.76127 31.3517C7.17377 32.3692 6.48721 31.9729 5.89972 32.9903" stroke="white" stroke-width="0.198142" stroke-miterlimit="10"/>
<path d="M20.7317 6.28027C20.1442 7.29773 19.4576 6.90145 18.8701 7.91891C18.2826 8.93637 18.9692 9.33266 18.3817 10.3501C17.7942 11.3676 17.1077 10.9713 16.5202 11.9888C15.9327 13.0062 16.6192 13.4025 16.0317 14.42C15.4442 15.4374 14.7577 15.0411 14.1712 16.0586C13.5847 17.0761 14.2703 17.4724 13.6828 18.4898C13.0953 19.5073 12.4087 19.111 11.8212 20.1284C11.2337 21.1459 11.9203 21.5422 11.3328 22.5597C10.7453 23.5771 10.0587 23.1808 9.47124 24.1983C8.88375 25.2158 9.57031 25.612 8.98282 26.6295C8.39533 27.647 7.70876 27.2507 7.12127 28.2681C6.53378 29.2856 7.22034 29.6819 6.63285 30.6993C6.04536 31.7168 5.35879 31.3205 4.7713 32.338" stroke="white" stroke-width="0.198142" stroke-miterlimit="10"/>
<path d="M19.6023 5.62878C19.0148 6.64625 18.3282 6.24996 17.7407 7.26742C17.1532 8.28488 17.8398 8.68117 17.2523 9.69863C16.6648 10.7161 15.9783 10.3198 15.3908 11.3373C14.8033 12.3547 15.4898 12.751 14.9023 13.7685C14.3149 14.7859 13.6283 14.3896 13.0418 15.4071C12.4543 16.4246 13.1409 16.8209 12.5534 17.8383C11.9659 18.8558 11.2793 18.4595 10.6918 19.477C10.1043 20.4944 10.7909 20.8907 10.2034 21.9082C9.6159 22.9256 8.92934 22.5293 8.34185 23.5468C7.75435 24.5643 8.44092 24.9605 7.85343 25.978C7.26593 26.9955 6.57937 26.5992 5.99188 27.6166C5.40438 28.6341 6.09095 29.0304 5.50346 30.0479C4.91596 31.0653 4.2294 30.669 3.64191 31.6865" stroke="white" stroke-width="0.198142" stroke-miterlimit="10"/>
<path d="M18.4739 4.97754C17.8864 5.995 17.1998 5.59871 16.6123 6.61618C16.0248 7.63364 16.7114 8.02992 16.1239 9.04738C15.5364 10.0648 14.8498 9.66856 14.2623 10.686C13.6749 11.7035 14.3614 12.0998 13.7739 13.1172C13.1864 14.1347 12.4999 13.7384 11.9134 14.7559C11.3259 15.7733 12.0124 16.1696 11.4249 17.1871C10.8375 18.2045 10.1509 17.8082 9.5634 18.8257C8.97591 19.8432 9.66247 20.2395 9.07498 21.2569C8.48749 22.2744 7.80092 21.8781 7.21343 22.8956C6.62594 23.913 7.3125 24.3093 6.72501 25.3268C6.13752 26.3442 5.45095 25.9479 4.86346 26.9654C4.27597 27.9829 4.96253 28.3791 4.37504 29.3966C3.78755 30.4141 3.10098 30.0178 2.51349 31.0352" stroke="white" stroke-width="0.198142" stroke-miterlimit="10"/>
<path d="M17.3454 4.32593C16.758 5.34339 16.0714 4.94711 15.4839 5.96457C14.8964 6.98203 15.583 7.37831 14.9955 8.39577C14.408 9.41323 13.7214 9.01695 13.1339 10.0344C12.5464 11.0519 13.233 11.4482 12.6455 12.4656C12.058 13.4831 11.3715 13.0868 10.7849 14.1043C10.1975 15.1217 10.884 15.518 10.2965 16.5355C9.70904 17.5529 9.02247 17.1566 8.43498 18.1741C7.84749 19.1916 8.53405 19.5878 7.94656 20.6053C7.35907 21.6228 6.6725 21.2265 6.08501 22.2439C5.49752 23.2614 6.18408 23.6577 5.59659 24.6752C5.0091 25.6926 4.32253 25.2963 3.73504 26.3138C3.14755 27.3313 3.83411 27.7275 3.24662 28.745C2.65913 29.7625 1.97256 29.3662 1.38507 30.3836" stroke="white" stroke-width="0.198142" stroke-miterlimit="10"/>
<path d="M16.216 3.67383C15.6285 4.69129 14.9419 4.29501 14.3544 5.31247C13.7669 6.32993 14.4535 6.72621 13.866 7.74367C13.2785 8.76113 12.592 8.36485 12.0045 9.38231C11.417 10.3998 12.1035 10.7961 11.5161 11.8135C10.9286 12.831 10.242 12.4347 9.65549 13.4522C9.06899 14.4696 9.75456 14.8659 9.16707 15.8834C8.57958 16.9008 7.89302 16.5045 7.30552 17.522C6.71803 18.5395 7.4046 18.9357 6.8171 19.9532C6.22961 20.9707 5.54305 20.5744 4.95555 21.5918C4.36806 22.6093 5.05463 23.0056 4.46713 24.0231C3.87964 25.0405 3.19308 24.6442 2.60559 25.6617C2.01809 26.6792 2.70466 27.0754 2.11716 28.0929C1.52967 29.1104 0.843108 28.7141 0.255615 29.7315" stroke="white" stroke-width="0.198142" stroke-miterlimit="10"/>
<path d="M15.0876 3.02222C14.5001 4.03968 13.8135 3.64339 13.226 4.66085C12.6385 5.67832 13.3251 6.0746 12.7376 7.09206C12.1501 8.10952 11.4635 7.71324 10.8761 8.7307C10.2886 9.74816 10.9751 10.1444 10.3876 11.1619C9.80014 12.1794 9.11358 11.7831 8.52708 12.8005C7.94057 13.818 8.62615 14.2143 8.03865 15.2318C7.45116 16.2492 6.7646 15.8529 6.17711 16.8704C5.58961 17.8878 6.27618 18.2841 5.68868 19.3016C5.10119 20.3191 4.41463 19.9228 3.82714 20.9402C3.23964 21.9577 3.92621 22.354 3.33871 23.3714C2.75122 24.3889 2.06466 23.9926 1.47717 25.0101C0.889675 26.0275 1.57624 26.4238 0.988746 27.4413C0.401253 28.4587 -0.28531 28.0625 -0.872803 29.0799" stroke="white" stroke-width="0.198142" stroke-miterlimit="10"/>
<path d="M13.9582 2.37012C13.3707 3.38758 12.6841 2.99129 12.0966 4.00876C11.5091 5.02622 12.1957 5.4225 11.6082 6.43996C11.0207 7.45742 10.3342 7.06114 9.74666 8.0786C9.15917 9.09606 9.84573 9.49235 9.25824 10.5098C8.67075 11.5273 7.98418 11.131 7.39768 12.1484C6.81019 13.1659 7.49675 13.5622 6.90926 14.5797C6.32177 15.5971 5.6352 15.2008 5.04771 16.2183C4.46022 17.2358 5.14678 17.632 4.55929 18.6495C3.9718 19.667 3.28524 19.2707 2.69774 20.2881C2.11025 21.3056 2.79681 21.7019 2.20932 22.7193C1.62183 23.7368 0.935265 23.3405 0.347773 24.358C-0.23972 25.3754 0.446844 25.7717 -0.140649 26.7892C-0.728141 27.8067 -1.4147 27.4104 -2.0022 28.4278" stroke="white" stroke-width="0.198142" stroke-miterlimit="10"/>
<path d="M12.8298 1.71875C12.2423 2.73621 11.5557 2.33993 10.9682 3.35739C10.3807 4.37485 11.0673 4.77113 10.4798 5.78859C9.8923 6.80606 9.20574 6.40977 8.61824 7.42723C8.03075 8.44469 8.71731 8.84098 8.12982 9.85844C7.54233 10.8759 6.85577 10.4796 6.26926 11.4971C5.68177 12.5145 6.36834 12.9108 5.78084 13.9283C5.19335 14.9457 4.50679 14.5495 3.91929 15.5669C3.3318 16.5844 4.01837 16.9807 3.43087 17.9981C2.84338 19.0156 2.15682 18.6193 1.56932 19.6368C0.981832 20.6542 1.6684 21.0505 1.0809 22.068C0.493411 23.0854 -0.193153 22.6892 -0.780645 23.7066C-1.36814 24.7241 -0.681574 25.1204 -1.26907 26.1378C-1.85656 27.1553 -2.54312 26.759 -3.13062 27.7765" stroke="white" stroke-width="0.198142" stroke-miterlimit="10"/>
<path d="M11.7003 1.06763C11.1128 2.08509 10.4262 1.6888 9.83876 2.70626C9.25126 3.72373 9.93783 4.12001 9.35034 5.13747C8.76284 6.15493 8.07628 5.75865 7.48879 6.77611C6.90129 7.79357 7.58786 8.18986 7.00037 9.20732C6.41287 10.2248 5.72631 9.82849 5.13981 10.846C4.55232 11.8634 5.23888 12.2597 4.65139 13.2772C4.06389 14.2946 3.37733 13.8983 2.78984 14.9158C2.20235 15.9333 2.88891 16.3295 2.30142 17.347C1.71393 18.3645 1.02736 17.9682 0.439869 18.9856C-0.147623 20.0031 0.53894 20.3994 -0.0485521 21.4169C-0.636045 22.4343 -1.32261 22.038 -1.9101 23.0555C-2.49759 24.0729 -1.81103 24.4692 -2.39852 25.4867C-2.98601 26.5042 -3.67258 26.1079 -4.26007 27.1253" stroke="white" stroke-width="0.198142" stroke-miterlimit="10"/>
<path d="M10.5719 0.416016C9.9844 1.43348 9.29783 1.03719 8.71034 2.05465C8.12285 3.07211 8.80941 3.4684 8.22192 4.48586C7.63443 5.50332 6.94786 5.10704 6.36037 6.1245C5.77288 7.14196 6.45944 7.53825 5.87195 8.55571C5.28446 9.57317 4.59789 9.17688 4.01139 10.1943C3.4239 11.2118 4.11046 11.6081 3.52297 12.6256C2.93548 13.643 2.24891 13.2467 1.66142 14.2642C1.07393 15.2817 1.76049 15.6779 1.173 16.6954C0.585507 17.7129 -0.101056 17.3166 -0.688549 18.334C-1.27604 19.3515 -0.589478 19.7478 -1.17697 20.7652C-1.76446 21.7827 -2.45103 21.3864 -3.03852 22.4039C-3.62601 23.4213 -2.93945 23.8176 -3.52694 24.8351C-4.11443 25.8525 -4.801 25.4563 -5.38849 26.4737" stroke="white" stroke-width="0.198142" stroke-miterlimit="10"/>
<path d="M9.44347 -0.236206C8.85598 0.781255 8.16941 0.38497 7.58192 1.40243C6.99443 2.41989 7.68099 2.81618 7.0935 3.83364C6.50601 4.8511 5.81944 4.45482 5.23195 5.47228C4.64446 6.48974 5.33102 6.88602 4.74353 7.90348C4.15604 8.92095 3.46947 8.52466 2.88297 9.54212C2.29647 10.5596 2.98204 10.9559 2.39455 11.9733C1.80706 12.9908 1.12049 12.5945 0.533002 13.612C-0.05449 14.6294 0.632074 15.0257 0.0445812 16.0432C-0.542911 17.0606 -1.22947 16.6644 -1.81697 17.6818C-2.40446 18.6993 -1.7179 19.0956 -2.30539 20.113C-2.89288 21.1305 -3.57944 20.7342 -4.16694 21.7517C-4.75443 22.7691 -4.06787 23.1654 -4.65536 24.1829C-5.24285 25.2003 -5.92941 24.804 -6.51691 25.8215" stroke="white" stroke-width="0.198142" stroke-miterlimit="10"/>
<path d="M8.31408 -0.887695C7.72658 0.129766 7.04002 -0.266519 6.45253 0.750942C5.86503 1.7684 6.5516 2.16469 5.96411 3.18215C5.37661 4.19961 4.69005 3.80333 4.10256 4.82079C3.51507 5.83825 4.20163 6.23453 3.61414 7.25199C3.02664 8.26946 2.34008 7.87317 1.75358 8.89063C1.16708 9.90809 1.85265 10.3044 1.26516 11.3218C0.677664 12.3393 -0.00889888 11.943 -0.596391 12.9605C-1.18388 13.9779 -0.49732 14.3742 -1.08481 15.3917C-1.67231 16.4091 -2.35887 16.0129 -2.94636 17.0303C-3.53385 18.0478 -2.84729 18.4441 -3.43478 19.4615C-4.02228 20.479 -4.70884 20.0827 -5.29633 21.1002C-5.88382 22.1176 -5.19726 22.5139 -5.78475 23.5314C-6.37224 24.5488 -7.05881 24.1525 -7.6463 25.17" stroke="white" stroke-width="0.198142" stroke-miterlimit="10"/>
<path d="M7.18566 -1.54004C6.59817 -0.522578 5.9116 -0.918863 5.32411 0.0985989C4.73662 1.11606 5.42318 1.51235 4.83569 2.52981C4.2482 3.54727 3.56163 3.15098 2.97414 4.16844C2.38665 5.18591 3.07321 5.58219 2.48572 6.59965C1.89823 7.61711 1.21166 7.22083 0.62516 8.23829C0.0376675 9.25575 0.724231 9.65204 0.136739 10.6695C-0.450754 11.687 -1.13732 11.2907 -1.72481 12.3081C-2.3123 13.3256 -1.62574 13.7219 -2.21323 14.7393C-2.80072 15.7568 -3.48729 15.3605 -4.07478 16.378C-4.66227 17.3954 -3.97571 17.7917 -4.5632 18.8092C-5.15069 19.8266 -5.83726 19.4304 -6.42475 20.4478C-7.01224 21.4653 -6.32568 21.8616 -6.91317 22.879C-7.50066 23.8965 -8.18723 23.5002 -8.77472 24.5177" stroke="white" stroke-width="0.198142" stroke-miterlimit="10"/>
</g>
<mask id="mask2_842_387" style="mask-type:luminance" maskUnits="userSpaceOnUse" x="1" y="0" width="28" height="26">
<path d="M1.14131 6.80057L1.19382 6.81048C1.20868 4.82212 3.21388 3.33803 5.18342 4.05531L22.7061 10.4335C23.2798 10.6426 23.4115 11.3935 22.9449 11.7858L20.4909 13.8445L11.7281 21.1976L12.2839 24.352C12.3899 24.9534 13.1061 25.2139 13.5738 24.8216L27.8578 12.836C29.4648 11.4886 29.1804 9.00887 27.4665 8.00231C27.31 7.91017 27.1426 7.8319 26.9642 7.76652L8.15258 0.919704C4.33041 -0.471255 0.43493 2.79611 1.14131 6.80255V6.80057Z" fill="white"/>
</mask>
<g mask="url(#mask2_842_387)">
<path d="M1.14131 6.80057L1.19382 6.81048C1.20868 4.82212 3.21388 3.33803 5.18342 4.05531L22.7061 10.4335C23.2798 10.6426 23.4115 11.3935 22.9449 11.7858L20.4909 13.8445L11.7281 21.1976L12.2839 24.352C12.3899 24.9534 13.1061 25.2139 13.5738 24.8216L27.8578 12.836C29.4648 11.4886 29.1804 9.00887 27.4665 8.00231C27.31 7.91017 27.1426 7.8319 26.9642 7.76652L8.15258 0.919704C4.33041 -0.471255 0.43493 2.79611 1.14131 6.80255V6.80057Z" fill="#E4F7FE"/>
<path d="M14.7705 27.1412C14.183 26.1237 14.8696 25.7274 14.2821 24.71C13.6946 23.6925 13.008 24.0888 12.4205 23.0713C11.833 22.0539 12.5196 21.6576 11.9321 20.6401C11.3446 19.6227 10.658 20.0189 10.0706 19.0015C9.48306 17.984 10.1696 17.5877 9.58213 16.5703C8.99464 15.5528 8.30807 15.9491 7.72058 14.9316C7.13309 13.9142 7.81965 13.5179 7.23216 12.5004C6.64467 11.483 5.9581 11.8793 5.37061 10.8618C4.78312 9.84433 5.46968 9.44804 4.88219 8.43058C4.2947 7.41312 3.60813 7.80941 3.02064 6.79195C2.43315 5.77448 3.11971 5.3782 2.53222 4.36074C1.94473 3.34328 1.25816 3.73956 0.670672 2.7221C0.0831798 1.70464 0.769743 1.30835 0.182251 0.290894" stroke="white" stroke-width="0.198142" stroke-miterlimit="10"/>
<path d="M15.8989 26.4889C15.3114 25.4715 15.998 25.0752 15.4105 24.0577C14.823 23.0403 14.1364 23.4366 13.5489 22.4191C12.9614 21.4016 13.648 21.0054 13.0605 19.9879C12.473 18.9704 11.7865 19.3667 11.199 18.3493C10.6115 17.3318 11.298 16.9355 10.7105 15.9181C10.1231 14.9006 9.43649 15.2969 8.849 14.2794C8.26151 13.262 8.94807 12.8657 8.36058 11.8482C7.77309 10.8307 7.08652 11.227 6.49903 10.2096C5.91154 9.19211 6.5981 8.79582 6.01061 7.77836C5.42312 6.7609 4.73655 7.15719 4.14906 6.13972C3.56157 5.12226 4.24813 4.72598 3.66064 3.70852C3.07315 2.69106 2.38658 3.08734 1.79909 2.06988C1.2116 1.05242 1.89816 0.656133 1.31067 -0.361328" stroke="white" stroke-width="0.198142" stroke-miterlimit="10"/>
<path d="M17.0284 25.8375C16.4409 24.82 17.1274 24.4237 16.5399 23.4063C15.9525 22.3888 15.2659 22.7851 14.6784 21.7676C14.0909 20.7502 14.7775 20.3539 14.19 19.3364C13.6025 18.3189 12.9159 18.7152 12.3284 17.6978C11.7409 16.6803 12.4275 16.284 11.84 15.2666C11.2525 14.2491 10.5659 14.6454 9.97846 13.6279C9.39096 12.6105 10.0775 12.2142 9.49003 11.1967C8.90254 10.1793 8.21598 10.5755 7.62849 9.55808C7.04099 8.54062 7.72756 8.14433 7.14006 7.12687C6.55257 6.10941 5.86601 6.5057 5.27852 5.48824C4.69102 4.47077 5.37759 4.07449 4.7901 3.05703C4.2026 2.03957 3.51604 2.43585 2.92855 1.41839C2.34105 0.400929 3.02762 0.00464393 2.44012 -1.01282" stroke="white" stroke-width="0.198142" stroke-miterlimit="10"/>
<path d="M18.1568 25.1862C17.5693 24.1688 18.2559 23.7725 17.6684 22.755C17.0809 21.7375 16.3943 22.1338 15.8068 21.1164C15.2193 20.0989 15.9059 19.7026 15.3184 18.6852C14.7309 17.6677 14.0443 18.064 13.4568 17.0465C12.8694 16.0291 13.5559 15.6328 12.9684 14.6153C12.3809 13.5979 11.6944 13.9941 11.1069 12.9767C10.5194 11.9592 11.2059 11.5629 10.6185 10.5455C10.031 9.52801 9.3444 9.9243 8.7569 8.90683C8.16941 7.88937 8.85598 7.49309 8.26848 6.47563C7.68099 5.45817 6.99443 5.85445 6.40693 4.83699C5.81944 3.81953 6.50601 3.42324 5.91851 2.40578C5.33102 1.38832 4.64446 1.78461 4.05696 0.767145C3.46947 -0.250316 4.15603 -0.646601 3.56854 -1.66406" stroke="white" stroke-width="0.198142" stroke-miterlimit="10"/>
<path d="M19.2852 24.5346C18.6977 23.5171 19.3843 23.1209 18.7968 22.1034C18.2093 21.0859 17.5227 21.4822 16.9352 20.4648C16.3477 19.4473 17.0343 19.051 16.4468 18.0336C15.8593 17.0161 15.1728 17.4124 14.5853 16.3949C13.9978 15.3775 14.6843 14.9812 14.0968 13.9637C13.5093 12.9462 12.8228 13.3425 12.2353 12.3251C11.6478 11.3076 12.3344 10.9113 11.7469 9.89386C11.1594 8.8764 10.4728 9.27269 9.88532 8.25522C9.29783 7.23776 9.98439 6.84148 9.3969 5.82402C8.80941 4.80655 8.12284 5.20284 7.53535 4.18538C6.94786 3.16792 7.63442 2.77163 7.04693 1.75417C6.45944 0.736709 5.77287 1.13299 5.18538 0.115534C4.59789 -0.901928 5.28445 -1.29821 4.69696 -2.31567" stroke="white" stroke-width="0.198142" stroke-miterlimit="10"/>
<path d="M20.4146 23.8825C19.8271 22.865 20.5137 22.4688 19.9262 21.4513C19.3387 20.4338 18.6521 20.8301 18.0646 19.8127C17.4771 18.7952 18.1637 18.3989 17.5762 17.3815C16.9887 16.364 16.3021 16.7603 15.7147 15.7428C15.1272 14.7254 15.8137 14.3291 15.2262 13.3116C14.6387 12.2941 13.9522 12.6904 13.3647 11.673C12.7772 10.6555 13.4638 10.2592 12.8763 9.24176C12.2888 8.2243 11.6022 8.62059 11.0147 7.60312C10.4272 6.58566 11.1138 6.18938 10.5263 5.17192C9.9388 4.15446 9.25224 4.55074 8.66475 3.53328C8.07725 2.51582 8.76382 2.11953 8.17632 1.10207C7.58883 0.0846105 6.90227 0.480895 6.31478 -0.536566C5.72728 -1.55403 6.41385 -1.95031 5.82635 -2.96777" stroke="white" stroke-width="0.198142" stroke-miterlimit="10"/>
<path d="M21.5431 23.2311C20.9556 22.2137 21.6421 21.8174 21.0547 20.7999C20.4672 19.7825 19.7806 20.1788 19.1931 19.1613C18.6056 18.1438 19.2922 17.7475 18.7047 16.7301C18.1172 15.7126 17.4306 16.1089 16.8431 15.0914C16.2556 14.074 16.9422 13.6777 16.3547 12.6602C15.7672 11.6428 15.0807 12.0391 14.4932 11.0216C13.9057 10.0041 14.5922 9.60786 14.0047 8.59039C13.4173 7.57293 12.7307 7.96922 12.1432 6.95176C11.5557 5.9343 12.2423 5.53801 11.6548 4.52055C11.0673 3.50309 10.3807 3.89937 9.79323 2.88191C9.20573 1.86445 9.8923 1.46817 9.3048 0.450705C8.71731 -0.566757 8.03075 -0.170472 7.44326 -1.18793C6.85576 -2.20539 7.54233 -2.60168 6.95483 -3.61914" stroke="white" stroke-width="0.198142" stroke-miterlimit="10"/>
<path d="M22.6724 22.579C22.0849 21.5616 22.7715 21.1653 22.184 20.1478C21.5965 19.1304 20.9099 19.5267 20.3224 18.5092C19.7349 17.4917 20.4215 17.0954 19.834 16.078C19.2465 15.0605 18.56 15.4568 17.9725 14.4393C17.385 13.4219 18.0715 13.0256 17.484 12.0081C16.8966 10.9907 16.21 11.387 15.6225 10.3695C15.035 9.35204 15.7216 8.95576 15.1341 7.93829C14.5466 6.92083 13.86 7.31712 13.2725 6.29966C12.685 5.2822 13.3716 4.88591 12.7841 3.86845C12.1966 2.85099 11.5101 3.24727 10.9226 2.22981C10.3351 1.21235 11.0216 0.816066 10.4341 -0.201395C9.84664 -1.21886 9.16008 -0.822572 8.57259 -1.84003C7.9851 -2.85749 8.67166 -3.25378 8.08417 -4.27124" stroke="white" stroke-width="0.198142" stroke-miterlimit="10"/>
<path d="M23.8009 21.9274C23.2134 20.91 23.9 20.5137 23.3125 19.4962C22.725 18.4788 22.0384 18.875 21.4509 17.8576C20.8634 16.8401 21.55 16.4438 20.9625 15.4264C20.375 14.4089 19.6884 14.8052 19.1009 13.7877C18.5135 12.7703 19.2 12.374 18.6125 11.3565C18.025 10.3391 17.3385 10.7354 16.751 9.71789C16.1635 8.70043 16.85 8.30414 16.2626 7.28668C15.6751 6.26922 14.9885 6.66551 14.401 5.64805C13.8135 4.63058 14.5001 4.2343 13.9126 3.21684C13.3251 2.19938 12.6385 2.59566 12.051 1.5782C11.4635 0.560739 12.1501 0.164455 11.5626 -0.853007C10.9751 -1.87047 10.2886 -1.47418 9.70107 -2.49164C9.11357 -3.50911 9.80014 -3.90539 9.21265 -4.92285" stroke="white" stroke-width="0.198142" stroke-miterlimit="10"/>
<path d="M24.9293 21.2752C24.3418 20.2577 25.0284 19.8615 24.4409 18.844C23.8534 17.8265 23.1668 18.2228 22.5793 17.2054C21.9918 16.1879 22.6784 15.7916 22.0909 14.7742C21.5034 13.7567 20.8169 14.153 20.2294 13.1355C19.6419 12.1181 20.3284 11.7218 19.7409 10.7043C19.1535 9.68685 18.4669 10.0831 17.8794 9.06567C17.2919 8.04821 17.9785 7.65192 17.391 6.63446C16.8035 5.617 16.1169 6.01329 15.5294 4.99582C14.9419 3.97836 15.6285 3.58208 15.041 2.56462C14.4535 1.54716 13.7669 1.94344 13.1795 0.925979C12.592 -0.0914826 13.2785 -0.487767 12.691 -1.50523C12.1035 -2.52269 11.417 -2.1264 10.8295 -3.14387C10.242 -4.16133 10.9286 -4.55761 10.3411 -5.57507" stroke="white" stroke-width="0.198142" stroke-miterlimit="10"/>
<path d="M26.0587 20.6247C25.4712 19.6072 26.1578 19.2109 25.5703 18.1935C24.9828 17.176 24.2962 17.5723 23.7087 16.5548C23.1212 15.5374 23.8078 15.1411 23.2203 14.1236C22.6328 13.1062 21.9463 13.5025 21.3588 12.485C20.7713 11.4675 21.4578 11.0713 20.8703 10.0538C20.2828 9.03633 19.5963 9.43262 19.0088 8.41516C18.4213 7.3977 19.1079 7.00141 18.5204 5.98395C17.9329 4.96649 17.2463 5.36277 16.6588 4.34531C16.0713 3.32785 16.7579 2.93157 16.1704 1.9141C15.5829 0.896643 14.8963 1.29293 14.3088 0.275466C13.7214 -0.741995 14.4079 -1.13828 13.8204 -2.15574C13.2329 -3.1732 12.5464 -2.77692 11.9589 -3.79438C11.3714 -4.81184 12.058 -5.20812 11.4705 -6.22559" stroke="white" stroke-width="0.198142" stroke-miterlimit="10"/>
<path d="M27.1871 19.9725C26.5996 18.955 27.2862 18.5587 26.6987 17.5413C26.1112 16.5238 25.4246 16.9201 24.8371 15.9026C24.2497 14.8852 24.9362 14.4889 24.3487 13.4714C23.7612 12.454 23.0747 12.8502 22.4872 11.8328C21.8997 10.8153 22.5862 10.419 21.9988 9.40157C21.4113 8.38411 20.7247 8.7804 20.1372 7.76293C19.5497 6.74547 20.2363 6.34919 19.6488 5.33173C19.0613 4.31427 18.3747 4.71055 17.7872 3.69309C17.1997 2.67563 17.8863 2.27934 17.2988 1.26188C16.7113 0.244422 16.0248 0.640706 15.4373 -0.376755C14.8498 -1.39422 15.5363 -1.7905 14.9488 -2.80796C14.3614 -3.82542 13.6748 -3.42914 13.0873 -4.4466C12.4998 -5.46406 13.1864 -5.86035 12.5989 -6.87781" stroke="white" stroke-width="0.198142" stroke-miterlimit="10"/>
<path d="M28.3165 19.321C27.729 18.3035 28.4156 17.9072 27.8281 16.8898C27.2406 15.8723 26.554 16.2686 25.9665 15.2511C25.379 14.2337 26.0656 13.8374 25.4781 12.8199C24.8906 11.8025 24.2041 12.1988 23.6166 11.1813C23.0291 10.1638 23.7156 9.76754 23.1282 8.75008C22.5407 7.73262 21.8541 8.12891 21.2666 7.11145C20.6791 6.09398 21.3657 5.6977 20.7782 4.68024C20.1907 3.66278 19.5041 4.05906 18.9166 3.0416C18.3291 2.02414 19.0157 1.62785 18.4282 0.610394C17.8407 -0.407068 17.1542 -0.0107828 16.5667 -1.02824C15.9792 -2.04571 16.6657 -2.44199 16.0782 -3.45945C15.4907 -4.47691 14.8042 -4.08063 14.2167 -5.09809C13.6292 -6.11555 14.3158 -6.51184 13.7283 -7.5293" stroke="white" stroke-width="0.198142" stroke-miterlimit="10"/>
<path d="M29.445 18.6686C28.8575 17.6512 29.5441 17.2549 28.9566 16.2374C28.3691 15.22 27.6825 15.6163 27.095 14.5988C26.5075 13.5813 27.1941 13.185 26.6066 12.1676C26.0191 11.1501 25.3325 11.5464 24.745 10.5289C24.1576 9.51149 24.8441 9.1152 24.2566 8.09774C23.6691 7.08028 22.9826 7.47656 22.3951 6.4591C21.8076 5.44164 22.4942 5.04535 21.9067 4.02789C21.3192 3.01043 20.6326 3.40672 20.0451 2.38926C19.4576 1.3718 20.1442 0.975511 19.5567 -0.0419501C18.9692 -1.05941 18.2826 -0.663127 17.6951 -1.68059C17.1076 -2.69805 17.7942 -3.09433 17.2067 -4.1118C16.6192 -5.12926 15.9327 -4.73297 15.3452 -5.75043C14.7577 -6.76789 15.4442 -7.16418 14.8568 -8.18164" stroke="white" stroke-width="0.198142" stroke-miterlimit="10"/>
<path d="M30.5743 18.0163C29.9868 16.9988 30.6734 16.6025 30.0859 15.5851C29.4984 14.5676 28.8118 14.9639 28.2244 13.9464C27.6369 12.929 28.3234 12.5327 27.7359 11.5152C27.1484 10.4978 26.4619 10.8941 25.8744 9.8766C25.2869 8.85914 25.9735 8.46286 25.386 7.4454C24.7985 6.42793 24.1119 6.82422 23.5244 5.80676C22.9369 4.7893 23.6235 4.39301 23.036 3.37555C22.4485 2.35809 21.7619 2.75437 21.1744 1.73691C20.587 0.719452 21.2735 0.323167 20.686 -0.694295C20.0985 -1.71176 19.412 -1.31547 18.8245 -2.33293C18.237 -3.35039 18.9235 -3.74668 18.3361 -4.76414C17.7486 -5.7816 17.062 -5.38532 16.4745 -6.40278C15.887 -7.42024 16.5736 -7.81652 15.9861 -8.83398" stroke="white" stroke-width="0.198142" stroke-miterlimit="10"/>
<path d="M31.7028 17.3649C31.1153 16.3475 31.8019 15.9512 31.2144 14.9337C30.6269 13.9163 29.9403 14.3125 29.3528 13.2951C28.7653 12.2776 29.4519 11.8813 28.8644 10.8639C28.2769 9.84641 27.5904 10.2427 27.0029 9.22524C26.4154 8.20777 27.1019 7.81149 26.5144 6.79403C25.9269 5.77657 25.2404 6.17285 24.6529 5.15539C24.0654 4.13793 24.752 3.74164 24.1645 2.72418C23.577 1.70672 22.8904 2.10301 22.3029 1.08555C21.7154 0.0680844 22.402 -0.3282 21.8145 -1.34566C21.227 -2.36312 20.5404 -1.96684 19.953 -2.9843C19.3655 -4.00176 20.052 -4.39804 19.4645 -5.41551C18.877 -6.43297 18.1905 -6.03668 17.603 -7.05414C17.0155 -8.07161 17.7021 -8.46789 17.1146 -9.48535" stroke="white" stroke-width="0.198142" stroke-miterlimit="10"/>
</g>
<path d="M27.4676 8.00128C27.312 7.90914 27.1446 7.82989 26.9653 7.7645L8.15262 0.917687C4.33045 -0.473272 0.435964 2.79509 1.14135 6.80054L1.19485 6.81044C1.20872 4.82307 3.21392 3.338 5.18445 4.05527L22.7062 10.4335C23.2798 10.6425 23.4116 11.3935 22.945 11.7858L11.7281 21.1976L12.2839 24.352C12.3899 24.9534 13.1062 25.2139 13.5738 24.8216L27.8589 12.835C29.4648 11.4876 29.1815 9.00883 27.4676 8.00227V8.00128Z" stroke="#2977EC" stroke-width="0.990712" stroke-miterlimit="10"/>
<path d="M27.5021 7.95996L27.4675 8.00058C29.1814 9.00813 29.4647 11.4859 27.8588 12.8333L13.5737 24.8199C13.1061 25.2122 12.3898 24.9517 12.2838 24.3503L11.728 21.1959L9.74064 9.93049L6.73086 8.83476C6.15724 8.62572 5.57371 9.11612 5.67872 9.71748L8.91637 28.0813C9.27996 30.147 11.5695 31.1406 13.2983 30.1598C13.4558 30.0707 13.6084 29.9647 13.754 29.8428L29.0893 16.9744C32.205 14.36 31.3233 9.3529 27.5002 7.96194L27.5021 7.95996Z" stroke="#2977EC" stroke-width="0.990712" stroke-miterlimit="10"/>
<path d="M5.18441 4.05506C3.21389 3.33877 1.20769 4.82286 1.19482 6.81023C1.19283 6.99153 1.20769 7.1758 1.24138 7.36305L4.71779 27.0792C4.88918 28.0481 5.29736 28.8833 5.86206 29.558C7.63643 31.6721 10.9543 32.1923 13.3172 30.2099L13.2993 30.1593C11.5705 31.1401 9.28101 30.1464 8.91742 28.0808L5.67977 9.71698C5.57376 9.11562 6.15828 8.6262 6.73191 8.83425L9.74169 9.92998L20.4919 13.8423L22.9449 11.7836C23.4125 11.3913 23.2798 10.6403 22.7062 10.4313L5.18441 4.05308V4.05506Z" stroke="#2977EC" stroke-width="0.990712" stroke-miterlimit="10"/>
</g>
<defs>
<clipPath id="clip0_842_387">
<rect width="31.0093" height="32" fill="white" transform="translate(0.495361)"/>
</clipPath>
</defs>
</svg>
