<svg width="60" height="60" viewBox="0 0 60 60" fill="none" xmlns="http://www.w3.org/2000/svg">
<rect width="60" height="60" rx="30" fill="#085276"/>
<path d="M30 27C34.473 27 39 25.4542 39 22.5C39 19.5458 34.473 18 30 18C25.527 18 21 19.5458 21 22.5C21 25.4542 25.527 27 30 27Z" fill="white"/>
<path d="M21 28C21 31.2825 25.527 33 30 33C34.473 33 39 31.2825 39 28V25.5C39 28.7825 34.473 30.5 30 30.5C25.527 30.5 21 28.7825 21 25.5V28Z" fill="white"/>
<path d="M21 32.5C21 35.7825 25.527 37.5 30 37.5C34.473 37.5 39 35.7825 39 32.5V30C39 33.2825 34.473 35 30 35C25.527 35 21 33.2825 21 30V32.5Z" fill="white"/>
<path d="M21 37C21 40.2825 25.527 42 30 42C34.473 42 39 40.2825 39 37V34.5C39 37.7825 34.473 39.5 30 39.5C25.527 39.5 21 37.7825 21 34.5V37Z" fill="white"/>
</svg>
