<svg fill="none" height="24" viewBox="0 0 24 24" width="24" xmlns="http://www.w3.org/2000/svg"><path d="m18.471 9.25349c-.5087-.7553-1.2127-1.35852-2.0371-1.74542-.8243-.38691-1.7382-.54303-2.6442-.45173-.3783-.95505-.9336-1.90205-2.0952-2.04692-1.1026-.11267-2.03891.80482-2.57546 1.7089-.36715.62687-.65634 1.29625-.86115 1.99326-.14755.53655-.23609 1.01139-.23609 1.01139l-1.3977 1.16163c.28437-1.39771.26828-2.97783-.62775-4.08848-.22165-.2926-.52506-.51292-.87189-.63313-.55801-.17437-.96847.02683-1.03822.53655-.14486 1.04895.94164 1.22869.22267 3.64316-.39086 1.5036-.41111 3.0796-.05902 4.5928.17274.8457.66098 1.5939 1.36551 2.0925.37021.2361 1.03017.3756 1.40843.0644s.34071-.6921.21194-1.1053c-.12878-.4131-.53655-.8987-.65727-2.2588.4982-.5181 1.03641-.9962 1.60963-1.4299.26111.8848.7137 1.7014 1.32569 2.3917.61198.6903 1.36838 1.2376 2.21548 1.6029-.5692 1.2619-1.5196 2.3136-2.71757 3.0073.65459.4024 1.73837.4883 2.85447-.0161 1.0189-.5144 1.8263-1.3683 2.283-2.4144.8958.0427 1.786-.1629 2.5723-.5941.7864-.4313 1.4382-1.0715 1.8837-1.8499.4477-.7936.6716-1.6938.648-2.6047s-.2939-1.7983-.7822-2.56761zm-8.52568-2.16496c.35148-.58215.75118-.9309 1.21528-.85847.4641.07244.7029.63313.8531 1.21259-1.0035.33846-1.9503.82591-2.80881 1.44599.15796-.63285.4074-1.23927.74043-1.80011zm2.12468 7.80677c-.0778-.0483-2.51368-1.3897-2.9912-3.391.9418-.8624 2.0255-1.55582 3.2032-2.0496.2413 1.8123.1696 3.6526-.212 5.4406zm2.6828.0322c-.0658.0408-.1402.0656-.2173.0724.4198-2.0112.3721-4.0919-.1395-6.08175.2592-.01865.5197.00767.7699.0778 1.1938.29242 1.6096 1.67405 1.6096 2.76585-.008 1.6472-.6814 2.7123-2.0388 3.1737z" fill="#595959"/></svg>