<svg fill="none" height="24" viewBox="0 0 22 24" width="22" xmlns="http://www.w3.org/2000/svg"><path d="m22 21.6v-16.8c0-1.3236-1.0963-2.4-2.4444-2.4h-2.4445v-2.4h-2.4444v2.4h-7.33337v-2.4h-2.44444v2.4h-2.44445c-1.34811 0-2.44444 1.0764-2.44444 2.4v16.8c0 1.3236 1.09633 2.4 2.44444 2.4h17.11116c1.3481 0 2.4444-1.0764 2.4444-2.4zm-14.66667-2.4h-2.44444v-2.4h2.44444zm0-4.8h-2.44444v-2.4h2.44444zm4.88887 4.8h-2.44442v-2.4h2.44442zm0-4.8h-2.44442v-2.4h2.44442zm4.8889 4.8h-2.4444v-2.4h2.4444zm0-4.8h-2.4444v-2.4h2.4444zm2.4445-6h-17.11116v-2.4h17.11116z" fill="#606266"/></svg>