<svg fill="none" height="24" viewBox="0 0 24 24" width="24" xmlns="http://www.w3.org/2000/svg"><path d="m2.13671 15.271 2.04283 3.46c.13563.2295.3588.3969.62044.4653.26165.0685.54035.0324.77482-.1003l1.4259-.806c.59242.457 1.24715.832 1.93559 1.112v1.598c0 .2652.10761.5196.29917.7071.19155.1875.45135.2929.72225.2929h4.08569c.2709 0 .5307-.1054.7222-.2929.1916-.1875.2992-.4419.2992-.7071v-1.598c.6938-.2828 1.345-.6569 1.9356-1.112l1.4259.806c.4872.275 1.1144.11 1.3953-.365l2.0428-3.46c.1344-.2298.1707-.5023.1008-.7581-.0698-.2559-.24-.4744-.4736-.6079l-1.4014-.793c.1095-.7375.1088-1.4867-.0021-2.224l1.4014-.793c.4862-.275.6548-.89.3728-1.366l-2.0428-3.46c-.1356-.2295-.3588-.39688-.6204-.46533-.2617-.06844-.5404-.03236-.7749.10033l-1.4259.806c-.5898-.45562-1.2407-.82978-1.9345-1.112v-1.598c0-.26522-.1076-.51957-.2992-.70711-.1915-.18753-.4513-.29289-.7222-.29289h-4.08571c-.2709 0-.5307.10536-.72226.29289-.19155.18754-.29916.44189-.29916.70711v1.598c-.69383.28281-1.34502.65692-1.93559 1.112l-1.42488-.806c-.11607-.06583-.24425-.10861-.37722-.1259-.13297-.01728-.26812-.00873-.39771.02517s-.25108.09249-.35752.1724c-.10645.07992-.19575.17959-.26281.29333l-2.04283 3.46c-.13444.2298-.17068.5023-.10086.75815.06983.25584.24008.47432.47367.60785l1.40139.793c-.11018.7374-.11018 1.4866 0 2.224l-1.40139.793c-.48619.275-.65473.89-.37281 1.366zm9.86279-7.271c2.2533 0 4.0857 1.794 4.0857 4s-1.8324 4-4.0857 4c-2.25323 0-4.08565-1.794-4.08565-4s1.83242-4 4.08565-4z" fill="#595959"/></svg>