<svg width="24" height="24" viewBox="0 0 24 24" fill="none" xmlns="http://www.w3.org/2000/svg">
<path d="M12 10C14.982 10 18 8.9695 18 7C18 5.0305 14.982 4 12 4C9.018 4 6 5.0305 6 7C6 8.9695 9.018 10 12 10Z" fill="#595959"/>
<path d="M6 10.6667C6 12.855 9.018 14 12 14C14.982 14 18 12.855 18 10.6667V9C18 11.1883 14.982 12.3333 12 12.3333C9.018 12.3333 6 11.1883 6 9V10.6667Z" fill="#595959"/>
<path d="M6 13.6667C6 15.855 9.018 17 12 17C14.982 17 18 15.855 18 13.6667V12C18 14.1883 14.982 15.3333 12 15.3333C9.018 15.3333 6 14.1883 6 12V13.6667Z" fill="#595959"/>
<path d="M6 16.6667C6 18.855 9.018 20 12 20C14.982 20 18 18.855 18 16.6667V15C18 17.1883 14.982 18.3333 12 18.3333C9.018 18.3333 6 17.1883 6 15V16.6667Z" fill="#595959"/>
</svg>
