<svg fill="none" height="24" viewBox="0 0 24 24" width="24" xmlns="http://www.w3.org/2000/svg"><g fill="#595959"><path d="m12 10c2.982 0 6-1.0305 6-3s-3.018-3-6-3-6 1.0305-6 3 3.018 3 6 3z"/><path d="m6 10.6667c0 2.1883 3.018 3.3333 6 3.3333s6-1.145 6-3.3333v-1.6667c0 2.1883-3.018 3.3333-6 3.3333s-6-1.145-6-3.3333z"/><path d="m6 13.6667c0 2.1883 3.018 3.3333 6 3.3333s6-1.145 6-3.3333v-1.6667c0 2.1883-3.018 3.3333-6 3.3333s-6-1.145-6-3.3333z"/><path d="m6 16.6667c0 2.1883 3.018 3.3333 6 3.3333s6-1.145 6-3.3333v-1.6667c0 2.1883-3.018 3.3333-6 3.3333s-6-1.145-6-3.3333z"/></g></svg>