<svg fill="none" height="32" viewBox="0 0 32 32" width="32" xmlns="http://www.w3.org/2000/svg"><g fill="#2977ec"><path d="m13.3334 24c2.3666-.0005 4.665-.7927 6.5293-2.2506l5.8613 5.8613 1.8854-1.8853-5.8614-5.8614c1.4587-1.8644 2.2515-4.1634 2.252-6.5306 0-5.88138-4.7853-10.66671-10.6666-10.66671-5.88138 0-10.66671 4.78533-10.66671 10.66671 0 5.8813 4.78533 10.6666 10.66671 10.6666zm0-18.66665c4.412 0 8 3.588 8 8.00005 0 4.412-3.588 8-8 8-4.41205 0-8.00005-3.588-8.00005-8 0-4.41205 3.588-8.00005 8.00005-8.00005z"/><path d="m15.216 11.448c.5053.5067.784 1.176.784 1.8853h2.6666c.0012-.7007-.1365-1.3948-.4052-2.042s-.663-1.2347-1.1601-1.72864c-2.0187-2.016-5.5187-2.016-7.53599 0l1.88269 1.88804c1.0133-1.0107 2.76-1.008 3.768-.0027z"/></g></svg>