<svg width="16" height="16" viewBox="0 0 16 16" fill="none" xmlns="http://www.w3.org/2000/svg">
<path d="M7.99998 1.3335C4.32398 1.3335 1.33331 4.32416 1.33331 8.00016C1.33331 11.6762 4.32398 14.6668 7.99998 14.6668C11.676 14.6668 14.6666 11.6762 14.6666 8.00016C14.6666 4.32416 11.676 1.3335 7.99998 1.3335ZM7.99998 13.3335C5.05931 13.3335 2.66665 10.9408 2.66665 8.00016C2.66665 5.0595 5.05931 2.66683 7.99998 2.66683C10.9406 2.66683 13.3333 5.0595 13.3333 8.00016C13.3333 10.9408 10.9406 13.3335 7.99998 13.3335Z" fill="#A4A8B3"/>
<path d="M7.33331 7.33317H8.66665V11.3332H7.33331V7.33317ZM7.33331 4.6665H8.66665V5.99984H7.33331V4.6665Z" fill="#A4A8B3"/>
</svg>
