<svg fill="none" height="32" viewBox="0 0 32 32" width="32" xmlns="http://www.w3.org/2000/svg" xmlns:xlink="http://www.w3.org/1999/xlink"><clipPath id="a"><path d="m.495361 0h31.0093v32h-31.0093z"/></clipPath><mask id="b" height="24" maskUnits="userSpaceOnUse" width="26" x="5" y="7"><path d="m27.5021 7.95996-.0346.04062c1.7139 1.00755 1.9972 3.48532.3913 4.83272l-14.2851 11.9866c-.4676.3923-1.1839.1318-1.2899-.4696l-.5558-3.1544-1.98736-11.26541-3.00978-1.09573c-.57362-.20904-1.15715.28136-1.05214.88272l3.23765 18.36382c.36359 2.0657 2.65313 3.0593 4.38193 2.0785.1575-.0891.3101-.1951.4557-.317l15.3353-12.8684c3.1157-2.6144 2.234-7.6215-1.5891-9.01246z" fill="#fff"/></mask><mask id="c" height="29" maskUnits="userSpaceOnUse" width="23" x="1" y="3"><path d="m13.3172 30.2095-.0179-.0505c-1.7298.9808-4.01731-.0129-4.3809-2.0775l-3.23764-18.36387c-.10601-.60136.47851-1.09077 1.05213-.88272l3.00978 1.09573 10.75023 3.91236 2.454-2.0587c.4676-.3924.3348-1.1433-.2388-1.3524l-17.5227-6.37817c-1.97053-.71826-3.97573.76879-3.99059 2.75616-.00099.1813.01387.36558.04755.55282l3.47641 19.71519c.70638 4.0064 5.48363 5.7451 8.60033 3.1306z" fill="#fff"/></mask><mask id="d" height="26" maskUnits="userSpaceOnUse" width="28" x="1" y="0"><path d="m1.14131 6.80057.05251.00991c.01486-1.98836 2.02006-3.47245 3.9896-2.75517l17.52268 6.37819c.5737.2091.7054.96.2388 1.3523l-2.454 2.0587-8.7628 7.3531.5558 3.1544c.106.6014.8222.8619 1.2899.4696l14.284-11.9856c1.607-1.3474 1.3226-3.82713-.3913-4.83369-.1565-.09214-.3239-.17041-.5023-.23579l-18.81162-6.846816c-3.82217-1.390959-7.71765 1.876406-7.01127 5.882846z" fill="#fff"/></mask><g clip-path="url(#a)"><path d="m27.4676 8.00128c-.1556-.09214-.323-.17139-.5023-.23678l-18.81268-6.846813c-3.82217-1.390959-7.716656 1.877403-7.01127 5.882853l.0535.0099c.01387-1.98737 2.01907-3.47244 3.9896-2.75517l17.52175 6.37823c.5736.209.7054.96.2388 1.3523l-11.2169 9.4118.5558 3.1544c.106.6014.8223.8619 1.2899.4696l14.2851-11.9866c1.6059-1.3474 1.3226-3.82617-.3913-4.83273z" fill="#e4f7fe"/><path d="m27.5021 7.95996-.0346.04062c1.7139 1.00755 1.9972 3.48532.3913 4.83272l-14.2851 11.9866c-.4676.3923-1.1839.1318-1.2899-.4696l-.5558-3.1544-1.98736-11.26541-3.00978-1.09573c-.57362-.20904-1.15715.28136-1.05214.88272l3.23765 18.36382c.36359 2.0657 2.65313 3.0593 4.38193 2.0785.1575-.0891.3101-.1951.4557-.317l15.3353-12.8684c3.1157-2.6144 2.234-7.6215-1.5891-9.01246z" fill="#acc6fe"/><path d="m5.18441 4.05506c-1.97052-.71629-3.97672.7678-3.98959 2.75517-.00199.1813.01287.36557.04656.55282l3.47641 19.71615c.17139.9689.57957 1.8041 1.14427 2.4788 1.77437 2.1141 5.09224 2.6343 7.45514.6519l-.0179-.0506c-1.7288.9808-4.01829-.0128-4.38188-2.0785l-3.23765-18.36382c-.10601-.60137.47851-1.09078 1.05214-.88273l3.00978 1.09573 10.75021 3.91232 2.453-2.0587c.4676-.3923.3349-1.1433-.2387-1.3523l-17.52179-6.37822z" fill="#bde6fe"/><g mask="url(#b)"><path d="m27.5022 7.95996-.0347.04062c1.714 1.00755 1.9973 3.48532.3914 4.83272l-14.2851 11.9866c-.4676.3923-1.1839.1318-1.2899-.4696l-.5558-3.1544-1.98739-11.26541-3.00979-1.09573c-.57362-.20904-1.15715.28136-1.05214.88272l3.23765 18.36382c.36359 2.0657 2.65317 3.0593 4.38197 2.0785.1575-.0891.31-.1951.4557-.317l15.3352-12.8684c3.1158-2.6144 2.2341-7.6215-1.5891-9.01246z" fill="#acc6fe"/><g stroke="#fff" stroke-miterlimit="10" stroke-width=".198142"><path d="m3.0722 9.59265c1.17499 0 1.17499.79255 2.34997.79255 1.17499 0 1.17499-.79255 2.34997-.79255 1.17499 0 1.17499.79255 2.34996.79255 1.175 0 1.175-.79255 2.35-.79255s1.175.79255 2.349.79255 1.1749-.79255 2.3499-.79255 1.175.79255 2.35.79255 1.175-.79255 2.35-.79255 1.175.79255 2.3499.79255c1.175 0 1.175-.79255 2.35-.79255s1.175.79255 2.35.79255 1.175-.79255 2.35-.79255c1.1749 0 1.1749.79255 2.3499.79255"/><path d="m3.0722 10.8965c1.17499 0 1.17499.7926 2.34997.7926 1.17499 0 1.17499-.7926 2.34997-.7926 1.17499 0 1.17499.7926 2.34996.7926 1.175 0 1.175-.7926 2.35-.7926s1.175.7926 2.349.7926 1.1749-.7926 2.3499-.7926 1.175.7926 2.35.7926 1.175-.7926 2.35-.7926 1.175.7926 2.3499.7926c1.175 0 1.175-.7926 2.35-.7926s1.175.7926 2.35.7926 1.175-.7926 2.35-.7926c1.1749 0 1.1749.7926 2.3499.7926"/><path d="m3.0722 12.2002c1.17499 0 1.17499.7926 2.34997.7926 1.17499 0 1.17499-.7926 2.34997-.7926 1.17499 0 1.17499.7926 2.34996.7926 1.175 0 1.175-.7926 2.35-.7926s1.175.7926 2.349.7926 1.1749-.7926 2.3499-.7926 1.175.7926 2.35.7926 1.175-.7926 2.35-.7926 1.175.7926 2.3499.7926c1.175 0 1.175-.7926 2.35-.7926s1.175.7926 2.35.7926 1.175-.7926 2.35-.7926c1.1749 0 1.1749.7926 2.3499.7926"/><path d="m3.0722 13.5031c1.17499 0 1.17499.7925 2.34997.7925 1.17499 0 1.17499-.7925 2.34997-.7925 1.17499 0 1.17499.7925 2.34996.7925 1.175 0 1.175-.7925 2.35-.7925s1.175.7925 2.349.7925 1.1749-.7925 2.3499-.7925 1.175.7925 2.35.7925 1.175-.7925 2.35-.7925 1.175.7925 2.3499.7925c1.175 0 1.175-.7925 2.35-.7925s1.175.7925 2.35.7925 1.175-.7925 2.35-.7925c1.1749 0 1.1749.7925 2.3499.7925"/><path d="m3.0722 14.8069c1.17499 0 1.17499.7926 2.34997.7926 1.17499 0 1.17499-.7926 2.34997-.7926 1.17499 0 1.17499.7926 2.34996.7926 1.175 0 1.175-.7926 2.35-.7926s1.175.7926 2.349.7926 1.1749-.7926 2.3499-.7926 1.175.7926 2.35.7926 1.175-.7926 2.35-.7926 1.175.7926 2.3499.7926c1.175 0 1.175-.7926 2.35-.7926s1.175.7926 2.35.7926 1.175-.7926 2.35-.7926c1.1749 0 1.1749.7926 2.3499.7926"/><path d="m3.0722 16.1104c1.17499 0 1.17499.7925 2.34997.7925 1.17499 0 1.17499-.7925 2.34997-.7925 1.17499 0 1.17499.7925 2.34996.7925 1.175 0 1.175-.7925 2.35-.7925s1.175.7925 2.349.7925 1.1749-.7925 2.3499-.7925 1.175.7925 2.35.7925 1.175-.7925 2.35-.7925 1.175.7925 2.3499.7925c1.175 0 1.175-.7925 2.35-.7925s1.175.7925 2.35.7925 1.175-.7925 2.35-.7925c1.1749 0 1.1749.7925 2.3499.7925"/><path d="m3.0722 17.4131c1.17499 0 1.17499.7926 2.34997.7926 1.17499 0 1.17499-.7926 2.34997-.7926 1.17499 0 1.17499.7926 2.34996.7926 1.175 0 1.175-.7926 2.35-.7926s1.175.7926 2.349.7926 1.1749-.7926 2.3499-.7926 1.175.7926 2.35.7926 1.175-.7926 2.35-.7926 1.175.7926 2.3499.7926c1.175 0 1.175-.7926 2.35-.7926s1.175.7926 2.35.7926 1.175-.7926 2.35-.7926c1.1749 0 1.1749.7926 2.3499.7926"/><path d="m3.0722 18.7168c1.17499 0 1.17499.7926 2.34997.7926 1.17499 0 1.17499-.7926 2.34997-.7926 1.17499 0 1.17499.7926 2.34996.7926 1.175 0 1.175-.7926 2.35-.7926s1.175.7926 2.349.7926 1.1749-.7926 2.3499-.7926 1.175.7926 2.35.7926 1.175-.7926 2.35-.7926 1.175.7926 2.3499.7926c1.175 0 1.175-.7926 2.35-.7926s1.175.7926 2.35.7926 1.175-.7926 2.35-.7926c1.1749 0 1.1749.7926 2.3499.7926"/><path d="m3.0722 20.0205c1.17499 0 1.17499.7926 2.34997.7926 1.17499 0 1.17499-.7926 2.34997-.7926 1.17499 0 1.17499.7926 2.34996.7926 1.175 0 1.175-.7926 2.35-.7926s1.175.7926 2.349.7926 1.1749-.7926 2.3499-.7926 1.175.7926 2.35.7926 1.175-.7926 2.35-.7926 1.175.7926 2.3499.7926c1.175 0 1.175-.7926 2.35-.7926s1.175.7926 2.35.7926 1.175-.7926 2.35-.7926c1.1749 0 1.1749.7926 2.3499.7926"/><path d="m3.0722 21.3242c1.17499 0 1.17499.7926 2.34997.7926 1.17499 0 1.17499-.7926 2.34997-.7926 1.17499 0 1.17499.7926 2.34996.7926 1.175 0 1.175-.7926 2.35-.7926s1.175.7926 2.349.7926 1.1749-.7926 2.3499-.7926 1.175.7926 2.35.7926 1.175-.7926 2.35-.7926 1.175.7926 2.3499.7926c1.175 0 1.175-.7926 2.35-.7926s1.175.7926 2.35.7926 1.175-.7926 2.35-.7926c1.1749 0 1.1749.7926 2.3499.7926"/><path d="m3.0722 22.6279c1.17499 0 1.17499.7926 2.34997.7926 1.17499 0 1.17499-.7926 2.34997-.7926 1.17499 0 1.17499.7926 2.34996.7926 1.175 0 1.175-.7926 2.35-.7926s1.175.7926 2.349.7926 1.1749-.7926 2.3499-.7926 1.175.7926 2.35.7926 1.175-.7926 2.35-.7926 1.175.7926 2.3499.7926c1.175 0 1.175-.7926 2.35-.7926s1.175.7926 2.35.7926 1.175-.7926 2.35-.7926c1.1749 0 1.1749.7926 2.3499.7926"/><path d="m3.0722 23.9316c1.17499 0 1.17499.7926 2.34997.7926 1.17499 0 1.17499-.7926 2.34997-.7926 1.17499 0 1.17499.7926 2.34996.7926 1.175 0 1.175-.7926 2.35-.7926s1.175.7926 2.349.7926 1.1749-.7926 2.3499-.7926 1.175.7926 2.35.7926 1.175-.7926 2.35-.7926 1.175.7926 2.3499.7926c1.175 0 1.175-.7926 2.35-.7926s1.175.7926 2.35.7926 1.175-.7926 2.35-.7926c1.1749 0 1.1749.7926 2.3499.7926"/><path d="m3.0722 25.2354c1.17499 0 1.17499.7925 2.34997.7925 1.17499 0 1.17499-.7925 2.34997-.7925 1.17499 0 1.17499.7925 2.34996.7925 1.175 0 1.175-.7925 2.35-.7925s1.175.7925 2.349.7925 1.1749-.7925 2.3499-.7925 1.175.7925 2.35.7925 1.175-.7925 2.35-.7925 1.175.7925 2.3499.7925c1.175 0 1.175-.7925 2.35-.7925s1.175.7925 2.35.7925 1.175-.7925 2.35-.7925c1.1749 0 1.1749.7925 2.3499.7925"/><path d="m3.0722 26.5381c1.17499 0 1.17499.7926 2.34997.7926 1.17499 0 1.17499-.7926 2.34997-.7926 1.17499 0 1.17499.7926 2.34996.7926 1.175 0 1.175-.7926 2.35-.7926s1.175.7926 2.349.7926 1.1749-.7926 2.3499-.7926 1.175.7926 2.35.7926 1.175-.7926 2.35-.7926 1.175.7926 2.3499.7926c1.175 0 1.175-.7926 2.35-.7926s1.175.7926 2.35.7926 1.175-.7926 2.35-.7926c1.1749 0 1.1749.7926 2.3499.7926"/><path d="m3.0722 27.8416c1.17499 0 1.17499.7925 2.34997.7925 1.17499 0 1.17499-.7925 2.34997-.7925 1.17499 0 1.17499.7925 2.34996.7925 1.175 0 1.175-.7925 2.35-.7925s1.175.7925 2.349.7925 1.1749-.7925 2.3499-.7925 1.175.7925 2.35.7925 1.175-.7925 2.35-.7925 1.175.7925 2.3499.7925c1.175 0 1.175-.7925 2.35-.7925s1.175.7925 2.35.7925 1.175-.7925 2.35-.7925c1.1749 0 1.1749.7925 2.3499.7925"/><path d="m3.0722 29.1454c1.17499 0 1.17499.7926 2.34997.7926 1.17499 0 1.17499-.7926 2.34997-.7926 1.17499 0 1.17499.7926 2.34996.7926 1.175 0 1.175-.7926 2.35-.7926s1.175.7926 2.349.7926 1.1749-.7926 2.3499-.7926 1.175.7926 2.35.7926 1.175-.7926 2.35-.7926 1.175.7926 2.3499.7926c1.175 0 1.175-.7926 2.35-.7926s1.175.7926 2.35.7926 1.175-.7926 2.35-.7926c1.1749 0 1.1749.7926 2.3499.7926"/></g></g><g mask="url(#c)"><path d="m13.3172 30.2094-.0179-.0505c-1.7298.9808-4.01731-.0129-4.3809-2.0776l-3.23764-18.36379c-.10601-.60136.47851-1.09077 1.05213-.88273l3.00978 1.09573 10.75023 3.91229 2.454-2.0587c.4676-.3923.3348-1.1432-.2388-1.3523l-17.5227-6.37819c-1.97053-.71827-3.97573.76879-3.99059 2.75616-.00099.1813.01387.36557.04755.55282l3.47641 19.71521c.70638 4.0064 5.48363 5.7451 8.60033 3.1306z" fill="#bde6fe"/><g stroke="#fff" stroke-miterlimit="10" stroke-width=".198142"><path d="m24.118 8.23633c-.5875 1.01746-1.2741.62117-1.8616 1.63864-.5875 1.01743.0991 1.41373-.4884 2.43123-.5875 1.0174-1.2741.6211-1.8615 1.6386-.5875 1.0175.099 1.4138-.4885 2.4312-.5875 1.0175-1.274.6212-1.8605 1.6387-.5875 1.0174.099 1.4137-.4884 2.4312-.5875 1.0174-1.2741.6211-1.8616 1.6386s.0991 1.4137-.4884 2.4312-1.2741.6212-1.8616 1.6386c-.5875 1.0175.0991 1.4138-.4884 2.4313-.5875 1.0174-1.274.6211-1.8615 1.6386-.58753 1.0175.099 1.4137-.4885 2.4312-.58745 1.0175-1.27401.6212-1.86151 1.6386"/><path d="m22.9895 7.58398c-.5874 1.01747-1.274.62118-1.8615 1.63864-.5875 1.01748.0991 1.41378-.4884 2.43118-.5875 1.0175-1.2741.6212-1.8616 1.6387-.5875 1.0174.0991 1.4137-.4884 2.4312-.5875 1.0174-1.274.6212-1.8605 1.6386-.5875 1.0175.099 1.4138-.4885 2.4312-.5875 1.0175-1.274.6212-1.8615 1.6387-.5875 1.0174.0991 1.4137-.4884 2.4312-.5875 1.0174-1.2741.6211-1.8616 1.6386s.0991 1.4137-.4884 2.4312-1.27406.6212-1.86156 1.6386c-.58749 1.0175.09908 1.4138-.48842 2.4313-.58749 1.0174-1.27405.6211-1.86155 1.6386"/><path d="m21.8601 6.93262c-.5875 1.01746-1.2741.62117-1.8616 1.63864-.5874 1.01746.0991 1.41374-.4884 2.43124-.5875 1.0174-1.274.6211-1.8615 1.6386s.099 1.4137-.4884 2.4312c-.5875 1.0175-1.2741.6212-1.8606 1.6386-.5865 1.0175.0991 1.4138-.4884 2.4313-.5875 1.0174-1.2741.6211-1.8616 1.6386s.0991 1.4137-.4884 2.4312-1.274.6212-1.8615 1.6386c-.5875 1.0175.099 1.4138-.4885 2.4312-.58746 1.0175-1.27402.6212-1.86151 1.6387-.58749 1.0174.09907 1.4137-.48842 2.4312-.5875 1.0175-1.27406.6212-1.86155 1.6386"/><path d="m20.7317 6.28027c-.5875 1.01746-1.2741.62118-1.8616 1.63864s.0991 1.41375-.4884 2.43119c-.5875 1.0175-1.274.6212-1.8615 1.6387-.5875 1.0174.099 1.4137-.4885 2.4312-.5875 1.0174-1.274.6211-1.8605 1.6386s.0991 1.4138-.4884 2.4312c-.5875 1.0175-1.2741.6212-1.8616 1.6386-.5875 1.0175.0991 1.4138-.4884 2.4313-.5875 1.0174-1.2741.6211-1.86156 1.6386-.58749 1.0175.09907 1.4137-.48842 2.4312s-1.27406.6212-1.86155 1.6386c-.58749 1.0175.09907 1.4138-.48842 2.4312-.58749 1.0175-1.27406.6212-1.86155 1.6387"/><path d="m19.6023 5.62878c-.5875 1.01747-1.2741.62118-1.8616 1.63864s.0991 1.41375-.4884 2.43121c-.5875 1.01747-1.274.62117-1.8615 1.63867-.5875 1.0174.099 1.4137-.4885 2.4312-.5874 1.0174-1.274.6211-1.8605 1.6386-.5875 1.0175.0991 1.4138-.4884 2.4312-.5875 1.0175-1.2741.6212-1.8616 1.6387-.5875 1.0174.0991 1.4137-.4884 2.4312-.5875 1.0174-1.27406.6211-1.86155 1.6386-.5875 1.0175.09907 1.4137-.48842 2.4312-.5875 1.0175-1.27406.6212-1.86155 1.6386-.5875 1.0175.09907 1.4138-.48842 2.4313-.5875 1.0174-1.27406.6211-1.86155 1.6386"/><path d="m18.4739 4.97754c-.5875 1.01746-1.2741.62117-1.8616 1.63864-.5875 1.01746.0991 1.41374-.4884 2.4312-.5875 1.01742-1.2741.62118-1.8616 1.63862-.5874 1.0175.0991 1.4138-.4884 2.4312-.5875 1.0175-1.274.6212-1.8605 1.6387-.5875 1.0174.099 1.4137-.4885 2.4312-.5874 1.0174-1.274.6211-1.8615 1.6386-.58749 1.0175.09907 1.4138-.48842 2.4312-.58749 1.0175-1.27406.6212-1.86155 1.6387-.58749 1.0174.09907 1.4137-.48842 2.4312-.58749 1.0174-1.27406.6211-1.86155 1.6386s.09907 1.4137-.48842 2.4312-1.27406.6212-1.86155 1.6386"/><path d="m17.3454 4.32593c-.5874 1.01746-1.274.62118-1.8615 1.63864s.0991 1.41374-.4884 2.4312-1.2741.62118-1.8616 1.63863c-.5875 1.0175.0991 1.4138-.4884 2.4312-.5875 1.0175-1.274.6212-1.8606 1.6387-.5874 1.0174.0991 1.4137-.4884 2.4312-.58746 1.0174-1.27403.6211-1.86152 1.6386s.09907 1.4137-.48842 2.4312-1.27406.6212-1.86155 1.6386c-.58749 1.0175.09907 1.4138-.48842 2.4313-.58749 1.0174-1.27406.6211-1.86155 1.6386s.09907 1.4137-.48842 2.4312-1.27406.6212-1.86155 1.6386"/><path d="m16.216 3.67383c-.5875 1.01746-1.2741.62118-1.8616 1.63864s.0991 1.41374-.4884 2.4312-1.274.62118-1.8615 1.63864c-.5875 1.01749.099 1.41379-.4884 2.43119-.5875 1.0175-1.2741.6212-1.86061 1.6387-.5865 1.0174.09907 1.4137-.48842 2.4312-.58749 1.0174-1.27405.6211-1.86155 1.6386-.58749 1.0175.09908 1.4137-.48842 2.4312-.58749 1.0175-1.27405.6212-1.86155 1.6386-.58749 1.0175.09908 1.4138-.48842 2.4313-.58749 1.0174-1.27405.6211-1.86154 1.6386-.5875 1.0175.09907 1.4137-.48843 2.4312-.58749 1.0175-1.274052.6212-1.861545 1.6386"/><path d="m15.0876 3.02222c-.5875 1.01746-1.2741.62117-1.8616 1.63863-.5875 1.01747.0991 1.41375-.4884 2.43121s-1.2741.62118-1.8615 1.63864c-.5875 1.01746.099 1.4137-.4885 2.4312-.58746 1.0175-1.27402.6212-1.86052 1.6386-.58651 1.0175.09907 1.4138-.48843 2.4313-.58749 1.0174-1.27405.6211-1.86154 1.6386-.5875 1.0174.09907 1.4137-.48843 2.4312-.58749 1.0175-1.27405.6212-1.86154 1.6386-.5875 1.0175.09907 1.4138-.48843 2.4312-.58749 1.0175-1.27405.6212-1.86154 1.6387-.587495 1.0174.09907 1.4137-.488424 2.4312-.587493 1.0174-1.274056.6212-1.861549 1.6386"/><path d="m13.9582 2.37012c-.5875 1.01746-1.2741.62117-1.8616 1.63864-.5875 1.01746.0991 1.41374-.4884 2.4312s-1.274.62118-1.86154 1.63864c-.58749 1.01746.09907 1.41375-.48842 2.4312-.58749 1.0175-1.27406.6212-1.86056 1.6386-.58749 1.0175.09907 1.4138-.48842 2.4313-.58749 1.0174-1.27406.6211-1.86155 1.6386s.09907 1.4137-.48842 2.4312-1.27405.6212-1.86155 1.6386c-.58749 1.0175.09907 1.4138-.48842 2.4312-.58749 1.0175-1.274055.6212-1.861547 1.6387-.587493 1.0174.099071 1.4137-.488422 2.4312-.587492 1.0175-1.274051.6212-1.861551 1.6386"/><path d="m12.8298 1.71875c-.5875 1.01746-1.2741.62118-1.8616 1.63864s.0991 1.41374-.4884 2.4312c-.5875 1.01747-1.27406.62118-1.86156 1.63864-.58749 1.01746.09907 1.41375-.48842 2.43121s-1.27405.62116-1.86056 1.63866c-.58749 1.0174.09908 1.4137-.48842 2.4312-.58749 1.0174-1.27405.6212-1.86155 1.6386-.58749 1.0175.09908 1.4138-.48842 2.4312-.58749 1.0175-1.27405.6212-1.86155 1.6387-.587488 1.0174.09908 1.4137-.48842 2.4312-.587489 1.0174-1.274053.6212-1.861545 1.6386-.587495 1.0175.099071 1.4138-.488425 2.4312-.58749 1.0175-1.27405.6212-1.86155 1.6387"/><path d="m11.7003 1.06763c-.5875 1.01746-1.2741.62117-1.86154 1.63863-.5875 1.01747.09907 1.41375-.48842 2.43121-.5875 1.01746-1.27406.62118-1.86155 1.63864-.5875 1.01746.09907 1.41375-.48842 2.43121-.5875 1.01748-1.27406.62117-1.86056 1.63868-.58749 1.0174.09907 1.4137-.48842 2.4312-.5875 1.0174-1.27406.6211-1.86155 1.6386s.09907 1.4137-.48842 2.4312-1.27406.6212-1.861551 1.6386c-.587492 1.0175.099071 1.4138-.4884211 2.4313-.5874929 1.0174-1.2740579.6211-1.8615479 1.6386-.58749 1.0174.09907 1.4137-.48842 2.4312s-1.27406.6212-1.86155 1.6386"/><path d="m10.5719.416016c-.5875 1.017464-1.27407.621174-1.86156 1.638634s.09907 1.41375-.48842 2.43121-1.27406.62118-1.86155 1.63864.09907 1.41375-.48842 2.43121-1.27406.62117-1.86056 1.63859c-.58749 1.0175.09907 1.4138-.48842 2.4313-.58749 1.0174-1.27406.6211-1.86155 1.6386s.09907 1.4137-.48842 2.4312c-.587493 1.0175-1.274056.6212-1.861549 1.6386-.587491 1.0175.099071 1.4138-.488421 2.4312-.58749 1.0175-1.27406.6212-1.86155 1.6387-.58749 1.0174.09907 1.4137-.48842 2.4312-.58749 1.0174-1.27406.6212-1.86155 1.6386"/><path d="m9.44347-.236206c-.58749 1.017461-1.27406.621176-1.86155 1.638636s.09907 1.41375-.48842 2.43121-1.27406.62118-1.86155 1.63864.09907 1.41374-.48842 2.4312c-.58749 1.01747-1.27406.62118-1.86056 1.63864-.5865 1.01748.09907 1.41378-.48842 2.43118-.58749 1.0175-1.27406.6212-1.861548 1.6387-.587492 1.0174.099072 1.4137-.4884208 2.4312-.5874922 1.0174-1.2740512.6212-1.8615512 1.6386-.58749 1.0175.09907 1.4138-.48842 2.4312-.58749 1.0175-1.27405.6212-1.86155 1.6387-.58749 1.0174.09907 1.4137-.48842 2.4312-.58749 1.0174-1.27405.6211-1.86155 1.6386"/><path d="m8.31408-.887695c-.5875 1.017461-1.27406.621176-1.86155 1.638637-.5875 1.017458.09907 1.413748-.48842 2.431208-.5875 1.01746-1.27406.62118-1.86155 1.63864s.09907 1.41374-.48842 2.4312c-.5875 1.01747-1.27406.62118-1.86056 1.63864s.09907 1.41377-.48842 2.43117c-.587496 1.0175-1.27405888.6212-1.861551 1.6387-.587489 1.0174.099071 1.4137-.488419 2.4312-.5875 1.0174-1.27406.6212-1.86155 1.6386-.58749 1.0175.09907 1.4138-.48842 2.4312-.5875 1.0175-1.27406.6212-1.86155 1.6387-.58749 1.0174.09907 1.4137-.48842 2.4312-.58749 1.0174-1.27406.6211-1.86155 1.6386"/><path d="m7.18566-1.54004c-.58749 1.017462-1.27406.621177-1.86155 1.6386389-.58749 1.0174611.09907 1.4137511-.48842 2.4312111s-1.27406.62117-1.86155 1.63863c-.58749 1.01747.09907 1.41375-.48842 2.43121s-1.27406.62118-1.86056 1.63864c-.5874925 1.01746.099071 1.41375-.488421 2.43121-.587493 1.0175-1.274059.6212-1.861549 1.6386-.58749 1.0175.09907 1.4138-.48842 2.4312-.58749 1.0175-1.27406.6212-1.86155 1.6387-.58749 1.0174.09907 1.4137-.48842 2.4312-.58749 1.0174-1.27406.6212-1.86155 1.6386-.58749 1.0175.09907 1.4138-.48842 2.4312-.58749 1.0175-1.27406.6212-1.86155 1.6387"/></g></g><g mask="url(#d)"><path d="m1.14131 6.80057.05251.00991c.01486-1.98836 2.02006-3.47245 3.9896-2.75517l17.52268 6.37819c.5737.2091.7054.96.2388 1.3523l-2.454 2.0587-8.7628 7.3531.5558 3.1544c.106.6014.8222.8619 1.2899.4696l14.284-11.9856c1.607-1.3474 1.3226-3.82713-.3913-4.83369-.1565-.09214-.3239-.17041-.5023-.23579l-18.81162-6.846816c-3.82217-1.390959-7.71765 1.876406-7.01127 5.882846z" fill="#e4f7fe"/><g stroke="#fff" stroke-miterlimit="10" stroke-width=".198142"><path d="m14.7705 27.1412c-.5875-1.0175.0991-1.4138-.4884-2.4312-.5875-1.0175-1.2741-.6212-1.8616-1.6387-.5875-1.0174.0991-1.4137-.4884-2.4312-.5875-1.0174-1.2741-.6212-1.8615-1.6386-.58754-1.0175.099-1.4138-.48847-2.4312-.58749-1.0175-1.27406-.6212-1.86155-1.6387-.58749-1.0174.09907-1.4137-.48842-2.4312-.58749-1.0174-1.27406-.6211-1.86155-1.6386-.58749-1.01747.09907-1.41376-.48842-2.43122s-1.27406-.62117-1.86155-1.63863c-.58749-1.01747.09907-1.41375-.48842-2.43121s-1.27406-.62118-1.861548-1.63864c-.5874922-1.01746.099071-1.41375-.488421-2.431206"/><path d="m15.8989 26.4889c-.5875-1.0174.0991-1.4137-.4884-2.4312-.5875-1.0174-1.2741-.6211-1.8616-1.6386s.0991-1.4137-.4884-2.4312-1.274-.6212-1.8615-1.6386c-.5875-1.0175.099-1.4138-.4885-2.4312-.5874-1.0175-1.27401-.6212-1.8615-1.6387-.58749-1.0174.09907-1.4137-.48842-2.4312s-1.27406-.6212-1.86155-1.6386c-.58749-1.01749.09907-1.41378-.48842-2.43124s-1.27406-.62117-1.86155-1.63864c-.58749-1.01746.09907-1.41374-.48842-2.4312s-1.27406-.62118-1.86155-1.63864.09907-1.413747-.48842-2.431208"/><path d="m17.0284 25.8375c-.5875-1.0175.099-1.4138-.4885-2.4312-.5874-1.0175-1.274-.6212-1.8615-1.6387-.5875-1.0174.0991-1.4137-.4884-2.4312s-1.2741-.6212-1.8616-1.6386c-.5875-1.0175.0991-1.4138-.4884-2.4312-.5875-1.0175-1.2741-.6212-1.86154-1.6387-.5875-1.0174.09904-1.4137-.48843-2.4312-.58749-1.0174-1.27405-.6212-1.86154-1.63862-.5875-1.01746.09907-1.41375-.48843-2.43121-.58749-1.01746-1.27405-.62117-1.86154-1.63863-.5875-1.01747.09907-1.41375-.48842-2.43121-.5875-1.01746-1.27406-.62118-1.86155-1.63864-.5875-1.017461.09907-1.41374607-.48843-2.43121"/><path d="m18.1568 25.1862c-.5875-1.0174.0991-1.4137-.4884-2.4312s-1.2741-.6212-1.8616-1.6386c-.5875-1.0175.0991-1.4138-.4884-2.4312-.5875-1.0175-1.2741-.6212-1.8616-1.6387-.5874-1.0174.0991-1.4137-.4884-2.4312-.5875-1.0174-1.274-.6212-1.8615-1.6386-.5875-1.0175.099-1.4138-.4884-2.4312-.5875-1.01749-1.2741-.6212-1.8616-1.63867-.58749-1.01746.09908-1.41374-.48842-2.4312-.58749-1.01746-1.27405-.62118-1.86155-1.63864-.58749-1.01746.09908-1.41375-.48842-2.43121-.58749-1.01746-1.27405-.62117-1.86155-1.638635-.58749-1.017461.09907-1.413746-.48842-2.431205"/><path d="m19.2852 24.5346c-.5875-1.0175.0991-1.4137-.4884-2.4312s-1.2741-.6212-1.8616-1.6386c-.5875-1.0175.0991-1.4138-.4884-2.4312-.5875-1.0175-1.274-.6212-1.8615-1.6387-.5875-1.0174.099-1.4137-.4885-2.4312s-1.274-.6212-1.8615-1.6386c-.5875-1.0175.0991-1.4138-.4884-2.43124-.5875-1.01746-1.2741-.62117-1.86158-1.63864-.58749-1.01746.09907-1.41374-.48842-2.4312-.58749-1.01747-1.27406-.62118-1.86155-1.63864s.09907-1.41375-.48842-2.43121c-.58749-1.017461-1.27406-.62118-1.86155-1.638636-.58749-1.017462.09907-1.413744-.48842-2.431204"/><path d="m20.4146 23.8825c-.5875-1.0175.0991-1.4137-.4884-2.4312s-1.2741-.6212-1.8616-1.6386c-.5875-1.0175.0991-1.4138-.4884-2.4312-.5875-1.0175-1.2741-.6212-1.8615-1.6387-.5875-1.0174.099-1.4137-.4885-2.4312s-1.274-.6212-1.8615-1.6386c-.5875-1.0175.0991-1.4138-.4884-2.43124-.5875-1.01746-1.2741-.62117-1.8616-1.63864-.5875-1.01746.0991-1.41374-.4884-2.4312s-1.27406-.62118-1.86155-1.63864c-.5875-1.01746.09907-1.41375-.48843-2.43121-.58749-1.0174595-1.27405-.621175-1.86154-1.638636-.5875-1.017464.09907-1.413744-.48843-2.431204"/><path d="m21.5431 23.2311c-.5875-1.0174.099-1.4137-.4884-2.4312-.5875-1.0174-1.2741-.6211-1.8616-1.6386s.0991-1.4138-.4884-2.4312c-.5875-1.0175-1.2741-.6212-1.8616-1.6387-.5875-1.0174.0991-1.4137-.4884-2.4312-.5875-1.0174-1.274-.6211-1.8615-1.6386s.099-1.41374-.4885-2.43121c-.5874-1.01746-1.274-.62117-1.8615-1.63863s.0991-1.41375-.4884-2.43121-1.2741-.62118-1.86157-1.63864c-.5875-1.01746.09907-1.41374-.48843-2.431205-.58749-1.017462-1.27405-.621177-1.86154-1.638635-.5875-1.01746.09907-1.41375-.48843-2.43121"/><path d="m22.6724 22.579c-.5875-1.0174.0991-1.4137-.4884-2.4312-.5875-1.0174-1.2741-.6211-1.8616-1.6386s.0991-1.4138-.4884-2.4312c-.5875-1.0175-1.274-.6212-1.8615-1.6387-.5875-1.0174.099-1.4137-.4885-2.4312-.5874-1.0174-1.274-.6211-1.8615-1.6386-.5875-1.01746.0991-1.41374-.4884-2.43121-.5875-1.01746-1.2741-.62117-1.8616-1.63863s.0991-1.41375-.4884-2.43121-1.274-.62118-1.8615-1.63864.099-1.413744-.4885-2.431205c-.58746-1.017465-1.27402-.621177-1.86151-1.638635-.58749-1.01746.09907-1.41375-.48842-2.43121"/><path d="m23.8009 21.9274c-.5875-1.0174.0991-1.4137-.4884-2.4312-.5875-1.0174-1.2741-.6212-1.8616-1.6386-.5875-1.0175.0991-1.4138-.4884-2.4312-.5875-1.0175-1.2741-.6212-1.8616-1.6387-.5874-1.0174.0991-1.4137-.4884-2.4312-.5875-1.0174-1.274-.6211-1.8615-1.63861-.5875-1.01746.099-1.41375-.4884-2.43121-.5875-1.01746-1.2741-.62117-1.8616-1.63863-.5875-1.01747.0991-1.41375-.4884-2.43121s-1.2741-.62118-1.8616-1.63864c-.5875-1.017461.0991-1.413745-.4884-2.431207-.5875-1.017463-1.274-.621173-1.86153-1.638633-.5875-1.01747.09907-1.41375-.48842-2.43121"/><path d="m24.9293 21.2752c-.5875-1.0175.0991-1.4137-.4884-2.4312s-1.2741-.6212-1.8616-1.6386c-.5875-1.0175.0991-1.4138-.4884-2.4312-.5875-1.0175-1.274-.6212-1.8615-1.6387-.5875-1.0174.099-1.4137-.4885-2.4312-.5874-1.01745-1.274-.6212-1.8615-1.63863-.5875-1.01746.0991-1.41375-.4884-2.43121s-1.2741-.62117-1.8616-1.63864c-.5875-1.01746.0991-1.41374-.4884-2.4312s-1.2741-.62118-1.8615-1.638641c-.5875-1.0174616.099-1.413746-.4885-2.431209-.5875-1.01746-1.274-.62117-1.8615-1.63864-.5875-1.01746.0991-1.41374-.4884-2.4312"/><path d="m26.0587 20.6247c-.5875-1.0175.0991-1.4138-.4884-2.4312-.5875-1.0175-1.2741-.6212-1.8616-1.6387-.5875-1.0174.0991-1.4137-.4884-2.4312-.5875-1.0174-1.274-.6211-1.8615-1.6386s.099-1.4137-.4885-2.4312c-.5875-1.01747-1.274-.62118-1.8615-1.63864s.0991-1.41375-.4884-2.43121-1.2741-.62118-1.8616-1.63864.0991-1.41374-.4884-2.43121c-.5875-1.017457-1.2741-.62117-1.8616-1.638634-.5874-1.017461.0991-1.413746-.4884-2.431206s-1.274-.62118-1.8615-1.63864.0991-1.41374-.4884-2.43121"/><path d="m27.1871 19.9725c-.5875-1.0175.0991-1.4138-.4884-2.4312-.5875-1.0175-1.2741-.6212-1.8616-1.6387-.5874-1.0174.0991-1.4137-.4884-2.4312-.5875-1.0174-1.274-.6212-1.8615-1.6386-.5875-1.0175.099-1.4138-.4884-2.43123-.5875-1.01746-1.2741-.62117-1.8616-1.63864-.5875-1.01746.0991-1.41374-.4884-2.4312s-1.2741-.62118-1.8616-1.63864.0991-1.41375-.4884-2.43121c-.5875-1.017458-1.274-.621174-1.8615-1.638635-.5875-1.017465.099-1.413745-.4885-2.431205-.5874-1.01746-1.274-.62118-1.8615-1.63864s.0991-1.41375-.4884-2.43121"/><path d="m28.3165 19.321c-.5875-1.0175.0991-1.4138-.4884-2.4312-.5875-1.0175-1.2741-.6212-1.8616-1.6387-.5875-1.0174.0991-1.4137-.4884-2.4312-.5875-1.0174-1.274-.6211-1.8615-1.6386s.099-1.41376-.4884-2.43122c-.5875-1.01746-1.2741-.62117-1.8616-1.63863-.5875-1.01747.0991-1.41375-.4884-2.43121s-1.2741-.62118-1.8616-1.63864.0991-1.41375-.4884-2.431206c-.5875-1.017462-1.274-.6211768-1.8615-1.638634-.5875-1.01747.099-1.41375-.4885-2.43121s-1.274-.62118-1.8615-1.63864.0991-1.41375-.4884-2.43121"/><path d="m29.445 18.6686c-.5875-1.0174.0991-1.4137-.4884-2.4312-.5875-1.0174-1.2741-.6211-1.8616-1.6386s.0991-1.4138-.4884-2.4312c-.5875-1.0175-1.2741-.6212-1.8616-1.6387-.5874-1.01741.0991-1.4137-.4884-2.43116s-1.274-.62118-1.8615-1.63864.0991-1.41375-.4884-2.43121-1.2741-.62117-1.8616-1.63863.0991-1.413749-.4884-2.4312101c-.5875-1.0174599-1.2741-.6211769-1.8616-1.6386399-.5875-1.01746.0991-1.41374-.4884-2.43121-.5875-1.01746-1.274-.62117-1.8615-1.63863s.099-1.41375-.4884-2.43121"/><path d="m30.5743 18.0163c-.5875-1.0175.0991-1.4138-.4884-2.4312-.5875-1.0175-1.2741-.6212-1.8615-1.6387-.5875-1.0174.099-1.4137-.4885-2.4312-.5875-1.0174-1.274-.6211-1.8615-1.6386-.5875-1.01746.0991-1.41374-.4884-2.4312-.5875-1.01747-1.2741-.62118-1.8616-1.63864s.0991-1.41375-.4884-2.43121-1.2741-.62118-1.8616-1.63864c-.5874-1.017458.0991-1.413743-.4884-2.431205-.5875-1.017465-1.274-.621175-1.8615-1.638635s.099-1.41375-.4884-2.43121c-.5875-1.01746-1.2741-.62118-1.8616-1.63864s.0991-1.41374-.4884-2.4312"/><path d="m31.7028 17.3649c-.5875-1.0174.0991-1.4137-.4884-2.4312-.5875-1.0174-1.2741-.6212-1.8616-1.6386-.5875-1.0175.0991-1.4138-.4884-2.4312-.5875-1.01749-1.274-.6212-1.8615-1.63866-.5875-1.01747.099-1.41375-.4885-2.43121s-1.274-.62118-1.8615-1.63864.0991-1.41375-.4884-2.43121-1.2741-.62117-1.8616-1.63863c-.5875-1.0174656.0991-1.41375-.4884-2.43121s-1.2741-.62118-1.8615-1.63864c-.5875-1.01746.099-1.41374-.4885-2.43121-.5875-1.01746-1.274-.62117-1.8615-1.63863-.5875-1.01747.0991-1.41375-.4884-2.43121"/></g></g><g stroke="#2977ec" stroke-miterlimit="10" stroke-width=".990712"><path d="m27.4676 8.00128c-.1556-.09214-.323-.17139-.5023-.23678l-18.81268-6.846813c-3.82217-1.390959-7.716656 1.877403-7.01127 5.882853l.0535.0099c.01387-1.98737 2.01907-3.47244 3.9896-2.75517l17.52175 6.37823c.5736.209.7054.96.2388 1.3523l-11.2169 9.4118.5558 3.1544c.106.6014.8223.8619 1.2899.4696l14.2851-11.9866c1.6059-1.3474 1.3226-3.82617-.3913-4.83273z"/><path d="m27.5021 7.95996-.0346.04062c1.7139 1.00755 1.9972 3.48532.3913 4.83272l-14.2851 11.9866c-.4676.3923-1.1839.1318-1.2899-.4696l-.5558-3.1544-1.98736-11.26541-3.00978-1.09573c-.57362-.20904-1.15715.28136-1.05214.88272l3.23765 18.36382c.36359 2.0657 2.65313 3.0593 4.38193 2.0785.1575-.0891.3101-.1951.4557-.317l15.3353-12.8684c3.1157-2.6144 2.234-7.6215-1.5891-9.01246z"/><path d="m5.18441 4.05506c-1.97052-.71629-3.97672.7678-3.98959 2.75517-.00199.1813.01287.36557.04656.55282l3.47641 19.71615c.17139.9689.57957 1.8041 1.14427 2.4788 1.77437 2.1141 5.09224 2.6343 7.45514.6519l-.0179-.0506c-1.7288.9808-4.01829-.0129-4.38188-2.0785l-3.23765-18.36382c-.10601-.60136.47851-1.09078 1.05214-.88273l3.00978 1.09573 10.75021 3.91232 2.453-2.0587c.4676-.3923.3349-1.1433-.2387-1.3523l-17.52179-6.37822z"/></g></g></svg>