<svg width="32" height="32" viewBox="0 0 32 32" fill="none" xmlns="http://www.w3.org/2000/svg">
<path d="M13.3334 24C15.7 23.9995 17.9984 23.2073 19.8627 21.7494L25.724 27.6107L27.6094 25.7254L21.748 19.864C23.2067 17.9996 23.9995 15.7006 24 13.3334C24 7.45202 19.2147 2.66669 13.3334 2.66669C7.45202 2.66669 2.66669 7.45202 2.66669 13.3334C2.66669 19.2147 7.45202 24 13.3334 24ZM13.3334 5.33335C17.7454 5.33335 21.3334 8.92135 21.3334 13.3334C21.3334 17.7454 17.7454 21.3334 13.3334 21.3334C8.92135 21.3334 5.33335 17.7454 5.33335 13.3334C5.33335 8.92135 8.92135 5.33335 13.3334 5.33335Z" fill="#2977EC"/>
<path d="M15.216 11.448C15.7213 11.9547 16 12.624 16 13.3333H18.6666C18.6678 12.6326 18.5301 11.9385 18.2614 11.2913C17.9927 10.6441 17.5984 10.0566 17.1013 9.56266C15.0826 7.54666 11.5826 7.54666 9.56531 9.56266L11.448 11.4507C12.4613 10.44 14.208 10.4427 15.216 11.448Z" fill="#2977EC"/>
</svg>
