<svg width="22" height="24" viewBox="0 0 22 24" fill="none" xmlns="http://www.w3.org/2000/svg">
<path d="M22 21.6V4.8C22 3.4764 20.9037 2.4 19.5556 2.4H17.1111V0H14.6667V2.4H7.33333V0H4.88889V2.4H2.44444C1.09633 2.4 0 3.4764 0 4.8V21.6C0 22.9236 1.09633 24 2.44444 24H19.5556C20.9037 24 22 22.9236 22 21.6ZM7.33333 19.2H4.88889V16.8H7.33333V19.2ZM7.33333 14.4H4.88889V12H7.33333V14.4ZM12.2222 19.2H9.77778V16.8H12.2222V19.2ZM12.2222 14.4H9.77778V12H12.2222V14.4ZM17.1111 19.2H14.6667V16.8H17.1111V19.2ZM17.1111 14.4H14.6667V12H17.1111V14.4ZM19.5556 8.4H2.44444V6H19.5556V8.4Z" fill="#606266"/>
</svg>
