<svg fill="none" height="24" viewBox="0 0 24 24" width="24" xmlns="http://www.w3.org/2000/svg"><g fill="#2977ec"><path d="m2.68549 12.9404 2.5829 2.6052 1.86838 1.8701.7453.7453c.11514.1041.26588.16.42106.1561s.30293-.0673.4127-.1771c.10976-.1097.17314-.2575.17704-.4127s-.05198-.3059-.1561-.421l-2.65299-2.6565.68376-.6837 2.65641 2.653 1.38805 1.3914c.055.0609.1218.1099.1964.1441.0745.0342.1552.053.2372.055.082.0021.1636-.0126.2398-.043.0761-.0304.1453-.076.2033-.134s.1036-.1272.1341-.2034c.0304-.0762.045-.1577.043-.2397-.0021-.082-.0208-.1628-.055-.2373s-.0833-.1414-.1441-.1964l-4.04104-4.0444.68376-.6838 4.04108 4.0411c.1151.1041.2658.16.421.1561s.3029-.0673.4127-.1771.1732-.2575.1771-.4127-.052-.3059-.1561-.421l-1.012-1.012-3.02737-3.0291.68377-.6837 3.0376 3.0256c.1151.1041.2659.16.4211.1561.1551-.0039.3029-.0673.4127-.177.1097-.1098.1731-.2576.177-.4127.0039-.1552-.052-.306-.1561-.4211l-.6444-.6444-2.3385-2.3812-3.00855-3.01885h3.37095c.0777.00425.1555-.00738.2286-.0342.073-.02681.1399-.06824.1964-.12176.0565-.05351.1015-.11798.1323-.18948.0307-.0715.0466-.14852.0466-.22635 0-.07784-.0159-.15486-.0466-.22635-.0308-.0715-.0758-.13597-.1323-.18949-.0565-.05351-.1234-.09494-.1964-.12176-.0731-.02681-.1509-.03845-.2286-.0342h-5.22566v-.96581h5.22736c.2046-.00004.4072.04075.5959.11998s.3597.19531.503.34145c.1433.14613.2559.31938.3314.5096.0755.19023.1123.39359.1082.5982-.0094.40273-.1752.78597-.4625 1.06841-.2872.28244-.6732.44185-1.076.44441h-1.0735l2.0513 2.0513 2.3641 2.3726c.1745.1857.3012.4111.3692.6567s.0752.5041.021.7531-.1681.4811-.332.6762c-.1639.1952-.3728.3475-.6086.444.2142.2197.3594.4973.4177.7986.0584.3013.0273.6131-.0893.8969-.1167.2838-.3139.5274-.5672.7005-.2534.1732-.5519.2684-.8587.274-.0055.3092-.1019.6099-.2771.8646-.1753.2547-.4217.4521-.7085.5677-.2867.1156-.6012.1442-.9041.0822s-.5808-.2118-.7992-.4307l-.36408-.3641c-.07849.1921-.19474.3665-.34188.5128-.29529.2936-.69474.4583-1.11111.4583s-.81582-.1647-1.11111-.4583l-5.20001-5.2205z"/><path d="m17.4597 5.69148c-1.0808.00241-2.1249.39077-2.9431 1.09466s-1.3562 1.6767-1.5166 2.74207c.3574.25311.6819.54939.9663.88199 0-.0758-.0107-.1499-.0107-.2258-.0017-.8065.275-1.58907.7836-2.21634s1.2182-1.06104 2.0097-1.22852 1.6167-.05846 2.3371.30876c.7204.36721 1.2921.97026 1.6192 1.70794.3271.73767.3897 1.56506.1773 2.34326-.2125.7783-.6871 1.4599-1.3441 1.9307-.657.4707-1.4565.7018-2.2642.6545s-1.5746-.3701-2.1718-.9142c.067.3363.1008.6784.1009 1.0213v.2823c.5995.3501 1.2719.5575 1.965.6062.693.0486 1.388-.0628 2.0308-.3257.6428-.2628 1.216-.6701 1.6751-1.1899.459-.5198.7915-1.1383.9716-1.8072.18-.6688.2028-1.37012.0664-2.0492-.1363-.67907-.4281-1.31762-.8525-1.86591-.4245-.5483-.9701-.99155-1.5945-1.29524-.6245-.30369-1.3108-.45963-2.0055-.45567z"/><path d="m16.4159 11.0424-.0221-.014-.3938.5688.0162.0125c.3574.2831.7751.4698 1.2167.5439v.5378h.4586v-.488h.0723c.7993 0 1.0884-.429 1.1901-.788.0406-.1344.0546-.2762.0411-.4166-.0134-.1403-.054-.2762-.1192-.3994-.0885-.1474-.2054-.2735-.3431-.3701-.1377-.0967-.2931-.1618-.4563-.191l-.2639-.0606-.1195-.02953v-.98695c.2941.06273.5759.17784.8332.34038l.0177.01244.3731-.57974-.0162-.01709c-.3699-.23878-.7799-.40025-1.2078-.4756v-.5502h-.4601v.51134c-.6533.02953-1.1061.43519-1.1901.8968-.1239.66832.2949 1.22475 1.0485 1.41745l.1475.0358v.8828c-.2984-.0658-.5793-.2001-.8229-.3932zm.2817-1.80918c.0265-.14144.2226-.29997.5338-.32329v.91234c-.1947-.04662-.6046-.20205-.5324-.58905zm.9939 1.43298.233.0575c.0735.0103.1442.0358.2082.075.0641.0392.1201.0914.165.1535.0195.0415.0307.0868.033.133s-.0044.0925-.0198.1359c-.025.0886-.0885.3108-.6208.2829z"/></g></svg>