<svg fill="none" height="16" viewBox="0 0 16 16" width="16" xmlns="http://www.w3.org/2000/svg"><path d="m13.3334 1.33337h-6.66669c-.73534 0-1.33334.598-1.33334 1.33334v2.66666h-2.66666c-.73534 0-1.33334.598-1.33334 1.33334v6.66669c0 .7353.598 1.3333 1.33334 1.3333h6.66666c.73533 0 1.33333-.598 1.33333-1.3333v-2.6667h2.6667c.7353 0 1.3333-.598 1.3333-1.33333v-6.66666c0-.73534-.598-1.33334-1.3333-1.33334zm-10.66669 12.00003v-6.66669h6.66666l.00134 6.66669zm10.66669-4.00003h-2.6667v-2.66666c0-.73534-.598-1.33334-1.33333-1.33334h-2.66666v-2.66666h6.66669z" fill="#2977ec"/></svg>