<svg fill="none" height="20" viewBox="0 0 22 20" width="22" xmlns="http://www.w3.org/2000/svg"><path d="m11 7.07641v10.11129m0-10.11129c0-1.66554 0-2.49796.3226-3.13412.2837-.55957.7362-1.01468 1.2931-1.29979.6331-.32414 1.462-.32414 3.1196-.32414h2.565c.5526 0 .8291 0 1.0401.10804.1856.09505.3362.24659.4307.43311.1075.21205.1079.48984.1079 1.04503v8.72346c0 .5551-.0004.8324-.1079 1.0444-.0945.1866-.2448.3386-.4304.4336-.2109.108-.4867.108-1.0382.108h-2.7946c-.9266 0-1.3907 0-1.8112.1284-.3724.1136-.718.2995-1.0186.5477-.3395.2805-.5968.6678-1.1108 1.4425l-.5673.8551m0-10.11129c0-1.66554-.0002-2.49796-.3227-3.13412-.2838-.55957-.73656-1.01468-1.29348-1.29979-.63313-.32414-1.46211-.32414-3.11968-.32414h-2.56506c-.55252 0-.82851 0-1.03955.10804-.18563.09505-.33644.24659-.43103.43311-.10753.21205-.10753.48984-.10753 1.04503v8.72346c0 .5551 0 .8324.10753 1.0444.09459.1866.2454.3386.43103.4336.21083.108.48649.108 1.03793.108h2.79469c.92659 0 1.38975 0 1.8103.1284.37229.1136.71962.2995 1.02021.5477.33819.2793.59381.6647 1.10364 1.4331l.5737.8645" stroke="#2977ec" stroke-linecap="round" stroke-linejoin="round" stroke-width="4"/></svg>