<svg fill="none" height="24" viewBox="0 0 24 24" width="24" xmlns="http://www.w3.org/2000/svg"><g fill="#fff"><path d="m14 3h-9c-.53043 0-1.03914.21071-1.41421.58579-.37508.37507-.58579.88378-.58579 1.41421v9c0 .5304.21071 1.0391.58579 1.4142.37507.3751.88378.5858 1.41421.5858h9c.5304 0 1.0391-.2107 1.4142-.5858s.5858-.8838.5858-1.4142v-9c0-.53043-.2107-1.03914-.5858-1.41421-.3751-.37508-.8838-.58579-1.4142-.58579z"/><path d="m21 19v-9c0-.53043-.2107-1.03914-.5858-1.41421-.3751-.37508-.8838-.58579-1.4142-.58579h-1v8c0 .5304-.2107 1.0391-.5858 1.4142s-.8838.5858-1.4142.5858h-8v1c0 .5304.21071 1.0391.58579 1.4142.37507.3751.88378.5858 1.41421.5858h9c.5304 0 1.0391-.2107 1.4142-.5858s.5858-.8838.5858-1.4142z"/></g></svg>