<svg fill="none" height="60" viewBox="0 0 60 60" width="60" xmlns="http://www.w3.org/2000/svg"><rect fill="#085276" height="60" rx="30" width="60"/><g fill="#fff"><path d="m30 27c4.473 0 9-1.5458 9-4.5s-4.527-4.5-9-4.5-9 1.5458-9 4.5 4.527 4.5 9 4.5z"/><path d="m21 28c0 3.2825 4.527 5 9 5s9-1.7175 9-5v-2.5c0 3.2825-4.527 5-9 5s-9-1.7175-9-5z"/><path d="m21 32.5c0 3.2825 4.527 5 9 5s9-1.7175 9-5v-2.5c0 3.2825-4.527 5-9 5s-9-1.7175-9-5z"/><path d="m21 37c0 3.2825 4.527 5 9 5s9-1.7175 9-5v-2.5c0 3.2825-4.527 5-9 5s-9-1.7175-9-5z"/></g></svg>