
<svg width="52" height="137" viewBox="0 0 52 137" fill="none" xmlns="http://www.w3.org/2000/svg">
<path fill-rule="evenodd" clip-rule="evenodd" d="M41.5831 134.62C36.7445 132.908 32.0746 130.679 27.8411 127.805C24.6575 130.055 20.8084 131.619 16.9534 131.122C15.6672 130.955 14.4273 130.567 13.186 130.179C12.3046 129.903 11.4225 129.627 10.5226 129.429C8.35389 128.956 5.86616 129.026 4.20346 130.49C4.29676 129.776 4.59543 129.132 5.02316 128.564C4.98048 128.575 4.9378 128.587 4.89511 128.599L4.85696 128.517C4.96162 128.467 5.06712 128.42 5.1734 128.374C5.82116 127.591 6.71189 126.963 7.62678 126.504C8.28281 126.176 8.9677 125.905 9.65203 125.634C10.6688 125.231 11.6843 124.829 12.6021 124.24C12.8763 124.064 13.1446 123.87 13.4131 123.676C14.1975 123.11 14.9841 122.542 15.9267 122.407C16.9343 122.261 17.8908 122.638 18.8571 123.018C19.4776 123.262 20.1021 123.508 20.7468 123.618C21.3191 123.716 21.9071 123.696 22.4733 123.573C17.6248 119.121 13.7555 113.557 11.7586 107.301L11.7571 107.299C9.31015 99.6336 9.87415 91.3458 12.3023 83.7595C12.4987 83.145 12.7062 82.5302 12.9251 81.917C12.8602 81.7568 12.7938 81.5975 12.726 81.4392C12.0006 79.7436 11.1225 78.1215 10.2443 76.4993C9.47887 75.0854 8.71341 73.6715 8.0489 72.2086C5.35481 66.2807 4.38289 59.5853 5.27826 53.1417C6.8195 52.8812 8.47235 53.4087 9.57996 54.5134C10.8496 52.4598 11.6401 50.1036 11.8084 47.6948C12.0205 44.6711 11.0363 41.302 8.43867 39.7306C6.32938 38.4547 3.17127 39.1397 1.90762 41.0583C1.98281 41.246 2.08123 41.427 2.2048 41.5981L2.13742 41.6564C2.01557 41.5135 1.91096 41.3573 1.82384 41.1921C1.57863 41.604 1.41881 42.069 1.3711 42.5803C-0.441793 39.54 1.73243 35.1615 5.14093 34.2235C8.54944 33.2855 12.3326 35.3759 13.968 38.5134C13.888 32.8659 16.4583 27.2407 20.7793 23.6088C22.1845 22.4284 23.7571 21.4509 25.3258 20.4758C27.5934 19.0664 29.853 17.662 31.587 15.6568C35.0698 11.6311 35.7196 5.63168 35.6598 0.303052C40.5311 5.79989 41.6247 14.3276 38.2963 20.8613C37.2952 22.8263 35.9539 24.5864 34.6142 26.3447C34.2518 26.8203 33.8895 27.2957 33.5341 27.775C31.7077 30.2378 30.0503 32.8253 28.5738 35.5125C30.2548 33.5116 32.2029 31.7186 34.1535 29.9234C35.5472 28.6406 36.9421 27.3567 38.2416 25.9952C42.2938 21.7468 45.599 15.8185 43.9256 10.1815C47.2139 16.1428 46.3558 23.4291 45.4042 30.1654C44.6629 35.4139 43.8894 40.7658 41.533 45.5119C41.2288 46.1253 40.8986 46.727 40.5685 47.3284L40.5685 47.3285C39.8913 48.5624 39.2148 49.7951 38.7651 51.1255C38.3378 52.388 38.1247 53.7078 37.9116 55.0276C37.7016 56.3284 37.4916 57.6291 37.0766 58.875C36.7861 59.747 36.4072 60.5662 35.9575 61.3422C36.0471 61.2 36.1353 61.0573 36.2221 60.9141C36.5347 60.3545 36.8369 59.7811 37.0035 59.1555L37.0923 59.1701C36.9863 59.823 36.7418 60.4385 36.4662 61.0299C35.9045 62.2133 35.1917 63.3164 34.4025 64.3589C33.1137 66.0814 31.4139 67.397 29.7201 68.708C28.8246 69.4011 27.9307 70.093 27.1001 70.843C23.2227 74.3123 20.4356 78.9899 19.2934 84.072L19.238 84.0603C19.2252 84.1422 19.2128 84.2242 19.201 84.306C19.4492 87.5881 20.1769 90.8358 21.3411 93.9184C21.4464 93.9493 21.5522 93.9793 21.6586 94.0083L21.6565 94.0337C21.5631 94.0271 21.4692 94.0185 21.375 94.0079C22.1347 96.0027 23.0773 97.9277 24.1912 99.7474L24.2894 99.7502C23.7639 98.6521 23.3898 97.656 23.3527 96.5682C23.2788 94.3493 24.5854 92.2757 26.1094 90.6656C26.9066 89.8227 27.7462 89.1517 28.6165 88.4561C28.9501 88.1894 29.2883 87.9191 29.6303 87.6342C30.8646 86.6058 31.5583 84.935 31.7163 83.5828C31.7999 86.3141 31.8538 89.1807 30.6102 91.6126C29.9517 92.8976 28.976 93.9682 27.9982 95.0412C27.4781 95.6119 26.9573 96.1834 26.4834 96.7881C25.6878 97.804 24.6755 99.5764 24.9804 100.976C25.4853 101.726 26.0206 102.456 26.5852 103.162C26.6365 103.16 26.6855 103.158 26.731 103.156C26.689 103.166 26.6467 103.176 26.6042 103.186C26.9744 103.648 27.3571 104.101 27.7522 104.542C28.1594 104.998 28.5781 105.441 29.0061 105.876C29.0951 105.864 29.1841 105.851 29.27 105.839L29.2706 105.839L29.2752 105.838C29.3871 105.823 29.4937 105.808 29.5878 105.795C29.4169 105.847 29.2437 105.895 29.0686 105.939C29.2766 106.149 29.4868 106.357 29.6988 106.563L29.7251 106.553L29.7375 106.576L29.7212 106.585C31.1946 108.016 32.7582 109.356 34.3212 110.696L34.3213 110.696L34.3315 110.704C34.5086 110.856 34.6856 111.008 34.8625 111.16C34.1638 108.454 34.2972 105.457 35.8161 103.134C36.1543 102.618 36.6768 102.284 37.2007 101.95C37.3394 101.861 37.4783 101.772 37.6138 101.68C38.3168 101.202 39.0285 100.715 39.5818 100.068C40.7724 98.6711 41.0569 96.7484 41.3264 94.9271L41.3445 94.805C41.6184 92.9467 42.0168 90.9606 43.3875 89.6786L43.3902 89.6784C42.5331 91.0185 42.9393 92.3758 43.4162 93.8953C43.5698 94.3851 43.7331 94.8769 43.8971 95.3704L43.8971 95.3706L43.8971 95.3707L43.8972 95.3708L43.8972 95.3709L43.8972 95.371L43.8973 95.3711L43.8973 95.3712L43.8973 95.3713L43.8974 95.3714L43.8974 95.3714C44.7798 98.0281 45.6791 100.736 45.1672 103.448C44.8627 105.065 44.0729 106.545 43.2866 108.019C42.3477 109.778 41.4138 111.528 41.3167 113.492C41.2424 114.971 41.4862 116.507 42.0967 117.861C43.9833 119.76 45.8103 121.72 47.5869 123.723C47.5843 123.679 47.5883 123.642 47.5997 123.613C47.6058 123.598 47.6067 123.582 47.6077 123.567C47.609 123.544 47.6103 123.522 47.6263 123.507C47.6597 123.474 47.7134 123.48 47.7581 123.492C48.2495 123.607 48.6694 123.918 49.0385 124.263L49.0373 124.264C49.4439 124.643 50.6411 126.173 49.6968 126.31C50.4431 127.374 51.0491 128.513 51.3392 129.774C51.8668 132.066 50.9906 134.853 48.8117 135.735C47.4905 136.271 46.0164 136.017 44.6229 135.617C44.6199 135.633 44.6149 135.649 44.6075 135.666C44.5009 135.908 43.648 135.796 43.464 135.754L43.4669 135.756C42.7676 135.601 42.472 135.525 41.8215 135.223C41.4315 135.041 41.2667 134.868 41.3063 134.758C41.3273 134.702 41.3873 134.67 41.4457 134.651C41.4909 134.636 41.5368 134.626 41.5831 134.62ZM24.6415 100.463C24.502 100.247 24.3649 100.03 24.2304 99.8111C24.2584 99.8082 24.2864 99.8052 24.3143 99.802C24.4181 100.018 24.5276 100.237 24.6415 100.463ZM5.82193 81.0797L5.82799 81.0867C5.95264 81.2553 5.79214 82.1192 5.64649 82.9029L5.64647 82.903C5.54231 83.4636 5.44576 83.9832 5.46661 84.1781C5.57939 85.2266 5.75875 86.3818 6.10424 87.3781C6.53287 88.6114 7.75732 90.9584 9.43601 90.5292C9.37822 85.6347 7.88311 83.4675 5.82799 81.0867L5.82336 81.081L5.82193 81.0797Z" fill="#D4FCFF"/>
</svg>
