<svg width="52" height="137" viewBox="0 0 52 137" fill="none" xmlns="http://www.w3.org/2000/svg">
<path fill-rule="evenodd" clip-rule="evenodd" d="M10.5265 2.41606C15.365 4.12849 20.0347 6.35711 24.268 9.23082C27.4516 6.98101 31.3006 5.41724 35.1554 5.91427C36.4417 6.08107 37.6815 6.46918 38.9228 6.85774C39.8042 7.13364 40.6863 7.40977 41.5863 7.60706C43.7549 8.08077 46.2427 8.01041 47.9054 6.54667C47.8121 7.26025 47.5137 7.90374 47.0862 8.4716C47.1287 8.46011 47.1712 8.44842 47.2137 8.4365L47.2519 8.51871C47.1475 8.56815 47.0422 8.61577 46.9362 8.66157C46.2884 9.4445 45.3973 10.0733 44.482 10.532C43.826 10.8604 43.1411 11.1317 42.4568 11.4027C41.44 11.8054 40.4245 12.2076 39.5068 12.7961C39.2325 12.9723 38.9643 13.166 38.6957 13.3599C37.9113 13.9264 37.1248 14.4944 36.1821 14.6293C35.1745 14.7753 34.218 14.3987 33.2517 14.0183C32.6313 13.774 32.0068 13.5281 31.3621 13.4179C30.7898 13.3203 30.202 13.3403 29.6359 13.4635C34.4842 17.9156 38.3534 23.4789 40.3503 29.7352L40.3517 29.7364C42.7987 37.4023 42.2347 45.6901 39.8065 53.2764C39.6101 53.8912 39.4025 54.5062 39.1834 55.1196C39.2483 55.2798 39.3146 55.439 39.3824 55.5972C40.1078 57.2927 40.9859 58.9147 41.8641 60.5369L41.8641 60.537C42.6295 61.9509 43.395 63.3648 44.0595 64.8277C46.7536 70.7556 47.7255 77.451 46.8301 83.8946C45.2889 84.1551 43.636 83.6276 42.5284 82.5229C41.2588 84.5765 40.4683 86.9327 40.3 89.3415C40.0879 92.3652 41.0721 95.7343 43.6697 97.3057C45.7791 98.5817 48.9373 97.8966 50.2009 95.9778C50.1257 95.7902 50.0274 95.6093 49.9038 95.4383L49.9712 95.38C50.093 95.5228 50.1976 95.6789 50.2847 95.8441C50.5298 95.4321 50.6896 94.9672 50.7373 94.456C52.5502 97.4963 50.376 101.875 46.9675 102.813C43.559 103.751 39.7758 101.66 38.1404 98.5229C38.2204 104.17 35.6501 109.796 31.3291 113.428C29.9239 114.608 28.3513 115.585 26.7826 116.56C24.515 117.97 22.2554 119.374 20.5213 121.379C17.0386 125.405 16.3887 131.405 16.4486 136.733C11.5773 131.236 10.4837 122.709 13.8121 116.175C14.8132 114.21 16.1544 112.45 17.4942 110.692C17.8566 110.216 18.2189 109.741 18.5743 109.261C20.4006 106.799 22.0581 104.211 23.5346 101.524C21.8536 103.525 19.9055 105.318 17.955 107.113L17.9549 107.113C16.5611 108.396 15.1662 109.68 13.8668 111.041C9.81455 115.29 6.50935 121.218 8.18281 126.855C4.89451 120.894 5.75255 113.607 6.70416 106.871C7.44554 101.622 8.21894 96.2705 10.5754 91.5245C10.8796 90.911 11.2098 90.3093 11.5399 89.7079C12.2171 88.4739 12.8936 87.2412 13.3433 85.9108C13.7706 84.6483 13.9837 83.3285 14.1968 82.0087C14.4068 80.7079 14.6168 79.4072 15.0318 78.1613C15.3221 77.2898 15.7008 76.4709 16.1502 75.6954C16.0609 75.8371 15.9729 75.9795 15.8863 76.1223C15.5737 76.6819 15.2715 77.2553 15.1049 77.8809L15.0161 77.8663C15.1221 77.2134 15.3666 76.5979 15.6422 76.0065C16.2039 74.8231 16.9167 73.7199 17.7059 72.6775C18.9947 70.955 20.6945 69.6394 22.3883 68.3284C23.2838 67.6353 24.1777 66.9434 25.0083 66.1934C28.8857 62.7241 31.6728 58.0464 32.815 52.9644L32.8704 52.9761C32.8833 52.8934 32.8958 52.8108 32.9077 52.7282C32.6594 49.4467 31.9317 46.1995 30.7677 43.1173C30.6623 43.0864 30.5564 43.0564 30.4499 43.0274L30.452 43.002C30.5455 43.0086 30.6395 43.0172 30.7337 43.0278C29.9742 41.0332 29.0316 39.1084 27.9178 37.2889L27.8197 37.286C28.345 38.3839 28.719 39.3799 28.7561 40.4675C28.83 42.6864 27.5234 44.76 25.9994 46.3701C25.2021 47.213 24.3626 47.884 23.4923 48.5796C23.1587 48.8463 22.8205 49.1165 22.4785 49.4015C21.2442 50.4299 20.5505 52.1006 20.3925 53.4529C20.3089 50.7215 20.255 47.8549 21.4986 45.4231C22.1571 44.138 23.1328 43.0675 24.1106 41.9945C24.6307 41.4237 25.1515 40.8523 25.6254 40.2476C26.421 39.2318 27.4332 37.4594 27.1285 36.0598C26.6235 35.3097 26.0882 34.58 25.5234 33.8734C25.4722 33.8758 25.4232 33.878 25.3778 33.8798C25.4198 33.8694 25.462 33.8594 25.5045 33.8497C25.1343 33.3874 24.7516 32.9351 24.3566 32.4934C23.9496 32.0383 23.5309 31.5947 23.103 31.1605C23.014 31.1727 22.9248 31.1851 22.8388 31.1971L22.8382 31.1972L22.8337 31.1979C22.7217 31.2135 22.6151 31.2284 22.521 31.2409C22.692 31.189 22.8653 31.1411 23.0405 31.0972C22.8325 30.887 22.6224 30.679 22.4104 30.4729L22.3837 30.483L22.3713 30.46L22.388 30.4511C20.9145 29.0202 19.3508 27.68 17.7876 26.3403L17.7876 26.3402L17.7773 26.3314L17.7773 26.3314C17.6002 26.1796 17.4231 26.0278 17.2461 25.8759C17.945 28.5821 17.8117 31.5793 16.2927 33.9019C15.9545 34.4185 15.432 34.7521 14.9081 35.0866C14.7694 35.1752 14.6305 35.2638 14.495 35.356C13.792 35.8348 13.0803 36.3209 12.527 36.9678C11.3364 38.3652 11.0519 40.2879 10.7824 42.1092L10.7643 42.2313C10.4904 44.0896 10.092 46.0757 8.72129 47.3577L8.71865 47.3579C9.57566 46.0178 9.16954 44.6605 8.69262 43.141C8.53903 42.6513 8.37568 42.1594 8.21175 41.6659L8.21171 41.6658L8.21167 41.6656L8.21164 41.6655L8.2116 41.6654L8.21156 41.6653L8.21153 41.6652L8.21149 41.6651L8.21145 41.665L8.21142 41.6649C7.32904 39.0083 6.42969 36.3005 6.94155 33.5888C7.24609 31.9712 8.03586 30.4912 8.82217 29.0176C9.76107 27.2581 10.695 25.5078 10.7921 23.5438C10.8664 22.0651 10.6225 20.5291 10.0118 19.175C8.1252 17.2756 6.2984 15.3162 4.52184 13.3129C4.52445 13.357 4.52041 13.3941 4.509 13.4231C4.50295 13.4373 4.50201 13.4533 4.50109 13.4691C4.49978 13.4916 4.49849 13.5136 4.48246 13.5289C4.44907 13.562 4.39538 13.5554 4.35065 13.5442C3.85922 13.4285 3.43939 13.1173 3.07022 12.773L3.07145 12.7716C2.66487 12.3928 1.46773 10.8631 2.41188 10.7254C1.66568 9.66188 1.05974 8.52249 0.769587 7.26181C0.242032 4.96965 1.11827 2.18275 3.29712 1.3008C4.61837 0.764863 6.09247 1.0187 7.48595 1.41859C7.48894 1.40289 7.49399 1.38682 7.50131 1.37037C7.60793 1.12827 8.46076 1.24042 8.64476 1.2823L8.64192 1.27986C9.34115 1.43557 9.63677 1.51154 10.2872 1.81322C10.6773 1.99505 10.8421 2.1687 10.8025 2.27807C10.7815 2.33418 10.7215 2.36665 10.6631 2.38571C10.6182 2.40005 10.5726 2.40991 10.5265 2.41606ZM27.4677 36.5738C27.6072 36.7893 27.7441 37.0064 27.8787 37.2251C27.8507 37.228 27.8227 37.231 27.7948 37.2342C27.691 37.0186 27.5815 36.7989 27.4677 36.5738ZM46.2865 55.9566L46.2804 55.9496C46.1558 55.781 46.3163 54.9171 46.4619 54.1334L46.4619 54.1333C46.5661 53.5727 46.6626 53.0531 46.6418 52.8582C46.529 51.8097 46.3497 50.6545 46.0042 49.6582C45.5755 48.4249 44.3511 46.0779 42.6724 46.5071C42.7302 51.4016 44.2253 53.5688 46.2804 55.9496L46.2851 55.9553L46.2865 55.9566Z" fill="#D4FCFF"/>
</svg>
