<svg fill="none" height="73" viewBox="0 0 28 73" width="28" xmlns="http://www.w3.org/2000/svg"><path clip-rule="evenodd" d="m5.54746 1.28896c2.58053.91329 5.07104 2.10189 7.32884 3.63454 1.6979-1.19991 3.7506-2.03392 5.8066-1.76883.686.08896 1.3472.29595 2.0092.50318.4701.14715.9406.29442 1.4206.39964 1.1566.25265 2.4834.21512 3.3701-.56554-.0497.38057-.2089.72377-.4368 1.02663.0226-.00613.0453-.01236.068-.01872l.0203.04384c-.0557.02637-.1118.05177-.1683.0762-.3455.41756-.8208.7529-1.3089.99755-.3499.17517-.7152.31984-1.0802.46438-.5422.21476-1.0838.42926-1.5733.74316-.1463.09393-.2893.19726-.4326.30069-.4183.3021-.8378.60504-1.3406.67698-.5373.07791-1.0475-.12294-1.5628-.32586-.3309-.13028-.664-.26141-1.0079-.32017-.3052-.0521-.6186-.04143-.9206.02431 2.5858 2.37443 4.6494 5.34156 5.7144 8.67826l.0007.0006c1.3051 4.0885 1.0043 8.5087-.2908 12.5547-.1047.3279-.2154.6559-.3323.983.0346.0854.07.1703.1061.2547.3869.9043.8553 1.7694 1.3236 2.6346.4083.7541.8165 1.5082 1.1709 2.2884 1.4369 3.1615 1.9552 6.7324 1.4777 10.169-.822.1389-1.7035-.1424-2.2943-.7316-.6771 1.0952-1.0987 2.3519-1.1885 3.6366-.1131 1.6126.4118 3.4095 1.7972 4.2475 1.125.6806 2.8094.3152 3.4833-.7082-.0401-.1-.0925-.1965-.1584-.2877l.0359-.0311c.065.0762.1208.1594.1672.2475.1307-.2197.216-.4676.2414-.7403.9669 1.6215-.1927 3.9567-2.0106 4.457-1.8178.5003-3.8355-.6146-4.7078-2.288.0427 3.012-1.3281 6.0121-3.6327 7.9492-.7494.6295-1.5881 1.1508-2.4248 1.6709-1.2093.7517-2.4144 1.5007-3.3393 2.5701-1.85744 2.1471-2.20402 5.3468-2.17211 8.1887-2.59799-2.9317-3.18126-7.4798-1.40611-10.9644.53392-1.048 1.24923-1.9867 1.96377-2.9244.19328-.2537.3865-.5073.57606-.7629.97409-1.3135 1.85799-2.6935 2.64549-4.1267-.8965 1.0672-1.9355 2.0234-2.97581 2.9809-.74333.6841-1.4873 1.3688-2.18035 2.095-2.16119 2.2658-3.92397 5.4276-3.03145 8.434-1.75377-3.1794-1.29615-7.0654-.78862-10.6581.3954-2.7992.80788-5.6535 2.06465-8.1848.16222-.3271.33831-.648.51433-.9687l.00006-.0001c.36117-.6581.72199-1.3156.96185-2.0251.22785-.6733.34151-1.3772.45516-2.0811.11202-.6938.22403-1.3875.44537-2.052.15482-.4648.35679-.9015.59648-1.3152-.04765.0756-.09456.1516-.14076.2278-.1667.2984-.32788.6042-.41674.9378l-.04739-.0077c.05656-.3482.18695-.6765.33393-.9919.2996-.6312.67975-1.2195 1.10064-1.7755.68735-.9187 1.59395-1.6203 2.49725-2.3195h.0001v-.0001h.0001v-.0001h.0001l.0001-.0001.0001-.0001h.0001v-.0001h.0001v-.0001h.0001v-.0001h.0001l.0001-.0001.0001-.0001h.0001v-.0001h.0001v-.0001h.0001c.4771-.3693.9534-.7379 1.396-1.1376 2.0679-1.8503 3.5544-4.345 4.1636-7.0554l.0295.0062c.0069-.0441.0135-.0882.0199-.1322-.1325-1.7502-.5205-3.482-1.1414-5.1258-.0561-.0165-.1126-.0325-.1694-.048l.0011-.0135c.0499.0035.1.0081.1502.0138-.4051-1.0638-.9077-2.0904-1.5018-3.0608l-.0523-.0015c.2801.5855.4796 1.1167.4994 1.6968.0394 1.1834-.6574 2.2893-1.4702 3.148-.4252.4496-.873.8074-1.3372 1.1784-.1779.1422-.3582.2864-.5407.4384-.6583.5484-1.0282 1.4395-1.1125 2.1607-.0445-1.4567-.0733-2.9856.5899-4.2826.3512-.6853.8716-1.2563 1.3931-1.8286.2774-.3044.5551-.6091.8079-.9316.4243-.5418.9642-1.487.8016-2.2335-.2693-.4-.5548-.7892-.856-1.1661l-.0777.0034.0225-.0055.0451-.0105c-.1974-.2466-.4015-.4878-.6122-.7234-.2171-.2427-.4404-.4793-.6686-.7109l-.1409.0196c-.0607.0084-.1185.0165-.1695.0233.0912-.0277.1836-.0532.2771-.0766-.1109-.1121-.223-.2231-.3361-.333l-.0142.0054-.0066-.0123.0089-.0047c-.7859-.7632-1.6199-1.478-2.45359-2.1925l-.28875-.2476c.37275 1.4433.30163 3.0418-.50851 4.2805-.18037.2755-.45902.4534-.73843.6318-.074.0473-.14806.0946-.22036.1437-.37491.2554-.75448.5146-1.04955.8597-.63501.7452-.78674 1.7707-.93048 2.742l-.00964.0651c-.14607.9911-.35859 2.0504-1.08961 2.7342l-.00142.0001c.45708-.7148.24048-1.4387-.01388-2.2491-.08197-.2613-.16914-.5238-.25664-.7872-.4706-1.4169-.95025-2.861-.67726-4.3073.16242-.8627.58363-1.652 1.003-2.4379.50075-.9384.99886-1.8719 1.05062-2.9194.03962-.7887-.09047-1.6078-.41617-2.33-1.00617-1.01303-1.98047-2.05808-2.92797-3.12648.00139.02348-.00075.04329-.00684.05877-.00323.00756-.00373.01611-.00422.02452-.0007.012-.00139.02372-.00994.03187-.0178.01766-.04644.01416-.07029.00817-.2621-.06167-.48601-.22764-.6829-.41127l.00066-.00076c-.21685-.20203-.855318-1.01788-.35178-1.09133-.397971-.56719-.721136-1.17487-.875885-1.84723-.2813629-1.22249.185964-2.70883 1.348015-3.179204.70467-.285835 1.49086-.150458 2.23404.062816.0016-.008374.0043-.016945.0082-.025717.05686-.129121.5117-.069308.60984-.046968l-.00152-.001304c.37293.083047.53059.123563.87751.28446.20804.096967.29591.189587.27481.247917-.01121.02993-.04322.04725-.07436.05741-.02397.00765-.04828.01291-.07284.01619zm9.03534 18.21744c.0743.115.1474.2307.2191.3474l-.0447.0048c-.0554-.115-.1138-.2321-.1744-.3522zm10.0366 10.3375-.0034-.004c-.0661-.0904.0194-.5505.097-.9681v-.0003c.0556-.299.1071-.5761.0959-.6801-.0601-.5592-.1558-1.1753-.34-1.7066-.2286-.6578-.8817-1.9095-1.777-1.6806.0309 2.6102.8281 3.7661 1.9241 5.0357l.0027.0033z" fill="#bde6fe" fill-rule="evenodd"/></svg>