<svg fill="none" height="73" viewBox="0 0 28 73" width="28" xmlns="http://www.w3.org/2000/svg"><path clip-rule="evenodd" d="m22.511 71.7306c-2.5806-.9133-5.0712-2.1019-7.3291-3.6346-1.6979 1.2-3.7508 2.034-5.80676 1.769-.68601-.089-1.34726-.296-2.00929-.5032-.47007-.1472-.94052-.2944-1.42051-.3997-1.15662-.2526-2.48341-.2151-3.37018.5656.04976-.3808.20905-.7241.43717-1.0271-.02276.0062-.04552.0124-.06829.0188l-.02035-.0438c.05582-.0264.11209-.0519.16878-.0764.34547-.4173.82052-.7525 1.30846-.997.34988-.1752.71516-.3199 1.08015-.4644.54225-.2148 1.08385-.4293 1.57333-.7432.14625-.0939.28933-.1972.43256-.3007.41834-.3021.83784-.605 1.34058-.6769.53738-.0779 1.04751.1229 1.56285.3258.3309.1303.664.2614 1.0079.3202.3052.0521.6188.0414.9208-.0244-2.58587-2.3744-4.64955-5.3416-5.71456-8.6784l-.00076-.0006c-1.30505-4.0885-1.00425-8.5087.29078-12.5547.10471-.3277.21538-.6556.33215-.9826-.03461-.0855-.07003-.1704-.10618-.2549-.38688-.9043-.85522-1.7694-1.3236-2.6346-.40821-.754-.81646-1.5081-1.17087-2.2883-1.43684-3.1616-1.9552-6.7325-1.47767-10.169.82199-.139 1.70351.1423 2.29424.7315.67712-1.0952 1.09875-2.3519 1.18852-3.6366.11311-1.6126-.41181-3.4094-1.79721-4.2475-1.12496-.6805-2.80928-.3152-3.48323.7081.04011.1001.09259.1966.15849.2879l-.03593.0311c-.06498-.0763-.12078-.1596-.16724-.2477-.13078.2197-.21602.4677-.24146.7404-.9668776-1.6215.19271-3.9567 2.01058-4.457 1.81786-.5002 3.83554.6147 4.70778 2.288-.04268-3.012 1.32814-6.0121 3.63267-7.9491.7494-.6296 1.5882-1.1509 2.4248-1.671 1.2094-.7516 2.4145-1.50067 3.3393-2.5701 1.8575-2.14705 2.2041-5.34673 2.1722-8.1886648 2.598 2.9316448 3.1812 7.4797848 1.4061 10.9643648-.5339 1.048-1.2492 1.9867-1.9638 2.9245-.1933.2536-.3865.5072-.576.7628-.9741 1.3135-1.8581 2.6935-2.6455 4.1267.8965-1.0671 1.9355-2.0234 2.9758-2.9809.7433-.6841 1.4873-1.3688 2.1803-2.095 2.1612-2.2658 3.924-5.42755 3.0315-8.43396 1.7538 3.17935 1.2961 7.06536.7886 10.65806-.3954 2.7992-.8079 5.6536-2.0646 8.1848-.1623.3271-.3384.648-.5144.9687v.0001c-.3612.6582-.722 1.3156-.9619 2.0251-.2278.6734-.3415 1.3773-.4551 2.0812-.1121.6937-.2241 1.3874-.4454 2.0519-.1549.4651-.357.9019-.5968 1.3157.0477-.0757.0948-.1518.1411-.2282.1667-.2984.3278-.6042.4167-.9379l.0474.0078c-.0566.3482-.187.6765-.3339.9919-.2996.6311-.6798 1.2195-1.1007 1.7755-.6873.9186-1.5939 1.6203-2.4973 2.3195h-.0001v.0001h-.0001v.0001h-.0001v.0001h-.0001v.0001h-.0001l-.0001.0001-.0001.0001h-.0001v.0001h-.0001v.0001h-.0001v.0001h-.0001v.0001h-.0001-.0001v.0001c-.4772.3693-.9535.7379-1.396 1.1375-2.0679 1.8503-3.5544 4.3451-4.1636 7.0555l-.0295-.0062c-.0069.0437-.0134.0874-.0197.131.1323 1.7504.5204 3.4826 1.1413 5.1266.0562.0165.1126.0325.1694.048l-.0011.0135c-.0499-.0035-.1-.0081-.1502-.0138.4052 1.0639.9079 2.0906 1.502 3.0611l.0524.0015c-.2803-.5856-.4798-1.1169-.4996-1.6971-.0394-1.1834.6574-2.2893 1.4702-3.148.4252-.4496.873-.8074 1.3371-1.1784.178-.1422.3583-.2864.5407-.4384.6584-.5484 1.0283-1.4395 1.1126-2.1607.0445 1.4567.0733 2.9856-.5899 4.2825-.3512.6854-.8716 1.2564-1.3931 1.8286v.0001c-.2774.3043-.5551.6091-.8079.9316-.4243.5418-.9642 1.4871-.8016 2.2336.2693.4.5548.7892.8559 1.166l.0778-.0035c-.0225.0056-.045.011-.0677.0161.1974.2466.4016.4879.6123.7235.2171.2428.4405.4794.6688.711l.1407-.0195c.0607-.0085.1185-.0165.1695-.0233-.0912.0276-.1835.0532-.2769.0766.1109.1121.223.223.3361.333l.014-.0053.0066.0122-.0087.0047c.7858.7631 1.6198 1.4778 2.4534 2.1923l.2887.2475c-.3727-1.4432-.3015-3.0415.5085-4.2802.1804-.2755.4591-.4534.7385-.6318.074-.0473.148-.0945.2203-.1437.3749-.2553.7545-.5146 1.0496-.8596.635-.7453.7867-1.7707.9305-2.7421l.0096-.0651c.1461-.9911.3586-2.0504 1.0896-2.7341l.0014-.0001c-.457.7147-.2404 1.4386.0139 2.249.082.2614.1692.5238.2566.7872l.0001.0001c.4706 1.4168.9502 2.861.6772 4.3072-.1624.8627-.5836 1.6521-1.003 2.438-.5007.9384-.9988 1.8718-1.0506 2.9193-.0396.7885.0904 1.6075.416 2.3296 1.0062 1.0131 1.9806 2.0582 2.9281 3.1266-.0014-.0235.0008-.0433.0068-.0588.0033-.0076.0038-.0161.0043-.0245.0007-.012.0014-.0237.0099-.0319.0178-.0177.0464-.0142.0703-.0082.2621.0617.486.2277.6829.4113l-.0007.0008c.2169.202.8554 1.0179.3518 1.0913.398.5672.7212 1.1749.8759 1.8473.2814 1.2225-.1859 2.7089-1.348 3.1792-.7046.2859-1.4908.1505-2.234-.0628-.0016.0085-.0043.0171-.0082.026-.0569.1291-.5117.0693-.6099.0469l.0015.0013c-.3729-.083-.5305-.1235-.8775-.2844-.208-.097-.2959-.1896-.2748-.2479.0112-.03.0432-.0473.0744-.0574.0241-.0077.0486-.013.0733-.0163zm-9.0355-18.2173c-.0745-.115-.1476-.2308-.2193-.3475l.0447-.0049c.0554.1151.1138.2323.1746.3524zm-10.03716-10.3376.00343.004c.06613.0904-.01931.5503-.09688.9678l-.00002.0001-.00002.0001-.00003.0002h-.00001l-.00004.0002c-.05555.299-.10705.5761-.09594.6801.06015.5592.15581 1.1753.34008 1.7066.22859.6578.88164 1.9095 1.77694 1.6806-.03082-2.6102-.82812-3.7661-1.92408-5.0357l-.00267-.0033z" fill="#89ccff" fill-rule="evenodd"/></svg>