<svg fill="none" height="56" viewBox="0 0 84 56" width="84" xmlns="http://www.w3.org/2000/svg" xmlns:xlink="http://www.w3.org/1999/xlink"><clipPath id="a"><path d="m26.4954 0h31.0093v32h-31.0093z"/></clipPath><mask id="b" height="24" maskUnits="userSpaceOnUse" width="26" x="31" y="7"><path d="m53.5021 7.95996-.0346.04062c1.7139 1.00755 1.9972 3.48532.3913 4.83272l-14.2851 11.9866c-.4676.3923-1.1839.1318-1.2899-.4696l-.5558-3.1544-1.9874-11.26541-3.0097-1.09573c-.5737-.20904-1.1572.28136-1.0522.88272l3.2377 18.36382c.3636 2.0657 2.6531 3.0593 4.3819 2.0785.1575-.0891.3101-.1951.4557-.317l15.3353-12.8684c3.1157-2.6144 2.234-7.6215-1.5891-9.01246z" fill="#fff"/></mask><mask id="c" height="29" maskUnits="userSpaceOnUse" width="23" x="27" y="3"><path d="m39.3172 30.2095-.0179-.0505c-1.7298.9808-4.0173-.0129-4.3809-2.0775l-3.2376-18.36387c-.1061-.60136.4785-1.09077 1.0521-.88272l3.0098 1.09573 10.7502 3.91236 2.454-2.0587c.4676-.3924.3348-1.1433-.2388-1.3524l-17.5227-6.37817c-1.9705-.71826-3.9757.76879-3.9906 2.75616-.001.1813.0139.36558.0476.55282l3.4764 19.71519c.7064 4.0064 5.4836 5.7451 8.6003 3.1306z" fill="#fff"/></mask><mask id="d" height="26" maskUnits="userSpaceOnUse" width="28" x="27" y="0"><path d="m27.1413 6.80057.0525.00991c.0149-1.98836 2.0201-3.47245 3.9896-2.75517l17.5227 6.37819c.5737.2091.7054.96.2388 1.3523l-2.454 2.0587-8.7628 7.3531.5558 3.1544c.106.6014.8222.8619 1.2899.4696l14.284-11.9856c1.607-1.3474 1.3226-3.82713-.3913-4.83369-.1565-.09214-.3239-.17041-.5023-.23579l-18.8116-6.846816c-3.8222-1.390959-7.7177 1.876406-7.0113 5.882846z" fill="#fff"/></mask><g clip-path="url(#a)"><path d="m53.4676 8.00128c-.1556-.09214-.323-.17139-.5023-.23678l-18.8127-6.846813c-3.8221-1.390959-7.7166 1.877403-7.0112 5.882853l.0534.0099c.0139-1.98737 2.0191-3.47244 3.9896-2.75517l17.5218 6.37823c.5736.209.7054.96.2388 1.3523l-11.2169 9.4118.5558 3.1544c.106.6014.8223.8619 1.2899.4696l14.2851-11.9866c1.6059-1.3474 1.3226-3.82617-.3913-4.83273z" fill="#e4f7fe"/><path d="m53.5021 7.95996-.0346.04062c1.7139 1.00755 1.9972 3.48532.3913 4.83272l-14.2851 11.9866c-.4676.3923-1.1839.1318-1.2899-.4696l-.5558-3.1544-1.9874-11.26541-3.0097-1.09573c-.5737-.20904-1.1572.28136-1.0522.88272l3.2377 18.36382c.3636 2.0657 2.6531 3.0593 4.3819 2.0785.1575-.0891.3101-.1951.4557-.317l15.3353-12.8684c3.1157-2.6144 2.234-7.6215-1.5891-9.01246z" fill="#acc6fe"/><path d="m31.1844 4.05506c-1.9705-.71629-3.9767.7678-3.9896 2.75517-.002.1813.0129.36557.0466.55282l3.4764 19.71615c.1714.9689.5796 1.8041 1.1443 2.4788 1.7743 2.1141 5.0922 2.6343 7.4551.6519l-.0179-.0506c-1.7288.9808-4.0183-.0128-4.3819-2.0785l-3.2376-18.36382c-.106-.60137.4785-1.09078 1.0521-.88273l3.0098 1.09573 10.7502 3.91232 2.453-2.0587c.4676-.3923.3349-1.1433-.2387-1.3523l-17.5218-6.37822z" fill="#bde6fe"/><g mask="url(#b)"><path d="m53.5022 7.95996-.0347.04062c1.714 1.00755 1.9973 3.48532.3914 4.83272l-14.2851 11.9866c-.4676.3923-1.1839.1318-1.2899-.4696l-.5558-3.1544-1.9874-11.26541-3.0098-1.09573c-.5736-.20904-1.1571.28136-1.0521.88272l3.2376 18.36382c.3636 2.0657 2.6532 3.0593 4.382 2.0785.1575-.0891.31-.1951.4557-.317l15.3352-12.8684c3.1158-2.6144 2.2341-7.6215-1.5891-9.01246z" fill="#acc6fe"/><g stroke="#fff" stroke-miterlimit="10" stroke-width=".198142"><path d="m29.0722 9.59277c1.175 0 1.175.79253 2.35.79253s1.175-.79253 2.3499-.79253c1.175 0 1.175.79253 2.35.79253s1.175-.79253 2.35-.79253 1.175.79253 2.349.79253 1.1749-.79253 2.3499-.79253 1.175.79253 2.35.79253 1.175-.79253 2.35-.79253 1.175.79253 2.3499.79253c1.175 0 1.175-.79253 2.35-.79253s1.175.79253 2.35.79253 1.175-.79253 2.35-.79253c1.1749 0 1.1749.79253 2.3499.79253"/><path d="m29.0722 10.8965c1.175 0 1.175.7926 2.35.7926s1.175-.7926 2.3499-.7926c1.175 0 1.175.7926 2.35.7926s1.175-.7926 2.35-.7926 1.175.7926 2.349.7926 1.1749-.7926 2.3499-.7926 1.175.7926 2.35.7926 1.175-.7926 2.35-.7926 1.175.7926 2.3499.7926c1.175 0 1.175-.7926 2.35-.7926s1.175.7926 2.35.7926 1.175-.7926 2.35-.7926c1.1749 0 1.1749.7926 2.3499.7926"/><path d="m29.0722 12.2002c1.175 0 1.175.7926 2.35.7926s1.175-.7926 2.3499-.7926c1.175 0 1.175.7926 2.35.7926s1.175-.7926 2.35-.7926 1.175.7926 2.349.7926 1.1749-.7926 2.3499-.7926 1.175.7926 2.35.7926 1.175-.7926 2.35-.7926 1.175.7926 2.3499.7926c1.175 0 1.175-.7926 2.35-.7926s1.175.7926 2.35.7926 1.175-.7926 2.35-.7926c1.1749 0 1.1749.7926 2.3499.7926"/><path d="m29.0722 13.5029c1.175 0 1.175.7926 2.35.7926s1.175-.7926 2.3499-.7926c1.175 0 1.175.7926 2.35.7926s1.175-.7926 2.35-.7926 1.175.7926 2.349.7926 1.1749-.7926 2.3499-.7926 1.175.7926 2.35.7926 1.175-.7926 2.35-.7926 1.175.7926 2.3499.7926c1.175 0 1.175-.7926 2.35-.7926s1.175.7926 2.35.7926 1.175-.7926 2.35-.7926c1.1749 0 1.1749.7926 2.3499.7926"/><path d="m29.0722 14.8066c1.175 0 1.175.7926 2.35.7926s1.175-.7926 2.3499-.7926c1.175 0 1.175.7926 2.35.7926s1.175-.7926 2.35-.7926 1.175.7926 2.349.7926 1.1749-.7926 2.3499-.7926 1.175.7926 2.35.7926 1.175-.7926 2.35-.7926 1.175.7926 2.3499.7926c1.175 0 1.175-.7926 2.35-.7926s1.175.7926 2.35.7926 1.175-.7926 2.35-.7926c1.1749 0 1.1749.7926 2.3499.7926"/><path d="m29.0722 16.1104c1.175 0 1.175.7925 2.35.7925s1.175-.7925 2.3499-.7925c1.175 0 1.175.7925 2.35.7925s1.175-.7925 2.35-.7925 1.175.7925 2.349.7925 1.1749-.7925 2.3499-.7925 1.175.7925 2.35.7925 1.175-.7925 2.35-.7925 1.175.7925 2.3499.7925c1.175 0 1.175-.7925 2.35-.7925s1.175.7925 2.35.7925 1.175-.7925 2.35-.7925c1.1749 0 1.1749.7925 2.3499.7925"/><path d="m29.0722 17.4131c1.175 0 1.175.7926 2.35.7926s1.175-.7926 2.3499-.7926c1.175 0 1.175.7926 2.35.7926s1.175-.7926 2.35-.7926 1.175.7926 2.349.7926 1.1749-.7926 2.3499-.7926 1.175.7926 2.35.7926 1.175-.7926 2.35-.7926 1.175.7926 2.3499.7926c1.175 0 1.175-.7926 2.35-.7926s1.175.7926 2.35.7926 1.175-.7926 2.35-.7926c1.1749 0 1.1749.7926 2.3499.7926"/><path d="m29.0722 18.7168c1.175 0 1.175.7926 2.35.7926s1.175-.7926 2.3499-.7926c1.175 0 1.175.7926 2.35.7926s1.175-.7926 2.35-.7926 1.175.7926 2.349.7926 1.1749-.7926 2.3499-.7926 1.175.7926 2.35.7926 1.175-.7926 2.35-.7926 1.175.7926 2.3499.7926c1.175 0 1.175-.7926 2.35-.7926s1.175.7926 2.35.7926 1.175-.7926 2.35-.7926c1.1749 0 1.1749.7926 2.3499.7926"/><path d="m29.0722 20.0205c1.175 0 1.175.7926 2.35.7926s1.175-.7926 2.3499-.7926c1.175 0 1.175.7926 2.35.7926s1.175-.7926 2.35-.7926 1.175.7926 2.349.7926 1.1749-.7926 2.3499-.7926 1.175.7926 2.35.7926 1.175-.7926 2.35-.7926 1.175.7926 2.3499.7926c1.175 0 1.175-.7926 2.35-.7926s1.175.7926 2.35.7926 1.175-.7926 2.35-.7926c1.1749 0 1.1749.7926 2.3499.7926"/><path d="m29.0722 21.3242c1.175 0 1.175.7926 2.35.7926s1.175-.7926 2.3499-.7926c1.175 0 1.175.7926 2.35.7926s1.175-.7926 2.35-.7926 1.175.7926 2.349.7926 1.1749-.7926 2.3499-.7926 1.175.7926 2.35.7926 1.175-.7926 2.35-.7926 1.175.7926 2.3499.7926c1.175 0 1.175-.7926 2.35-.7926s1.175.7926 2.35.7926 1.175-.7926 2.35-.7926c1.1749 0 1.1749.7926 2.3499.7926"/><path d="m29.0722 22.6279c1.175 0 1.175.7926 2.35.7926s1.175-.7926 2.3499-.7926c1.175 0 1.175.7926 2.35.7926s1.175-.7926 2.35-.7926 1.175.7926 2.349.7926 1.1749-.7926 2.3499-.7926 1.175.7926 2.35.7926 1.175-.7926 2.35-.7926 1.175.7926 2.3499.7926c1.175 0 1.175-.7926 2.35-.7926s1.175.7926 2.35.7926 1.175-.7926 2.35-.7926c1.1749 0 1.1749.7926 2.3499.7926"/><path d="m29.0722 23.9316c1.175 0 1.175.7926 2.35.7926s1.175-.7926 2.3499-.7926c1.175 0 1.175.7926 2.35.7926s1.175-.7926 2.35-.7926 1.175.7926 2.349.7926 1.1749-.7926 2.3499-.7926 1.175.7926 2.35.7926 1.175-.7926 2.35-.7926 1.175.7926 2.3499.7926c1.175 0 1.175-.7926 2.35-.7926s1.175.7926 2.35.7926 1.175-.7926 2.35-.7926c1.1749 0 1.1749.7926 2.3499.7926"/><path d="m29.0722 25.2354c1.175 0 1.175.7925 2.35.7925s1.175-.7925 2.3499-.7925c1.175 0 1.175.7925 2.35.7925s1.175-.7925 2.35-.7925 1.175.7925 2.349.7925 1.1749-.7925 2.3499-.7925 1.175.7925 2.35.7925 1.175-.7925 2.35-.7925 1.175.7925 2.3499.7925c1.175 0 1.175-.7925 2.35-.7925s1.175.7925 2.35.7925 1.175-.7925 2.35-.7925c1.1749 0 1.1749.7925 2.3499.7925"/><path d="m29.0722 26.5381c1.175 0 1.175.7926 2.35.7926s1.175-.7926 2.3499-.7926c1.175 0 1.175.7926 2.35.7926s1.175-.7926 2.35-.7926 1.175.7926 2.349.7926 1.1749-.7926 2.3499-.7926 1.175.7926 2.35.7926 1.175-.7926 2.35-.7926 1.175.7926 2.3499.7926c1.175 0 1.175-.7926 2.35-.7926s1.175.7926 2.35.7926 1.175-.7926 2.35-.7926c1.1749 0 1.1749.7926 2.3499.7926"/><path d="m29.0722 27.8418c1.175 0 1.175.7926 2.35.7926s1.175-.7926 2.3499-.7926c1.175 0 1.175.7926 2.35.7926s1.175-.7926 2.35-.7926 1.175.7926 2.349.7926 1.1749-.7926 2.3499-.7926 1.175.7926 2.35.7926 1.175-.7926 2.35-.7926 1.175.7926 2.3499.7926c1.175 0 1.175-.7926 2.35-.7926s1.175.7926 2.35.7926 1.175-.7926 2.35-.7926c1.1749 0 1.1749.7926 2.3499.7926"/><path d="m29.0722 29.1455c1.175 0 1.175.7926 2.35.7926s1.175-.7926 2.3499-.7926c1.175 0 1.175.7926 2.35.7926s1.175-.7926 2.35-.7926 1.175.7926 2.349.7926 1.1749-.7926 2.3499-.7926 1.175.7926 2.35.7926 1.175-.7926 2.35-.7926 1.175.7926 2.3499.7926c1.175 0 1.175-.7926 2.35-.7926s1.175.7926 2.35.7926 1.175-.7926 2.35-.7926c1.1749 0 1.1749.7926 2.3499.7926"/></g></g><g mask="url(#c)"><path d="m39.3172 30.2095-.0179-.0505c-1.7298.9808-4.0173-.0129-4.3809-2.0775l-3.2376-18.36387c-.1061-.60136.4785-1.09077 1.0521-.88272l3.0098 1.09573 10.7502 3.91236 2.454-2.0587c.4676-.3924.3348-1.1433-.2388-1.3524l-17.5227-6.37817c-1.9705-.71826-3.9757.76879-3.9906 2.75616-.001.1813.0139.36558.0476.55282l3.4764 19.71519c.7064 4.0064 5.4836 5.7451 8.6003 3.1306z" fill="#bde6fe"/><g stroke="#fff" stroke-miterlimit="10" stroke-width=".198142"><path d="m50.118 8.23633c-.5875 1.01746-1.2741.62117-1.8616 1.63864-.5875 1.01743.0991 1.41373-.4884 2.43123-.5875 1.0174-1.2741.6211-1.8615 1.6386-.5875 1.0175.099 1.4138-.4885 2.4312-.5875 1.0175-1.274.6212-1.8605 1.6387-.5875 1.0174.099 1.4137-.4884 2.4312-.5875 1.0174-1.2741.6211-1.8616 1.6386s.0991 1.4137-.4884 2.4312-1.2741.6212-1.8616 1.6386c-.5875 1.0175.0991 1.4138-.4884 2.4313-.5875 1.0174-1.274.6211-1.8615 1.6386s.099 1.4137-.4885 2.4312-1.274.6212-1.8615 1.6386"/><path d="m48.9895 7.58398c-.5874 1.01747-1.274.62118-1.8615 1.63864-.5875 1.01748.0991 1.41378-.4884 2.43118-.5875 1.0175-1.2741.6212-1.8616 1.6387-.5875 1.0174.0991 1.4137-.4884 2.4312-.5875 1.0174-1.274.6212-1.8605 1.6386-.5875 1.0175.099 1.4138-.4885 2.4312-.5875 1.0175-1.274.6212-1.8615 1.6387-.5875 1.0174.0991 1.4137-.4884 2.4312-.5875 1.0174-1.2741.6211-1.8616 1.6386s.0991 1.4137-.4884 2.4312-1.2741.6212-1.8616 1.6386c-.5874 1.0175.0991 1.4138-.4884 2.4313-.5875 1.0174-1.274.6211-1.8615 1.6386"/><path d="m47.8601 6.93262c-.5875 1.01746-1.2741.62117-1.8616 1.63864-.5874 1.01746.0991 1.41374-.4884 2.43124-.5875 1.0174-1.274.6211-1.8615 1.6386s.099 1.4137-.4884 2.4312c-.5875 1.0175-1.2741.6212-1.8606 1.6386-.5865 1.0175.0991 1.4138-.4884 2.4313-.5875 1.0174-1.2741.6211-1.8616 1.6386s.0991 1.4137-.4884 2.4312-1.274.6212-1.8615 1.6386c-.5875 1.0175.099 1.4138-.4885 2.4312-.5875 1.0175-1.274.6212-1.8615 1.6387-.5875 1.0174.0991 1.4137-.4884 2.4312s-1.2741.6212-1.8616 1.6386"/><path d="m46.7317 6.28027c-.5875 1.01746-1.2741.62118-1.8616 1.63864s.0991 1.41375-.4884 2.43119c-.5875 1.0175-1.274.6212-1.8615 1.6387-.5875 1.0174.099 1.4137-.4885 2.4312-.5875 1.0174-1.274.6211-1.8605 1.6386s.0991 1.4138-.4884 2.4312c-.5875 1.0175-1.2741.6212-1.8616 1.6386-.5875 1.0175.0991 1.4138-.4884 2.4313-.5875 1.0174-1.2741.6211-1.8616 1.6386s.0991 1.4137-.4884 2.4312-1.274.6212-1.8615 1.6386c-.5875 1.0175.099 1.4138-.4885 2.4312-.5874 1.0175-1.274.6212-1.8615 1.6387"/><path d="m45.6023 5.62891c-.5875 1.01746-1.2741.62117-1.8616 1.63863s.0991 1.41375-.4884 2.43121c-.5875 1.01745-1.274.62115-1.8615 1.63865-.5875 1.0174.099 1.4137-.4885 2.4312-.5874 1.0175-1.274.6212-1.8605 1.6386-.5875 1.0175.0991 1.4138-.4884 2.4312-.5875 1.0175-1.2741.6212-1.8616 1.6387-.5875 1.0174.0991 1.4137-.4884 2.4312-.5875 1.0174-1.2741.6212-1.8616 1.6386-.5874 1.0175.0991 1.4138-.4884 2.4312-.5875 1.0175-1.274.6212-1.8615 1.6387-.5875 1.0174.099 1.4137-.4884 2.4312-.5875 1.0174-1.2741.6212-1.8616 1.6386"/><path d="m44.4739 4.97754c-.5875 1.01746-1.2741.62117-1.8616 1.63864-.5875 1.01746.0991 1.41374-.4884 2.4312-.5875 1.01742-1.2741.62118-1.8616 1.63862-.5874 1.0175.0991 1.4138-.4884 2.4312-.5875 1.0175-1.274.6212-1.8605 1.6387-.5875 1.0174.099 1.4137-.4885 2.4312-.5874 1.0174-1.274.6211-1.8615 1.6386s.0991 1.4138-.4884 2.4312c-.5875 1.0175-1.2741.6212-1.8616 1.6387-.5875 1.0174.0991 1.4137-.4884 2.4312-.5875 1.0174-1.274.6211-1.8615 1.6386s.099 1.4137-.4885 2.4312-1.274.6212-1.8615 1.6386"/><path d="m43.3454 4.32617c-.5874 1.01746-1.274.62118-1.8615 1.63864s.0991 1.41375-.4884 2.43121-1.2741.62117-1.8616 1.63868c-.5875 1.0174.0991 1.4137-.4884 2.4312-.5875 1.0174-1.274.6211-1.8606 1.6386-.5874 1.0175.0991 1.4137-.4884 2.4312s-1.274.6212-1.8615 1.6386c-.5875 1.0175.0991 1.4138-.4884 2.4313-.5875 1.0174-1.2741.6211-1.8616 1.6386s.0991 1.4137-.4884 2.4312-1.2741.6212-1.8616 1.6386c-.5875 1.0175.0991 1.4138-.4884 2.4312-.5875 1.0175-1.274.6212-1.8615 1.6387"/><path d="m42.216 3.67383c-.5875 1.01746-1.2741.62118-1.8616 1.63864s.0991 1.41374-.4884 2.4312-1.274.62118-1.8615 1.63864c-.5875 1.01749.099 1.41379-.4884 2.43119-.5875 1.0175-1.2741.6212-1.8606 1.6387-.5865 1.0174.0991 1.4137-.4884 2.4312-.5875 1.0174-1.2741.6211-1.8616 1.6386s.0991 1.4137-.4884 2.4312-1.2741.6212-1.8615 1.6386c-.5875 1.0175.099 1.4138-.4885 2.4313-.5875 1.0174-1.274.6211-1.8615 1.6386s.0991 1.4137-.4884 2.4312-1.2741.6212-1.8616 1.6386"/><path d="m41.0876 3.02246c-.5875 1.01746-1.2741.62118-1.8616 1.63864s.0991 1.41374-.4884 2.43121c-.5875 1.01746-1.2741.62117-1.8615 1.63863-.5875 1.01746.099 1.41376-.4885 2.43126-.5875 1.0174-1.274.6211-1.8605 1.6386-.5865 1.0174.099 1.4137-.4884 2.4312-.5875 1.0175-1.2741.6212-1.8616 1.6386-.5875 1.0175.0991 1.4138-.4884 2.4312-.5875 1.0175-1.2741.6212-1.8616 1.6387-.5875 1.0174.0991 1.4137-.4884 2.4312-.5875 1.0174-1.274.6212-1.8615 1.6386-.5875 1.0175.099 1.4138-.4885 2.4312-.5874 1.0175-1.274.6212-1.8615 1.6387"/><path d="m39.9582 2.37012c-.5875 1.01746-1.2741.62117-1.8616 1.63864-.5875 1.01746.0991 1.41374-.4884 2.4312s-1.274.62118-1.8615 1.63864.099 1.41375-.4885 2.4312c-.5875 1.0175-1.274.6212-1.8605 1.6386-.5875 1.0175.0991 1.4138-.4884 2.4313-.5875 1.0174-1.2741.6211-1.8616 1.6386s.0991 1.4137-.4884 2.4312-1.2741.6212-1.8616 1.6386c-.5874 1.0175.0991 1.4138-.4884 2.4312-.5875 1.0175-1.274.6212-1.8615 1.6387-.5875 1.0174.099 1.4137-.4884 2.4312-.5875 1.0175-1.2741.6212-1.8616 1.6386"/><path d="m38.8298 1.71875c-.5875 1.01746-1.2741.62118-1.8616 1.63864s.0991 1.41374-.4884 2.4312c-.5875 1.01747-1.2741.62118-1.8616 1.63864-.5874 1.01746.0991 1.41375-.4884 2.43121s-1.274.62116-1.8605 1.63866c-.5875 1.0174.099 1.4137-.4885 2.4312-.5874 1.0174-1.274.6212-1.8615 1.6386-.5875 1.0175.0991 1.4138-.4884 2.4312-.5875 1.0175-1.2741.6212-1.8616 1.6387-.5875 1.0174.0991 1.4137-.4884 2.4312-.5875 1.0174-1.2741.6212-1.8615 1.6386-.5875 1.0175.099 1.4138-.4885 2.4312-.5875 1.0175-1.274.6212-1.8615 1.6387"/><path d="m37.7003 1.06738c-.5875 1.01746-1.2741.62118-1.8615 1.63864-.5875 1.01746.099 1.41375-.4885 2.43121s-1.274.62117-1.8615 1.63863c-.5875 1.01747.0991 1.41375-.4884 2.43121-.5875 1.01743-1.2741.62118-1.8606 1.63863-.5875 1.0175.0991 1.4138-.4884 2.4312-.5875 1.0175-1.2741.6212-1.8616 1.6387-.5875 1.0174.0991 1.4137-.4884 2.4312-.5875 1.0174-1.274.6211-1.8615 1.6386s.099 1.4137-.4885 2.4312c-.5874 1.0175-1.274.6212-1.8615 1.6386-.5875 1.0175.0991 1.4138-.4884 2.4313-.5875 1.0174-1.2741.6211-1.8616 1.6386"/><path d="m36.5719.416016c-.5875 1.017464-1.2741.621174-1.8616 1.638634s.0991 1.41375-.4884 2.43121-1.274.62118-1.8615 1.63864.099 1.41375-.4885 2.43121c-.5874 1.01746-1.274.62117-1.8605 1.63859-.5875 1.0175.0991 1.4138-.4884 2.4313-.5875 1.0174-1.2741.6211-1.8616 1.6386s.0991 1.4137-.4884 2.4312-1.2741.6212-1.8615 1.6386c-.5875 1.0175.099 1.4138-.4885 2.4312-.5875 1.0175-1.274.6212-1.8615 1.6387-.5875 1.0174.0991 1.4137-.4884 2.4312-.5875 1.0174-1.2741.6212-1.8616 1.6386"/><path d="m35.4435-.236328c-.5875 1.017461-1.2741.621176-1.8616 1.638638-.5875 1.01746.0991 1.41375-.4884 2.43121s-1.2741.62117-1.8615 1.63864c-.5875 1.01746.099 1.41374-.4885 2.4312s-1.274.62118-1.8605 1.63864c-.5865 1.0175.099 1.4137-.4884 2.4312-.5875 1.0175-1.2741.6212-1.8616 1.6386-.5875 1.0175.0991 1.4138-.4884 2.4313-.5875 1.0174-1.2741.6211-1.8616 1.6386s.0991 1.4137-.4884 2.4312-1.274.6212-1.8615 1.6386c-.5875 1.0175.099 1.4138-.4885 2.4312-.5875 1.0175-1.274.6212-1.8615 1.6387"/><path d="m34.3141-.887695c-.5875 1.017461-1.2741.621176-1.8616 1.638637-.5875 1.017458.0991 1.413748-.4884 2.431208s-1.274.62118-1.8615 1.63864.099 1.41374-.4885 2.4312c-.5875 1.01747-1.274.62118-1.8605 1.63864s.099 1.41377-.4884 2.43117c-.5875 1.0175-1.2741.6212-1.8616 1.6387-.5875 1.0174.0991 1.4137-.4884 2.4312-.5875 1.0174-1.2741.6212-1.8616 1.6386-.5875 1.0175.0991 1.4138-.4884 2.4312-.5875 1.0175-1.274.6212-1.8615 1.6387-.5875 1.0174.099 1.4137-.4885 2.4312-.5874 1.0174-1.274.6211-1.8615 1.6386"/><path d="m33.1857-1.54004c-.5875 1.017462-1.2741.621177-1.8616 1.6386389-.5875 1.0174611.0991 1.4137511-.4884 2.4312111s-1.2741.62117-1.8616 1.63863c-.5875 1.01747.0991 1.41375-.4884 2.43121s-1.274.62118-1.8605 1.63864c-.5875 1.01746.099 1.41375-.4885 2.43121-.5875 1.0175-1.274.6212-1.8615 1.6386-.5875 1.0175.0991 1.4138-.4884 2.4312-.5875 1.0175-1.2741.6212-1.8616 1.6387-.5875 1.0174.0991 1.4137-.4884 2.4312-.5875 1.0174-1.2741.6212-1.8615 1.6386-.5875 1.0175.099 1.4138-.4885 2.4312-.5875 1.0175-1.274.6212-1.8615 1.6387"/></g></g><g mask="url(#d)"><path d="m27.1413 6.80057.0525.00991c.0149-1.98836 2.0201-3.47245 3.9896-2.75517l17.5227 6.37819c.5737.2091.7054.96.2388 1.3523l-2.454 2.0587-8.7628 7.3531.5558 3.1544c.106.6014.8222.8619 1.2899.4696l14.284-11.9856c1.607-1.3474 1.3226-3.82713-.3913-4.83369-.1565-.09214-.3239-.17041-.5023-.23579l-18.8116-6.846816c-3.8222-1.390959-7.7177 1.876406-7.0113 5.882846z" fill="#e4f7fe"/><g stroke="#fff" stroke-miterlimit="10" stroke-width=".198142"><path d="m40.7705 27.1413c-.5875-1.0175.0991-1.4138-.4884-2.4312-.5875-1.0175-1.2741-.6212-1.8616-1.6387-.5875-1.0174.0991-1.4137-.4884-2.4312-.5875-1.0174-1.2741-.6211-1.8615-1.6386-.5875-1.0175.099-1.4137-.4885-2.4312s-1.274-.6212-1.8615-1.6386c-.5875-1.0175.0991-1.4138-.4884-2.4312-.5875-1.0175-1.2741-.6212-1.8616-1.6387-.5875-1.01745.0991-1.41373-.4884-2.43119-.5875-1.01747-1.2741-.62118-1.8616-1.63864s.0991-1.41375-.4884-2.43121-1.274-.62118-1.8615-1.63864.099-1.41374-.4884-2.431204"/><path d="m41.8989 26.4889c-.5875-1.0174.0991-1.4137-.4884-2.4312-.5875-1.0174-1.2741-.6211-1.8616-1.6386s.0991-1.4137-.4884-2.4312-1.274-.6212-1.8615-1.6386c-.5875-1.0175.099-1.4138-.4885-2.4312-.5874-1.0175-1.274-.6212-1.8615-1.6387-.5875-1.0174.0991-1.4137-.4884-2.4312s-1.2741-.6212-1.8616-1.6386c-.5875-1.01749.0991-1.41378-.4884-2.43124s-1.274-.62117-1.8615-1.63864c-.5875-1.01746.099-1.41374-.4885-2.4312s-1.274-.62118-1.8615-1.63864.0991-1.413747-.4884-2.431208"/><path d="m43.0284 25.8376c-.5875-1.0175.099-1.4138-.4885-2.4312-.5874-1.0175-1.274-.6212-1.8615-1.6387-.5875-1.0174.0991-1.4137-.4884-2.4312-.5875-1.0174-1.2741-.6211-1.8616-1.6386s.0991-1.4138-.4884-2.4312c-.5875-1.0175-1.2741-.6212-1.8615-1.6387-.5875-1.0174.099-1.4137-.4885-2.4312-.5875-1.0174-1.274-.6211-1.8615-1.6386-.5875-1.01746.0991-1.41374-.4884-2.43121-.5875-1.01746-1.2741-.62117-1.8616-1.63863s.0991-1.41375-.4884-2.43121-1.2741-.62118-1.8616-1.63864c-.5874-1.017459.0991-1.413744-.4884-2.43121"/><path d="m44.1568 25.1862c-.5875-1.0174.0991-1.4137-.4884-2.4312s-1.2741-.6212-1.8616-1.6386c-.5875-1.0175.0991-1.4138-.4884-2.4312-.5875-1.0175-1.2741-.6212-1.8616-1.6387-.5874-1.0174.0991-1.4137-.4884-2.4312-.5875-1.0174-1.274-.6212-1.8615-1.6386-.5875-1.0175.099-1.4138-.4884-2.4312-.5875-1.01749-1.2741-.6212-1.8616-1.63867-.5875-1.01746.0991-1.41374-.4884-2.4312s-1.2741-.62118-1.8616-1.63864.0991-1.41375-.4884-2.43121-1.274-.62117-1.8615-1.638635c-.5875-1.017461.099-1.413746-.4885-2.431205"/><path d="m45.2852 24.5349c-.5875-1.0175.0991-1.4138-.4884-2.4313-.5875-1.0174-1.2741-.6211-1.8616-1.6386s.0991-1.4137-.4884-2.4312-1.274-.6212-1.8615-1.6386c-.5875-1.0175.099-1.4138-.4885-2.4312-.5875-1.0175-1.274-.6212-1.8615-1.6387-.5875-1.0174.0991-1.4137-.4884-2.43119-.5875-1.01747-1.2741-.62118-1.8616-1.63864s.0991-1.41375-.4884-2.43121-1.2741-.62118-1.8615-1.63864c-.5875-1.01746.099-1.41374-.4885-2.43121-.5875-1.017456-1.274-.62117-1.8615-1.638632s.0991-1.413748-.4884-2.431208"/><path d="m46.4146 23.8825c-.5875-1.0175.0991-1.4137-.4884-2.4312s-1.2741-.6212-1.8616-1.6386c-.5875-1.0175.0991-1.4138-.4884-2.4312-.5875-1.0175-1.2741-.6212-1.8615-1.6387-.5875-1.0174.099-1.4137-.4885-2.4312s-1.274-.6212-1.8615-1.6386c-.5875-1.0175.0991-1.4138-.4884-2.43124-.5875-1.01746-1.2741-.62117-1.8616-1.63864-.5875-1.01746.0991-1.41374-.4884-2.4312s-1.2741-.62118-1.8616-1.63864c-.5874-1.01746.0991-1.41375-.4884-2.43121-.5875-1.0174595-1.274-.621175-1.8615-1.638636-.5875-1.017464.099-1.413744-.4884-2.431204"/><path d="m47.5431 23.2311c-.5875-1.0174.099-1.4137-.4884-2.4312-.5875-1.0174-1.2741-.6211-1.8616-1.6386s.0991-1.4138-.4884-2.4312c-.5875-1.0175-1.2741-.6212-1.8616-1.6387-.5875-1.0174.0991-1.4137-.4884-2.4312-.5875-1.0174-1.274-.6211-1.8615-1.6386s.099-1.41374-.4885-2.43121c-.5874-1.01746-1.274-.62117-1.8615-1.63863s.0991-1.41375-.4884-2.43121-1.2741-.62118-1.8616-1.63864.0991-1.41374-.4884-2.431205c-.5875-1.017462-1.2741-.621177-1.8615-1.638635-.5875-1.01746.099-1.41375-.4885-2.43121"/><path d="m48.6724 22.5788c-.5875-1.0175.0991-1.4138-.4884-2.4312-.5875-1.0175-1.2741-.6212-1.8616-1.6387-.5875-1.0174.0991-1.4137-.4884-2.4312-.5875-1.0174-1.274-.6211-1.8615-1.6386s.099-1.4137-.4885-2.4312c-.5874-1.0175-1.274-.6212-1.8615-1.6386-.5875-1.0175.0991-1.41379-.4884-2.43125s-1.2741-.62118-1.8616-1.63864.0991-1.41374-.4884-2.43121c-.5875-1.01746-1.274-.62117-1.8615-1.63863s.099-1.413748-.4885-2.431209-1.274-.621177-1.8615-1.638641c-.5875-1.01746.0991-1.41374-.4884-2.4312"/><path d="m49.8009 21.9274c-.5875-1.0174.0991-1.4137-.4884-2.4312-.5875-1.0174-1.2741-.6212-1.8616-1.6386-.5875-1.0175.0991-1.4138-.4884-2.4312-.5875-1.0175-1.2741-.6212-1.8616-1.6387-.5874-1.0174.0991-1.4137-.4884-2.4312-.5875-1.0174-1.274-.6211-1.8615-1.63861-.5875-1.01746.099-1.41375-.4884-2.43121-.5875-1.01746-1.2741-.62117-1.8616-1.63863-.5875-1.01747.0991-1.41375-.4884-2.43121s-1.2741-.62118-1.8616-1.63864c-.5875-1.017461.0991-1.413745-.4884-2.431207-.5875-1.017463-1.274-.621173-1.8615-1.638633-.5875-1.01747.099-1.41375-.4885-2.43121"/><path d="m50.9293 21.2751c-.5875-1.0175.0991-1.4138-.4884-2.4312-.5875-1.0175-1.2741-.6212-1.8616-1.6387-.5875-1.0174.0991-1.4137-.4884-2.4312-.5875-1.0174-1.274-.6211-1.8615-1.6386s.099-1.4138-.4885-2.4312c-.5874-1.01748-1.274-.6212-1.8615-1.63865-.5875-1.01746.0991-1.41375-.4884-2.43121s-1.2741-.62118-1.8616-1.63864.0991-1.41374-.4884-2.43121c-.5875-1.01746-1.2741-.62117-1.8615-1.638633-.5875-1.0174617.099-1.413746-.4885-2.431207-.5875-1.01746-1.274-.62118-1.8615-1.63864s.0991-1.41374-.4884-2.43121"/><path d="m52.0587 20.6247c-.5875-1.0175.0991-1.4138-.4884-2.4312-.5875-1.0175-1.2741-.6212-1.8616-1.6387-.5875-1.0174.0991-1.4137-.4884-2.4312-.5875-1.0174-1.274-.6211-1.8615-1.6386s.099-1.4137-.4885-2.4312c-.5875-1.01747-1.274-.62118-1.8615-1.63864s.0991-1.41375-.4884-2.43121-1.2741-.62118-1.8616-1.63864.0991-1.41374-.4884-2.43121c-.5875-1.017457-1.2741-.62117-1.8616-1.638634-.5874-1.017461.0991-1.413746-.4884-2.431206s-1.274-.62118-1.8615-1.63864.0991-1.41374-.4884-2.43121"/><path d="m53.1871 19.9723c-.5875-1.0174.0991-1.4137-.4884-2.4312-.5875-1.0174-1.2741-.6211-1.8616-1.6386-.5874-1.0175.0991-1.4137-.4884-2.4312s-1.274-.6212-1.8615-1.6386c-.5875-1.0175.099-1.4138-.4884-2.43125-.5875-1.01746-1.2741-.62118-1.8616-1.63864s.0991-1.41374-.4884-2.4312c-.5875-1.01747-1.2741-.62118-1.8616-1.63864s.0991-1.41375-.4884-2.43121-1.274-.621176-1.8615-1.638637c-.5875-1.017463.099-1.413743-.4885-2.431203-.5874-1.01747-1.274-.62118-1.8615-1.63864s.0991-1.41375-.4884-2.43121"/><path d="m54.3165 19.321c-.5875-1.0175.0991-1.4138-.4884-2.4312-.5875-1.0175-1.2741-.6212-1.8616-1.6387-.5875-1.0174.0991-1.4137-.4884-2.4312-.5875-1.0174-1.274-.6211-1.8615-1.6386s.099-1.41376-.4884-2.43122c-.5875-1.01746-1.2741-.62117-1.8616-1.63863-.5875-1.01747.0991-1.41375-.4884-2.43121s-1.2741-.62118-1.8616-1.63864.0991-1.41375-.4884-2.431206c-.5875-1.017462-1.274-.6211768-1.8615-1.638634-.5875-1.01747.099-1.41375-.4885-2.43121s-1.274-.62118-1.8615-1.63864.0991-1.41375-.4884-2.43121"/><path d="m55.445 18.6686c-.5875-1.0174.0991-1.4137-.4884-2.4312-.5875-1.0174-1.2741-.6211-1.8616-1.6386s.0991-1.4138-.4884-2.4312c-.5875-1.0175-1.2741-.6212-1.8616-1.6387-.5874-1.01741.0991-1.4137-.4884-2.43116s-1.274-.62118-1.8615-1.63864.0991-1.41375-.4884-2.43121-1.2741-.62117-1.8616-1.63863.0991-1.413749-.4884-2.4312101c-.5875-1.0174599-1.2741-.6211769-1.8616-1.6386399-.5875-1.01746.0991-1.41374-.4884-2.43121-.5875-1.01746-1.274-.62117-1.8615-1.63863s.099-1.41375-.4884-2.43121"/><path d="m56.5743 18.0163c-.5875-1.0175.0991-1.4138-.4884-2.4312-.5875-1.0175-1.2741-.6212-1.8615-1.6387-.5875-1.0174.099-1.4137-.4885-2.4312-.5875-1.0174-1.274-.6211-1.8615-1.6386-.5875-1.01746.0991-1.41374-.4884-2.4312-.5875-1.01747-1.2741-.62118-1.8616-1.63864s.0991-1.41375-.4884-2.43121-1.2741-.62118-1.8616-1.63864c-.5874-1.017458.0991-1.413743-.4884-2.431205-.5875-1.017465-1.274-.621175-1.8615-1.638635s.099-1.41375-.4884-2.43121c-.5875-1.01746-1.2741-.62118-1.8616-1.63864s.0991-1.41374-.4884-2.4312"/><path d="m57.7028 17.3649c-.5875-1.0174.0991-1.4137-.4884-2.4312-.5875-1.0174-1.2741-.6212-1.8616-1.6386-.5875-1.0175.0991-1.4138-.4884-2.4312-.5875-1.01749-1.274-.6212-1.8615-1.63866-.5875-1.01747.099-1.41375-.4885-2.43121s-1.274-.62118-1.8615-1.63864.0991-1.41375-.4884-2.43121-1.2741-.62117-1.8616-1.63863c-.5875-1.0174656.0991-1.41375-.4884-2.43121s-1.2741-.62118-1.8615-1.63864c-.5875-1.01746.099-1.41374-.4885-2.43121-.5875-1.01746-1.274-.62117-1.8615-1.63863-.5875-1.01747.0991-1.41375-.4884-2.43121"/></g></g><g stroke="#2977ec" stroke-miterlimit="10" stroke-width=".990712"><path d="m53.4676 8.00128c-.1556-.09214-.323-.17139-.5023-.23678l-18.8127-6.846813c-3.8221-1.390959-7.7166 1.877403-7.0112 5.882853l.0534.0099c.0139-1.98737 2.0191-3.47244 3.9896-2.75517l17.5218 6.37823c.5736.209.7054.96.2388 1.3523l-11.2169 9.4118.5558 3.1544c.106.6014.8223.8619 1.2899.4696l14.2851-11.9866c1.6059-1.3474 1.3226-3.82617-.3913-4.83273z"/><path d="m53.5021 7.95996-.0346.04062c1.7139 1.00755 1.9972 3.48532.3913 4.83272l-14.2851 11.9866c-.4676.3923-1.1839.1318-1.2899-.4696l-.5558-3.1544-1.9874-11.26541-3.0097-1.09573c-.5737-.20904-1.1572.28136-1.0522.88272l3.2377 18.36382c.3636 2.0657 2.6531 3.0593 4.3819 2.0785.1575-.0891.3101-.1951.4557-.317l15.3353-12.8684c3.1157-2.6144 2.234-7.6215-1.5891-9.01246z"/><path d="m31.1844 4.05506c-1.9705-.71629-3.9767.7678-3.9896 2.75517-.002.1813.0129.36557.0466.55282l3.4764 19.71615c.1714.9689.5796 1.8041 1.1443 2.4788 1.7743 2.1141 5.0922 2.6343 7.4551.6519l-.0179-.0506c-1.7288.9808-4.0183-.0129-4.3819-2.0785l-3.2376-18.36382c-.106-.60136.4785-1.09078 1.0521-.88273l3.0098 1.09573 10.7502 3.91232 2.453-2.0587c.4676-.3923.3349-1.1433-.2387-1.3523l-17.5218-6.37822z"/></g></g><g fill="#2977ec"><path d="m8.55121 43.5809h-1.9911c-.08531 0-.15972-.0581-.17606-.1416-.1325-.6661-.52273-1.0999-1.2433-1.0999-.53544 0-.90208.2614-.90208.8095s.41746.9275 1.90761 1.2814c1.98747.4701 2.79698 1.4629 2.79698 2.8496 0 1.8042-1.72429 2.719-3.54115 2.719-2.21253-.0019-3.72627-.8549-3.95678-2.7426-.01271-.1071.07441-.1996.1815-.1996h2.01107c.08167 0 .15064.0581.17242.1379.20329.7514.85852 1.0782 1.52464 1.0782s1.15073-.3395 1.15073-.8368c0-.4701-.33941-.8748-1.45021-1.1507-2.05281-.5082-3.25437-1.1489-3.25437-2.9531 0-1.8041 1.62083-2.7189 3.41046-2.7189 2.27969 0 3.28704 1.1888 3.53933 2.7607.01815.1089-.06897.2069-.17969.2069z"/><path d="m13.9671 42.8359c-.1924 0-.3231.1924-.2523.3703.4755 1.1889 1.1707 3.0275 1.1707 3.6119 0 .8858-.717 1.6045-1.6045 1.6045-.8876 0-1.6027-.7187-1.6027-1.6045 0-.5826.6951-2.423 1.1689-3.6119.0708-.1779-.0599-.3703-.2523-.3703h-2.5828c-.15067 0-.27046.1216-.27046.2705v3.8079c0 .5627.0127.9674.06534 1.3196.15609.9547 1.03272 1.7642 2.47032 1.7642.6134 0 1.0926-.1307 1.5119-.3721.0363-.0218.069-.0508.0925-.0871l.0944-.1434c.1489-.2251.4974-.1198.4974.1488 0 .1507.1216.2723.2704.2723h1.8096c.1506 0 .2704-.1216.2704-.2705v-6.4397c0-.1507-.1216-.2705-.2704-.2705h-2.5846z"/><path d="m44.01 42.8359c-.1924 0-.3231.1924-.2523.3703.4756 1.1889 1.1707 3.0275 1.1707 3.6119 0 .8858-.7169 1.6045-1.6045 1.6045-.8875 0-1.6026-.7187-1.6026-1.6045 0-.5826.6951-2.423 1.1688-3.6119.0708-.1779-.0599-.3703-.2522-.3703h-2.5829c-.1506 0-.2704.1216-.2704.2705v3.8079c0 .5627.0127.9674.0653 1.3196.1561.9547 1.0328 1.7642 2.4703 1.7642.6135 0 1.0927-.1307 1.5119-.3721.0364-.0218.069-.0508.0926-.0871l.0944-.1434c.1488-.2251.4973-.1198.4973.1488 0 .1507.1216.2723.2705.2723h1.8096c.1506 0 .2704-.1216.2704-.2705v-6.4397c0-.1507-.1216-.2705-.2704-.2705h-2.5847z"/><path d="m20.6248 41.1507c0 .7061-1.2161 1.5138-1.2161 1.5138s-1.2161-.8077-1.2161-1.5138c0-.706.4846-1.1507 1.2161-1.1507s1.2161.4447 1.2161 1.1507zm-2.3922 8.1205v-5.8898c0-.3013.2432-.5445.5445-.5445h1.2632c.3013 0 .5446.2432.5446.5445v5.8898c0 .3013-.2433.5445-.5446.5445h-1.2632c-.3013 0-.5445-.2432-.5445-.5445z"/><path d="m30.7147 45.1902c0 2.8224-1.7243 4.3398-3.8171 4.574-.4574.0526-.6661.0526-1.1507.0526h-2.866c-.3013 0-.5445-.2432-.5445-.5445v-7.9299c0-.3013.2432-.5445.5445-.5445h2.866c.4846 0 .6933 0 1.1507.0526 2.091.2359 3.8171 1.5155 3.8171 4.3397zm-2.4576.04c0-1.6081-.8095-2.4703-1.9857-2.5756-.3013-.0254-.51-.0254-.8494-.0254h-.187c-.3012 0-.5445.2432-.5445.5445v4.269c0 .3013.2433.5445.5445.5445h.187c.3394 0 .5481 0 .8494-.0254 1.1762-.1053 1.9857-1.1235 1.9857-2.7316z"/><path d="m38.8951 46.3261c0 2.2343-1.4629 3.6719-3.7517 3.6719s-3.7517-1.4376-3.7517-3.6719 1.4629-3.6718 3.7517-3.6718 3.7517 1.4248 3.7517 3.6718zm-2.4049 0c0-1.3976-.5101-2.0782-1.3468-2.0782s-1.3467.6788-1.3467 2.0782.51 2.0782 1.3467 2.0782 1.3468-.6933 1.3468-2.0782z"/><path d="m56.1326 47.0979c0 1.6861-1.3722 2.5229-2.5882 2.6663-.4574.0526-.7587.0526-1.3323.0526h-3.0492c-.3013 0-.5446-.2432-.5446-.5445v-7.9299c0-.3013.2433-.5445.5446-.5445h3.1545c.4828 0 .6933 0 1.1507.0526 1.4902.1833 2.3269 1.1235 2.3269 2.2996 0 .5246-.176.9693-.5318 1.3051-.2505.2341-.245.6407.0345.8403.5699.4048.8385 1.0164.8385 1.8024zm-5.162-3.2889c0 .3013.2433.5445.5446.5445h.5136c.2087 0 .4048-.0127.5754-.0399.432-.0654.7314-.2868.7314-.824 0-.5373-.274-.7587-.7187-.8241-.1706-.0254-.3794-.0399-.5881-.0399h-.5136c-.3013 0-.5446.2432-.5446.5445v.6353zm2.7063 3.2108c0-.6008-.432-.9148-.9148-.9547-.1706-.0127-.3794-.0127-.5881-.0127h-.657c-.3013 0-.5445.2432-.5445.5445v.8458c0 .3013.2432.5445.5445.5445h.7224c.2087 0 .4174 0 .588-.0127.4175-.0254.8495-.3666.8495-.9547z"/><path d="m60.8481 49.4663c-.0163.0399-.0454.0762-.0817.098-.4846.2904-1.0527.4356-1.668.4356-1.1507 0-2.2343-.7188-2.2343-2.0655 0-1.4902 1.4121-2.4049 3.7771-2.4049h.4447v-.1053c0-.1434 0-.2868-.0254-.51-.04-.3522-.3268-.6662-.8368-.6662s-.8022.2904-.8839.795c-.0145.0926-.0962.1598-.1888.1616l-1.8459.0109c-.1161 0-.2051-.0999-.1942-.2142.1343-1.4992 1.5319-2.3451 3.2181-2.3451 2.2089 0 2.9658.9802 3.071 2.2489.0254.3521.04.7587.04 1.1888v1.9603c0 .4719.0218.9002.1016 1.5464.0145.1162-.0762.2178-.1924.2178h-1.913c-.0962 0-.1779-.069-.1924-.1652l-.0218-.1434c-.0309-.196-.2995-.225-.3721-.0417zm.2359-2.1454v-.2741c0-.1052-.0853-.1905-.1905-.1942-.9584-.0326-1.6263.2487-1.6263.8985 0 .4174.3267.6534.7968.6534s1.02-.3521 1.02-1.0854z"/><path d="m69.9196 44.8759h-1.207c-.2105 0-.392-.1307-.481-.3231-.1307-.2813-.3412-.4356-.6552-.4356s-.5627.2087-.5627.51c0 .3921.314.6535 1.6463.9802 1.2669.314 2.1689.8621 2.1689 2.2089 0 1.4901-1.3993 2.1835-3.0837 2.1835-1.5537 0-2.7026-.5264-3.1673-1.5809-.1597-.363.0999-.7714.4974-.7714h1.2396c.2088 0 .3921.1216.4883.3067.1906.3594.5354.5826.9293.5826.4174 0 .7442-.1706.7442-.5354 0-.4447-.4447-.6933-1.6862-.9801-1.3323-.314-2.1309-.9275-2.1309-2.1182 0-1.3848 1.2016-2.2488 3.0584-2.2488 1.354 0 2.2633.579 2.6862 1.4321.1797.363-.0835.7895-.4882.7895z"/><path d="m78.8315 45.8692v3.6228c0 .1797-.1452.3249-.3249.3249h-1.7043c-.1797 0-.3249-.1452-.3249-.3249v-3.2308c0-.2214 0-.6008-.0254-.9547-.0526-.6661-.4175-1.0582-1.1235-1.0582-.7061 0-1.2288.6934-1.2288 2.2743v2.9694c0 .1797-.1452.3249-.3249.3249h-1.7043c-.1797 0-.3249-.1452-.3249-.3249v-9.0226c0-.1797.1452-.3249.3249-.3249h1.7043c.1797 0 .3249.1452.3249.3249v2.4558c0 .314.4011.4447.5863.1906.0272-.0363.0617-.069.1016-.0926.4175-.2396.8966-.3703 1.5083-.3703 1.4375 0 2.287.6788 2.4703 1.8949.0526.3521.0653.7587.0653 1.3196z"/><path d="m82.5559 41.1507c0 .7061-1.216 1.5138-1.216 1.5138s-1.2161-.8077-1.2161-1.5138c0-.706.4846-1.1507 1.2161-1.1507.7314 0 1.216.4447 1.216 1.1507zm-2.3922 8.1205v-5.8898c0-.3013.2432-.5445.5445-.5445h1.2633c.3013 0 .5445.2432.5445.5445v5.8898c0 .3013-.2432.5445-.5445.5445h-1.2633c-.3013 0-.5445-.2432-.5445-.5445z"/></g></svg>