<svg width="84" height="56" viewBox="0 0 84 56" fill="none" xmlns="http://www.w3.org/2000/svg">
<g clip-path="url(#clip0_453_4269)">
<path d="M53.4676 8.00128C53.312 7.90914 53.1446 7.82989 52.9653 7.7645L34.1526 0.917687C30.3305 -0.473272 26.436 2.79509 27.1414 6.80054L27.1948 6.81044C27.2087 4.82307 29.2139 3.338 31.1844 4.05527L48.7062 10.4335C49.2798 10.6425 49.4116 11.3935 48.945 11.7858L37.7281 21.1976L38.2839 24.352C38.3899 24.9534 39.1062 25.2139 39.5738 24.8216L53.8589 12.835C55.4648 11.4876 55.1815 9.00883 53.4676 8.00227V8.00128Z" fill="#E4F7FE"/>
<path d="M53.5021 7.95996L53.4675 8.00058C55.1814 9.00813 55.4647 11.4859 53.8588 12.8333L39.5737 24.8199C39.1061 25.2122 38.3898 24.9517 38.2838 24.3503L37.728 21.1959L35.7406 9.93049L32.7309 8.83476C32.1572 8.62572 31.5737 9.11612 31.6787 9.71748L34.9164 28.0813C35.28 30.147 37.5695 31.1406 39.2983 30.1598C39.4558 30.0707 39.6084 29.9647 39.754 29.8428L55.0893 16.9744C58.205 14.36 57.3233 9.3529 53.5002 7.96194L53.5021 7.95996Z" fill="#ACC6FE"/>
<path d="M31.1844 4.05506C29.2139 3.33877 27.2077 4.82286 27.1948 6.81023C27.1928 6.99153 27.2077 7.1758 27.2414 7.36305L30.7178 27.0792C30.8892 28.0481 31.2974 28.8833 31.8621 29.558C33.6364 31.6721 36.9543 32.1923 39.3172 30.2099L39.2993 30.1593C37.5705 31.1401 35.281 30.1465 34.9174 28.0808L31.6798 9.71698C31.5738 9.11561 32.1583 8.6262 32.7319 8.83425L35.7417 9.92998L46.4919 13.8423L48.9449 11.7836C49.4125 11.3913 49.2798 10.6403 48.7062 10.4313L31.1844 4.05308V4.05506Z" fill="#BDE6FE"/>
<mask id="mask0_453_4269" style="mask-type:luminance" maskUnits="userSpaceOnUse" x="31" y="7" width="26" height="24">
<path d="M53.5021 7.95996L53.4675 8.00058C55.1814 9.00813 55.4647 11.4859 53.8588 12.8333L39.5737 24.8199C39.1061 25.2122 38.3898 24.9517 38.2838 24.3503L37.728 21.1959L35.7406 9.93049L32.7309 8.83476C32.1572 8.62572 31.5737 9.11612 31.6787 9.71748L34.9164 28.0813C35.28 30.147 37.5695 31.1406 39.2983 30.1598C39.4558 30.0707 39.6084 29.9647 39.754 29.8428L55.0893 16.9744C58.205 14.36 57.3233 9.3529 53.5002 7.96194L53.5021 7.95996Z" fill="white"/>
</mask>
<g mask="url(#mask0_453_4269)">
<path d="M53.5022 7.95996L53.4675 8.00058C55.1815 9.00813 55.4648 11.4859 53.8589 12.8333L39.5738 24.8199C39.1062 25.2122 38.3899 24.9517 38.2839 24.3503L37.7281 21.1959L35.7407 9.93049L32.7309 8.83476C32.1573 8.62572 31.5738 9.11612 31.6788 9.71748L34.9164 28.0813C35.28 30.147 37.5696 31.1406 39.2984 30.1598C39.4559 30.0707 39.6084 29.9647 39.7541 29.8428L55.0893 16.9744C58.2051 14.36 57.3234 9.3529 53.5002 7.96194L53.5022 7.95996Z" fill="#ACC6FE"/>
<path d="M29.0722 9.59277C30.2472 9.59277 30.2472 10.3853 31.4222 10.3853C32.5972 10.3853 32.5972 9.59277 33.7721 9.59277C34.9471 9.59277 34.9471 10.3853 36.1221 10.3853C37.2971 10.3853 37.2971 9.59277 38.4721 9.59277C39.6471 9.59277 39.6471 10.3853 40.8211 10.3853C41.9951 10.3853 41.996 9.59277 43.171 9.59277C44.346 9.59277 44.346 10.3853 45.521 10.3853C46.696 10.3853 46.696 9.59277 47.871 9.59277C49.046 9.59277 49.046 10.3853 50.2209 10.3853C51.3959 10.3853 51.3959 9.59277 52.5709 9.59277C53.7459 9.59277 53.7459 10.3853 54.9209 10.3853C56.0959 10.3853 56.0959 9.59277 57.2709 9.59277C58.4458 9.59277 58.4458 10.3853 59.6208 10.3853" stroke="white" stroke-width="0.198142" stroke-miterlimit="10"/>
<path d="M29.0722 10.8965C30.2472 10.8965 30.2472 11.6891 31.4222 11.6891C32.5972 11.6891 32.5972 10.8965 33.7721 10.8965C34.9471 10.8965 34.9471 11.6891 36.1221 11.6891C37.2971 11.6891 37.2971 10.8965 38.4721 10.8965C39.6471 10.8965 39.6471 11.6891 40.8211 11.6891C41.9951 11.6891 41.996 10.8965 43.171 10.8965C44.346 10.8965 44.346 11.6891 45.521 11.6891C46.696 11.6891 46.696 10.8965 47.871 10.8965C49.046 10.8965 49.046 11.6891 50.2209 11.6891C51.3959 11.6891 51.3959 10.8965 52.5709 10.8965C53.7459 10.8965 53.7459 11.6891 54.9209 11.6891C56.0959 11.6891 56.0959 10.8965 57.2709 10.8965C58.4458 10.8965 58.4458 11.6891 59.6208 11.6891" stroke="white" stroke-width="0.198142" stroke-miterlimit="10"/>
<path d="M29.0722 12.2002C30.2472 12.2002 30.2472 12.9928 31.4222 12.9928C32.5972 12.9928 32.5972 12.2002 33.7721 12.2002C34.9471 12.2002 34.9471 12.9928 36.1221 12.9928C37.2971 12.9928 37.2971 12.2002 38.4721 12.2002C39.6471 12.2002 39.6471 12.9928 40.8211 12.9928C41.9951 12.9928 41.996 12.2002 43.171 12.2002C44.346 12.2002 44.346 12.9928 45.521 12.9928C46.696 12.9928 46.696 12.2002 47.871 12.2002C49.046 12.2002 49.046 12.9928 50.2209 12.9928C51.3959 12.9928 51.3959 12.2002 52.5709 12.2002C53.7459 12.2002 53.7459 12.9928 54.9209 12.9928C56.0959 12.9928 56.0959 12.2002 57.2709 12.2002C58.4458 12.2002 58.4458 12.9928 59.6208 12.9928" stroke="white" stroke-width="0.198142" stroke-miterlimit="10"/>
<path d="M29.0722 13.5029C30.2472 13.5029 30.2472 14.2955 31.4222 14.2955C32.5972 14.2955 32.5972 13.5029 33.7721 13.5029C34.9471 13.5029 34.9471 14.2955 36.1221 14.2955C37.2971 14.2955 37.2971 13.5029 38.4721 13.5029C39.6471 13.5029 39.6471 14.2955 40.8211 14.2955C41.9951 14.2955 41.996 13.5029 43.171 13.5029C44.346 13.5029 44.346 14.2955 45.521 14.2955C46.696 14.2955 46.696 13.5029 47.871 13.5029C49.046 13.5029 49.046 14.2955 50.2209 14.2955C51.3959 14.2955 51.3959 13.5029 52.5709 13.5029C53.7459 13.5029 53.7459 14.2955 54.9209 14.2955C56.0959 14.2955 56.0959 13.5029 57.2709 13.5029C58.4458 13.5029 58.4458 14.2955 59.6208 14.2955" stroke="white" stroke-width="0.198142" stroke-miterlimit="10"/>
<path d="M29.0722 14.8066C30.2472 14.8066 30.2472 15.5992 31.4222 15.5992C32.5972 15.5992 32.5972 14.8066 33.7721 14.8066C34.9471 14.8066 34.9471 15.5992 36.1221 15.5992C37.2971 15.5992 37.2971 14.8066 38.4721 14.8066C39.6471 14.8066 39.6471 15.5992 40.8211 15.5992C41.9951 15.5992 41.996 14.8066 43.171 14.8066C44.346 14.8066 44.346 15.5992 45.521 15.5992C46.696 15.5992 46.696 14.8066 47.871 14.8066C49.046 14.8066 49.046 15.5992 50.2209 15.5992C51.3959 15.5992 51.3959 14.8066 52.5709 14.8066C53.7459 14.8066 53.7459 15.5992 54.9209 15.5992C56.0959 15.5992 56.0959 14.8066 57.2709 14.8066C58.4458 14.8066 58.4458 15.5992 59.6208 15.5992" stroke="white" stroke-width="0.198142" stroke-miterlimit="10"/>
<path d="M29.0722 16.1104C30.2472 16.1104 30.2472 16.9029 31.4222 16.9029C32.5972 16.9029 32.5972 16.1104 33.7721 16.1104C34.9471 16.1104 34.9471 16.9029 36.1221 16.9029C37.2971 16.9029 37.2971 16.1104 38.4721 16.1104C39.6471 16.1104 39.6471 16.9029 40.8211 16.9029C41.9951 16.9029 41.996 16.1104 43.171 16.1104C44.346 16.1104 44.346 16.9029 45.521 16.9029C46.696 16.9029 46.696 16.1104 47.871 16.1104C49.046 16.1104 49.046 16.9029 50.2209 16.9029C51.3959 16.9029 51.3959 16.1104 52.5709 16.1104C53.7459 16.1104 53.7459 16.9029 54.9209 16.9029C56.0959 16.9029 56.0959 16.1104 57.2709 16.1104C58.4458 16.1104 58.4458 16.9029 59.6208 16.9029" stroke="white" stroke-width="0.198142" stroke-miterlimit="10"/>
<path d="M29.0722 17.4131C30.2472 17.4131 30.2472 18.2057 31.4222 18.2057C32.5972 18.2057 32.5972 17.4131 33.7721 17.4131C34.9471 17.4131 34.9471 18.2057 36.1221 18.2057C37.2971 18.2057 37.2971 17.4131 38.4721 17.4131C39.6471 17.4131 39.6471 18.2057 40.8211 18.2057C41.9951 18.2057 41.996 17.4131 43.171 17.4131C44.346 17.4131 44.346 18.2057 45.521 18.2057C46.696 18.2057 46.696 17.4131 47.871 17.4131C49.046 17.4131 49.046 18.2057 50.2209 18.2057C51.3959 18.2057 51.3959 17.4131 52.5709 17.4131C53.7459 17.4131 53.7459 18.2057 54.9209 18.2057C56.0959 18.2057 56.0959 17.4131 57.2709 17.4131C58.4458 17.4131 58.4458 18.2057 59.6208 18.2057" stroke="white" stroke-width="0.198142" stroke-miterlimit="10"/>
<path d="M29.0722 18.7168C30.2472 18.7168 30.2472 19.5094 31.4222 19.5094C32.5972 19.5094 32.5972 18.7168 33.7721 18.7168C34.9471 18.7168 34.9471 19.5094 36.1221 19.5094C37.2971 19.5094 37.2971 18.7168 38.4721 18.7168C39.6471 18.7168 39.6471 19.5094 40.8211 19.5094C41.9951 19.5094 41.996 18.7168 43.171 18.7168C44.346 18.7168 44.346 19.5094 45.521 19.5094C46.696 19.5094 46.696 18.7168 47.871 18.7168C49.046 18.7168 49.046 19.5094 50.2209 19.5094C51.3959 19.5094 51.3959 18.7168 52.5709 18.7168C53.7459 18.7168 53.7459 19.5094 54.9209 19.5094C56.0959 19.5094 56.0959 18.7168 57.2709 18.7168C58.4458 18.7168 58.4458 19.5094 59.6208 19.5094" stroke="white" stroke-width="0.198142" stroke-miterlimit="10"/>
<path d="M29.0722 20.0205C30.2472 20.0205 30.2472 20.8131 31.4222 20.8131C32.5972 20.8131 32.5972 20.0205 33.7721 20.0205C34.9471 20.0205 34.9471 20.8131 36.1221 20.8131C37.2971 20.8131 37.2971 20.0205 38.4721 20.0205C39.6471 20.0205 39.6471 20.8131 40.8211 20.8131C41.9951 20.8131 41.996 20.0205 43.171 20.0205C44.346 20.0205 44.346 20.8131 45.521 20.8131C46.696 20.8131 46.696 20.0205 47.871 20.0205C49.046 20.0205 49.046 20.8131 50.2209 20.8131C51.3959 20.8131 51.3959 20.0205 52.5709 20.0205C53.7459 20.0205 53.7459 20.8131 54.9209 20.8131C56.0959 20.8131 56.0959 20.0205 57.2709 20.0205C58.4458 20.0205 58.4458 20.8131 59.6208 20.8131" stroke="white" stroke-width="0.198142" stroke-miterlimit="10"/>
<path d="M29.0722 21.3242C30.2472 21.3242 30.2472 22.1168 31.4222 22.1168C32.5972 22.1168 32.5972 21.3242 33.7721 21.3242C34.9471 21.3242 34.9471 22.1168 36.1221 22.1168C37.2971 22.1168 37.2971 21.3242 38.4721 21.3242C39.6471 21.3242 39.6471 22.1168 40.8211 22.1168C41.9951 22.1168 41.996 21.3242 43.171 21.3242C44.346 21.3242 44.346 22.1168 45.521 22.1168C46.696 22.1168 46.696 21.3242 47.871 21.3242C49.046 21.3242 49.046 22.1168 50.2209 22.1168C51.3959 22.1168 51.3959 21.3242 52.5709 21.3242C53.7459 21.3242 53.7459 22.1168 54.9209 22.1168C56.0959 22.1168 56.0959 21.3242 57.2709 21.3242C58.4458 21.3242 58.4458 22.1168 59.6208 22.1168" stroke="white" stroke-width="0.198142" stroke-miterlimit="10"/>
<path d="M29.0722 22.6279C30.2472 22.6279 30.2472 23.4205 31.4222 23.4205C32.5972 23.4205 32.5972 22.6279 33.7721 22.6279C34.9471 22.6279 34.9471 23.4205 36.1221 23.4205C37.2971 23.4205 37.2971 22.6279 38.4721 22.6279C39.6471 22.6279 39.6471 23.4205 40.8211 23.4205C41.9951 23.4205 41.996 22.6279 43.171 22.6279C44.346 22.6279 44.346 23.4205 45.521 23.4205C46.696 23.4205 46.696 22.6279 47.871 22.6279C49.046 22.6279 49.046 23.4205 50.2209 23.4205C51.3959 23.4205 51.3959 22.6279 52.5709 22.6279C53.7459 22.6279 53.7459 23.4205 54.9209 23.4205C56.0959 23.4205 56.0959 22.6279 57.2709 22.6279C58.4458 22.6279 58.4458 23.4205 59.6208 23.4205" stroke="white" stroke-width="0.198142" stroke-miterlimit="10"/>
<path d="M29.0722 23.9316C30.2472 23.9316 30.2472 24.7242 31.4222 24.7242C32.5972 24.7242 32.5972 23.9316 33.7721 23.9316C34.9471 23.9316 34.9471 24.7242 36.1221 24.7242C37.2971 24.7242 37.2971 23.9316 38.4721 23.9316C39.6471 23.9316 39.6471 24.7242 40.8211 24.7242C41.9951 24.7242 41.996 23.9316 43.171 23.9316C44.346 23.9316 44.346 24.7242 45.521 24.7242C46.696 24.7242 46.696 23.9316 47.871 23.9316C49.046 23.9316 49.046 24.7242 50.2209 24.7242C51.3959 24.7242 51.3959 23.9316 52.5709 23.9316C53.7459 23.9316 53.7459 24.7242 54.9209 24.7242C56.0959 24.7242 56.0959 23.9316 57.2709 23.9316C58.4458 23.9316 58.4458 24.7242 59.6208 24.7242" stroke="white" stroke-width="0.198142" stroke-miterlimit="10"/>
<path d="M29.0722 25.2354C30.2472 25.2354 30.2472 26.0279 31.4222 26.0279C32.5972 26.0279 32.5972 25.2354 33.7721 25.2354C34.9471 25.2354 34.9471 26.0279 36.1221 26.0279C37.2971 26.0279 37.2971 25.2354 38.4721 25.2354C39.6471 25.2354 39.6471 26.0279 40.8211 26.0279C41.9951 26.0279 41.996 25.2354 43.171 25.2354C44.346 25.2354 44.346 26.0279 45.521 26.0279C46.696 26.0279 46.696 25.2354 47.871 25.2354C49.046 25.2354 49.046 26.0279 50.2209 26.0279C51.3959 26.0279 51.3959 25.2354 52.5709 25.2354C53.7459 25.2354 53.7459 26.0279 54.9209 26.0279C56.0959 26.0279 56.0959 25.2354 57.2709 25.2354C58.4458 25.2354 58.4458 26.0279 59.6208 26.0279" stroke="white" stroke-width="0.198142" stroke-miterlimit="10"/>
<path d="M29.0722 26.5381C30.2472 26.5381 30.2472 27.3307 31.4222 27.3307C32.5972 27.3307 32.5972 26.5381 33.7721 26.5381C34.9471 26.5381 34.9471 27.3307 36.1221 27.3307C37.2971 27.3307 37.2971 26.5381 38.4721 26.5381C39.6471 26.5381 39.6471 27.3307 40.8211 27.3307C41.9951 27.3307 41.996 26.5381 43.171 26.5381C44.346 26.5381 44.346 27.3307 45.521 27.3307C46.696 27.3307 46.696 26.5381 47.871 26.5381C49.046 26.5381 49.046 27.3307 50.2209 27.3307C51.3959 27.3307 51.3959 26.5381 52.5709 26.5381C53.7459 26.5381 53.7459 27.3307 54.9209 27.3307C56.0959 27.3307 56.0959 26.5381 57.2709 26.5381C58.4458 26.5381 58.4458 27.3307 59.6208 27.3307" stroke="white" stroke-width="0.198142" stroke-miterlimit="10"/>
<path d="M29.0722 27.8418C30.2472 27.8418 30.2472 28.6344 31.4222 28.6344C32.5972 28.6344 32.5972 27.8418 33.7721 27.8418C34.9471 27.8418 34.9471 28.6344 36.1221 28.6344C37.2971 28.6344 37.2971 27.8418 38.4721 27.8418C39.6471 27.8418 39.6471 28.6344 40.8211 28.6344C41.9951 28.6344 41.996 27.8418 43.171 27.8418C44.346 27.8418 44.346 28.6344 45.521 28.6344C46.696 28.6344 46.696 27.8418 47.871 27.8418C49.046 27.8418 49.046 28.6344 50.2209 28.6344C51.3959 28.6344 51.3959 27.8418 52.5709 27.8418C53.7459 27.8418 53.7459 28.6344 54.9209 28.6344C56.0959 28.6344 56.0959 27.8418 57.2709 27.8418C58.4458 27.8418 58.4458 28.6344 59.6208 28.6344" stroke="white" stroke-width="0.198142" stroke-miterlimit="10"/>
<path d="M29.0722 29.1455C30.2472 29.1455 30.2472 29.9381 31.4222 29.9381C32.5972 29.9381 32.5972 29.1455 33.7721 29.1455C34.9471 29.1455 34.9471 29.9381 36.1221 29.9381C37.2971 29.9381 37.2971 29.1455 38.4721 29.1455C39.6471 29.1455 39.6471 29.9381 40.8211 29.9381C41.9951 29.9381 41.996 29.1455 43.171 29.1455C44.346 29.1455 44.346 29.9381 45.521 29.9381C46.696 29.9381 46.696 29.1455 47.871 29.1455C49.046 29.1455 49.046 29.9381 50.2209 29.9381C51.3959 29.9381 51.3959 29.1455 52.5709 29.1455C53.7459 29.1455 53.7459 29.9381 54.9209 29.9381C56.0959 29.9381 56.0959 29.1455 57.2709 29.1455C58.4458 29.1455 58.4458 29.9381 59.6208 29.9381" stroke="white" stroke-width="0.198142" stroke-miterlimit="10"/>
</g>
<mask id="mask1_453_4269" style="mask-type:luminance" maskUnits="userSpaceOnUse" x="27" y="3" width="23" height="29">
<path d="M39.3172 30.2095L39.2993 30.159C37.5695 31.1398 35.282 30.1461 34.9184 28.0815L31.6808 9.71763C31.5747 9.11627 32.1593 8.62686 32.7329 8.83491L35.7427 9.93064L46.4929 13.843L48.9469 11.7843C49.4145 11.3919 49.2817 10.641 48.7081 10.4319L31.1854 4.05373C29.2149 3.33547 27.2097 4.82252 27.1948 6.80989C27.1938 6.99119 27.2087 7.17547 27.2424 7.36271L30.7188 27.0779C31.4252 31.0843 36.2024 32.823 39.3191 30.2085L39.3172 30.2095Z" fill="white"/>
</mask>
<g mask="url(#mask1_453_4269)">
<path d="M39.3172 30.2095L39.2993 30.159C37.5695 31.1398 35.282 30.1461 34.9184 28.0815L31.6808 9.71763C31.5747 9.11627 32.1593 8.62686 32.7329 8.83491L35.7427 9.93064L46.4929 13.843L48.9469 11.7843C49.4145 11.3919 49.2817 10.641 48.7081 10.4319L31.1854 4.05373C29.2149 3.33547 27.2097 4.82252 27.1948 6.80989C27.1938 6.99119 27.2087 7.17547 27.2424 7.36271L30.7188 27.0779C31.4252 31.0843 36.2024 32.823 39.3191 30.2085L39.3172 30.2095Z" fill="#BDE6FE"/>
<path d="M50.118 8.23633C49.5305 9.25379 48.8439 8.8575 48.2564 9.87497C47.6689 10.8924 48.3555 11.2887 47.768 12.3062C47.1805 13.3236 46.4939 12.9273 45.9065 13.9448C45.319 14.9623 46.0055 15.3586 45.418 16.376C44.8305 17.3935 44.144 16.9972 43.5575 18.0147C42.97 19.0321 43.6565 19.4284 43.0691 20.4459C42.4816 21.4633 41.795 21.067 41.2075 22.0845C40.62 23.102 41.3066 23.4982 40.7191 24.5157C40.1316 25.5332 39.445 25.1369 38.8575 26.1543C38.27 27.1718 38.9566 27.5681 38.3691 28.5856C37.7816 29.603 37.0951 29.2067 36.5076 30.2242C35.9201 31.2417 36.6066 31.6379 36.0191 32.6554C35.4316 33.6729 34.7451 33.2766 34.1576 34.294" stroke="white" stroke-width="0.198142" stroke-miterlimit="10"/>
<path d="M48.9895 7.58398C48.4021 8.60145 47.7155 8.20516 47.128 9.22262C46.5405 10.2401 47.2271 10.6364 46.6396 11.6538C46.0521 12.6713 45.3655 12.275 44.778 13.2925C44.1905 14.3099 44.8771 14.7062 44.2896 15.7237C43.7021 16.7411 43.0156 16.3449 42.4291 17.3623C41.8416 18.3798 42.5281 18.7761 41.9406 19.7935C41.3531 20.811 40.6666 20.4147 40.0791 21.4322C39.4916 22.4496 40.1782 22.8459 39.5907 23.8634C39.0032 24.8808 38.3166 24.4845 37.7291 25.502C37.1416 26.5195 37.8282 26.9157 37.2407 27.9332C36.6532 28.9507 35.9666 28.5544 35.3791 29.5718C34.7917 30.5893 35.4782 30.9856 34.8907 32.0031C34.3032 33.0205 33.6167 32.6242 33.0292 33.6417" stroke="white" stroke-width="0.198142" stroke-miterlimit="10"/>
<path d="M47.8601 6.93262C47.2726 7.95008 46.586 7.55379 45.9985 8.57126C45.4111 9.58872 46.0976 9.985 45.5101 11.0025C44.9226 12.0199 44.2361 11.6236 43.6486 12.6411C43.0611 13.6586 43.7476 14.0548 43.1602 15.0723C42.5727 16.0898 41.8861 15.6935 41.2996 16.7109C40.7131 17.7284 41.3987 18.1247 40.8112 19.1422C40.2237 20.1596 39.5371 19.7633 38.9496 20.7808C38.3621 21.7983 39.0487 22.1945 38.4612 23.212C37.8737 24.2295 37.1872 23.8332 36.5997 24.8506C36.0122 25.8681 36.6987 26.2644 36.1112 27.2818C35.5237 28.2993 34.8372 27.903 34.2497 28.9205C33.6622 29.9379 34.3488 30.3342 33.7613 31.3517C33.1738 32.3692 32.4872 31.9729 31.8997 32.9903" stroke="white" stroke-width="0.198142" stroke-miterlimit="10"/>
<path d="M46.7317 6.28027C46.1442 7.29773 45.4576 6.90145 44.8701 7.91891C44.2826 8.93637 44.9692 9.33266 44.3817 10.3501C43.7942 11.3676 43.1077 10.9713 42.5202 11.9888C41.9327 13.0062 42.6192 13.4025 42.0317 14.42C41.4442 15.4374 40.7577 15.0411 40.1712 16.0586C39.5847 17.0761 40.2703 17.4724 39.6828 18.4898C39.0953 19.5073 38.4087 19.111 37.8212 20.1284C37.2337 21.1459 37.9203 21.5422 37.3328 22.5597C36.7453 23.5771 36.0587 23.1808 35.4712 24.1983C34.8837 25.2158 35.5703 25.612 34.9828 26.6295C34.3953 27.647 33.7088 27.2507 33.1213 28.2681C32.5338 29.2856 33.2203 29.6819 32.6328 30.6993C32.0454 31.7168 31.3588 31.3205 30.7713 32.338" stroke="white" stroke-width="0.198142" stroke-miterlimit="10"/>
<path d="M45.6023 5.62891C45.0148 6.64637 44.3282 6.25008 43.7407 7.26754C43.1532 8.285 43.8398 8.68129 43.2523 9.69875C42.6648 10.7162 41.9783 10.3199 41.3908 11.3374C40.8033 12.3548 41.4898 12.7511 40.9023 13.7686C40.3149 14.7861 39.6283 14.3898 39.0418 15.4072C38.4543 16.4247 39.1409 16.821 38.5534 17.8384C37.9659 18.8559 37.2793 18.4596 36.6918 19.4771C36.1043 20.4945 36.7909 20.8908 36.2034 21.9083C35.6159 22.9257 34.9293 22.5295 34.3418 23.5469C33.7544 24.5644 34.4409 24.9607 33.8534 25.9781C33.2659 26.9956 32.5794 26.5993 31.9919 27.6168C31.4044 28.6342 32.0909 29.0305 31.5035 30.048C30.916 31.0654 30.2294 30.6692 29.6419 31.6866" stroke="white" stroke-width="0.198142" stroke-miterlimit="10"/>
<path d="M44.4739 4.97754C43.8864 5.995 43.1998 5.59871 42.6123 6.61618C42.0248 7.63364 42.7114 8.02992 42.1239 9.04738C41.5364 10.0648 40.8498 9.66856 40.2623 10.686C39.6749 11.7035 40.3614 12.0998 39.7739 13.1172C39.1864 14.1347 38.4999 13.7384 37.9134 14.7559C37.3259 15.7733 38.0124 16.1696 37.4249 17.1871C36.8375 18.2045 36.1509 17.8082 35.5634 18.8257C34.9759 19.8432 35.6625 20.2395 35.075 21.2569C34.4875 22.2744 33.8009 21.8781 33.2134 22.8956C32.6259 23.913 33.3125 24.3093 32.725 25.3268C32.1375 26.3442 31.451 25.9479 30.8635 26.9654C30.276 27.9829 30.9625 28.3791 30.375 29.3966C29.7875 30.4141 29.101 30.0178 28.5135 31.0352" stroke="white" stroke-width="0.198142" stroke-miterlimit="10"/>
<path d="M43.3454 4.32617C42.758 5.34363 42.0714 4.94735 41.4839 5.96481C40.8964 6.98227 41.583 7.37856 40.9955 8.39602C40.408 9.41348 39.7214 9.01719 39.1339 10.0347C38.5464 11.0521 39.233 11.4484 38.6455 12.4659C38.058 13.4833 37.3715 13.087 36.7849 14.1045C36.1975 15.122 36.884 15.5182 36.2965 16.5357C35.709 17.5532 35.0225 17.1569 34.435 18.1743C33.8475 19.1918 34.5341 19.5881 33.9466 20.6056C33.3591 21.623 32.6725 21.2267 32.085 22.2442C31.4975 23.2617 32.1841 23.6579 31.5966 24.6754C31.0091 25.6929 30.3225 25.2966 29.735 26.314C29.1475 27.3315 29.8341 27.7278 29.2466 28.7452C28.6591 29.7627 27.9726 29.3664 27.3851 30.3839" stroke="white" stroke-width="0.198142" stroke-miterlimit="10"/>
<path d="M42.216 3.67383C41.6285 4.69129 40.9419 4.29501 40.3544 5.31247C39.7669 6.32993 40.4535 6.72621 39.866 7.74367C39.2785 8.76113 38.592 8.36485 38.0045 9.38231C37.417 10.3998 38.1035 10.7961 37.5161 11.8135C36.9286 12.831 36.242 12.4347 35.6555 13.4522C35.069 14.4696 35.7546 14.8659 35.1671 15.8834C34.5796 16.9008 33.893 16.5045 33.3055 17.522C32.718 18.5395 33.4046 18.9357 32.8171 19.9532C32.2296 20.9707 31.543 20.5744 30.9556 21.5918C30.3681 22.6093 31.0546 23.0056 30.4671 24.0231C29.8796 25.0405 29.1931 24.6442 28.6056 25.6617C28.0181 26.6792 28.7047 27.0754 28.1172 28.0929C27.5297 29.1104 26.8431 28.7141 26.2556 29.7315" stroke="white" stroke-width="0.198142" stroke-miterlimit="10"/>
<path d="M41.0876 3.02246C40.5001 4.03992 39.8135 3.64364 39.226 4.6611C38.6385 5.67856 39.3251 6.07484 38.7376 7.09231C38.1501 8.10977 37.4635 7.71348 36.8761 8.73094C36.2886 9.7484 36.9751 10.1447 36.3876 11.1622C35.8001 12.1796 35.1136 11.7833 34.5271 12.8008C33.9406 13.8182 34.6261 14.2145 34.0387 15.232C33.4512 16.2495 32.7646 15.8532 32.1771 16.8706C31.5896 17.8881 32.2762 18.2844 31.6887 19.3018C31.1012 20.3193 30.4146 19.923 29.8271 20.9405C29.2396 21.9579 29.9262 22.3542 29.3387 23.3717C28.7512 24.3891 28.0647 23.9929 27.4772 25.0103C26.8897 26.0278 27.5762 26.4241 26.9887 27.4415C26.4013 28.459 25.7147 28.0627 25.1272 29.0802" stroke="white" stroke-width="0.198142" stroke-miterlimit="10"/>
<path d="M39.9582 2.37012C39.3707 3.38758 38.6841 2.99129 38.0966 4.00876C37.5091 5.02622 38.1957 5.4225 37.6082 6.43996C37.0207 7.45742 36.3342 7.06114 35.7467 8.0786C35.1592 9.09606 35.8457 9.49235 35.2582 10.5098C34.6707 11.5273 33.9842 11.131 33.3977 12.1484C32.8102 13.1659 33.4968 13.5622 32.9093 14.5797C32.3218 15.5971 31.6352 15.2008 31.0477 16.2183C30.4602 17.2358 31.1468 17.632 30.5593 18.6495C29.9718 19.667 29.2852 19.2707 28.6977 20.2881C28.1103 21.3056 28.7968 21.7019 28.2093 22.7193C27.6218 23.7368 26.9353 23.3405 26.3478 24.358C25.7603 25.3754 26.4468 25.7717 25.8594 26.7892C25.2719 27.8067 24.5853 27.4104 23.9978 28.4278" stroke="white" stroke-width="0.198142" stroke-miterlimit="10"/>
<path d="M38.8298 1.71875C38.2423 2.73621 37.5557 2.33993 36.9682 3.35739C36.3807 4.37485 37.0673 4.77113 36.4798 5.78859C35.8923 6.80606 35.2057 6.40977 34.6182 7.42723C34.0308 8.44469 34.7173 8.84098 34.1298 9.85844C33.5423 10.8759 32.8558 10.4796 32.2693 11.4971C31.6818 12.5145 32.3683 12.9108 31.7808 13.9283C31.1934 14.9457 30.5068 14.5495 29.9193 15.5669C29.3318 16.5844 30.0184 16.9807 29.4309 17.9981C28.8434 19.0156 28.1568 18.6193 27.5693 19.6368C26.9818 20.6542 27.6684 21.0505 27.0809 22.068C26.4934 23.0854 25.8068 22.6892 25.2194 23.7066C24.6319 24.7241 25.3184 25.1204 24.7309 26.1378C24.1434 27.1553 23.4569 26.759 22.8694 27.7765" stroke="white" stroke-width="0.198142" stroke-miterlimit="10"/>
<path d="M37.7003 1.06738C37.1128 2.08484 36.4262 1.68856 35.8388 2.70602C35.2513 3.72348 35.9378 4.11977 35.3503 5.13723C34.7628 6.15469 34.0763 5.7584 33.4888 6.77586C32.9013 7.79333 33.5879 8.18961 33.0004 9.20707C32.4129 10.2245 31.7263 9.82825 31.1398 10.8457C30.5523 11.8632 31.2389 12.2595 30.6514 13.2769C30.0639 14.2944 29.3773 13.8981 28.7898 14.9156C28.2023 15.933 28.8889 16.3293 28.3014 17.3468C27.7139 18.3642 27.0274 17.9679 26.4399 18.9854C25.8524 20.0029 26.5389 20.3991 25.9514 21.4166C25.364 22.4341 24.6774 22.0378 24.0899 23.0552C23.5024 24.0727 24.189 24.469 23.6015 25.4865C23.014 26.5039 22.3274 26.1076 21.7399 27.1251" stroke="white" stroke-width="0.198142" stroke-miterlimit="10"/>
<path d="M36.5719 0.416016C35.9844 1.43348 35.2978 1.03719 34.7103 2.05465C34.1228 3.07211 34.8094 3.4684 34.2219 4.48586C33.6344 5.50332 32.9479 5.10704 32.3604 6.1245C31.7729 7.14196 32.4594 7.53825 31.8719 8.55571C31.2845 9.57317 30.5979 9.17688 30.0114 10.1943C29.4239 11.2118 30.1105 11.6081 29.523 12.6256C28.9355 13.643 28.2489 13.2467 27.6614 14.2642C27.0739 15.2817 27.7605 15.6779 27.173 16.6954C26.5855 17.7129 25.8989 17.3166 25.3115 18.334C24.724 19.3515 25.4105 19.7478 24.823 20.7652C24.2355 21.7827 23.549 21.3864 22.9615 22.4039C22.374 23.4213 23.0606 23.8176 22.4731 24.8351C21.8856 25.8525 21.199 25.4563 20.6115 26.4737" stroke="white" stroke-width="0.198142" stroke-miterlimit="10"/>
<path d="M35.4435 -0.236328C34.856 0.781133 34.1694 0.384848 33.5819 1.40231C32.9944 2.41977 33.681 2.81606 33.0935 3.83352C32.506 4.85098 31.8194 4.45469 31.232 5.47216C30.6445 6.48962 31.331 6.8859 30.7435 7.90336C30.156 8.92082 29.4695 8.52454 28.883 9.542C28.2965 10.5595 28.982 10.9557 28.3946 11.9732C27.8071 12.9907 27.1205 12.5944 26.533 13.6118C25.9455 14.6293 26.6321 15.0256 26.0446 16.0431C25.4571 17.0605 24.7705 16.6642 24.183 17.6817C23.5955 18.6992 24.2821 19.0954 23.6946 20.1129C23.1071 21.1304 22.4206 20.7341 21.8331 21.7515C21.2456 22.769 21.9321 23.1653 21.3446 24.1827C20.7571 25.2002 20.0706 24.8039 19.4831 25.8214" stroke="white" stroke-width="0.198142" stroke-miterlimit="10"/>
<path d="M34.3141 -0.887695C33.7266 0.129766 33.04 -0.266519 32.4525 0.750942C31.865 1.7684 32.5516 2.16469 31.9641 3.18215C31.3766 4.19961 30.6901 3.80333 30.1026 4.82079C29.5151 5.83825 30.2016 6.23453 29.6141 7.25199C29.0266 8.26946 28.3401 7.87317 27.7536 8.89063C27.1671 9.90809 27.8526 10.3044 27.2652 11.3218C26.6777 12.3393 25.9911 11.943 25.4036 12.9605C24.8161 13.9779 25.5027 14.3742 24.9152 15.3917C24.3277 16.4091 23.6411 16.0129 23.0536 17.0303C22.4661 18.0478 23.1527 18.4441 22.5652 19.4615C21.9777 20.479 21.2912 20.0827 20.7037 21.1002C20.1162 22.1176 20.8027 22.5139 20.2152 23.5314C19.6278 24.5488 18.9412 24.1525 18.3537 25.17" stroke="white" stroke-width="0.198142" stroke-miterlimit="10"/>
<path d="M33.1857 -1.54004C32.5982 -0.522578 31.9116 -0.918863 31.3241 0.0985989C30.7366 1.11606 31.4232 1.51235 30.8357 2.52981C30.2482 3.54727 29.5616 3.15098 28.9741 4.16844C28.3866 5.18591 29.0732 5.58219 28.4857 6.59965C27.8982 7.61711 27.2117 7.22083 26.6252 8.23829C26.0377 9.25575 26.7242 9.65204 26.1367 10.6695C25.5492 11.687 24.8627 11.2907 24.2752 12.3081C23.6877 13.3256 24.3743 13.7219 23.7868 14.7393C23.1993 15.7568 22.5127 15.3605 21.9252 16.378C21.3377 17.3954 22.0243 17.7917 21.4368 18.8092C20.8493 19.8266 20.1627 19.4304 19.5753 20.4478C18.9878 21.4653 19.6743 21.8616 19.0868 22.879C18.4993 23.8965 17.8128 23.5002 17.2253 24.5177" stroke="white" stroke-width="0.198142" stroke-miterlimit="10"/>
</g>
<mask id="mask2_453_4269" style="mask-type:luminance" maskUnits="userSpaceOnUse" x="27" y="0" width="28" height="26">
<path d="M27.1413 6.80057L27.1938 6.81048C27.2087 4.82212 29.2139 3.33803 31.1834 4.05531L48.7061 10.4335C49.2798 10.6426 49.4115 11.3935 48.9449 11.7858L46.4909 13.8445L37.7281 21.1976L38.2839 24.352C38.3899 24.9534 39.1061 25.2139 39.5738 24.8216L53.8578 12.836C55.4648 11.4886 55.1804 9.00887 53.4665 8.00231C53.31 7.91017 53.1426 7.8319 52.9642 7.76652L34.1526 0.919704C30.3304 -0.471255 26.4349 2.79611 27.1413 6.80255V6.80057Z" fill="white"/>
</mask>
<g mask="url(#mask2_453_4269)">
<path d="M27.1413 6.80057L27.1938 6.81048C27.2087 4.82212 29.2139 3.33803 31.1834 4.05531L48.7061 10.4335C49.2798 10.6426 49.4115 11.3935 48.9449 11.7858L46.4909 13.8445L37.7281 21.1976L38.2839 24.352C38.3899 24.9534 39.1061 25.2139 39.5738 24.8216L53.8578 12.836C55.4648 11.4886 55.1804 9.00887 53.4665 8.00231C53.31 7.91017 53.1426 7.8319 52.9642 7.76652L34.1526 0.919704C30.3304 -0.471255 26.4349 2.79611 27.1413 6.80255V6.80057Z" fill="#E4F7FE"/>
<path d="M40.7705 27.1413C40.183 26.1238 40.8696 25.7275 40.2821 24.7101C39.6946 23.6926 39.008 24.0889 38.4205 23.0714C37.833 22.054 38.5196 21.6577 37.9321 20.6402C37.3446 19.6228 36.658 20.0191 36.0706 19.0016C35.4831 17.9841 36.1696 17.5879 35.5821 16.5704C34.9946 15.5529 34.3081 15.9492 33.7206 14.9318C33.1331 13.9143 33.8197 13.518 33.2322 12.5006C32.6447 11.4831 31.9581 11.8794 31.3706 10.8619C30.7831 9.84445 31.4697 9.44817 30.8822 8.43071C30.2947 7.41324 29.6081 7.80953 29.0206 6.79207C28.4331 5.77461 29.1197 5.37832 28.5322 4.36086C27.9447 3.3434 27.2582 3.73968 26.6707 2.72222C26.0832 1.70476 26.7697 1.30848 26.1823 0.291016" stroke="white" stroke-width="0.198142" stroke-miterlimit="10"/>
<path d="M41.8989 26.4889C41.3114 25.4715 41.998 25.0752 41.4105 24.0577C40.823 23.0403 40.1364 23.4366 39.5489 22.4191C38.9614 21.4016 39.648 21.0054 39.0605 19.9879C38.473 18.9704 37.7865 19.3667 37.199 18.3493C36.6115 17.3318 37.298 16.9355 36.7105 15.9181C36.1231 14.9006 35.4365 15.2969 34.849 14.2794C34.2615 13.262 34.9481 12.8657 34.3606 11.8482C33.7731 10.8307 33.0865 11.227 32.499 10.2096C31.9115 9.19211 32.5981 8.79582 32.0106 7.77836C31.4231 6.7609 30.7366 7.15719 30.1491 6.13972C29.5616 5.12226 30.2481 4.72598 29.6606 3.70852C29.0731 2.69106 28.3866 3.08734 27.7991 2.06988C27.2116 1.05242 27.8982 0.656133 27.3107 -0.361328" stroke="white" stroke-width="0.198142" stroke-miterlimit="10"/>
<path d="M43.0284 25.8376C42.4409 24.8201 43.1274 24.4238 42.5399 23.4064C41.9525 22.3889 41.2659 22.7852 40.6784 21.7677C40.0909 20.7503 40.7775 20.354 40.19 19.3365C39.6025 18.3191 38.9159 18.7154 38.3284 17.6979C37.7409 16.6804 38.4275 16.2841 37.84 15.2667C37.2525 14.2492 36.5659 14.6455 35.9785 13.628C35.391 12.6106 36.0775 12.2143 35.49 11.1968C34.9025 10.1794 34.216 10.5757 33.6285 9.5582C33.041 8.54074 33.7276 8.14446 33.1401 7.12699C32.5526 6.10953 31.866 6.50582 31.2785 5.48836C30.691 4.4709 31.3776 4.07461 30.7901 3.05715C30.2026 2.03969 29.516 2.43597 28.9285 1.41851C28.3411 0.401051 29.0276 0.004766 28.4401 -1.0127" stroke="white" stroke-width="0.198142" stroke-miterlimit="10"/>
<path d="M44.1568 25.1862C43.5693 24.1688 44.2559 23.7725 43.6684 22.755C43.0809 21.7375 42.3943 22.1338 41.8068 21.1164C41.2193 20.0989 41.9059 19.7026 41.3184 18.6852C40.7309 17.6677 40.0443 18.064 39.4568 17.0465C38.8694 16.0291 39.5559 15.6328 38.9684 14.6153C38.3809 13.5979 37.6944 13.9941 37.1069 12.9767C36.5194 11.9592 37.2059 11.5629 36.6185 10.5455C36.031 9.52801 35.3444 9.9243 34.7569 8.90683C34.1694 7.88937 34.856 7.49309 34.2685 6.47563C33.681 5.45817 32.9944 5.85445 32.4069 4.83699C31.8194 3.81953 32.506 3.42324 31.9185 2.40578C31.331 1.38832 30.6445 1.78461 30.057 0.767145C29.4695 -0.250316 30.156 -0.646601 29.5685 -1.66406" stroke="white" stroke-width="0.198142" stroke-miterlimit="10"/>
<path d="M45.2852 24.5349C44.6977 23.5174 45.3843 23.1211 44.7968 22.1036C44.2093 21.0862 43.5227 21.4825 42.9352 20.465C42.3477 19.4475 43.0343 19.0513 42.4468 18.0338C41.8593 17.0163 41.1728 17.4126 40.5853 16.3952C39.9978 15.3777 40.6843 14.9814 40.0968 13.964C39.5093 12.9465 38.8228 13.3428 38.2353 12.3253C37.6478 11.3079 38.3344 10.9116 37.7469 9.89411C37.1594 8.87664 36.4728 9.27293 35.8853 8.25547C35.2978 7.23801 35.9844 6.84172 35.3969 5.82426C34.8094 4.8068 34.1228 5.20308 33.5354 4.18562C32.9479 3.16816 33.6344 2.77188 33.0469 1.75441C32.4594 0.736954 31.7729 1.13324 31.1854 0.115778C30.5979 -0.901684 31.2845 -1.29797 30.697 -2.31543" stroke="white" stroke-width="0.198142" stroke-miterlimit="10"/>
<path d="M46.4146 23.8825C45.8271 22.865 46.5137 22.4688 45.9262 21.4513C45.3387 20.4338 44.6521 20.8301 44.0646 19.8127C43.4771 18.7952 44.1637 18.3989 43.5762 17.3815C42.9887 16.364 42.3021 16.7603 41.7147 15.7428C41.1272 14.7254 41.8137 14.3291 41.2262 13.3116C40.6387 12.2941 39.9522 12.6904 39.3647 11.673C38.7772 10.6555 39.4638 10.2592 38.8763 9.24176C38.2888 8.2243 37.6022 8.62059 37.0147 7.60312C36.4272 6.58566 37.1138 6.18938 36.5263 5.17192C35.9388 4.15446 35.2522 4.55074 34.6647 3.53328C34.0773 2.51582 34.7638 2.11953 34.1763 1.10207C33.5888 0.0846105 32.9023 0.480895 32.3148 -0.536566C31.7273 -1.55403 32.4138 -1.95031 31.8264 -2.96777" stroke="white" stroke-width="0.198142" stroke-miterlimit="10"/>
<path d="M47.5431 23.2311C46.9556 22.2137 47.6421 21.8174 47.0547 20.7999C46.4672 19.7825 45.7806 20.1788 45.1931 19.1613C44.6056 18.1438 45.2922 17.7475 44.7047 16.7301C44.1172 15.7126 43.4306 16.1089 42.8431 15.0914C42.2556 14.074 42.9422 13.6777 42.3547 12.6602C41.7672 11.6428 41.0807 12.0391 40.4932 11.0216C39.9057 10.0041 40.5922 9.60786 40.0047 8.59039C39.4173 7.57293 38.7307 7.96922 38.1432 6.95176C37.5557 5.9343 38.2423 5.53801 37.6548 4.52055C37.0673 3.50309 36.3807 3.89937 35.7932 2.88191C35.2057 1.86445 35.8923 1.46817 35.3048 0.450705C34.7173 -0.566757 34.0307 -0.170472 33.4433 -1.18793C32.8558 -2.20539 33.5423 -2.60168 32.9548 -3.61914" stroke="white" stroke-width="0.198142" stroke-miterlimit="10"/>
<path d="M48.6724 22.5788C48.0849 21.5613 48.7715 21.165 48.184 20.1476C47.5965 19.1301 46.9099 19.5264 46.3224 18.5089C45.7349 17.4915 46.4215 17.0952 45.834 16.0777C45.2465 15.0603 44.56 15.4566 43.9725 14.4391C43.385 13.4216 44.0715 13.0254 43.484 12.0079C42.8966 10.9904 42.21 11.3867 41.6225 10.3693C41.035 9.3518 41.7216 8.95551 41.1341 7.93805C40.5466 6.92059 39.86 7.31687 39.2725 6.29941C38.685 5.28195 39.3716 4.88567 38.7841 3.8682C38.1966 2.85074 37.5101 3.24703 36.9226 2.22957C36.3351 1.21211 37.0216 0.815822 36.4341 -0.201639C35.8466 -1.2191 35.1601 -0.822816 34.5726 -1.84028C33.9851 -2.85774 34.6717 -3.25402 34.0842 -4.27148" stroke="white" stroke-width="0.198142" stroke-miterlimit="10"/>
<path d="M49.8009 21.9274C49.2134 20.91 49.9 20.5137 49.3125 19.4962C48.725 18.4788 48.0384 18.875 47.4509 17.8576C46.8634 16.8401 47.55 16.4438 46.9625 15.4264C46.375 14.4089 45.6884 14.8052 45.1009 13.7877C44.5135 12.7703 45.2 12.374 44.6125 11.3565C44.025 10.3391 43.3385 10.7354 42.751 9.71789C42.1635 8.70043 42.85 8.30414 42.2626 7.28668C41.6751 6.26922 40.9885 6.66551 40.401 5.64805C39.8135 4.63058 40.5001 4.2343 39.9126 3.21684C39.3251 2.19938 38.6385 2.59566 38.051 1.5782C37.4635 0.560739 38.1501 0.164455 37.5626 -0.853007C36.9751 -1.87047 36.2886 -1.47418 35.7011 -2.49164C35.1136 -3.50911 35.8001 -3.90539 35.2126 -4.92285" stroke="white" stroke-width="0.198142" stroke-miterlimit="10"/>
<path d="M50.9293 21.2751C50.3418 20.2576 51.0284 19.8613 50.4409 18.8439C49.8534 17.8264 49.1668 18.2227 48.5793 17.2052C47.9918 16.1878 48.6784 15.7915 48.0909 14.774C47.5034 13.7566 46.8169 14.1529 46.2294 13.1354C45.6419 12.1179 46.3284 11.7216 45.7409 10.7042C45.1535 9.68672 44.4669 10.083 43.8794 9.06555C43.2919 8.04809 43.9785 7.6518 43.391 6.63434C42.8035 5.61688 42.1169 6.01316 41.5294 4.9957C40.9419 3.97824 41.6285 3.58196 41.041 2.56449C40.4535 1.54703 39.7669 1.94332 39.1795 0.925857C38.592 -0.0916047 39.2785 -0.487889 38.691 -1.50535C38.1035 -2.52281 37.417 -2.12653 36.8295 -3.14399C36.242 -4.16145 36.9286 -4.55773 36.3411 -5.5752" stroke="white" stroke-width="0.198142" stroke-miterlimit="10"/>
<path d="M52.0587 20.6247C51.4712 19.6072 52.1578 19.2109 51.5703 18.1935C50.9828 17.176 50.2962 17.5723 49.7087 16.5548C49.1212 15.5374 49.8078 15.1411 49.2203 14.1236C48.6328 13.1062 47.9463 13.5025 47.3588 12.485C46.7713 11.4675 47.4578 11.0713 46.8703 10.0538C46.2828 9.03633 45.5963 9.43262 45.0088 8.41516C44.4213 7.3977 45.1079 7.00141 44.5204 5.98395C43.9329 4.96649 43.2463 5.36277 42.6588 4.34531C42.0713 3.32785 42.7579 2.93157 42.1704 1.9141C41.5829 0.896643 40.8963 1.29293 40.3088 0.275466C39.7214 -0.741995 40.4079 -1.13828 39.8204 -2.15574C39.2329 -3.1732 38.5464 -2.77692 37.9589 -3.79438C37.3714 -4.81184 38.058 -5.20812 37.4705 -6.22559" stroke="white" stroke-width="0.198142" stroke-miterlimit="10"/>
<path d="M53.1871 19.9723C52.5996 18.9549 53.2862 18.5586 52.6987 17.5411C52.1112 16.5237 51.4246 16.92 50.8371 15.9025C50.2497 14.885 50.9362 14.4888 50.3487 13.4713C49.7612 12.4538 49.0747 12.8501 48.4872 11.8327C47.8997 10.8152 48.5862 10.4189 47.9988 9.40145C47.4113 8.38399 46.7247 8.78027 46.1372 7.76281C45.5497 6.74535 46.2363 6.34907 45.6488 5.33161C45.0613 4.31414 44.3747 4.71043 43.7872 3.69297C43.1997 2.67551 43.8863 2.27922 43.2988 1.26176C42.7113 0.2443 42.0248 0.640584 41.4373 -0.376877C40.8498 -1.39434 41.5363 -1.79062 40.9488 -2.80808C40.3614 -3.82555 39.6748 -3.42926 39.0873 -4.44672C38.4998 -5.46418 39.1864 -5.86047 38.5989 -6.87793" stroke="white" stroke-width="0.198142" stroke-miterlimit="10"/>
<path d="M54.3165 19.321C53.729 18.3035 54.4156 17.9072 53.8281 16.8898C53.2406 15.8723 52.554 16.2686 51.9665 15.2511C51.379 14.2337 52.0656 13.8374 51.4781 12.8199C50.8906 11.8025 50.2041 12.1988 49.6166 11.1813C49.0291 10.1638 49.7156 9.76754 49.1282 8.75008C48.5407 7.73262 47.8541 8.12891 47.2666 7.11145C46.6791 6.09398 47.3657 5.6977 46.7782 4.68024C46.1907 3.66278 45.5041 4.05906 44.9166 3.0416C44.3291 2.02414 45.0157 1.62785 44.4282 0.610394C43.8407 -0.407068 43.1542 -0.0107828 42.5667 -1.02824C41.9792 -2.04571 42.6657 -2.44199 42.0782 -3.45945C41.4907 -4.47691 40.8042 -4.08063 40.2167 -5.09809C39.6292 -6.11555 40.3158 -6.51184 39.7283 -7.5293" stroke="white" stroke-width="0.198142" stroke-miterlimit="10"/>
<path d="M55.445 18.6686C54.8575 17.6512 55.5441 17.2549 54.9566 16.2374C54.3691 15.22 53.6825 15.6163 53.095 14.5988C52.5075 13.5813 53.1941 13.185 52.6066 12.1676C52.0191 11.1501 51.3325 11.5464 50.745 10.5289C50.1576 9.51149 50.8441 9.1152 50.2566 8.09774C49.6691 7.08028 48.9826 7.47656 48.3951 6.4591C47.8076 5.44164 48.4942 5.04535 47.9067 4.02789C47.3192 3.01043 46.6326 3.40672 46.0451 2.38926C45.4576 1.3718 46.1442 0.975511 45.5567 -0.0419501C44.9692 -1.05941 44.2826 -0.663127 43.6951 -1.68059C43.1076 -2.69805 43.7942 -3.09433 43.2067 -4.1118C42.6192 -5.12926 41.9327 -4.73297 41.3452 -5.75043C40.7577 -6.76789 41.4442 -7.16418 40.8568 -8.18164" stroke="white" stroke-width="0.198142" stroke-miterlimit="10"/>
<path d="M56.5743 18.0163C55.9868 16.9988 56.6734 16.6025 56.0859 15.5851C55.4984 14.5676 54.8118 14.9639 54.2244 13.9464C53.6369 12.929 54.3234 12.5327 53.7359 11.5152C53.1484 10.4978 52.4619 10.8941 51.8744 9.8766C51.2869 8.85914 51.9735 8.46286 51.386 7.4454C50.7985 6.42793 50.1119 6.82422 49.5244 5.80676C48.9369 4.7893 49.6235 4.39301 49.036 3.37555C48.4485 2.35809 47.7619 2.75437 47.1744 1.73691C46.587 0.719452 47.2735 0.323167 46.686 -0.694295C46.0985 -1.71176 45.412 -1.31547 44.8245 -2.33293C44.237 -3.35039 44.9235 -3.74668 44.3361 -4.76414C43.7486 -5.7816 43.062 -5.38532 42.4745 -6.40278C41.887 -7.42024 42.5736 -7.81652 41.9861 -8.83398" stroke="white" stroke-width="0.198142" stroke-miterlimit="10"/>
<path d="M57.7028 17.3649C57.1153 16.3475 57.8019 15.9512 57.2144 14.9337C56.6269 13.9163 55.9403 14.3125 55.3528 13.2951C54.7653 12.2776 55.4519 11.8813 54.8644 10.8639C54.2769 9.84641 53.5904 10.2427 53.0029 9.22524C52.4154 8.20777 53.1019 7.81149 52.5144 6.79403C51.9269 5.77657 51.2404 6.17285 50.6529 5.15539C50.0654 4.13793 50.752 3.74164 50.1645 2.72418C49.577 1.70672 48.8904 2.10301 48.3029 1.08555C47.7154 0.0680844 48.402 -0.3282 47.8145 -1.34566C47.227 -2.36312 46.5404 -1.96684 45.953 -2.9843C45.3655 -4.00176 46.052 -4.39804 45.4645 -5.41551C44.877 -6.43297 44.1905 -6.03668 43.603 -7.05414C43.0155 -8.07161 43.7021 -8.46789 43.1146 -9.48535" stroke="white" stroke-width="0.198142" stroke-miterlimit="10"/>
</g>
<path d="M53.4676 8.00128C53.312 7.90914 53.1446 7.82989 52.9653 7.7645L34.1526 0.917687C30.3305 -0.473272 26.436 2.79509 27.1414 6.80054L27.1948 6.81044C27.2087 4.82307 29.2139 3.338 31.1844 4.05527L48.7062 10.4335C49.2798 10.6425 49.4116 11.3935 48.945 11.7858L37.7281 21.1976L38.2839 24.352C38.3899 24.9534 39.1062 25.2139 39.5738 24.8216L53.8589 12.835C55.4648 11.4876 55.1815 9.00883 53.4676 8.00227V8.00128Z" stroke="#2977EC" stroke-width="0.990712" stroke-miterlimit="10"/>
<path d="M53.5021 7.95996L53.4675 8.00058C55.1814 9.00813 55.4647 11.4859 53.8588 12.8333L39.5737 24.8199C39.1061 25.2122 38.3898 24.9517 38.2838 24.3503L37.728 21.1959L35.7406 9.93049L32.7309 8.83476C32.1572 8.62572 31.5737 9.11612 31.6787 9.71748L34.9164 28.0813C35.28 30.147 37.5695 31.1406 39.2983 30.1598C39.4558 30.0707 39.6084 29.9647 39.754 29.8428L55.0893 16.9744C58.205 14.36 57.3233 9.3529 53.5002 7.96194L53.5021 7.95996Z" stroke="#2977EC" stroke-width="0.990712" stroke-miterlimit="10"/>
<path d="M31.1844 4.05506C29.2139 3.33877 27.2077 4.82286 27.1948 6.81023C27.1928 6.99153 27.2077 7.1758 27.2414 7.36305L30.7178 27.0792C30.8892 28.0481 31.2974 28.8833 31.8621 29.558C33.6364 31.6721 36.9543 32.1923 39.3172 30.2099L39.2993 30.1593C37.5705 31.1401 35.281 30.1464 34.9174 28.0808L31.6798 9.71698C31.5738 9.11562 32.1583 8.6262 32.7319 8.83425L35.7417 9.92998L46.4919 13.8423L48.9449 11.7836C49.4125 11.3913 49.2798 10.6403 48.7062 10.4313L31.1844 4.05308V4.05506Z" stroke="#2977EC" stroke-width="0.990712" stroke-miterlimit="10"/>
</g>
<path d="M8.55121 43.5809H6.56011C6.4748 43.5809 6.40039 43.5228 6.38405 43.4393C6.25155 42.7732 5.86132 42.3394 5.14075 42.3394C4.60531 42.3394 4.23867 42.6008 4.23867 43.1489C4.23867 43.697 4.65613 44.0764 6.14628 44.4303C8.13375 44.9004 8.94326 45.8932 8.94326 47.2799C8.94326 49.0841 7.21897 49.9989 5.40211 49.9989C3.18958 49.997 1.67584 49.144 1.44533 47.2563C1.43262 47.1492 1.51974 47.0567 1.62683 47.0567H3.6379C3.71957 47.0567 3.78854 47.1148 3.81032 47.1946C4.01361 47.946 4.66884 48.2728 5.33496 48.2728C6.00108 48.2728 6.48569 47.9333 6.48569 47.436C6.48569 46.9659 6.14628 46.5612 5.03548 46.2853C2.98267 45.7771 1.78111 45.1364 1.78111 43.3322C1.78111 41.5281 3.40194 40.6133 5.19157 40.6133C7.47126 40.6133 8.47861 41.8021 8.7309 43.374C8.74905 43.4829 8.66193 43.5809 8.55121 43.5809Z" fill="#2977EC"/>
<path d="M13.9671 42.8359C13.7747 42.8359 13.644 43.0283 13.7148 43.2062C14.1903 44.3951 14.8855 46.2337 14.8855 46.8181C14.8855 47.7039 14.1685 48.4226 13.281 48.4226C12.3934 48.4226 11.6783 47.7039 11.6783 46.8181C11.6783 46.2355 12.3734 44.3951 12.8472 43.2062C12.918 43.0283 12.7873 42.8359 12.5949 42.8359H10.0121C9.86143 42.8359 9.74164 42.9575 9.74164 43.1064V46.9143C9.74164 47.477 9.75434 47.8817 9.80698 48.2339C9.96307 49.1886 10.8397 49.9981 12.2773 49.9981C12.8907 49.9981 13.3699 49.8674 13.7892 49.626C13.8255 49.6042 13.8582 49.5752 13.8817 49.5389L13.9761 49.3955C14.125 49.1704 14.4735 49.2757 14.4735 49.5443C14.4735 49.695 14.5951 49.8166 14.7439 49.8166H16.5535C16.7041 49.8166 16.8239 49.695 16.8239 49.5461V43.1064C16.8239 42.9557 16.7023 42.8359 16.5535 42.8359H13.9689H13.9671Z" fill="#2977EC"/>
<path d="M44.01 42.8359C43.8176 42.8359 43.6869 43.0283 43.7577 43.2062C44.2333 44.3951 44.9284 46.2337 44.9284 46.8181C44.9284 47.7039 44.2115 48.4226 43.3239 48.4226C42.4364 48.4226 41.7213 47.7039 41.7213 46.8181C41.7213 46.2355 42.4164 44.3951 42.8901 43.2062C42.9609 43.0283 42.8302 42.8359 42.6379 42.8359H40.055C39.9044 42.8359 39.7846 42.9575 39.7846 43.1064V46.9143C39.7846 47.477 39.7973 47.8817 39.8499 48.2339C40.006 49.1886 40.8827 49.9981 42.3202 49.9981C42.9337 49.9981 43.4129 49.8674 43.8321 49.626C43.8685 49.6042 43.9011 49.5752 43.9247 49.5389L44.0191 49.3955C44.1679 49.1704 44.5164 49.2757 44.5164 49.5443C44.5164 49.695 44.638 49.8166 44.7869 49.8166H46.5965C46.7471 49.8166 46.8669 49.695 46.8669 49.5461V43.1064C46.8669 42.9557 46.7453 42.8359 46.5965 42.8359H44.0118H44.01Z" fill="#2977EC"/>
<path d="M20.6248 41.1507C20.6248 41.8568 19.4087 42.6645 19.4087 42.6645C19.4087 42.6645 18.1926 41.8568 18.1926 41.1507C18.1926 40.4447 18.6772 40 19.4087 40C20.1402 40 20.6248 40.4447 20.6248 41.1507ZM18.2326 49.2712V43.3814C18.2326 43.0801 18.4758 42.8369 18.7771 42.8369H20.0403C20.3416 42.8369 20.5849 43.0801 20.5849 43.3814V49.2712C20.5849 49.5725 20.3416 49.8157 20.0403 49.8157H18.7771C18.4758 49.8157 18.2326 49.5725 18.2326 49.2712Z" fill="#2977EC"/>
<path d="M30.7147 45.1902C30.7147 48.0126 28.9904 49.53 26.8976 49.7642C26.4402 49.8168 26.2315 49.8168 25.7469 49.8168H22.8809C22.5796 49.8168 22.3364 49.5736 22.3364 49.2723V41.3424C22.3364 41.0411 22.5796 40.7979 22.8809 40.7979H25.7469C26.2315 40.7979 26.4402 40.7979 26.8976 40.8505C28.9886 41.0864 30.7147 42.366 30.7147 45.1902ZM28.2571 45.2302C28.2571 43.6221 27.4476 42.7599 26.2714 42.6546C25.9701 42.6292 25.7614 42.6292 25.422 42.6292H25.235C24.9338 42.6292 24.6905 42.8724 24.6905 43.1737V47.4427C24.6905 47.744 24.9338 47.9872 25.235 47.9872H25.422C25.7614 47.9872 25.9701 47.9872 26.2714 47.9618C27.4476 47.8565 28.2571 46.8383 28.2571 45.2302Z" fill="#2977EC"/>
<path d="M38.8951 46.3261C38.8951 48.5604 37.4322 49.998 35.1434 49.998C32.8546 49.998 31.3917 48.5604 31.3917 46.3261C31.3917 44.0918 32.8546 42.6543 35.1434 42.6543C37.4322 42.6543 38.8951 44.0791 38.8951 46.3261ZM36.4902 46.3261C36.4902 44.9285 35.9801 44.2479 35.1434 44.2479C34.3067 44.2479 33.7967 44.9267 33.7967 46.3261C33.7967 47.7255 34.3067 48.4043 35.1434 48.4043C35.9801 48.4043 36.4902 47.711 36.4902 46.3261Z" fill="#2977EC"/>
<path d="M56.1326 47.0979C56.1326 48.784 54.7604 49.6208 53.5444 49.7642C53.087 49.8168 52.7857 49.8168 52.2121 49.8168H49.1629C48.8616 49.8168 48.6183 49.5736 48.6183 49.2723V41.3424C48.6183 41.0411 48.8616 40.7979 49.1629 40.7979H52.3174C52.8002 40.7979 53.0107 40.7979 53.4681 40.8505C54.9583 41.0338 55.795 41.974 55.795 43.1501C55.795 43.6747 55.619 44.1194 55.2632 44.4552C55.0127 44.6893 55.0182 45.0959 55.2977 45.2955C55.8676 45.7003 56.1362 46.3119 56.1362 47.0979H56.1326ZM50.9706 43.809C50.9706 44.1103 51.2139 44.3535 51.5152 44.3535H52.0288C52.2375 44.3535 52.4336 44.3408 52.6042 44.3136C53.0362 44.2482 53.3356 44.0268 53.3356 43.4896C53.3356 42.9523 53.0616 42.7309 52.6169 42.6655C52.4463 42.6401 52.2375 42.6256 52.0288 42.6256H51.5152C51.2139 42.6256 50.9706 42.8688 50.9706 43.1701V43.8054V43.809ZM53.6769 47.0198C53.6769 46.419 53.2449 46.105 52.7621 46.0651C52.5915 46.0524 52.3827 46.0524 52.174 46.0524H51.517C51.2157 46.0524 50.9725 46.2956 50.9725 46.5969V47.4427C50.9725 47.744 51.2157 47.9872 51.517 47.9872H52.2394C52.4481 47.9872 52.6568 47.9872 52.8274 47.9745C53.2449 47.9491 53.6769 47.6079 53.6769 47.0198Z" fill="#2977EC"/>
<path d="M60.8481 49.4663C60.8318 49.5062 60.8027 49.5425 60.7664 49.5643C60.2818 49.8547 59.7137 49.9999 59.0984 49.9999C57.9477 49.9999 56.8641 49.2811 56.8641 47.9344C56.8641 46.4442 58.2762 45.5295 60.6412 45.5295H61.0859V45.4242C61.0859 45.2808 61.0859 45.1374 61.0605 44.9142C61.0205 44.562 60.7337 44.248 60.2237 44.248C59.7137 44.248 59.4215 44.5384 59.3398 45.043C59.3253 45.1356 59.2436 45.2028 59.151 45.2046L57.3051 45.2155C57.189 45.2155 57.1 45.1156 57.1109 45.0013C57.2452 43.5021 58.6428 42.6562 60.329 42.6562C62.5379 42.6562 63.2948 43.6364 63.4 44.9051C63.4254 45.2572 63.44 45.6638 63.44 46.0939V48.0542C63.44 48.5261 63.4618 48.9544 63.5416 49.6006C63.5561 49.7168 63.4654 49.8184 63.3492 49.8184H61.4362C61.34 49.8184 61.2583 49.7494 61.2438 49.6532L61.222 49.5098C61.1911 49.3138 60.9225 49.2848 60.8499 49.4681L60.8481 49.4663ZM61.084 47.3209V47.0468C61.084 46.9416 60.9987 46.8563 60.8935 46.8526C59.9351 46.82 59.2672 47.1013 59.2672 47.7511C59.2672 48.1685 59.5939 48.4045 60.064 48.4045C60.5341 48.4045 61.084 48.0524 61.084 47.3191V47.3209Z" fill="#2977EC"/>
<path d="M69.9196 44.8759H68.7126C68.5021 44.8759 68.3206 44.7452 68.2316 44.5528C68.1009 44.2715 67.8904 44.1172 67.5764 44.1172C67.2624 44.1172 67.0137 44.3259 67.0137 44.6272C67.0137 45.0193 67.3277 45.2807 68.66 45.6074C69.9269 45.9214 70.8289 46.4695 70.8289 47.8163C70.8289 49.3064 69.4296 49.9998 67.7452 49.9998C66.1915 49.9998 65.0426 49.4734 64.5779 48.4189C64.4182 48.0559 64.6778 47.6475 65.0753 47.6475H66.3149C66.5237 47.6475 66.707 47.7691 66.8032 47.9542C66.9938 48.3136 67.3386 48.5368 67.7325 48.5368C68.1499 48.5368 68.4767 48.3662 68.4767 48.0014C68.4767 47.5567 68.032 47.3081 66.7905 47.0213C65.4582 46.7073 64.6596 46.0938 64.6596 44.9031C64.6596 43.5183 65.8612 42.6543 67.718 42.6543C69.072 42.6543 69.9813 43.2333 70.4042 44.0864C70.5839 44.4494 70.3207 44.8759 69.916 44.8759H69.9196Z" fill="#2977EC"/>
<path d="M78.8315 45.8692V49.492C78.8315 49.6717 78.6863 49.8169 78.5066 49.8169H76.8023C76.6226 49.8169 76.4774 49.6717 76.4774 49.492V46.2612C76.4774 46.0398 76.4774 45.6604 76.452 45.3065C76.3994 44.6404 76.0345 44.2483 75.3285 44.2483C74.6224 44.2483 74.0997 44.9417 74.0997 46.5226V49.492C74.0997 49.6717 73.9545 49.8169 73.7748 49.8169H72.0705C71.8908 49.8169 71.7456 49.6717 71.7456 49.492V40.4694C71.7456 40.2897 71.8908 40.1445 72.0705 40.1445H73.7748C73.9545 40.1445 74.0997 40.2897 74.0997 40.4694V42.9252C74.0997 43.2392 74.5008 43.3699 74.686 43.1158C74.7132 43.0795 74.7477 43.0468 74.7876 43.0232C75.2051 42.7836 75.6842 42.6529 76.2959 42.6529C77.7334 42.6529 78.5829 43.3317 78.7662 44.5478C78.8188 44.8999 78.8315 45.3065 78.8315 45.8674V45.8692Z" fill="#2977EC"/>
<path d="M82.5559 41.1507C82.5559 41.8568 81.3399 42.6645 81.3399 42.6645C81.3399 42.6645 80.1238 41.8568 80.1238 41.1507C80.1238 40.4447 80.6084 40 81.3399 40C82.0713 40 82.5559 40.4447 82.5559 41.1507ZM80.1637 49.2712V43.3814C80.1637 43.0801 80.4069 42.8369 80.7082 42.8369H81.9715C82.2728 42.8369 82.516 43.0801 82.516 43.3814V49.2712C82.516 49.5725 82.2728 49.8157 81.9715 49.8157H80.7082C80.4069 49.8157 80.1637 49.5725 80.1637 49.2712Z" fill="#2977EC"/>
<defs>
<clipPath id="clip0_453_4269">
<rect width="31.0093" height="32" fill="white" transform="translate(26.4954)"/>
</clipPath>
</defs>
</svg>
